<svg width="169" height="73" viewBox="0 0 169 73" fill="none" xmlns="http://www.w3.org/2000/svg">
    <path d="M64.0918 30.3496C64.0918 28.9785 64.4668 27.8125 65.2168 26.8516C65.9785 25.8906 67.0156 25.1055 68.3281 24.4961C69.6406 23.875 71.1699 23.4238 72.916 23.1426C74.6621 22.8613 76.5312 22.7207 78.5234 22.7207C79.4727 22.7207 80.3984 22.7324 81.3008 22.7559C82.2031 22.7676 83.0234 22.791 83.7617 22.8262C84.5117 22.8613 85.1562 22.9023 85.6953 22.9492C86.2344 22.9961 86.627 23.0488 86.873 23.1074C87.1074 23.166 87.2949 23.2305 87.4355 23.3008C87.5762 23.3711 87.6816 23.4531 87.752 23.5469C87.8223 23.6406 87.8691 23.752 87.8926 23.8809C87.916 23.998 87.9277 24.1387 87.9277 24.3027C87.9277 24.4434 87.9102 24.6016 87.875 24.7773C87.8398 24.9414 87.7871 25.0996 87.7168 25.252C87.6465 25.3926 87.5586 25.5156 87.4531 25.6211C87.3477 25.7266 87.2188 25.7793 87.0664 25.7793C86.9727 25.7793 86.8672 25.7383 86.75 25.6562C86.6445 25.5742 86.4863 25.4688 86.2754 25.3398C86.0762 25.2109 85.8008 25.0762 85.4492 24.9355C85.1094 24.7949 84.6465 24.6602 84.0605 24.5312C83.4863 24.4023 82.7656 24.2969 81.8984 24.2148C81.043 24.1328 80.0059 24.0918 78.7871 24.0918V35.3594H86.082V36.9062H78.7871V43.7793C78.7871 44.3301 78.8691 44.8047 79.0332 45.2031C79.1973 45.5898 79.4316 45.9121 79.7363 46.1699C80.041 46.4277 80.4043 46.6152 80.8262 46.7324C81.2598 46.8496 81.7402 46.9082 82.2676 46.9082C82.8652 46.9082 83.4629 46.8496 84.0605 46.7324C84.6582 46.6035 85.2207 46.4453 85.748 46.2578C86.2871 46.0703 86.7734 45.8594 87.207 45.625C87.6523 45.3906 88.0098 45.1621 88.2793 44.9395L88.9648 45.6953C88.6719 45.9297 88.2793 46.252 87.7871 46.6621C87.2949 47.0605 86.6914 47.4531 85.9766 47.8398C85.2734 48.2266 84.4473 48.5664 83.498 48.8594C82.5605 49.1406 81.4941 49.2812 80.2988 49.2812C79.9004 49.2812 79.4434 49.2578 78.9277 49.2109C78.4238 49.1758 77.9023 49.0996 77.3633 48.9824C76.8242 48.8535 76.291 48.6719 75.7637 48.4375C75.248 48.1914 74.7852 47.8691 74.375 47.4707C73.9766 47.0723 73.6484 46.5859 73.3906 46.0117C73.1445 45.4258 73.0215 44.7285 73.0215 43.9199V36.9062H70.2793V35.3594H73.0215V24.3027C72.6465 24.3379 72.2129 24.4082 71.7207 24.5137C71.2402 24.6074 70.7422 24.748 70.2266 24.9355C69.7227 25.1113 69.2246 25.3223 68.7324 25.5684C68.2402 25.8145 67.8008 26.1016 67.4141 26.4297C67.0273 26.7578 66.7109 27.127 66.4648 27.5371C66.2305 27.9355 66.1133 28.3691 66.1133 28.8379C66.1133 29.2129 66.1602 29.5117 66.2539 29.7344C66.3594 29.957 66.4766 30.127 66.6055 30.2441C66.7344 30.3496 66.8633 30.4199 66.9922 30.4551C67.1328 30.4785 67.2324 30.4902 67.291 30.4902C67.584 30.4902 67.8242 30.4434 68.0117 30.3496C68.1992 30.2441 68.3691 30.1387 68.5215 30.0332C68.6738 29.916 68.8145 29.8105 68.9434 29.7168C69.084 29.6113 69.2422 29.5586 69.418 29.5586C69.5586 29.5586 69.7051 29.5938 69.8574 29.6641C70.0215 29.7227 70.168 29.8223 70.2969 29.9629C70.4375 30.1035 70.5547 30.291 70.6484 30.5254C70.7422 30.748 70.7891 31.0234 70.7891 31.3516C70.7891 31.8203 70.6953 32.2305 70.5078 32.582C70.332 32.9219 70.0977 33.2031 69.8047 33.4258C69.5234 33.6484 69.1953 33.8184 68.8203 33.9355C68.457 34.041 68.0938 34.0938 67.7305 34.0938C67.168 34.0938 66.6582 34 66.2012 33.8125C65.7559 33.6133 65.375 33.3438 65.0586 33.0039C64.7422 32.6641 64.502 32.2715 64.3379 31.8262C64.1738 31.3691 64.0918 30.877 64.0918 30.3496ZM90.7754 37.7324H99.7754V41.9863H90.7754V37.7324ZM109.268 51.5488C109.736 51.5488 110.199 51.4609 110.656 51.2852C111.113 51.1211 111.518 50.8398 111.869 50.4414C112.232 50.0547 112.525 49.5449 112.748 48.9121C112.971 48.2793 113.082 47.5059 113.082 46.5918C113.082 45.6074 112.836 44.6523 112.344 43.7266C111.863 42.8008 111.254 41.8926 110.516 41.002C109.789 40.0996 108.998 39.209 108.143 38.3301C107.299 37.4395 106.508 36.5371 105.77 35.623C105.043 34.6973 104.434 33.748 103.941 32.7754C103.461 31.791 103.221 30.7656 103.221 29.6992C103.221 28.6328 103.414 27.6719 103.801 26.8164C104.199 25.9492 104.732 25.2168 105.4 24.6191C106.08 24.0098 106.865 23.541 107.756 23.2129C108.658 22.8848 109.619 22.7207 110.639 22.7207C111.729 22.7207 112.695 22.8379 113.539 23.0723C114.395 23.2949 115.115 23.6055 115.701 24.0039C116.299 24.3906 116.75 24.8535 117.055 25.3926C117.359 25.9199 117.512 26.4824 117.512 27.0801C117.512 27.3613 117.471 27.6543 117.389 27.959C117.307 28.252 117.178 28.5215 117.002 28.7676C116.826 29.0137 116.604 29.2188 116.334 29.3828C116.064 29.5469 115.748 29.6289 115.385 29.6289C114.951 29.6289 114.629 29.5 114.418 29.2422C114.219 28.9727 114.066 28.6445 113.961 28.2578C113.867 27.8711 113.785 27.4492 113.715 26.9922C113.645 26.5234 113.533 26.0957 113.381 25.709C113.229 25.3223 113 25 112.695 24.7422C112.391 24.4727 111.945 24.3379 111.359 24.3379C111.043 24.3379 110.727 24.4082 110.41 24.5488C110.105 24.6895 109.824 24.9062 109.566 25.1992C109.32 25.4805 109.121 25.8438 108.969 26.2891C108.816 26.7344 108.74 27.2617 108.74 27.8711C108.74 28.5742 108.887 29.2598 109.18 29.9277C109.473 30.5957 109.859 31.2578 110.34 31.9141C110.82 32.5586 111.365 33.209 111.975 33.8652C112.596 34.5098 113.223 35.166 113.855 35.834C114.5 36.4902 115.127 37.1699 115.736 37.873C116.357 38.5645 116.908 39.2852 117.389 40.0352C117.869 40.7852 118.256 41.5703 118.549 42.3906C118.842 43.2109 118.988 44.0723 118.988 44.9746C118.988 46.2988 118.73 47.4824 118.215 48.5254C117.711 49.5566 117.02 50.4238 116.141 51.127C115.273 51.8418 114.254 52.3867 113.082 52.7617C111.91 53.1367 110.662 53.3242 109.338 53.3242C108.143 53.3242 107.082 53.1719 106.156 52.8672C105.242 52.5742 104.469 52.1816 103.836 51.6895C103.203 51.1973 102.723 50.6348 102.395 50.002C102.078 49.3809 101.92 48.7363 101.92 48.0684C101.92 47.7871 101.961 47.4883 102.043 47.1719C102.137 46.8438 102.266 46.5449 102.43 46.2754C102.605 46.0059 102.822 45.7832 103.08 45.6074C103.338 45.4199 103.637 45.3262 103.977 45.3262C104.328 45.3262 104.609 45.4141 104.82 45.5898C105.043 45.7656 105.219 46 105.348 46.293C105.477 46.5859 105.582 46.9199 105.664 47.2949C105.746 47.6699 105.834 48.0508 105.928 48.4375C106.021 48.8242 106.139 49.2051 106.279 49.5801C106.42 49.9551 106.613 50.2891 106.859 50.582C107.105 50.875 107.422 51.1094 107.809 51.2852C108.195 51.4609 108.682 51.5488 109.268 51.5488ZM127.936 47.418C127.936 47.5703 127.906 47.7578 127.848 47.9805C127.801 48.1914 127.678 48.3965 127.479 48.5957C127.291 48.7832 127.016 48.9414 126.652 49.0703C126.289 49.2109 125.797 49.2812 125.176 49.2812C124.555 49.2812 124.068 49.2051 123.717 49.0527C123.365 48.9121 123.102 48.7422 122.926 48.543C122.75 48.3438 122.639 48.1387 122.592 47.9277C122.557 47.7168 122.539 47.5469 122.539 47.418V33.8477C122.539 33.5078 122.457 33.2148 122.293 32.9688C122.141 32.7109 121.877 32.582 121.502 32.582C121.303 32.582 121.133 32.6172 120.992 32.6875C120.852 32.7578 120.699 32.8574 120.535 32.9863L120.166 32.5469C120.436 32.3242 120.734 32.1074 121.062 31.8965C121.402 31.6738 121.766 31.4805 122.152 31.3164C122.539 31.1523 122.955 31.0176 123.4 30.9121C123.846 30.8066 124.314 30.7539 124.807 30.7539C125.568 30.7539 126.16 30.8594 126.582 31.0703C127.004 31.2695 127.314 31.5215 127.514 31.8262C127.713 32.1191 127.83 32.4355 127.865 32.7754C127.912 33.1152 127.936 33.4141 127.936 33.6719V47.418ZM121.994 26.7461C121.994 26.418 122.064 26.1074 122.205 25.8145C122.357 25.5098 122.562 25.2461 122.82 25.0234C123.09 24.8008 123.395 24.625 123.734 24.4961C124.086 24.3672 124.467 24.3027 124.877 24.3027C125.275 24.3027 125.645 24.3672 125.984 24.4961C126.336 24.625 126.641 24.8008 126.898 25.0234C127.156 25.2461 127.355 25.5098 127.496 25.8145C127.648 26.1074 127.725 26.418 127.725 26.7461C127.725 27.0859 127.648 27.4023 127.496 27.6953C127.355 27.9883 127.156 28.2461 126.898 28.4688C126.641 28.6797 126.336 28.8496 125.984 28.9785C125.645 29.1074 125.275 29.1719 124.877 29.1719C124.467 29.1719 124.086 29.1074 123.734 28.9785C123.395 28.8496 123.09 28.6797 122.82 28.4688C122.562 28.2461 122.357 27.9883 122.205 27.6953C122.064 27.4023 121.994 27.0859 121.994 26.7461ZM131.627 37.9434C131.627 36.748 131.832 35.7051 132.242 34.8145C132.664 33.9121 133.227 33.1621 133.93 32.5645C134.633 31.9551 135.447 31.5039 136.373 31.2109C137.299 30.9062 138.271 30.7539 139.291 30.7539C140.311 30.7539 141.277 30.8887 142.191 31.1582C143.105 31.4277 143.914 31.8438 144.617 32.4062C144.84 32.0664 145.021 31.709 145.162 31.334C145.303 30.959 145.373 30.584 145.373 30.209C145.373 29.7168 145.238 29.3242 144.969 29.0312C144.711 28.7383 144.377 28.5918 143.967 28.5918V28.082C144.225 28 144.453 27.9297 144.652 27.8711C144.852 27.8008 145.033 27.748 145.197 27.7129C145.361 27.6777 145.525 27.6543 145.689 27.6426C145.854 27.6191 146.035 27.6074 146.234 27.6074C146.785 27.6074 147.207 27.7773 147.5 28.1172C147.793 28.457 147.939 28.9258 147.939 29.5234C147.939 29.875 147.857 30.2266 147.693 30.5781C147.529 30.918 147.324 31.2461 147.078 31.5625C146.832 31.8789 146.557 32.1777 146.252 32.459C145.959 32.7402 145.678 32.9863 145.408 33.1973C145.9 33.7598 146.281 34.416 146.551 35.166C146.82 35.916 146.955 36.7715 146.955 37.7324C146.955 38.9395 146.744 40.0059 146.322 40.9316C145.912 41.8574 145.355 42.6367 144.652 43.2695C143.949 43.9023 143.135 44.3828 142.209 44.7109C141.283 45.0273 140.311 45.1855 139.291 45.1855C138.693 45.1855 138.107 45.1328 137.533 45.0273C136.959 44.9219 136.42 44.7695 135.916 44.5703C135.729 44.7109 135.564 44.8867 135.424 45.0977C135.295 45.3086 135.23 45.543 135.23 45.8008C135.23 46.2344 135.418 46.5566 135.793 46.7676C136.168 46.9785 136.666 47.1309 137.287 47.2246C137.908 47.3184 138.611 47.377 139.396 47.4004C140.182 47.4238 140.984 47.4648 141.805 47.5234C142.637 47.5703 143.445 47.6699 144.23 47.8223C145.016 47.9629 145.719 48.2031 146.34 48.543C146.961 48.8711 147.459 49.3223 147.834 49.8965C148.209 50.4707 148.396 51.2148 148.396 52.1289C148.396 52.7969 148.256 53.3945 147.975 53.9219C147.693 54.4609 147.312 54.9297 146.832 55.3281C146.363 55.7383 145.812 56.084 145.18 56.3652C144.559 56.6582 143.896 56.8926 143.193 57.0684C142.502 57.2559 141.793 57.3906 141.066 57.4727C140.352 57.5547 139.666 57.5957 139.01 57.5957C137.814 57.5957 136.736 57.5312 135.775 57.4023C134.826 57.2852 134.018 57.0977 133.35 56.8398C132.682 56.582 132.166 56.248 131.803 55.8379C131.439 55.4277 131.258 54.9355 131.258 54.3613C131.258 53.9512 131.352 53.5703 131.539 53.2188C131.727 52.8789 131.973 52.5625 132.277 52.2695C132.594 51.9883 132.945 51.7305 133.332 51.4961C133.719 51.2734 134.111 51.0625 134.51 50.8633C133.924 50.6172 133.432 50.2422 133.033 49.7383C132.646 49.2461 132.453 48.5898 132.453 47.7695C132.453 47.3359 132.529 46.9375 132.682 46.5742C132.834 46.1992 133.027 45.8594 133.262 45.5547C133.508 45.2383 133.771 44.957 134.053 44.7109C134.346 44.4531 134.627 44.2363 134.896 44.0605C134.416 43.7793 133.971 43.4395 133.561 43.041C133.162 42.6309 132.816 42.1738 132.523 41.6699C132.242 41.1543 132.02 40.5859 131.855 39.9648C131.703 39.3438 131.627 38.6699 131.627 37.9434ZM141.664 37.8027C141.664 37.123 141.629 36.4609 141.559 35.8164C141.488 35.1719 141.365 34.5977 141.189 34.0938C141.014 33.5898 140.773 33.1855 140.469 32.8809C140.164 32.5645 139.771 32.4062 139.291 32.4062C138.811 32.4062 138.418 32.5703 138.113 32.8984C137.809 33.2148 137.568 33.6367 137.393 34.1641C137.217 34.6797 137.094 35.2715 137.023 35.9395C136.953 36.5957 136.918 37.2637 136.918 37.9434C136.918 38.6348 136.953 39.3145 137.023 39.9824C137.094 40.6504 137.217 41.248 137.393 41.7754C137.568 42.3027 137.809 42.7305 138.113 43.0586C138.418 43.375 138.811 43.5332 139.291 43.5332C139.771 43.5332 140.164 43.3633 140.469 43.0234C140.773 42.6836 141.014 42.2441 141.189 41.7051C141.365 41.1543 141.488 40.5391 141.559 39.8594C141.629 39.1797 141.664 38.4941 141.664 37.8027ZM144.336 53.5352C144.336 53.1602 144.189 52.8496 143.896 52.6035C143.604 52.3691 143.217 52.1758 142.736 52.0234C142.268 51.8828 141.729 51.7715 141.119 51.6895C140.521 51.6191 139.912 51.5605 139.291 51.5137C138.67 51.4785 138.066 51.4434 137.48 51.4082C136.895 51.373 136.385 51.3262 135.951 51.2676C135.705 51.4434 135.465 51.6309 135.23 51.8301C135.008 52.041 134.809 52.2578 134.633 52.4805C134.469 52.7148 134.334 52.9551 134.229 53.2012C134.123 53.459 134.07 53.7168 134.07 53.9746C134.07 54.4199 134.199 54.7891 134.457 55.082C134.715 55.3867 135.061 55.627 135.494 55.8027C135.939 55.9785 136.449 56.1016 137.023 56.1719C137.609 56.2422 138.225 56.2773 138.869 56.2773C139.725 56.2773 140.492 56.2012 141.172 56.0488C141.852 55.9082 142.426 55.709 142.895 55.4512C143.363 55.2051 143.721 54.918 143.967 54.5898C144.213 54.2617 144.336 53.9102 144.336 53.5352ZM161.07 40.2461C161.07 38.7695 161 37.5918 160.859 36.7129C160.73 35.8223 160.555 35.1484 160.332 34.6914C160.109 34.2227 159.863 33.918 159.594 33.7773C159.324 33.625 159.049 33.5488 158.768 33.5488C158.428 33.5488 158.123 33.6426 157.854 33.8301C157.596 34.0059 157.367 34.2109 157.168 34.4453C156.98 34.6797 156.816 34.9141 156.676 35.1484C156.547 35.3828 156.436 35.5586 156.342 35.6758V47.418C156.342 47.5703 156.318 47.7578 156.271 47.9805C156.225 48.1914 156.107 48.3965 155.92 48.5957C155.744 48.7832 155.475 48.9414 155.111 49.0703C154.76 49.2109 154.273 49.2812 153.652 49.2812C153.031 49.2812 152.539 49.2051 152.176 49.0527C151.824 48.9121 151.555 48.7422 151.367 48.543C151.18 48.3438 151.062 48.1387 151.016 47.9277C150.969 47.7168 150.945 47.5469 150.945 47.418V33.8477C150.945 33.5078 150.863 33.2148 150.699 32.9688C150.547 32.7109 150.283 32.582 149.908 32.582C149.709 32.582 149.539 32.6172 149.398 32.6875C149.258 32.7578 149.105 32.8574 148.941 32.9863L148.572 32.5469C148.842 32.3242 149.141 32.1074 149.469 31.8965C149.809 31.6738 150.172 31.4805 150.559 31.3164C150.945 31.1523 151.361 31.0176 151.807 30.9121C152.252 30.8066 152.721 30.7539 153.213 30.7539C153.975 30.7539 154.566 30.8828 154.988 31.1406C155.41 31.3867 155.721 31.6855 155.92 32.0371C156.119 32.3887 156.236 32.7578 156.271 33.1445C156.318 33.5195 156.342 33.8359 156.342 34.0938C156.775 33.4727 157.268 32.916 157.818 32.4238C158.041 32.2129 158.287 32.0078 158.557 31.8086C158.838 31.6094 159.131 31.4336 159.436 31.2812C159.752 31.1172 160.08 30.9883 160.42 30.8945C160.771 30.8008 161.129 30.7539 161.492 30.7539C162.289 30.7539 162.992 30.9062 163.602 31.2109C164.223 31.5156 164.744 32.0254 165.166 32.7402C165.588 33.4551 165.91 34.4043 166.133 35.5879C166.355 36.7598 166.467 38.2188 166.467 39.9648C166.467 41.6641 166.314 43.1406 166.01 44.3945C165.705 45.6484 165.307 46.7148 164.814 47.5938C164.322 48.4727 163.766 49.1875 163.145 49.7383C162.523 50.3008 161.896 50.7402 161.264 51.0566C160.631 51.373 160.021 51.5898 159.436 51.707C158.861 51.8359 158.363 51.9062 157.941 51.918L157.748 51.1973C158.1 51.1152 158.422 50.9863 158.715 50.8105C159.02 50.6348 159.295 50.377 159.541 50.0371C159.787 49.6973 160.004 49.2695 160.191 48.7539C160.379 48.2266 160.537 47.5703 160.666 46.7852C160.807 46 160.906 45.0742 160.965 44.0078C161.035 42.9297 161.07 41.6758 161.07 40.2461Z"
          fill="#E5E5E5"/>
    <path d="M0.504105 49.3063C0.442856 50.1324 1.06294 50.8518 1.8891 50.9131C2.71526 50.9743 3.43464 50.3542 3.49589 49.5281L0.504105 49.3063ZM7.70712 9.57632L9.11776 10.0863L7.70712 9.57632ZM8.51987 8.5252L9.50859 7.39718L8.51987 8.5252ZM10.7413 19.2389L9.25685 19.4542L10.7413 19.2389ZM13.0531 34.9043L14.5188 34.5854L13.0531 34.9043ZM16.0872 36.6139L17.0435 37.7696L16.0872 36.6139ZM22.1736 30.4085L22.724 31.8039L22.1736 30.4085ZM27.8627 34.3217L26.9192 35.4879L27.8627 34.3217ZM37.6154 31.637L37.8314 33.1213L37.6154 31.637ZM45.4536 33.2833L45.0539 34.729L45.4536 33.2833ZM65.3154 38.0812C65.9789 37.5851 66.1146 36.6451 65.6185 35.9816L57.5344 25.1697C57.0384 24.5062 56.0983 24.3705 55.4349 24.8666C54.7714 25.3627 54.6357 26.3027 55.1318 26.9661L62.3176 36.5767L52.707 43.7626C52.0435 44.2587 51.9078 45.1987 52.4039 45.8621C52.9 46.5256 53.84 46.6613 54.5034 46.1652L65.3154 38.0812ZM3.49589 49.5281C4.49281 36.0812 4.51847 22.8075 9.11776 10.0863L6.29649 9.06631C1.51596 22.2888 1.47879 36.1593 0.504105 49.3063L3.49589 49.5281ZM9.11776 10.0863C9.14712 10.0051 9.16601 9.93126 9.17121 9.91123C9.17973 9.87837 9.18799 9.84409 9.19402 9.81899C9.20778 9.76165 9.21936 9.71253 9.2339 9.65599C9.26466 9.53631 9.29188 9.4518 9.31178 9.40507C9.32112 9.38313 9.31532 9.40216 9.28727 9.44414C9.26455 9.47814 9.17859 9.60173 9.00416 9.71782C8.80339 9.85144 8.49946 9.962 8.14284 9.91656C7.8152 9.87482 7.60974 9.72211 7.53115 9.65322L9.50859 7.39718C9.29525 7.21018 8.96502 6.99706 8.52198 6.94062C8.04996 6.88048 7.64002 7.02204 7.34201 7.22037C6.85224 7.54633 6.63105 8.04312 6.5515 8.22998C6.44234 8.48639 6.37082 8.7439 6.32835 8.90914C6.30626 8.99507 6.2876 9.07413 6.2769 9.11871C6.25422 9.21318 6.26737 9.14684 6.29649 9.06631L9.11776 10.0863ZM7.53115 9.65322C8.31924 10.344 8.75905 11.7823 8.94688 13.8464C9.03565 14.8219 9.06112 15.8174 9.08876 16.7858C9.11531 17.7165 9.1442 18.6775 9.25685 19.4542L12.2258 19.0236C12.1431 18.4536 12.1155 17.6814 12.0875 16.7002C12.0606 15.7566 12.0334 14.6613 11.9345 13.5745C11.747 11.5141 11.2714 8.94233 9.50859 7.39718L7.53115 9.65322ZM9.25685 19.4542C9.99339 24.5328 10.4473 29.9823 11.5873 35.2231L14.5188 34.5854C13.4062 29.4711 13 24.3617 12.2258 19.0236L9.25685 19.4542ZM11.5873 35.2231C11.6641 35.5761 11.7661 36.0714 11.91 36.5317C12.0478 36.9726 12.2775 37.5693 12.711 38.0517C13.217 38.6149 13.968 38.9771 14.8806 38.8561C15.66 38.7528 16.3823 38.3167 17.0435 37.7696L15.131 35.4582C14.8979 35.6511 14.7244 35.7637 14.6057 35.8263C14.4861 35.8895 14.4508 35.8869 14.4864 35.8821C14.5341 35.8758 14.6345 35.8761 14.7521 35.9229C14.8639 35.9673 14.9254 36.0276 14.9425 36.0467C14.9551 36.0607 14.9359 36.0432 14.8978 35.9647C14.8606 35.8883 14.8185 35.7811 14.7734 35.6367C14.6788 35.3342 14.6079 34.9951 14.5188 34.5854L11.5873 35.2231ZM17.0435 37.7696C17.6524 37.2658 18.1874 36.6433 18.6606 36.0438C19.0767 35.5166 19.6614 34.7182 20.0467 34.222C20.9892 33.0081 21.8106 32.1642 22.724 31.8039L21.6232 29.0132C19.8802 29.7007 18.6285 31.1568 17.6771 32.3822C17.1153 33.1057 16.7978 33.5618 16.3059 34.185C15.8711 34.7357 15.4922 35.1593 15.131 35.4582L17.0435 37.7696ZM22.724 31.8039C22.7351 31.7995 22.8317 31.7516 23.1415 31.8978C23.4701 32.0528 23.8719 32.3537 24.3367 32.7946C24.7926 33.227 25.2309 33.7171 25.6623 34.2001C26.0483 34.6323 26.513 35.1592 26.9192 35.4879L28.8061 33.1556C28.6358 33.0178 28.3622 32.7194 27.8997 32.2016C27.4827 31.7347 26.9625 31.1503 26.4013 30.618C25.8491 30.0943 25.1754 29.5403 24.4217 29.1846C23.6491 28.8201 22.6565 28.6056 21.6232 29.0132L22.724 31.8039ZM26.9192 35.4879C29.1869 37.3225 31.7718 36.2399 33.4629 35.3412C33.924 35.0962 34.3778 34.8316 34.8028 34.5816C35.2369 34.3262 35.6348 34.0897 36.0237 33.8743C36.8327 33.4261 37.4104 33.1826 37.8314 33.1213L37.3993 30.1526C36.3941 30.2989 35.4029 30.7886 34.5699 31.25C34.1378 31.4894 33.6964 31.7519 33.2817 31.9958C32.8579 32.2452 32.4533 32.4804 32.0552 32.692C30.3095 33.6196 29.4442 33.6718 28.8061 33.1556L26.9192 35.4879ZM37.8314 33.1213C38.7081 32.9937 39.8811 33.1818 41.243 33.5551C41.9031 33.7361 42.5616 33.9466 43.2087 34.156C43.8409 34.3606 44.4836 34.5713 45.0539 34.729L45.8534 31.8375C45.3611 31.7014 44.7933 31.5157 44.1324 31.3018C43.4864 31.0927 42.7692 30.8628 42.036 30.6619C40.6114 30.2714 38.9279 29.9301 37.3993 30.1526L37.8314 33.1213ZM45.0539 34.729C51.3815 36.4785 57.6785 37.4226 64.2028 38.3645L64.6315 35.3952C58.0936 34.4514 51.9738 33.5297 45.8534 31.8375L45.0539 34.729Z"
          fill="#E5E5E5"/>
</svg>
