<svg width="173" height="26" viewBox="0 0 173 26" fill="none" xmlns="http://www.w3.org/2000/svg">
<path d="M29.985 10.2493C29.5202 8.82015 28.1985 7.85926 26.6999 7.85926V3.33924C26.6999 2.52404 26.0339 1.858 25.2187 1.858H5.98695C5.17175 1.858 4.50918 2.52404 4.50918 3.33924V15.2897C3.32281 15.0261 1.52937 14.3878 0.852928 12.8302L0.460938 12.8788C0.669073 14.5959 2.34457 16.4934 4.51265 16.7605V22.571C4.51265 23.3862 5.17868 24.0522 5.99041 24.0522H25.2222C26.0374 24.0522 26.7034 23.3862 26.7034 22.571V14.7694C27.0676 14.7694 27.4249 14.7139 27.7718 14.5994C29.5791 14.0097 30.5713 12.0567 29.985 10.2493Z" fill="white"/>
<path d="M27.3112 13.1945C26.2739 13.531 25.1604 12.9621 24.8205 11.9249C24.484 10.8877 25.0529 9.77413 26.0866 9.43417C27.1238 9.09769 28.2374 9.66659 28.5773 10.7038C28.9138 11.741 28.3484 12.8545 27.3112 13.1945Z" fill="#00A3FA"/>
<path d="M22.1871 11.8831C20.5601 12.9237 18.9436 13.6696 17.4762 13.6696C16.0366 13.6696 13.6223 13.2672 13.6223 10.5753H11.8566C11.8566 12.844 11.0171 13.6696 10.4517 13.6696C9.58443 13.6696 9.04675 12.9446 9.04675 9.33688H7.28106C7.28106 11.8449 6.34099 13.9471 5.06789 13.9818C3.10447 14.0303 1.98748 13.4476 1.47754 12.7538L0.679688 12.8509C1.36307 14.405 3.36464 15.4353 5.07829 15.4353C6.22998 15.4353 7.20822 14.8282 7.90547 13.7806C8.35643 14.7415 9.12653 15.4353 10.4482 15.4353C11.3987 15.4353 12.3492 14.8941 12.9632 13.732C13.9275 14.8213 15.4851 15.4353 17.4762 15.4353C19.2315 15.4353 21.0354 14.6652 22.8045 13.5794L22.1871 11.8831Z" fill="#00A3FA"/>
<path d="M37.863 15.3799C37.9185 16.1292 38.2689 16.7397 38.9141 17.2184C39.5593 17.6972 40.3953 17.933 41.4256 17.933C42.3414 17.933 43.0838 17.7596 43.6561 17.4162C44.225 17.0693 44.513 16.6079 44.513 16.0286C44.513 15.543 44.3811 15.1753 44.121 14.9324C43.8573 14.6896 43.507 14.5162 43.0699 14.4121C42.6293 14.3115 41.9529 14.204 41.0371 14.0895C39.7848 13.9403 38.7511 13.7391 37.9359 13.4893C37.1207 13.2361 36.4685 12.8337 35.9724 12.2822C35.4764 11.7306 35.2301 10.9882 35.2301 10.0516C35.2301 9.174 35.4764 8.39002 35.9724 7.71011C36.4685 7.02673 37.1519 6.49946 38.0226 6.12482C38.8933 5.75017 39.8785 5.56285 40.9816 5.56285C42.7958 5.56285 44.2667 5.96524 45.401 6.77003C46.5319 7.57136 47.1459 8.7057 47.2395 10.1626H44.2944C44.2181 9.50702 43.892 8.96934 43.3127 8.5496C42.7334 8.12985 42.0015 7.91825 41.1238 7.91825C40.2462 7.91825 39.535 8.08476 38.9904 8.42472C38.4493 8.76121 38.1787 9.2191 38.1787 9.79841C38.1787 10.2286 38.314 10.5512 38.5846 10.7662C38.8551 10.9813 39.1986 11.1305 39.6079 11.2137C40.0172 11.297 40.6833 11.3976 41.5991 11.5086C42.834 11.6404 43.8712 11.8416 44.7142 12.1122C45.5571 12.3828 46.2301 12.8129 46.7331 13.4026C47.2395 13.9923 47.4928 14.7902 47.4928 15.7997C47.4928 16.6981 47.2291 17.489 46.7088 18.1689C46.185 18.8523 45.4634 19.3727 44.5476 19.7404C43.6318 20.1046 42.6016 20.2885 41.4638 20.2885C39.5385 20.2885 37.981 19.8514 36.7946 18.9841C35.6082 18.1134 34.9942 16.9132 34.9561 15.3799H37.863Z" fill="white"/>
<path d="M52.4978 0.525969C52.8516 0.872862 53.032 1.30648 53.032 1.83029C53.032 2.3541 52.8516 2.79119 52.4978 3.13461C52.1405 3.4815 51.7034 3.65495 51.1796 3.65495C50.6558 3.65495 50.2152 3.4815 49.8614 3.13461C49.5075 2.79119 49.3271 2.3541 49.3271 1.83029C49.3271 1.30648 49.5041 0.872862 49.8614 0.525969C50.2152 0.179076 50.6558 0.00910187 51.1796 0.00910187C51.7034 0.00910187 52.1439 0.182545 52.4978 0.525969Z" fill="white"/>
<path d="M52.6924 5.76048H49.6641V20.1218H52.6924V5.76048Z" fill="white"/>
<path d="M69.3362 5.7606V19.5323C69.3362 21.5512 68.7361 23.1191 67.5393 24.2292C66.3425 25.3427 64.4901 25.8977 61.9855 25.8977C60.0395 25.8977 58.4611 25.4641 57.2435 24.5934C56.0294 23.7227 55.3529 22.4947 55.2246 20.9059H58.3085C58.4958 21.7107 58.9259 22.3317 59.5989 22.7722C60.2719 23.2128 61.1426 23.4313 62.2075 23.4313C64.9549 23.4313 66.3321 22.0958 66.3321 19.4212V17.8221C65.2845 19.3935 63.7235 20.1775 61.6491 20.1775C60.3378 20.1775 59.1722 19.8826 58.142 19.2929C57.1152 18.7032 56.3104 17.8637 55.7311 16.7675C55.1517 15.6713 54.8604 14.3774 54.8604 12.8823C54.8604 11.4427 55.1552 10.1696 55.7449 9.06649C56.3346 7.96337 57.1429 7.10654 58.1697 6.49948C59.1965 5.89242 60.3586 5.58715 61.6491 5.58715C62.7314 5.58715 63.668 5.80223 64.4554 6.23238C65.2394 6.66252 65.8777 7.25224 66.3633 7.99806L66.6998 5.75366H69.3362V5.7606ZM65.1874 16.32C65.954 15.4493 66.3356 14.3219 66.3356 12.9378C66.3356 11.519 65.954 10.3604 65.1874 9.47236C64.4207 8.58431 63.4113 8.14029 62.159 8.14029C60.9067 8.14029 59.8972 8.58084 59.1306 9.45848C58.364 10.3396 57.9824 11.4809 57.9824 12.8823C57.9824 14.2838 58.3674 15.425 59.1306 16.3027C59.8972 17.1803 60.9067 17.6209 62.159 17.6209C63.4078 17.6243 64.4173 17.1907 65.1874 16.32Z" fill="white"/>
<path d="M83.8951 7.16204C84.9705 8.20966 85.5082 9.89209 85.5082 12.2128V20.122H82.452V12.3793C82.452 11.0126 82.1607 9.97534 81.5813 9.26421C81.002 8.55308 80.1521 8.19925 79.0282 8.19925C77.8314 8.19925 76.8913 8.61552 76.208 9.44806C75.5246 10.2806 75.1846 11.4254 75.1846 12.8858V20.122H72.1562V5.76059H74.7926L75.1291 7.63728C76.2149 6.27399 77.7482 5.59061 79.7324 5.59061C81.4322 5.59061 82.8198 6.11442 83.8951 7.16204Z" fill="white"/>
<path d="M102.028 5.7606V20.122H99.364L99.0275 17.9331C98.5245 18.6442 97.8758 19.2166 97.0918 19.6433C96.3044 20.0734 95.3886 20.2885 94.341 20.2885C93.0332 20.2885 91.8642 19.9936 90.8339 19.4039C89.8036 18.8142 89.0023 17.9643 88.4195 16.8508C87.8402 15.7372 87.5488 14.4329 87.5488 12.9378C87.5488 11.4809 87.8437 10.1939 88.4334 9.08037C89.0231 7.96684 89.8314 7.10654 90.8617 6.49948C91.8885 5.89242 93.0471 5.58715 94.3375 5.58715C95.4025 5.58715 96.3322 5.78836 97.1161 6.19075C97.9001 6.59315 98.5349 7.15164 99.024 7.85931L99.3883 5.75714H102.028V5.7606ZM97.8758 16.4172C98.6425 15.5395 99.0275 14.3982 99.0275 12.9968C99.0275 11.5745 98.6425 10.4159 97.8758 9.51746C97.1092 8.619 96.0997 8.17151 94.8475 8.17151C93.5917 8.17151 92.5857 8.61553 91.8191 9.50358C91.0524 10.3916 90.6674 11.5364 90.6674 12.9378C90.6674 14.3601 91.049 15.5152 91.8191 16.4033C92.5857 17.2913 93.5917 17.7354 94.8475 17.7354C96.0997 17.7388 97.1092 17.2983 97.8758 16.4172Z" fill="white"/>
<path d="M104.931 1.74703H107.963V5.75712H111.442V8.42125H107.963V15.9107C107.963 16.4726 108.074 16.8681 108.299 17.104C108.524 17.3364 108.906 17.4544 109.451 17.4544H111.747V20.1219H108.83C107.463 20.1219 106.474 19.8028 105.857 19.168C105.239 18.5332 104.931 17.5515 104.931 16.2229V1.74703Z" fill="white"/>
<path d="M126.06 5.76048V20.1218H123.396L123.06 18.2972C121.974 19.6258 120.496 20.2884 118.626 20.2884C116.94 20.2884 115.577 19.7646 114.529 18.7169C113.482 17.6693 112.958 15.9869 112.958 13.6696V5.76048H115.986V13.3609C115.986 14.7624 116.267 15.8308 116.829 16.5593C117.391 17.2877 118.224 17.652 119.327 17.652C120.486 17.652 121.394 17.2253 122.047 16.3754C122.702 15.5255 123.028 14.3634 123.028 12.8857V5.76048H126.06Z" fill="white"/>
<path d="M136.822 5.76048V8.5946H135.476C134.223 8.5946 133.315 9.00046 132.753 9.81566C132.194 10.6274 131.913 11.6611 131.913 12.9134V20.1253H128.885V5.76395H131.577L131.913 7.92509C132.326 7.25212 132.86 6.72484 133.512 6.33979C134.164 5.95474 135.046 5.76395 136.149 5.76395H136.822V5.76048Z" fill="white"/>
<path d="M138.424 9.08383C139.013 7.9703 139.836 7.11001 140.894 6.50294C141.948 5.89588 143.162 5.59061 144.526 5.59061C145.91 5.59061 147.127 5.8716 148.185 6.43356C149.243 6.99553 150.072 7.78991 150.683 8.81672C151.29 9.84352 151.606 11.0542 151.623 12.4348C151.623 12.8095 151.595 13.1945 151.54 13.5865H140.713V13.753C140.789 15.0053 141.181 15.9974 141.893 16.7259C142.604 17.4544 143.547 17.8186 144.727 17.8186C145.663 17.8186 146.447 17.6001 147.082 17.1595C147.717 16.7224 148.14 16.098 148.345 15.2932H151.373C151.11 16.7536 150.405 17.9504 149.254 18.8836C148.105 19.8202 146.669 20.285 144.949 20.285C143.454 20.285 142.149 19.9797 141.036 19.3727C139.926 18.7656 139.062 17.9123 138.458 16.8057C137.848 15.7025 137.546 14.4225 137.546 12.9621C137.539 11.4913 137.834 10.1974 138.424 9.08383ZM148.536 11.3699C148.404 10.3222 147.988 9.50356 147.287 8.91385C146.586 8.32413 145.701 8.02927 144.637 8.02927C143.644 8.02927 142.791 8.33454 142.07 8.9416C141.348 9.55213 140.935 10.3569 140.821 11.3699H148.536Z" fill="white"/>
<path d="M153.84 0.484192H156.868V20.1218H153.84V0.484192Z" fill="white"/>
<path d="M161.402 5.76048L165.412 16.8402L169.311 5.76048H172.537L166.029 22.3662C165.693 23.2265 165.384 23.8856 165.103 24.3435C164.822 24.8014 164.479 25.1483 164.066 25.3807C163.657 25.6132 163.102 25.7311 162.411 25.7311H159.157V23.067H161.287C161.867 23.067 162.269 22.9768 162.495 22.7999C162.72 22.6229 162.952 22.224 163.195 21.61L163.785 20.2363L158.176 5.76395H161.402V5.76048Z" fill="white"/>
</svg>
