<svg width="142" height="23" viewBox="0 0 142 23" fill="none" xmlns="http://www.w3.org/2000/svg">
    <path d="M31.0656 14.687C31.2096 16.007 32.5056 18.215 35.8896 18.215C38.8656 18.215 40.3056 16.247 40.3056 14.471C40.3056 12.743 39.1536 11.399 36.9456 10.919L35.1696 10.559C34.4496 10.415 33.9936 9.95901 33.9936 9.33501C33.9936 8.61501 34.6896 7.99101 35.6736 7.99101C37.2336 7.99101 37.7376 9.07101 37.8336 9.74301L40.1856 9.07101C39.9936 7.91901 38.9376 5.80701 35.6736 5.80701C33.2496 5.80701 31.3776 7.53501 31.3776 9.57501C31.3776 11.183 32.4576 12.527 34.5216 12.983L36.2496 13.367C37.1856 13.559 37.6176 14.039 37.6176 14.663C37.6176 15.383 37.0176 16.007 35.8656 16.007C34.3776 16.007 33.5856 15.071 33.4896 14.015L31.0656 14.687Z"
          fill="#2D3C4A"/>
    <path d="M44.7463 17.855V6.16701H41.9863V17.855H44.7463ZM41.5543 2.06301C41.5543 3.07101 42.3703 3.86301 43.3543 3.86301C44.3623 3.86301 45.1783 3.07101 45.1783 2.06301C45.1783 1.05501 44.3623 0.239014 43.3543 0.239014C42.3703 0.239014 41.5543 1.05501 41.5543 2.06301Z"
          fill="#2D3C4A"/>
    <path d="M46.4179 18.503C46.7299 20.855 48.8899 22.775 51.9859 22.775C56.3779 22.775 57.9859 19.871 57.9859 16.751V6.16701H55.2979V7.65501C54.7939 6.69501 53.6659 5.95101 51.8419 5.95101C48.6259 5.95101 46.4419 8.51901 46.4419 11.639C46.4419 14.927 48.7219 17.327 51.8419 17.327C53.5459 17.327 54.7219 16.535 55.2259 15.623V16.847C55.2259 19.223 54.1219 20.351 51.9139 20.351C50.3059 20.351 49.1779 19.271 48.9859 17.831L46.4179 18.503ZM52.2979 14.951C50.4739 14.951 49.2499 13.679 49.2499 11.639C49.2499 9.64702 50.5219 8.35101 52.2979 8.35101C54.0259 8.35101 55.2979 9.64702 55.2979 11.639C55.2979 13.655 54.0739 14.951 52.2979 14.951Z"
          fill="#2D3C4A"/>
    <path d="M63.0947 11.111C63.0947 9.57502 63.9347 8.35101 65.5187 8.35101C67.2707 8.35101 67.9187 9.50301 67.9187 10.943V17.855H70.7027V10.463C70.7027 7.89501 69.3347 5.83101 66.4787 5.83101C65.1827 5.83101 63.7907 6.38301 63.0227 7.72701V6.16701H60.3107V17.855H63.0947V11.111Z"
          fill="#2D3C4A"/>
    <path d="M72.2919 14.687C72.2919 16.535 73.8039 18.215 76.2519 18.215C78.1479 18.215 79.2999 17.255 79.8519 16.367C79.8519 17.303 79.9479 17.783 79.9719 17.855H82.5639C82.5399 17.735 82.4199 17.039 82.4199 15.983V10.175C82.4199 7.84701 81.0519 5.80701 77.4519 5.80701C74.5719 5.80701 72.7479 7.60701 72.5319 9.62301L75.0759 10.199C75.1959 9.02301 76.0119 8.08701 77.4759 8.08701C79.0119 8.08701 79.6839 8.87901 79.6839 9.86301C79.6839 10.271 79.4919 10.607 78.8199 10.703L75.8199 11.159C73.8279 11.447 72.2919 12.599 72.2919 14.687ZM76.7799 16.031C75.6759 16.031 75.0759 15.311 75.0759 14.519C75.0759 13.559 75.7719 13.079 76.6359 12.935L79.6839 12.479V13.007C79.6839 15.287 78.3399 16.031 76.7799 16.031Z"
          fill="#2D3C4A"/>
    <path d="M88.1865 2.59101H85.6665V4.34301C85.6665 5.37501 85.1145 6.16701 83.8665 6.16701H83.2665V8.63902H85.4265V14.519C85.4265 16.703 86.7705 17.999 88.9305 17.999C89.9385 17.999 90.4665 17.807 90.6345 17.735V15.431C90.5145 15.455 90.0585 15.527 89.6745 15.527C88.6425 15.527 88.1865 15.095 88.1865 14.063V8.63902H90.6105V6.16701H88.1865V2.59101Z"
          fill="#2D3C4A"/>
    <path d="M100.022 16.559C100.022 17.039 100.07 17.591 100.118 17.855H102.782C102.734 17.423 102.662 16.679 102.662 15.719V6.16701H99.8784V13.079C99.8784 14.615 99.0384 15.695 97.4304 15.695C95.7504 15.695 95.0784 14.471 95.0784 13.031V6.16701H92.2944V13.535C92.2944 16.127 93.9264 18.191 96.7104 18.191C98.0784 18.191 99.4464 17.615 100.022 16.559Z"
          fill="#2D3C4A"/>
    <path d="M112.026 6.09501C111.906 6.07101 111.618 6.02301 111.282 6.02301C109.746 6.02301 108.45 6.76701 107.898 8.03901V6.16701H105.186V17.855H107.97V12.287C107.97 10.103 108.954 8.85501 111.114 8.85501C111.402 8.85501 111.714 8.87901 112.026 8.92701V6.09501Z"
          fill="#2D3C4A"/>
    <path d="M115.097 10.727C115.193 9.47901 116.201 8.13501 117.953 8.13501C119.873 8.13501 120.785 9.35901 120.833 10.727H115.097ZM121.145 13.775C120.761 14.927 119.897 15.815 118.217 15.815C116.489 15.815 115.097 14.543 115.025 12.767H123.569C123.593 12.719 123.641 12.335 123.641 11.879C123.641 8.18301 121.529 5.80701 117.929 5.80701C114.977 5.80701 112.241 8.25502 112.241 11.951C112.241 15.911 115.049 18.215 118.217 18.215C121.025 18.215 122.873 16.559 123.497 14.519L121.145 13.775Z"
          fill="#2D3C4A"/>
    <path d="M128.005 17.855V0.479013H125.221V17.855H128.005Z" fill="#2D3C4A"/>
    <path d="M134.068 22.583L141.508 6.16701H138.556L135.412 13.559L132.052 6.16701H128.908L133.9 16.463L131.092 22.583H134.068Z"
          fill="#2D3C4A"/>
    <path d="M26.0631 9.81561C25.6643 8.58951 24.5305 7.76516 23.2449 7.76516V3.88745C23.2449 3.18809 22.6735 2.6167 21.9741 2.6167H5.47525C4.77589 2.6167 4.20748 3.18809 4.20748 3.88745V14.1397C3.18969 13.9135 1.6511 13.366 1.07079 12.0298L0.734497 12.0714C0.913056 13.5445 2.35046 15.1724 4.21045 15.4015V20.3863C4.21045 21.0857 4.78184 21.6571 5.47822 21.6571H21.9771C22.6765 21.6571 23.2478 21.0857 23.2478 20.3863V13.6933C23.5603 13.6933 23.8669 13.6457 24.1644 13.5475C25.7149 13.0416 26.5661 11.3661 26.0631 9.81561Z"
          fill="#00A3FA"/>
    <path d="M23.7687 12.3422C22.8788 12.6309 21.9235 12.1428 21.6319 11.253C21.3432 10.3632 21.8313 9.4079 22.7181 9.11625C23.608 8.82758 24.5632 9.31564 24.8549 10.2055C25.1436 11.0953 24.6585 12.0506 23.7687 12.3422Z"
          fill="white"/>
    <path d="M19.3731 11.2171C17.9774 12.1099 16.5906 12.7497 15.3317 12.7497C14.0967 12.7497 12.0254 12.4045 12.0254 10.0951H10.5106C10.5106 12.0414 9.79044 12.7497 9.30535 12.7497C8.56136 12.7497 8.10008 12.1277 8.10008 9.03271H6.5853C6.5853 11.1844 5.77881 12.9878 4.68662 13.0176C3.00222 13.0592 2.04395 12.5593 1.60648 11.9641L0.921997 12.0474C1.50827 13.3806 3.22541 14.2645 4.69555 14.2645C5.68358 14.2645 6.52281 13.7437 7.12098 12.845C7.50786 13.6693 8.16853 14.2645 9.30238 14.2645C10.1178 14.2645 10.9332 13.8003 11.46 12.8033C12.2873 13.7378 13.6235 14.2645 15.3317 14.2645C16.8376 14.2645 18.3851 13.6038 19.9028 12.6724L19.3731 11.2171Z"
          fill="white"/>
</svg>
