<svg width="66" height="45" viewBox="0 0 66 45" fill="none" xmlns="http://www.w3.org/2000/svg">
    <path d="M0.504105 43.3063C0.442856 44.1324 1.06294 44.8518 1.8891 44.9131C2.71526 44.9743 3.43464 44.3542 3.49589 43.5281L0.504105 43.3063ZM7.70712 3.57632L9.11776 4.08633L7.70712 3.57632ZM8.51987 2.5252L9.50859 1.39718L8.51987 2.5252ZM10.7413 13.2389L9.25685 13.4542L10.7413 13.2389ZM13.0531 28.9043L14.5188 28.5854L13.0531 28.9043ZM16.0872 30.6139L17.0435 31.7696L16.0872 30.6139ZM22.1736 24.4085L22.724 25.8039L22.1736 24.4085ZM27.8627 28.3217L26.9192 29.4879L27.8627 28.3217ZM37.6154 25.637L37.8314 27.1213L37.6154 25.637ZM45.4536 27.2833L45.0539 28.729L45.4536 27.2833ZM65.3154 32.0812C65.9789 31.5851 66.1146 30.6451 65.6185 29.9816L57.5344 19.1697C57.0384 18.5062 56.0983 18.3705 55.4349 18.8666C54.7714 19.3627 54.6357 20.3027 55.1318 20.9661L62.3176 30.5767L52.707 37.7626C52.0435 38.2587 51.9078 39.1987 52.4039 39.8621C52.9 40.5256 53.84 40.6613 54.5034 40.1652L65.3154 32.0812ZM3.49589 43.5281C4.49281 30.0812 4.51847 16.8075 9.11776 4.08633L6.29649 3.06631C1.51596 16.2888 1.47879 30.1593 0.504105 43.3063L3.49589 43.5281ZM9.11776 4.08633C9.14712 4.00513 9.16601 3.93126 9.17121 3.91123C9.17973 3.87837 9.18799 3.84409 9.19402 3.81899C9.20778 3.76165 9.21936 3.71253 9.2339 3.65599C9.26466 3.53631 9.29188 3.4518 9.31178 3.40507C9.32112 3.38313 9.31532 3.40216 9.28727 3.44414C9.26455 3.47814 9.17859 3.60173 9.00416 3.71782C8.80339 3.85144 8.49946 3.962 8.14284 3.91656C7.8152 3.87482 7.60974 3.72211 7.53115 3.65322L9.50859 1.39718C9.29525 1.21018 8.96502 0.99706 8.52198 0.940615C8.04996 0.880478 7.64002 1.02204 7.34201 1.22037C6.85224 1.54633 6.63105 2.04312 6.5515 2.22998C6.44234 2.48639 6.37082 2.7439 6.32835 2.90914C6.30626 2.99507 6.2876 3.07413 6.2769 3.11871C6.25422 3.21318 6.26737 3.14684 6.29649 3.06631L9.11776 4.08633ZM7.53115 3.65322C8.31924 4.34399 8.75905 5.78231 8.94688 7.8464C9.03565 8.82187 9.06112 9.81744 9.08876 10.7858C9.11531 11.7165 9.1442 12.6775 9.25685 13.4542L12.2258 13.0236C12.1431 12.4536 12.1155 11.6814 12.0875 10.7002C12.0606 9.75659 12.0334 8.66131 11.9345 7.57453C11.747 5.51412 11.2714 2.94233 9.50859 1.39718L7.53115 3.65322ZM9.25685 13.4542C9.99339 18.5328 10.4473 23.9823 11.5873 29.2231L14.5188 28.5854C13.4062 23.4711 13 18.3617 12.2258 13.0236L9.25685 13.4542ZM11.5873 29.2231C11.6641 29.5761 11.7661 30.0714 11.91 30.5317C12.0478 30.9726 12.2775 31.5693 12.711 32.0517C13.217 32.6149 13.968 32.9771 14.8806 32.8561C15.66 32.7528 16.3823 32.3167 17.0435 31.7696L15.131 29.4582C14.8979 29.6511 14.7244 29.7637 14.6057 29.8263C14.4861 29.8895 14.4508 29.8869 14.4864 29.8821C14.5341 29.8758 14.6345 29.8761 14.7521 29.9229C14.8639 29.9673 14.9254 30.0276 14.9425 30.0467C14.9551 30.0607 14.9359 30.0432 14.8978 29.9647C14.8606 29.8883 14.8185 29.7811 14.7734 29.6367C14.6788 29.3342 14.6079 28.9951 14.5188 28.5854L11.5873 29.2231ZM17.0435 31.7696C17.6524 31.2658 18.1874 30.6433 18.6606 30.0438C19.0767 29.5166 19.6614 28.7182 20.0467 28.222C20.9892 27.0081 21.8106 26.1642 22.724 25.8039L21.6232 23.0132C19.8802 23.7007 18.6285 25.1568 17.6771 26.3822C17.1153 27.1057 16.7978 27.5618 16.3059 28.185C15.8711 28.7357 15.4922 29.1593 15.131 29.4582L17.0435 31.7696ZM22.724 25.8039C22.7351 25.7995 22.8317 25.7516 23.1415 25.8978C23.4701 26.0528 23.8719 26.3537 24.3367 26.7946C24.7926 27.227 25.2309 27.7171 25.6623 28.2001C26.0483 28.6323 26.513 29.1592 26.9192 29.4879L28.8061 27.1556C28.6358 27.0178 28.3622 26.7194 27.8997 26.2016C27.4827 25.7347 26.9625 25.1503 26.4013 24.618C25.8491 24.0943 25.1754 23.5403 24.4217 23.1846C23.6491 22.8201 22.6565 22.6056 21.6232 23.0132L22.724 25.8039ZM26.9192 29.4879C29.1869 31.3225 31.7718 30.2399 33.4629 29.3412C33.924 29.0962 34.3778 28.8316 34.8028 28.5816C35.2369 28.3262 35.6348 28.0897 36.0237 27.8743C36.8327 27.4261 37.4104 27.1826 37.8314 27.1213L37.3993 24.1526C36.3941 24.2989 35.4029 24.7886 34.5699 25.25C34.1378 25.4894 33.6964 25.7519 33.2817 25.9958C32.8579 26.2452 32.4533 26.4804 32.0552 26.692C30.3095 27.6196 29.4442 27.6718 28.8061 27.1556L26.9192 29.4879ZM37.8314 27.1213C38.7081 26.9937 39.8811 27.1818 41.243 27.5551C41.9031 27.7361 42.5616 27.9466 43.2087 28.156C43.8409 28.3606 44.4836 28.5713 45.0539 28.729L45.8534 25.8375C45.3611 25.7014 44.7933 25.5157 44.1324 25.3018C43.4864 25.0927 42.7692 24.8628 42.036 24.6619C40.6114 24.2714 38.9279 23.9301 37.3993 24.1526L37.8314 27.1213ZM45.0539 28.729C51.3815 30.4785 57.6785 31.4226 64.2028 32.3645L64.6315 29.3952C58.0936 28.4514 51.9738 27.5297 45.8534 25.8375L45.0539 28.729Z"
          fill="black"/>
</svg>
