<svg width="40" height="29" viewBox="0 0 40 29" fill="none" xmlns="http://www.w3.org/2000/svg">
<path d="M31.0191 17.3821C33.2229 17.3821 35.0095 15.5955 35.0095 13.3916C35.0095 11.1877 33.2229 9.40112 31.0191 9.40112C28.8152 9.40112 27.0286 11.1877 27.0286 13.3916C27.0286 15.5955 28.8152 17.3821 31.0191 17.3821Z" stroke="#00A3FA" stroke-linecap="round" stroke-linejoin="round"/>
<path d="M23.0381 28.0235C23.0381 25.9068 23.8789 23.8768 25.3757 22.3801C26.8724 20.8833 28.9024 20.0425 31.0191 20.0425C33.1357 20.0425 35.1657 20.8833 36.6625 22.3801C38.1592 23.8768 39 25.9068 39 28.0235H23.0381Z" stroke="#00A3FA" stroke-linecap="round" stroke-linejoin="round"/>
<path d="M8.98097 17.3821C11.1849 17.3821 12.9715 15.5955 12.9715 13.3916C12.9715 11.1877 11.1849 9.40112 8.98097 9.40112C6.77708 9.40112 4.99048 11.1877 4.99048 13.3916C4.99048 15.5955 6.77708 17.3821 8.98097 17.3821Z" stroke="#00A3FA" stroke-linecap="round" stroke-linejoin="round"/>
<path d="M1 28.0235C1 25.9068 1.84085 23.8768 3.33757 22.3801C4.8343 20.8833 6.86429 20.0425 8.98098 20.0425C11.0977 20.0425 13.1277 20.8833 14.6244 22.3801C16.1211 23.8768 16.962 25.9068 16.962 28.0235H1Z" stroke="#00A3FA" stroke-linecap="round" stroke-linejoin="round"/>
<path d="M19.8675 12.5214C23.0491 12.5214 25.6282 9.94226 25.6282 6.76071C25.6282 3.57916 23.0491 1 19.8675 1C16.686 1 14.1068 3.57916 14.1068 6.76071C14.1068 9.94226 16.686 12.5214 19.8675 12.5214Z" fill="white" stroke="#00A3FA" stroke-width="1.2" stroke-linecap="round" stroke-linejoin="round"/>
<path d="M8.34607 27.8832C8.34607 24.8276 9.55993 21.897 11.7206 19.7364C13.8813 17.5757 16.8118 16.3618 19.8675 16.3618C22.9231 16.3618 25.8537 17.5757 28.0143 19.7364C30.175 21.897 31.3889 24.8276 31.3889 27.8832H8.34607Z" fill="white" stroke="#00A3FA" stroke-width="1.2" stroke-linecap="round" stroke-linejoin="round"/>
</svg>
