<svg width="48" height="48" viewBox="0 0 48 48" fill="none" xmlns="http://www.w3.org/2000/svg">
<path d="M40.0433 48H7.95675C3.56231 48 0 44.4377 0 40.0433V7.95675C0 3.56231 3.56231 0 7.95675 0H40.0433C44.4377 0 48 3.56231 48 7.95675V40.0433C48 44.4377 44.4377 48 40.0433 48Z" fill="#00AEEF"/>
<path d="M24.5662 20.2099C22.0689 20.2099 19.8958 21.6146 18.8014 23.6769C17.7066 21.6146 15.5346 20.2099 13.0356 20.2099C11.6229 20.2084 10.2481 20.6665 9.11868 21.515V16.017C9.11239 15.6752 8.97204 15.3496 8.72789 15.1103C8.48374 14.871 8.15535 14.7373 7.8135 14.7379C7.10062 14.7379 6.52687 15.3065 6.51056 16.017V26.8436H6.51187C6.56943 30.3984 9.46631 33.2621 13.0356 33.2621C15.5346 33.2621 17.7066 31.856 18.8014 29.7958C19.8958 31.856 22.0689 33.2621 24.5662 33.2621C28.1692 33.2621 31.092 30.3405 31.092 26.7347C31.092 23.1307 28.1692 20.2099 24.5662 20.2099ZM13.0356 30.6493C10.8735 30.6493 9.11868 28.8979 9.11868 26.7356C9.11868 24.5741 10.8735 22.8225 13.0356 22.8225C15.1974 22.8225 16.9485 24.5741 16.9485 26.7347C16.9485 28.8973 15.1974 30.6493 13.0356 30.6493ZM24.5662 30.6493C22.4036 30.6493 20.6501 28.8973 20.6501 26.7347C20.6501 24.5741 22.4036 22.8225 24.5662 22.8225C26.7279 22.8225 28.4805 24.5741 28.4805 26.7347C28.4805 28.8973 26.7279 30.6493 24.5662 30.6493Z" fill="white"/>
<path d="M41.2181 31.0772L37.671 26.7262L41.2224 22.3668C41.6715 21.7918 41.5427 20.9887 40.9228 20.5622C40.3022 20.1318 39.4314 20.2421 38.9513 20.8001V20.7993L35.8958 24.5441L32.8431 20.7993V20.8001C32.3678 20.2421 31.4916 20.1318 30.8728 20.5622C30.2541 20.9891 30.1247 21.7918 30.576 22.3668H30.5747L34.1199 26.7262L30.5747 31.0772H30.576C30.1247 31.6541 30.2541 32.4545 30.8728 32.883C31.4916 33.3114 32.3678 33.2023 32.8431 32.6435L35.8958 28.904L38.9469 32.6435C39.4277 33.2023 40.2981 33.3114 40.9187 32.883C41.5388 32.4545 41.6681 31.6541 41.2181 31.0772Z" fill="white"/>
</svg>
