<svg width="19" height="24" viewBox="0 0 19 24" fill="none" xmlns="http://www.w3.org/2000/svg">
<path d="M8.45538 9.37903L7.91528 11.6165C8.60969 11.7709 10.7315 12.4653 11.0401 11.1922C11.3487 9.88054 9.14978 9.57192 8.45538 9.37903Z" fill="#ED6C0C"/>
<path d="M11.0401 11.2308C11.3873 9.91912 9.14978 9.57191 8.45538 9.4176L7.91528 11.6165" fill="#E05A00"/>
<path d="M9.22686 6.33136L8.72534 8.376C9.30401 8.53031 11.0786 9.10899 11.3487 7.95164C11.6187 6.75572 9.80553 6.48567 9.22686 6.33136Z" fill="#ED6C0C"/>
<path d="M11.3486 7.95164C11.6573 6.75572 9.80552 6.48567 9.22685 6.33136L8.72534 8.37599" fill="#E05A00"/>
<path d="M11.503 0.274553C6.52643 -0.959943 1.51129 2.08772 0.276794 7.0257C-0.957702 12.0023 2.05138 17.0174 7.02794 18.2519C12.0045 19.4864 17.0196 16.4773 18.2541 11.5008C19.4886 6.56277 16.4796 1.54763 11.503 0.274553ZM13.3547 7.95158C13.239 8.83887 12.7375 9.30181 12.0431 9.45612C12.969 9.91905 13.4319 10.652 12.969 11.9251C12.4289 13.5068 11.1172 13.6225 9.3812 13.3139L8.95684 15.0113L7.95382 14.7027L8.37817 13.0439C8.10813 12.9667 7.83808 12.8896 7.56804 12.851L7.14368 14.5098L6.14065 14.2398L6.56501 12.5424C6.33354 12.4652 6.10207 12.4266 5.83203 12.3495L4.52037 12.0023L5.02189 10.8449L5.75487 11.0378C6.02492 11.115 6.17923 10.9221 6.21781 10.8063L6.87363 8.14447C6.91221 8.14447 6.95079 8.14446 6.98937 8.18304C6.95079 8.18304 6.91221 8.14447 6.87363 8.14447L7.33657 6.25414C7.33657 6.02267 7.25941 5.75263 6.87363 5.67547L6.14065 5.48258L6.4107 4.4024L7.7995 4.7496C7.99239 4.78818 8.22386 4.86533 8.45533 4.90391L8.87969 3.24506L9.88272 3.5151L9.45836 5.13538C9.7284 5.21254 9.99845 5.25111 10.2685 5.32827L10.6543 3.70799L11.6573 3.97804L11.2329 5.63689C12.5832 6.06125 13.5476 6.71708 13.3547 7.95158Z" fill="#FFB600"/>
<path d="M0.276794 7.02575C-0.957702 12.0023 2.05138 17.0175 7.02794 18.2519C12.0045 19.4864 17.0196 16.4774 18.2541 11.5008C19.4886 6.52423 16.4796 1.50909 11.503 0.274597L0.276794 7.02575ZM13.3547 7.95162C13.239 8.83891 12.7375 9.30185 12.0431 9.45616C12.969 9.9191 13.4319 10.6521 12.969 11.9252C12.4289 13.5069 11.1172 13.6226 9.3812 13.314L8.95684 15.0114L7.95382 14.7028L8.37817 13.0439C8.10813 12.9668 7.83808 12.8896 7.56804 12.851L7.14368 14.5099L6.14065 14.2398L6.56501 12.5424C6.33354 12.4652 6.10207 12.4267 5.83203 12.3495L4.52037 12.0023L5.02189 10.845L5.75487 11.0379C6.02492 11.115 6.17923 10.9221 6.21781 10.8064L6.87363 8.14451C6.91221 8.14451 6.95079 8.14451 6.98937 8.18309C6.95079 8.18309 6.91221 8.14451 6.87363 8.14451L7.33657 6.25419C7.33657 6.02272 7.25941 5.75267 6.87363 5.67552L6.14065 5.48263L6.4107 4.40244L7.7995 4.74965C7.99239 4.78822 8.22386 4.86538 8.45533 4.90396L8.87969 3.2451L9.88272 3.51515L9.45836 5.13543C9.7284 5.21258 9.99845 5.25116 10.2685 5.32832L10.6543 3.70804L11.6573 3.97809L11.2329 5.63694C12.5832 6.0613 13.5476 6.71712 13.3547 7.95162Z" fill="#F6921E"/>
<path d="M18.177 11.848L13.1619 6.83282C13.3548 7.14145 13.4705 7.52723 13.3933 7.99016C13.2776 8.87746 12.7761 9.3404 12.0817 9.49471C13.0076 9.95764 13.4705 10.6906 13.0076 11.9637C12.4675 13.5454 11.1558 13.6611 9.4198 13.3525L8.99544 15.0499L7.95384 14.7027L8.3782 13.0439C8.10815 12.9667 7.8381 12.8896 7.56806 12.851L7.1437 14.5098L6.91223 14.4327L10.8472 18.3676C14.2421 17.789 17.174 15.32 18.177 11.848Z" fill="#D85107"/>
<path d="M2.28281 20.6052C2.4757 20.6052 2.63001 20.6438 2.78432 20.7209C2.93863 20.7981 3.05437 20.8752 3.13152 20.991C3.20868 21.1067 3.28584 21.261 3.32441 21.4153C3.36299 21.5696 3.40157 21.7625 3.40157 21.9168C3.40157 22.1869 3.36299 22.4569 3.24726 22.727C3.13152 22.997 3.01579 23.1899 2.8229 23.3828C2.63001 23.5757 2.43712 23.73 2.16707 23.8072C1.93561 23.9229 1.66556 23.9615 1.35694 23.9615C1.31836 23.9615 1.2412 23.9615 1.16405 23.9615C1.08689 23.9615 0.971156 23.9615 0.855422 23.9229C0.739688 23.9229 0.623954 23.8843 0.469642 23.8457C0.353908 23.8072 0.199596 23.7686 0.0838623 23.73L1.12547 19.2935L2.08992 19.1392L1.70414 20.7209C1.78129 20.6823 1.85845 20.6438 1.93561 20.6438C2.08992 20.6438 2.20565 20.6052 2.28281 20.6052ZM1.51125 23.2285C1.66556 23.2285 1.78129 23.1899 1.89703 23.1128C2.01276 23.0356 2.1285 22.9584 2.20565 22.8427C2.28281 22.727 2.35996 22.6112 2.43712 22.4569C2.4757 22.3026 2.51428 22.1483 2.51428 21.994C2.51428 21.8011 2.4757 21.6468 2.39854 21.5311C2.32139 21.4153 2.20565 21.3767 2.05134 21.3767C2.01276 21.3767 1.93561 21.3767 1.81987 21.4153C1.74272 21.4539 1.62698 21.4925 1.5884 21.5311L1.20262 23.1899C1.2412 23.1899 1.2412 23.1899 1.27978 23.1899H1.31836C1.35694 23.1899 1.35694 23.1899 1.39551 23.1899C1.39551 23.2285 1.43409 23.2285 1.51125 23.2285Z" fill="#4D4E4E"/>
<path d="M4.40463 23.8844H3.47876L4.25032 20.6824H5.17619L4.40463 23.8844ZM4.86757 20.2966C4.75183 20.2966 4.6361 20.258 4.52037 20.1809C4.40463 20.1037 4.36605 19.988 4.36605 19.8337C4.36605 19.7565 4.36605 19.6794 4.40463 19.6022C4.44321 19.5251 4.48179 19.4479 4.55894 19.4093C4.59752 19.3707 4.67468 19.2936 4.75183 19.2936C4.82899 19.255 4.90615 19.255 4.9833 19.255C5.09904 19.255 5.21477 19.2936 5.3305 19.3707C5.44624 19.4479 5.48482 19.5636 5.48482 19.7179C5.48482 19.7951 5.48482 19.8723 5.44624 19.9494C5.40766 20.0266 5.36908 20.1037 5.29193 20.1423C5.25335 20.1809 5.17619 20.258 5.09904 20.258C5.02188 20.258 4.94472 20.2966 4.86757 20.2966Z" fill="#4D4E4E"/>
<path d="M5.98627 19.8722L6.95072 19.7179L6.71926 20.6823H7.72228L7.52939 21.4153H6.52637L6.25632 22.5341C6.21774 22.6112 6.21774 22.727 6.21774 22.8041C6.21774 22.8813 6.21774 22.9584 6.25632 22.997C6.2949 23.0742 6.33348 23.1128 6.37205 23.1513C6.44921 23.1899 6.52637 23.1899 6.6421 23.1899C6.75783 23.1899 6.83499 23.1899 6.91215 23.1513C6.9893 23.1513 7.10504 23.1128 7.18219 23.0742L7.25935 23.7686C7.14361 23.8072 6.9893 23.8457 6.87357 23.8843C6.71926 23.9615 6.56494 23.9615 6.37205 23.9615C6.10201 23.9615 5.87054 23.9229 5.71623 23.8457C5.56192 23.7686 5.44618 23.6529 5.36903 23.4985C5.29187 23.3442 5.29187 23.1899 5.29187 22.997C5.29187 22.8041 5.33045 22.6112 5.36903 22.4184L5.98627 19.8722Z" fill="#4D4E4E"/>
<path d="M7.68359 22.6113C7.68359 22.3412 7.72217 22.0712 7.83791 21.8397C7.91506 21.6083 8.06937 21.3768 8.22369 21.1839C8.378 20.991 8.60947 20.8753 8.84093 20.7595C9.0724 20.6438 9.34245 20.6052 9.65107 20.6052C9.84396 20.6052 9.99828 20.6052 10.1526 20.6438C10.3069 20.6824 10.4226 20.721 10.5384 20.7981L10.2297 21.4925C10.1526 21.4539 10.0754 21.4154 9.9597 21.4154C9.88254 21.3768 9.76681 21.3768 9.65107 21.3768C9.34245 21.3768 9.11098 21.4925 8.91809 21.6854C8.7252 21.8783 8.64804 22.1869 8.64804 22.5341C8.64804 22.727 8.68662 22.9199 8.80236 23.0356C8.87951 23.1514 9.0724 23.2285 9.30387 23.2285C9.4196 23.2285 9.53534 23.2285 9.65107 23.19C9.76681 23.1514 9.84396 23.1514 9.9597 23.1128L10.0369 23.8458C9.92112 23.8844 9.80538 23.9229 9.65107 23.9615C9.49676 24.0001 9.34245 24.0001 9.14956 24.0001C8.87951 24.0001 8.68662 23.9615 8.49373 23.8844C8.30084 23.8072 8.18511 23.73 8.06937 23.5757C7.95364 23.46 7.87648 23.3057 7.83791 23.1514C7.68359 22.9585 7.68359 22.8042 7.68359 22.6113Z" fill="#4D4E4E"/>
<path d="M11.6959 24.0001C11.4645 24.0001 11.3101 23.9615 11.1173 23.8844C10.9629 23.8072 10.8086 23.73 10.7315 23.6143C10.6157 23.4986 10.5386 23.3443 10.5 23.19C10.4614 23.0356 10.4229 22.8427 10.4229 22.6499C10.4229 22.4184 10.4614 22.1483 10.5386 21.9169C10.6157 21.6854 10.7315 21.4539 10.8858 21.2611C11.0401 21.0682 11.233 20.9138 11.4645 20.7981C11.6959 20.6824 11.9274 20.6052 12.236 20.6052C12.4675 20.6052 12.6218 20.6438 12.8147 20.721C12.969 20.7981 13.1233 20.8753 13.2005 20.991C13.3162 21.1067 13.3934 21.261 13.4319 21.4154C13.4705 21.5697 13.5091 21.7626 13.5091 21.9555C13.5091 22.1869 13.4705 22.457 13.3934 22.6884C13.3162 22.9199 13.2005 23.1514 13.0462 23.3443C12.8918 23.5372 12.699 23.6915 12.4675 23.8072C12.236 23.9229 12.0046 24.0001 11.6959 24.0001ZM12.1589 21.3768C12.0431 21.3768 11.8888 21.4154 11.8117 21.4925C11.6959 21.5697 11.6188 21.6854 11.5416 21.8011C11.4645 21.9169 11.4259 22.0326 11.3873 22.1869C11.3487 22.3412 11.3487 22.457 11.3487 22.5727C11.3487 22.7656 11.3873 22.9199 11.4645 23.0356C11.5416 23.1514 11.6573 23.19 11.8117 23.19C11.966 23.19 12.0817 23.1514 12.1589 23.0742C12.2746 22.9971 12.3518 22.8813 12.4289 22.7656C12.5061 22.6499 12.5446 22.5341 12.5832 22.3798C12.6218 22.2255 12.6218 22.1098 12.6218 21.994C12.6218 21.8011 12.5832 21.6468 12.5061 21.5311C12.4289 21.4154 12.3132 21.3768 12.1589 21.3768Z" fill="#4D4E4E"/>
<path d="M14.5121 23.8844H13.5862L14.3577 20.6824H15.2836L14.5121 23.8844ZM14.9364 20.2966C14.8207 20.2966 14.7049 20.258 14.5892 20.1809C14.4735 20.1037 14.4349 19.988 14.4349 19.8337C14.4349 19.7565 14.4349 19.6794 14.4735 19.6022C14.5121 19.5251 14.5506 19.4479 14.6278 19.4093C14.6664 19.3707 14.7435 19.2936 14.8207 19.2936C14.8978 19.255 14.975 19.255 15.0521 19.255C15.1679 19.255 15.2836 19.2936 15.3993 19.3707C15.5151 19.4479 15.5537 19.5636 15.5537 19.7179C15.5537 19.7951 15.5537 19.8723 15.5151 19.9494C15.4765 20.0266 15.4379 20.1037 15.3608 20.1423C15.3222 20.1809 15.245 20.258 15.1679 20.258C15.0907 20.258 15.0136 20.2966 14.9364 20.2966Z" fill="#4D4E4E"/>
<path d="M15.9393 20.8367C16.0164 20.7981 16.0936 20.7981 16.1707 20.7595C16.2479 20.721 16.3636 20.721 16.4408 20.6824C16.5565 20.6438 16.6723 20.6438 16.788 20.6438C16.9037 20.6438 17.058 20.6052 17.2124 20.6052C17.6753 20.6052 18.0225 20.7595 18.2154 21.0296C18.4083 21.2996 18.4468 21.6854 18.2925 22.1869L17.8682 23.9229H16.9809L17.3667 22.2255C17.4052 22.1098 17.4052 22.0326 17.4438 21.9169C17.4438 21.8011 17.4438 21.724 17.4438 21.6468C17.4438 21.5697 17.4052 21.4925 17.3281 21.4539C17.2509 21.4154 17.1738 21.3768 17.058 21.3768C16.9423 21.3768 16.8266 21.3768 16.7108 21.4154L16.1322 23.9229H15.2063L15.9393 20.8367Z" fill="#4D4E4E"/>
<path d="M4.52026 12.0409L6.25627 13.7769L6.5649 12.5424C6.33343 12.4652 6.10196 12.4267 5.83192 12.3495L4.52026 12.0409Z" fill="#E26600"/>
<path d="M11.4642 5.13544L11.3099 5.63695C11.7729 5.79126 12.1972 5.98415 12.5444 6.21562L11.4642 5.13544Z" fill="#E26600"/>
<path d="M9.92131 3.51514L9.49695 5.13541C9.76699 5.21257 10.037 5.25115 10.3071 5.3283L10.5771 4.17096L9.92131 3.51514Z" fill="#ED6C0C"/>
<path d="M11.7343 3.93951L11.3099 5.59837L11.3485 5.63695C12.5059 6.02273 13.3931 6.63998 13.3931 7.68159L18.0225 12.311C18.0997 12.0409 18.1768 11.7709 18.254 11.5394C18.3311 11.2308 18.3697 10.9607 18.4083 10.6521L11.7343 3.93951Z" fill="#ED6C0C"/>
<path d="M12.6216 17.9047L9.11102 14.3941L8.95671 14.9728L7.95368 14.7028L8.2623 13.5068L7.5679 12.8124L7.14354 14.4713L6.14051 14.2012V14.1627L6.10193 14.2012L10.3069 18.4062C11.1171 18.3677 11.8886 18.1748 12.6216 17.9047Z" fill="#ED6C0C"/>
<path d="M13.5861 17.4418L9.41969 13.2754C9.41969 13.2754 9.41969 13.2754 9.38111 13.2754L8.95676 14.9728L7.99231 14.7414L11.5029 18.252C12.2359 18.0591 12.9303 17.789 13.5861 17.4418Z" fill="#E05A00"/>
</svg>
