<svg width="24" height="15" viewBox="0 0 24 15" fill="none" xmlns="http://www.w3.org/2000/svg">
<path d="M16.8 14.4H17.1428L17.5238 14.3619L17.8667 14.3238L18.2476 14.2476L18.5905 14.1714L18.9333 14.0952L19.2762 13.981L19.5809 13.8286L19.9238 13.6762L20.2286 13.5238L20.5333 13.3714L20.8 13.181L21.1047 12.9905L21.3714 12.7619L21.6381 12.5333L21.8667 12.3048L22.1333 12.0381L22.3619 11.7714L22.5524 11.5048L22.7809 11.2381L22.9714 10.9333L23.1238 10.6286L23.2762 10.3238L23.4286 9.98095L23.5428 9.67619L23.6952 9.33333L23.7714 8.99048L23.8476 8.64762L23.9238 8.30476L23.9619 7.92381L24 7.54286V7.2V6.81905L23.9619 6.4381L23.9238 6.09524L23.8476 5.75238L23.7714 5.40952L23.6952 5.06667L23.5428 4.72381L23.4286 4.38095L23.2762 4.07619L23.1238 3.77143L22.9714 3.46667L22.7809 3.1619L22.5524 2.89524L22.3619 2.62857L22.1333 2.3619L21.8667 2.09524L21.6381 1.86667L21.3714 1.6381L21.1047 1.40952L20.8 1.21905L20.5333 1.02857L20.2286 0.87619L19.9238 0.685714L19.5809 0.571429L19.2762 0.419047L18.9333 0.304762L18.5905 0.228571L18.2476 0.152381L17.8667 0.0761904L17.5238 0.038095L17.1428 0H16.8H16.419L16.0381 0.038095L15.6952 0.0761904L15.3143 0.152381L14.9714 0.228571L14.6286 0.304762L14.2857 0.419047L13.9809 0.571429L13.6381 0.685714L13.3333 0.87619L13.0286 1.02857L12.7619 1.21905L12.4571 1.40952L12.1905 1.6381L11.9238 1.86667L11.6952 2.09524L11.4286 2.3619L11.2 2.62857L11.0095 2.89524L10.819 3.1619L10.6286 3.46667L10.4381 3.77143L10.2857 4.07619L10.1333 4.38095L10.019 4.72381L9.90475 5.06667L9.79046 5.40952L9.71427 5.75238L9.63808 6.09524L9.59999 6.4381V6.81905L9.56189 7.2L9.59999 7.54286V7.92381L9.63808 8.30476L9.71427 8.64762L9.79046 8.99048L9.90475 9.33333L10.019 9.67619L10.1333 9.98095L10.2857 10.3238L10.4381 10.6286L10.6286 10.9333L10.819 11.2381L11.0095 11.5048L11.2 11.7714L11.4286 12.0381L11.6952 12.3048L11.9238 12.5333L12.1905 12.7619L12.4571 12.9905L12.7619 13.181L13.0286 13.3714L13.3333 13.5238L13.6381 13.6762L13.9809 13.8286L14.2857 13.981L14.6286 14.0952L14.9714 14.1714L15.3143 14.2476L15.6952 14.3238L16.0381 14.3619L16.419 14.4H16.8Z" fill="#0594CC"/>
<path d="M12 1.79041L11.9238 1.8666L11.6952 2.09517L11.4286 2.36183L11.2 2.6285L11.0095 2.89517L10.819 3.16183L10.6286 3.4666L10.4381 3.77136L10.2857 4.07612L10.1333 4.38088L10.019 4.72374L9.90475 5.0666L9.79046 5.40945L9.71427 5.75231L9.63808 6.09517L9.59999 6.43802V6.81898L9.56189 7.19993L9.59999 7.54279V7.92374L9.63808 8.30469L9.71427 8.64755L9.79046 8.99041L9.90475 9.33326L10.019 9.67612L10.1333 9.98088L10.2857 10.3237L10.4381 10.6285L10.6286 10.9333L10.819 11.238L11.0095 11.5047L11.2 11.7714L11.4286 12.038L11.6952 12.3047L11.9238 12.5333L12.1905 12.7618L12.4571 12.9904L12.7619 13.1809L13.0286 13.3714L13.3333 13.5237L13.6381 13.6761L13.9809 13.8285L14.2857 13.9809L14.6286 14.0952L14.9714 14.1714L15.3143 14.2475L15.6952 14.3237L16.0381 14.3618L16.419 14.3999H16.8H17.1428L17.5238 14.3618L17.8667 14.3237L18.2476 14.2475L18.5905 14.1714L18.9333 14.0952L19.2762 13.9809L19.5809 13.8285L19.9238 13.6761L20.2286 13.5237L20.5333 13.3714L20.8 13.1809L21.1047 12.9904L21.3714 12.7618L21.6381 12.5333L21.8667 12.3047L22.1333 12.038L22.1714 11.9618L12 1.79041Z" fill="#027DBA"/>
<path d="M7.2381 14.4H7.58095L7.96191 14.3619L8.30476 14.3238L8.68571 14.2476L9.02857 14.1714L9.37143 14.0952L9.71429 13.981L10.019 13.8286L10.3619 13.6762L10.6667 13.5238L10.9714 13.3714L11.2381 13.181L11.5429 12.9905L11.8095 12.7619L12.0762 12.5333L12.3048 12.3048L12.5714 12.0381L12.8 11.7714L12.9905 11.5048L13.181 11.2381L13.3714 10.9333L13.5619 10.6286L13.7143 10.3238L13.8667 9.98095L13.981 9.67619L14.0952 9.33333L14.2095 8.99048L14.2857 8.64762L14.3619 8.30476L14.4 7.92381V7.54286L14.4381 7.2L14.4 6.81905V6.4381L14.3619 6.09524L14.2857 5.75238L14.2095 5.40952L14.0952 5.06667L13.981 4.72381L13.8667 4.38095L13.7143 4.07619L13.5619 3.77143L13.3714 3.46667L13.181 3.1619L12.9905 2.89524L12.8 2.62857L12.5714 2.3619L12.3048 2.09524L12.0762 1.86667L11.8095 1.6381L11.5429 1.40952L11.2381 1.21905L10.9714 1.02857L10.6667 0.87619L10.3619 0.685714L10.019 0.571429L9.71429 0.419047L9.37143 0.304762L9.02857 0.228571L8.68571 0.152381L8.30476 0.0761904L7.96191 0.038095L7.58095 0H7.2381H6.85714L6.47619 0.038095L6.13333 0.0761904L5.75238 0.152381L5.40952 0.228571L5.06667 0.304762L4.72381 0.419047L4.41905 0.571429L4.07619 0.685714L3.77143 0.87619L3.46667 1.02857L3.2 1.21905L2.89524 1.40952L2.62857 1.6381L2.3619 1.86667L2.13333 2.09524L1.86667 2.3619L1.6381 2.62857L1.44762 2.89524L1.21905 3.1619L1.02857 3.46667L0.876191 3.77143L0.72381 4.07619L0.571429 4.38095L0.457143 4.72381L0.342857 5.06667L0.228571 5.40952L0.152381 5.75238L0.0761905 6.09524L0.0380952 6.4381L0 6.81905V7.2V7.54286L0.0380952 7.92381L0.0761905 8.30476L0.152381 8.64762L0.228571 8.99048L0.342857 9.33333L0.457143 9.67619L0.571429 9.98095L0.72381 10.3238L0.876191 10.6286L1.02857 10.9333L1.21905 11.2381L1.44762 11.5048L1.6381 11.7714L1.86667 12.0381L2.13333 12.3048L2.3619 12.5333L2.62857 12.7619L2.89524 12.9905L3.2 13.181L3.46667 13.3714L3.77143 13.5238L4.07619 13.6762L4.41905 13.8286L4.72381 13.981L5.06667 14.0952L5.40952 14.1714L5.75238 14.2476L6.13333 14.3238L6.47619 14.3619L6.85714 14.4H7.2381Z" fill="#1F4789"/>
<path d="M9.37143 14.0952L9.71429 13.9809L10.019 13.8285L10.3619 13.6761L10.6667 13.5238L10.9714 13.3714L11.2381 13.1809L11.5429 12.9904L11.8095 12.7619L11.9619 12.6095L1.79048 2.43805L1.6381 2.62853L1.44762 2.89519L1.21905 3.16186L1.02857 3.46662L0.87619 3.77138L0.72381 4.07614L0.571429 4.38091L0.457143 4.72376L0.342857 5.06662L0.228571 5.40948L0.152381 5.75234L0.0761905 6.09519L0.0380952 6.43805L0 6.819V7.19995V7.54281L0.0380952 7.92376L0.0761905 8.30472L0.152381 8.64757L0.228571 8.99043L0.342857 9.33329L0.457143 9.67614L0.571429 9.98091L0.72381 10.3238L0.87619 10.6285L1.02857 10.9333L1.21905 11.238L1.44762 11.5047L1.6381 11.7714L1.86667 12.038L2.13333 12.3047L2.3619 12.5333L2.62857 12.7619L2.89524 12.9904L3.2 13.1809L3.46667 13.3714L3.77143 13.5238L4.07619 13.6761L4.41905 13.8285L4.72381 13.9809L5.06667 14.0952L5.40952 14.1714L5.75238 14.2476L6.13333 14.3238L6.47619 14.3619L6.85714 14.4H7.2381H7.58095L7.96191 14.3619L8.30476 14.3238L8.68571 14.2476L9.02857 14.1714L9.37143 14.0952Z" fill="#3F6FBC"/>
<path d="M11.1238 2.74284H14.7809V2.32379H11.4666L11.1238 2.74284Z" fill="#0594CC"/>
<path d="M10.5522 3.5809H13.638L13.257 3.19995H10.7808L10.5522 3.5809Z" fill="#027DBA"/>
<path d="M10.0952 4.45713H14.019V4.03809H10.3238L10.0952 4.45713Z" fill="#027DBA"/>
<path d="M9.82837 5.2952H14.7807V4.91425H9.94266L9.82837 5.2952Z" fill="#027DBA"/>
<path d="M9.63794 6.17143H14.7808V5.75238H9.71413L9.63794 6.17143Z" fill="#027DBA"/>
<path d="M9.56189 7.00949H14.7809V6.62854H9.59998L9.56189 7.00949Z" fill="#027DBA"/>
<path d="M9.59998 7.88572H14.7809V7.46667H9.56189L9.59998 7.88572Z" fill="#027DBA"/>
<path d="M9.75246 8.72373H14.781V8.30469H9.67627L9.75246 8.72373Z" fill="#027DBA"/>
<path d="M9.98099 9.56186H14.781V9.18091H9.8667L9.98099 9.56186Z" fill="#027DBA"/>
<path d="M10.3619 10.438H14.7809V10.019H10.1333L10.3619 10.438Z" fill="#027DBA"/>
<path d="M10.857 11.3142H14.7808V10.8952H10.5903L10.857 11.3142Z" fill="#027DBA"/>
<path d="M11.5429 12.1523H14.781V11.7333H11.2001L11.5429 12.1523Z" fill="#027DBA"/>
<path d="M22.9334 9.25709L22.8953 9.14281L22.8572 9.06662L22.8191 9.02852L22.781 8.99043L22.7048 8.95233H22.6667H22.5905H22.5525H22.5144H22.4382H22.4001L22.3239 8.99043L22.2858 9.02852V9.06662L22.2477 9.14281L22.2096 9.219V9.25709V9.29519V9.33328V9.37138V9.40947V9.44757L22.2858 9.48567L22.3239 9.52376L22.362 9.56186L22.4382 9.59995H22.4763H22.5144H22.5905H22.6286H22.6667H22.7429H22.781H22.8191L22.8572 9.56186L22.8953 9.52376L22.9334 9.48567L22.9715 9.40947L23.0096 9.33328V9.29519V9.25709H22.9334ZM22.8572 9.29519V9.33328V9.37138L22.8191 9.40947L22.781 9.48567L22.7429 9.52376H22.6667H22.6286H22.5905H22.5525H22.5144H22.4763L22.4001 9.48567L22.362 9.44757L22.3239 9.40947V9.37138V9.33328V9.29519V9.25709L22.362 9.219V9.1809L22.4001 9.14281L22.4382 9.10471H22.4763H22.5144H22.5525H22.5905H22.6286L22.6667 9.14281L22.7048 9.1809L22.7429 9.219L22.781 9.25709V9.29519H22.8572Z" fill="white"/>
<path d="M22.7047 9.29516L22.7427 9.21897V9.18087V9.14278V9.10468V9.06659L22.6666 9.10468H22.6285H22.438V9.44754H22.5523V9.33326H22.5904L22.6666 9.44754H22.7808L22.7047 9.29516ZM22.6285 9.21897L22.5142 9.25707V9.21897H22.6285Z" fill="white"/>
<path d="M20.4572 6.47615V6.43805L20.4953 6.36186L20.5334 6.32377L20.5715 6.28567H20.6096L20.6477 6.24757L20.7239 6.20948H20.8001L20.8763 6.17138H20.9525H21.1429H21.3334H21.5239L21.8668 6.20948H22.0191L22.2477 5.29519L21.7906 5.219L21.1429 5.18091H20.8763H20.6477H20.5334L20.4572 5.219L20.2668 5.2571H20.1525L20.0763 5.29519H20.0001L19.9239 5.33329L19.8477 5.37138L19.7334 5.44757L19.6572 5.48567L19.6191 5.52377L19.5429 5.56186L19.4668 5.63805L19.4287 5.71424L19.3525 5.82853L19.3144 5.86662L19.2763 5.98091L19.2382 6.0571L19.2001 6.20948L19.162 6.36186V6.51424L19.1239 6.66662V6.78091L19.162 6.89519L19.2001 7.00948V7.08567L19.2382 7.16186L19.3144 7.27615L19.3525 7.31424L19.4287 7.39043L19.4668 7.46662L19.5429 7.50472L19.6191 7.58091L19.6953 7.619L19.7715 7.6571L19.8477 7.69519L20.3049 7.88567L20.4572 7.92377L20.4953 7.96186L20.5715 7.99995L20.6096 8.03805L20.6477 8.07615V8.11424L20.6858 8.15234V8.19043V8.22853V8.30472V8.38091L20.6477 8.4571L20.6096 8.49519L20.5715 8.57138L20.4953 8.60948H20.4572L20.4191 8.64757H20.381L20.2668 8.68567H20.1525H19.9239H19.7715L19.3906 8.60948L19.0858 8.57138L18.8191 8.49519L18.6287 9.40948L18.8572 9.48567L19.162 9.56186L19.6572 9.59995H20.3049H20.4572H20.6477L20.8001 9.56186L20.9144 9.52376H20.9906L21.1429 9.48567L21.181 9.44757L21.2572 9.40948L21.4096 9.33329L21.5239 9.2571L21.562 9.219L21.6382 9.18091L21.6763 9.10472L21.7144 9.06662L21.7906 8.99043L21.8287 8.91424L21.8668 8.83805L21.9048 8.79996V8.68567L21.9429 8.60948L21.981 8.53329V8.4571L22.0191 8.34281V8.22853V8.11424V7.99995L21.981 7.88567V7.77138L21.9429 7.69519L21.9048 7.619V7.54281L21.8287 7.46662L21.7906 7.42853L21.7525 7.35234L21.7144 7.31424L21.6382 7.27615L21.5239 7.19996L21.4477 7.16186L21.4096 7.12376L21.2572 7.08567L20.9906 7.00948L20.8382 6.93329L20.762 6.89519L20.6477 6.8571L20.5715 6.78091L20.5334 6.74281L20.4953 6.70472V6.62853L20.4572 6.59043V6.55234V6.51424V6.47615Z" fill="white"/>
<path d="M6.09521 9.56187V9.59996H7.46664L8.19045 5.37141V5.33331H6.81902L6.09521 9.56187Z" fill="white"/>
<path d="M17.4477 5.33331L17.1429 7.50473L17.1048 7.58092L17.0667 7.69521L17.0286 7.80949L16.9905 7.88568L16.9524 7.96187L16.8762 8.03807L16.8381 8.07616L16.762 8.15235L16.6858 8.19045L16.6096 8.22854L16.5334 8.26664H16.4572L16.381 8.30473H16.2286H16.1905H16.1143H16.0762H16.0001L15.962 8.26664L15.9239 8.22854H15.8858L15.8477 8.19045L15.8096 8.11426L15.7715 8.07616L15.7334 8.03807V7.96187L15.6953 7.88568V7.80949V7.7333V7.61902L16.0381 5.33331H14.7048L14.3239 7.80949L14.2858 7.99997V8.07616V8.19045V8.26664V8.34283L14.3239 8.45711L14.362 8.60949V8.68568L14.4001 8.83806L14.4762 8.95235L14.5524 9.10473L14.5905 9.14282L14.6286 9.21901L14.7429 9.2952L14.781 9.37139L14.8191 9.40949L14.8953 9.44758L15.0096 9.48568L15.0477 9.52377L15.1239 9.56187H15.162L15.2381 9.59996H15.3143H15.3524H15.5048H15.7715L15.9239 9.56187H16.0381L16.2286 9.52377L16.3429 9.48568L16.4572 9.44758L16.5334 9.37139L16.6477 9.2952L16.8001 9.18092L16.9143 9.02854L16.8381 9.59996H18.1715L18.8191 5.33331H17.4477Z" fill="white"/>
<path d="M6.39998 4.45711L5.79045 4.26663L5.52379 4.22853L5.29521 4.19044L5.02855 4.15234H4.79998L4.68569 4.19044H4.53331L4.38093 4.22853H4.26664L4.11426 4.26663L3.99998 4.30472L3.88569 4.34282L3.77141 4.38092L3.65712 4.41901L3.54283 4.4952L3.42855 4.5333L3.35236 4.60949L3.23807 4.68568L3.16188 4.76187L3.0476 4.83806L2.97141 4.91425L2.89521 5.02853L2.81902 5.10472L2.74283 5.21901L2.66664 5.3333L2.59045 5.44758L2.55236 5.56187L2.47617 5.67615L2.43807 5.79044L2.36188 5.94282L2.32379 6.05711L2.2476 6.36187L2.17141 6.70473L2.13331 6.85711L2.09521 7.00949V7.19996V7.35234V7.50472V7.65711V7.77139L2.13331 7.92377V8.03806L2.17141 8.15234L2.2095 8.30473L2.2476 8.41901L2.32379 8.5333L2.36188 8.60949L2.43807 8.72377L2.47617 8.79996L2.55236 8.91425L2.62855 8.99044L2.70474 9.06663L2.78093 9.14282L2.85712 9.18092L2.93331 9.25711L3.0476 9.3333L3.12379 9.37139L3.19998 9.40949L3.31426 9.44758L3.39045 9.48568L3.46664 9.52377L3.58093 9.56187H3.65712L3.77141 9.59996H3.8476L4.07617 9.63806H4.26664H4.45712H4.72379L4.91426 9.59996L5.02855 9.56187H5.10474L5.29521 9.48568L5.37141 9.44758L5.52379 9.3333L5.75236 8.19044L5.63807 8.26663L5.56188 8.34282L5.48569 8.38092L5.37141 8.41901L5.33331 8.45711L5.25712 8.4952L5.10474 8.5333H4.87617L4.79998 8.57139L4.6095 8.5333H4.30474L4.15236 8.4952L4.03807 8.41901L3.88569 8.38092L3.8095 8.30473L3.69521 8.22854L3.61902 8.11425L3.54283 8.03806L3.50474 7.92377L3.46664 7.80949L3.42855 7.6952L3.39045 7.54282V7.42853V7.31425V7.16187V7.00949L3.42855 6.8952L3.50474 6.62853L3.54283 6.39996L3.65712 6.20949L3.69521 6.0952L3.73331 6.01901L3.8095 5.86663L3.8476 5.79044L3.92379 5.75234L3.96188 5.67615L3.99998 5.63806L4.07617 5.59996L4.19045 5.52377L4.22855 5.48568L4.34283 5.40949H4.38093L4.49521 5.37139H4.57141L4.6095 5.3333H4.83807L5.14283 5.2952L5.29521 5.3333L5.52379 5.37139L5.79045 5.44758L5.98093 5.52377L6.2095 5.63806L6.39998 4.45711Z" fill="white"/>
<path d="M11.1999 6.55231L11.5809 5.25708H11.4285H11.238H11.1237L10.9714 5.29518L10.7809 5.33327L10.5904 5.44756L10.5142 5.48565L10.438 5.52375L10.3618 5.59994L10.2856 5.67613L10.1714 5.79041L10.2095 5.29518H9.02851H8.99041L8.2666 9.56183V9.59992H9.63803L10.1333 7.00945L10.1714 6.97136L10.2095 6.89517L10.2476 6.85707L10.2856 6.78088L10.3237 6.74279L10.3618 6.70469L10.3999 6.6666L10.4761 6.59041L10.5523 6.55231H10.5904L10.7047 6.51422L10.819 6.47612H10.8952H10.9333L11.1618 6.51422L11.1999 6.55231Z" fill="white"/>
<path d="M14.3238 5.25708H14.1333H14.019L13.8666 5.29518L13.7143 5.33327L13.6 5.37137L13.5238 5.40946L13.4476 5.44756L13.3333 5.52375L13.219 5.59994L13.1428 5.67613L13.0285 5.79041L13.1047 5.29518H13.0666H11.9238H11.8857L11.1619 9.56183L11.1238 9.59992H12.4952L13.0285 7.00945V6.97136L13.0666 6.89517L13.1047 6.85707L13.1428 6.78088L13.1809 6.74279L13.219 6.70469L13.2952 6.6666L13.3333 6.6285L13.3714 6.59041L13.4095 6.55231H13.4857L13.5619 6.51422L13.7143 6.47612H13.7524H13.8285L14.0571 6.51422L14.0952 6.55231L14.4762 5.25708H14.3238Z" fill="white"/>
</svg>
