<svg width="24" height="16" viewBox="0 0 24 16" fill="none" xmlns="http://www.w3.org/2000/svg">
<path d="M11.613 5.80646H9.67749V15.4839H11.613V5.80646Z" fill="#3042C6"/>
<path d="M13.1614 5.80648V7.35486H15.0969V12.9291C15.0969 13.6645 15.213 14.2839 15.6388 14.7097C16.0259 15.1742 16.5291 15.4065 17.1872 15.4065C17.8452 15.4065 18.4259 15.2903 18.9291 14.9807H18.9678V14.942L19.3936 13.1226L19.2775 13.2C18.7356 13.5097 18.3485 13.6645 17.884 13.6645C17.2646 13.6645 17.0323 13.3162 17.0323 12.5807V7.35486H18.9678V5.80648H17.0323V2.74841L15.0969 3.79357V5.80648H13.1614Z" fill="#32357F"/>
<path d="M22.8388 5.80646H20.9033V15.4839H22.8388V5.80646Z" fill="#32357F"/>
<path d="M8.43871 7.23873L8.4 7.20002C7.50968 6.11615 6.3871 5.57422 5.03226 5.57422C3.6 5.57422 2.43871 6.00002 1.50968 6.85164C0.503226 7.78067 0 8.98067 0 10.5291C0 12.0774 0.503226 13.2774 1.50968 14.2065C2.43871 15.0581 3.6 15.4839 5.03226 15.4839C6.3871 15.4839 7.50968 14.9419 8.4 13.8581L8.43871 13.8194L7.31613 12.4645L7.27742 12.5032C6.54193 13.2 5.76774 13.5871 4.95484 13.5871C4.10323 13.5871 3.36774 13.2774 2.82581 12.6968C2.24516 12.1161 1.97419 11.3807 1.97419 10.4903C1.97419 9.60002 2.24516 8.86454 2.82581 8.28389C3.40645 7.70325 4.10323 7.43228 4.95484 7.43228C5.76774 7.43228 6.54193 7.81938 7.27742 8.51615L7.31613 8.55486L8.43871 7.23873Z" fill="#32357F"/>
<path d="M10.529 4.18065C11.3032 3.40645 12.1548 2.7871 13.1612 2.36129C14.0903 1.93548 15.0967 1.74194 16.1419 1.74194C17.1871 1.74194 18.1935 1.93548 19.1612 2.36129C20.129 2.7871 20.9806 3.40645 21.7548 4.21936L21.7935 4.29677H24L23.9225 4.14194C23.0322 2.90323 21.8709 1.85806 20.4774 1.16129C19.0838 0.387097 17.6516 0 16.1419 0C14.6322 0 13.1612 0.348387 11.7677 1.08387C10.3741 1.81936 9.21286 2.82581 8.32254 4.10323L8.24512 4.25807H10.4903L10.529 4.18065Z" fill="#EA2230"/>
<path d="M11.613 6.5419L9.67749 6.11609V15.4838H11.613V6.11609V6.5419Z" fill="#32357F"/>
<path d="M13.1614 5.80648V7.35486H15.0969V12.9291C15.0969 13.6645 15.213 14.2839 15.6388 14.7097C16.0259 15.1742 16.5291 15.4065 17.1872 15.4065C17.8452 15.4065 18.4259 15.2903 18.9291 14.9807H18.9678V14.942L19.3936 13.1226L19.2775 13.2C18.7356 13.5097 18.3485 13.6645 17.884 13.6645C17.2646 13.6645 17.0323 13.3162 17.0323 12.5807V7.35486H18.9678V5.80648H17.0323V2.74841L15.0969 3.79357V5.80648H13.1614Z" fill="#3042C6"/>
<path d="M13.1614 5.80642V7.35481H15.0969V12.929C15.0969 13.6645 15.213 14.2838 15.6388 14.7096C16.0259 15.1742 16.5291 15.4064 17.1872 15.4064C17.8452 15.4064 18.4259 15.2903 18.9291 14.9806H18.9678V14.9419L19.3936 13.1226L19.2775 13.2C18.7356 13.5096 18.3485 13.6645 17.884 13.6645C17.2646 13.6645 17.0323 13.3161 17.0323 12.5806V7.35481H18.9678V5.80642H17.0323V4.64513L15.0969 3.79352V5.80642H13.1614Z" fill="#32357F"/>
<path d="M22.8388 5.80646H20.9033V15.4839H22.8388V5.80646Z" fill="#3042C6"/>
<path d="M22.8388 5.80646L20.9033 6.46452V15.4839H22.8388V5.80646Z" fill="#32357F"/>
<path d="M8.4 7.27744V7.20002C7.50968 6.11615 6.3871 5.57422 5.03226 5.57422C3.6 5.57422 2.43871 6.00002 1.50968 6.85164C0.503226 7.78067 0 8.98067 0 10.5291C0 12.0774 0.503226 13.2774 1.50968 14.2065C2.43871 15.0581 3.6 15.4839 5.03226 15.4839C6.3871 15.4839 7.50968 14.9419 8.4 13.8581L8.43871 13.8194L7.31613 12.4645L7.27742 12.5032C6.54193 13.2 5.76774 13.5871 4.95484 13.5871C4.10323 13.5871 3.36774 13.2774 2.82581 12.6968C2.24516 12.1161 1.97419 11.3807 1.97419 10.4903C1.97419 9.60002 2.24516 8.86454 2.82581 8.28389C3.40645 7.70325 4.10323 7.43228 4.95484 7.43228C5.76774 7.43228 6.54193 7.81938 7.27742 8.51615L7.31613 8.55486L8.43871 7.20002L8.4 7.27744Z" fill="#3042C6"/>
<path d="M1.50968 6.85168C0.503226 7.78072 0 8.98072 0 10.5291C0 12.0775 0.503226 13.2775 1.50968 14.2065C2.43871 15.0581 3.6 15.4839 5.03226 15.4839C6.3871 15.4839 7.50968 14.942 8.4 13.8581L8.43871 13.8194L7.31613 12.4646L7.27742 12.5033C6.54193 13.2001 5.76774 13.5872 4.95484 13.5872C4.10323 13.5872 3.36774 13.2775 2.82581 12.6968C2.24516 12.1162 1.97419 11.3807 1.97419 10.4904C1.97419 9.60007 2.24516 8.86459 2.82581 8.28394C3.40645 7.7033 4.10323 7.43233 4.95484 7.43233C5.76774 7.43233 6.54193 7.81943 7.27742 8.5162L7.31613 8.55491L8.36129 7.27749V7.20007" fill="#32357F"/>
<path d="M10.529 4.18065C11.3032 3.40645 12.1548 2.7871 13.1612 2.36129C14.0903 1.93548 15.0967 1.74194 16.1419 1.74194C17.1871 1.74194 18.1935 1.93548 19.1612 2.36129C20.129 2.7871 20.9806 3.40645 21.7548 4.21936L21.7935 4.29677H24L23.9225 4.14194C23.0322 2.90323 21.8709 1.85806 20.4774 1.16129C19.0838 0.387097 17.6516 0 16.1419 0C14.6322 0 13.1612 0.348387 11.7677 1.08387C10.3741 1.81936 9.21286 2.82581 8.32254 4.10323L8.24512 4.25807H10.4903L10.529 4.18065Z" fill="#E92F30"/>
<path d="M10.529 4.18065C11.3032 3.40645 12.1548 2.7871 13.1612 2.36129C14.0903 1.93548 15.0967 1.74194 16.1419 1.74194C17.1871 1.74194 18.1935 1.93548 19.1612 2.36129C20.129 2.7871 20.9806 3.40645 21.7548 4.21936L21.7935 4.29677H24L23.9225 4.14194C23.0322 2.90323 21.8709 1.85806 20.4774 1.16129C19.0838 0.387097 17.6516 0 16.1419 0C14.6322 0 13.1612 0.348387 11.7677 1.08387C10.3741 1.81936 9.21286 2.82581 8.32254 4.10323L8.24512 4.25807H10.4903L10.529 4.18065Z" fill="#E92F30"/>
<path d="M10.529 4.18065C11.3032 3.40645 12.1548 2.7871 13.1612 2.36129C14.0903 1.93548 15.0967 1.74194 16.1419 1.74194C17.1871 1.74194 18.1935 1.93548 19.1612 2.36129C20.129 2.7871 20.9806 3.40645 21.7548 4.21936L21.7935 4.29677H24L23.9225 4.14194C23.0322 2.90323 21.8709 1.85806 20.4774 1.16129C19.0838 0.387097 17.6516 0 16.1419 0C14.6322 0 13.1612 0.348387 11.7677 1.08387C10.3741 1.81936 9.21286 2.82581 8.32254 4.10323L8.24512 4.25807H10.4903L10.529 4.18065Z" fill="#FF3E48"/>
<path d="M20.4773 1.74195C19.0838 1.00647 17.6515 0.658081 16.1032 0.658081C14.5935 0.658081 13.1225 1.04518 11.729 1.74195C10.529 2.36131 9.52251 3.0968 8.6709 4.25809H10.4515V4.18067C11.2257 3.40647 12.0773 2.78712 13.0838 2.36131C14.0128 1.9355 15.0193 1.74195 16.0644 1.74195C17.1096 1.74195 18.1161 1.9355 19.0838 2.36131C20.0515 2.78712 20.9032 3.40647 21.6773 4.21938L21.7161 4.2968H23.4967C22.7225 3.0968 21.6773 2.36131 20.4773 1.74195Z" fill="#E92F30"/>
<path d="M10.4903 4.25804C11.2645 3.48384 12.1548 2.78707 13.1225 2.36126C14.0516 1.93546 15.058 1.74191 16.1032 1.74191C17.1483 1.74191 18.1548 1.93546 19.1225 2.36126C20.0903 2.78707 20.9419 3.40642 21.7161 4.21933L21.7548 4.29675H22.9935C22.258 3.52255 21.4451 2.9032 20.5161 2.39997C19.1225 1.66449 17.6903 1.3161 16.1419 1.3161C14.6322 1.3161 13.1613 1.7032 11.7677 2.39997C10.8387 2.9032 9.98706 3.52255 9.29028 4.29675H10.4903V4.25804Z" fill="#D3000B"/>
<path d="M20.9033 9.75482V15.4839H22.8388V11.1097C22.0646 10.5677 21.6775 10.1419 20.9033 9.75482Z" fill="#0A0E49"/>
<path d="M15.9096 8.43872C15.6386 8.43872 15.0967 8.43872 15.0967 8.47743V12.929C15.0967 13.6645 15.2128 14.2839 15.6386 14.7097C16.0257 15.1742 16.5289 15.4065 17.187 15.4065C17.8451 15.4065 18.4257 15.2903 18.9289 14.9807H18.9676V14.9419L19.3935 13.1226L19.2773 13.2C18.7354 13.5097 18.3483 13.6645 17.8838 13.6645C17.2644 13.6645 17.0322 13.3161 17.0322 12.5807V8.47743C16.6451 8.43872 16.2967 8.43872 15.9096 8.43872Z" fill="#0A0E49"/>
<path d="M9.67749 10.4903V15.4839H11.613V9.36774C10.8388 9.67741 10.0646 10.0645 9.67749 10.4903Z" fill="#0A0E49"/>
<path d="M5.26465 15.4451C6.50336 15.3677 7.54852 14.8258 8.36142 13.8193L8.40013 13.7806L7.35497 12.5032C6.58078 13.3935 5.884 14.3612 5.26465 15.4451Z" fill="#0A0E49"/>
</svg>
