<svg width="33" height="11" viewBox="0 0 33 11" fill="none" xmlns="http://www.w3.org/2000/svg">
<path d="M17.7642 5.41944C19.2465 5.41944 20.4481 4.21783 20.4481 2.73557C20.4481 1.25331 19.2465 0.0516968 17.7642 0.0516968C16.2819 0.0516968 15.0803 1.25331 15.0803 2.73557C15.0803 4.21783 16.2819 5.41944 17.7642 5.41944Z" fill="#EF9122"/>
<path d="M15.0803 2.73557C15.0803 1.23879 16.2674 0.0516968 17.7642 0.0516968C19.261 0.0516968 20.4481 1.23879 20.4481 2.73557C20.4481 4.23234 19.261 5.41944 17.7642 5.41944" fill="#F26E21"/>
<path d="M15.9065 0.825891C16.9388 -0.206368 18.642 -0.206368 19.6742 0.825891C20.7065 1.85815 20.7065 3.56138 19.6742 4.59363" fill="#F44500"/>
<path d="M2.22885 0.206482H0.783691V5.26455H2.22885C3.00305 5.26455 3.57079 5.0581 4.03531 4.69681C4.60305 4.23229 4.96434 3.50971 4.96434 2.73552C4.96434 1.23874 3.88047 0.206482 2.22885 0.206482ZM3.41595 4.02584C3.10627 4.2839 2.69337 4.43874 2.07401 4.43874H1.76434V1.0839H2.0224C2.64176 1.0839 3.05466 1.18713 3.36434 1.4968C3.72563 1.80648 3.93208 2.271 3.93208 2.73552C3.98369 3.20003 3.77724 3.71616 3.41595 4.02584Z" fill="#595A5B"/>
<path d="M6.4096 0.206482H5.42896V5.26455H6.4096V0.206482Z" fill="#595A5B"/>
<path d="M8.88654 2.16775C8.26719 1.9613 8.11235 1.80646 8.11235 1.54839C8.11235 1.23872 8.42203 0.980652 8.83493 0.980652C9.14461 0.980652 9.40268 1.08388 9.66074 1.39356L10.1769 0.722588C9.76397 0.361297 9.24784 0.154846 8.68009 0.154846C7.80267 0.154846 7.08009 0.774201 7.08009 1.60001C7.08009 2.32259 7.38977 2.63227 8.3188 2.99356C8.73171 3.1484 8.88654 3.20001 8.98977 3.30323C9.19622 3.40646 9.29945 3.61291 9.29945 3.81936C9.29945 4.23227 8.98977 4.54195 8.52525 4.54195C8.06074 4.54195 7.64783 4.28388 7.44138 3.87098L6.82202 4.49033C7.28654 5.1613 7.85428 5.47098 8.57687 5.47098C9.60913 5.47098 10.3317 4.80001 10.3317 3.81936C10.3317 2.94194 10.022 2.58065 8.88654 2.16775Z" fill="#595A5B"/>
<path d="M10.6421 2.7355C10.6421 4.23228 11.8292 5.36776 13.326 5.36776C13.7389 5.36776 14.1002 5.26454 14.5647 5.05809V3.87098C14.1518 4.28389 13.7905 4.43873 13.3776 4.43873C12.3969 4.43873 11.6743 3.71614 11.6743 2.68388C11.6743 1.70323 12.3969 0.929037 13.326 0.929037C13.7905 0.929037 14.1518 1.08388 14.5647 1.49678V0.309679C14.1518 0.103226 13.7905 0 13.326 0C11.8808 0.103226 10.6421 1.29033 10.6421 2.7355Z" fill="#3B3D3F"/>
<path d="M22.6675 3.61293L21.3256 0.206482H20.2417L22.3578 5.41939H22.9256L25.1449 0.206482H24.0611L22.6675 3.61293Z" fill="black"/>
<path d="M25.5579 5.26455H28.3966V4.43874H26.5901V3.04519H28.345V2.16777H26.5901V1.0839H28.3966V0.206482H25.5579V5.26455Z" fill="black"/>
<path d="M31.1838 3.14842C31.958 2.99358 32.3709 2.47745 32.3709 1.70326C32.3709 0.774225 31.6999 0.206482 30.5644 0.206482H29.0676V5.26455H30.0483V3.25164H30.2031L31.5967 5.26455H32.7838L31.1838 3.14842ZM30.358 2.52906H30.0483V0.980676H30.358C30.9773 0.980676 31.3386 1.23874 31.3386 1.75487C31.3386 2.271 30.9773 2.52906 30.358 2.52906Z" fill="#595A5B"/>
<path d="M2.22885 0.206482H0.783691V5.26455H2.22885C3.00305 5.26455 3.57079 5.0581 4.03531 4.69681C4.60305 4.23229 4.96434 3.50971 4.96434 2.73552C4.96434 1.23874 3.88047 0.206482 2.22885 0.206482ZM3.41595 4.02584C3.10627 4.2839 2.69337 4.43874 2.07401 4.43874H1.76434V1.0839H2.0224C2.64176 1.0839 3.05466 1.18713 3.36434 1.4968C3.72563 1.80648 3.93208 2.271 3.93208 2.73552C3.98369 3.20003 3.77724 3.71616 3.41595 4.02584Z" fill="#595A5B"/>
<path d="M6.4096 0.206482H5.42896V5.26455H6.4096V0.206482Z" fill="#595A5B"/>
<path d="M8.88654 2.16775C8.26719 1.9613 8.11235 1.80646 8.11235 1.54839C8.11235 1.23872 8.42203 0.980652 8.83493 0.980652C9.14461 0.980652 9.40268 1.08388 9.66074 1.39356L10.1769 0.722588C9.76397 0.361297 9.24784 0.154846 8.68009 0.154846C7.80267 0.154846 7.08009 0.774201 7.08009 1.60001C7.08009 2.32259 7.38977 2.63227 8.3188 2.99356C8.73171 3.1484 8.88654 3.20001 8.98977 3.30323C9.19622 3.40646 9.29945 3.61291 9.29945 3.81936C9.29945 4.23227 8.98977 4.54195 8.52525 4.54195C8.06074 4.54195 7.64783 4.28388 7.44138 3.87098L6.82202 4.49033C7.28654 5.1613 7.85428 5.47098 8.57687 5.47098C9.60913 5.47098 10.3317 4.80001 10.3317 3.81936C10.3317 2.94194 10.022 2.58065 8.88654 2.16775Z" fill="#595A5B"/>
<path d="M13.3766 5.36782C13.7896 5.36782 14.1508 5.2646 14.6154 5.05814V3.87105C14.2025 4.28395 13.8412 4.43879 13.4283 4.43879C12.4476 4.43879 11.725 3.71621 11.725 2.68395C11.725 2.16782 11.9315 1.75492 12.2412 1.39362L11.5702 0.722656C11.0541 1.18717 10.6928 1.90975 10.6928 2.68395C10.6412 4.23234 11.8283 5.36782 13.3766 5.36782Z" fill="#595A5B"/>
<path d="M31.1838 3.14842C31.958 2.99358 32.3709 2.47745 32.3709 1.70326C32.3709 0.774225 31.6999 0.206482 30.5644 0.206482H29.0676V5.26455H30.0483V3.25164H30.2031L31.5967 5.26455H32.7838L31.1838 3.14842ZM30.358 2.52906H30.0483V0.980676H30.358C30.9773 0.980676 31.3386 1.23874 31.3386 1.75487C31.3386 2.271 30.9773 2.52906 30.358 2.52906Z" fill="black"/>
<path d="M8.06128 9.96133V7.12262L10.0226 9.13552V7.27746H10.4355V10.1162L8.47418 8.10326V9.96133H8.06128Z" fill="#F26E21"/>
<path d="M12.4999 7.69031H11.4161V8.30966H12.4483V8.72257H11.4161V9.59999H12.4999V9.96128H11.0032V7.2774H12.4999V7.69031Z" fill="#F26E21"/>
<path d="M13.7906 7.69045V9.96142H13.3777V7.69045H12.7583V7.32916H14.4099V7.69045H13.7906Z" fill="#F26E21"/>
<path d="M15.0289 7.32912L15.6998 9.13557L16.4224 7.22589L17.0934 9.13557L17.816 7.32912H18.3321L17.145 10.1678L16.474 8.25815L15.7515 10.1678L14.616 7.32912H15.0289Z" fill="#F26E21"/>
<path d="M18.384 8.61944C18.384 8.25815 18.5389 7.89686 18.7969 7.63879C19.055 7.38073 19.4163 7.22589 19.7776 7.22589C20.1389 7.22589 20.5002 7.38073 20.7582 7.63879C21.0163 7.89686 21.1711 8.25815 21.1711 8.61944C21.1711 8.98073 21.0163 9.34202 20.7582 9.60008C20.5002 9.85815 20.1389 10.013 19.7776 10.013C19.4163 10.013 19.1066 9.90976 18.8486 9.6517C18.5389 9.39363 18.384 9.08395 18.384 8.61944ZM18.7969 8.61944C18.7969 8.92912 18.9002 9.13557 19.1066 9.34202C19.3131 9.54847 19.5195 9.6517 19.7776 9.6517C20.0356 9.6517 20.2937 9.54847 20.5002 9.34202C20.7066 9.13557 20.8098 8.92912 20.8098 8.61944C20.8098 8.30976 20.7066 8.10331 20.5002 7.89686C20.2937 7.69041 20.0873 7.58718 19.7776 7.58718C19.5195 7.58718 19.2615 7.69041 19.055 7.89686C18.9002 8.10331 18.7969 8.36137 18.7969 8.61944Z" fill="#F26E21"/>
<path d="M22.616 8.82579L23.4419 9.96128H22.9257L22.1515 8.87741H22.0999V9.96128H21.687V7.2774H22.1515C22.5128 7.2774 22.7709 7.32902 22.9257 7.48386C23.0806 7.6387 23.1838 7.84515 23.1838 8.0516C23.1838 8.25805 23.1322 8.41289 23.0289 8.51612C22.9257 8.72257 22.7709 8.82579 22.616 8.82579ZM22.0999 8.51612H22.2031C22.5644 8.51612 22.7709 8.36128 22.7709 8.10321C22.7709 7.84515 22.5644 7.69031 22.2031 7.69031H22.0483V8.51612H22.0999Z" fill="#F26E21"/>
<path d="M24.216 8.36137L25.2482 7.2775H25.7644L24.5773 8.4646L25.7644 9.90976H25.2482L24.2676 8.72267L24.1644 8.82589V9.90976H23.7515V7.22589H24.1644V8.36137H24.216Z" fill="#F26E21"/>
<path d="M27.5192 4.43865H26.5901V3.50961L25.5579 2.47736V5.26445H28.345L27.5192 4.43865Z" fill="#3B3D3F"/>
<path d="M23.803 0.722611L22.6675 3.61293L21.3256 0.206482H20.2417L22.3578 5.41939H22.9256L24.5772 1.4968L23.803 0.722611Z" fill="#3B3D3F"/>
</svg>
