<svg width="23" height="24" viewBox="0 0 23 24" fill="none" xmlns="http://www.w3.org/2000/svg">
<path d="M12.672 22.5408C12.6336 22.5792 12.5568 22.6176 12.5184 22.6176C12.3648 22.6944 12.2112 22.6944 12.096 22.6944C11.9424 22.6944 11.712 22.6944 11.4816 22.5024C11.1744 22.272 11.0208 21.888 11.0208 21.5424C11.0208 20.8512 11.5968 20.5056 12.0576 20.5056C12.2112 20.5056 12.4032 20.544 12.5184 20.6208C12.7488 20.7744 12.7872 20.9664 12.8256 21.0816L11.7504 21.504L11.4048 21.5424C11.52 22.1184 11.904 22.464 12.3264 22.464C12.5568 22.464 12.7104 22.3872 12.864 22.3104L12.672 22.5408ZM12.2496 21.1968C12.3264 21.1584 12.3648 21.12 12.3648 21.0816C12.3648 20.8896 12.1728 20.6976 11.904 20.6976C11.712 20.6976 11.4048 20.8512 11.4048 21.312C11.4048 21.3888 11.4048 21.4656 11.4048 21.5424L12.2496 21.1968Z" fill="#1476C6"/>
<path d="M10.9437 22.6176H10.1373C10.2525 22.5024 10.2525 22.464 10.2525 22.3872V21.6576C10.2525 21.312 10.2525 20.8128 10.2525 20.352C10.2525 20.1216 10.2909 19.8528 10.2909 19.6224H9.94531L10.2909 19.4688H10.9437C10.7901 19.5456 10.7517 19.584 10.7517 19.7376C10.7133 20.0832 10.7133 20.6208 10.7133 21.2736V22.3104C10.7133 22.5024 10.7517 22.5024 10.9053 22.5408C10.9821 22.5408 11.0589 22.5408 11.1357 22.5792L10.9437 22.6176Z" fill="#1476C6"/>
<path d="M9.44619 20.736C9.56139 20.8128 9.75339 21.0048 9.75339 21.3504C9.75339 21.696 9.56139 21.8496 9.36939 22.0032C9.29259 22.08 9.25419 22.1184 9.25419 22.2336C9.25419 22.3488 9.33099 22.3872 9.36939 22.4256L9.52299 22.5408C9.71499 22.6944 9.90699 22.848 9.90699 23.1552C9.90699 23.5776 9.48459 24 8.71659 24C8.06379 24 7.75659 23.6928 7.75659 23.3472C7.75659 23.1936 7.83339 22.9632 8.10219 22.8096C8.37099 22.656 8.75499 22.6176 8.94699 22.6176C8.87019 22.5408 8.79339 22.464 8.79339 22.3104C8.79339 22.2336 8.83179 22.1952 8.83179 22.1184C8.79339 22.1184 8.71659 22.1184 8.67819 22.1184C8.21739 22.1184 7.94859 21.7728 7.94859 21.4272C7.94859 21.2352 8.02539 21.0048 8.21739 20.8128C8.48619 20.6208 8.79339 20.5824 9.02379 20.5824H9.94539L9.63819 20.736H9.44619ZM9.13899 22.7328C9.10059 22.7328 9.06219 22.7328 9.02379 22.7328C8.98539 22.7328 8.75499 22.7328 8.56299 22.8096C8.44779 22.848 8.17899 22.9632 8.17899 23.2704C8.17899 23.5776 8.48619 23.808 8.98539 23.808C9.40779 23.808 9.63819 23.616 9.63819 23.3088C9.63819 23.1168 9.48459 23.0016 9.13899 22.7328ZM9.25419 21.888C9.36939 21.7728 9.36939 21.6576 9.36939 21.5424C9.36939 21.2352 9.17739 20.6976 8.79339 20.6976C8.67819 20.6976 8.56299 20.7744 8.48619 20.8512C8.40939 20.928 8.37099 21.0816 8.37099 21.1968C8.37099 21.504 8.56299 22.0032 8.94699 22.0032C9.06219 22.0416 9.21579 21.9648 9.25419 21.888Z" fill="#1476C6"/>
<path d="M6.68172 22.6944C5.95212 22.6944 5.56812 22.1184 5.56812 21.6192C5.56812 21.0432 6.06732 20.544 6.72012 20.544C7.37292 20.544 7.79532 21.0432 7.79532 21.6192C7.83372 22.1184 7.41132 22.6944 6.68172 22.6944ZM7.25772 22.3104C7.37292 22.1568 7.37292 22.0032 7.37292 21.8112C7.37292 21.4272 7.18092 20.6592 6.64332 20.6592C6.48972 20.6592 6.33612 20.736 6.22092 20.8128C6.02892 20.9664 6.02892 21.1584 6.02892 21.3504C6.02892 21.8112 6.25932 22.5408 6.79692 22.5408C6.95052 22.5408 7.14252 22.464 7.25772 22.3104Z" fill="#1476C6"/>
<path d="M4.30085 22.6944C3.57125 22.6944 3.18726 22.1184 3.18726 21.6192C3.18726 21.0432 3.68645 20.544 4.33925 20.544C4.99205 20.544 5.41445 21.0432 5.41445 21.6192C5.41445 22.1184 5.03045 22.6944 4.30085 22.6944ZM4.83845 22.3104C4.95365 22.1568 4.99205 22.0032 4.99205 21.8112C4.99205 21.4272 4.80005 20.6592 4.26245 20.6592C4.10885 20.6592 3.95525 20.736 3.84005 20.8128C3.64805 20.9664 3.64805 21.1584 3.64805 21.3504C3.64805 21.8112 3.87845 22.5408 4.41605 22.5408C4.56965 22.5408 4.76165 22.464 4.83845 22.3104Z" fill="#1476C6"/>
<path d="M2.9184 22.5408L2.304 22.656C2.0736 22.6944 1.8432 22.7328 1.6128 22.7328C0.4608 22.7328 0 21.888 0 21.1968C0 20.3904 0.6144 19.6224 1.6896 19.6224C1.92 19.6224 2.1504 19.6608 2.3424 19.6992C2.6496 19.776 2.8032 19.8912 2.88 19.968L2.5344 20.3136L2.3808 20.352L2.496 20.1984C2.3424 20.0448 2.0736 19.8144 1.6128 19.8144C0.96 19.8144 0.4608 20.3136 0.4608 21.0432C0.4608 21.8496 1.0368 22.5792 1.9584 22.5792C2.2272 22.5792 2.3808 22.5408 2.496 22.464V21.7728L1.8432 21.8112L2.1888 21.6192H3.072L2.9568 21.7344C2.9184 21.7728 2.9184 21.7728 2.9184 21.8112C2.9184 21.8496 2.9184 21.9648 2.9184 22.0032V22.5408Z" fill="#1476C6"/>
<path d="M14.6304 22.6176H14.3232L13.824 20.5824H14.0928L14.4768 22.4256L14.8608 20.5824H15.168L15.5904 22.4256L15.9744 20.5824H16.2048L15.744 22.6176H15.4368L15.0528 20.8128L14.6304 22.6176Z" fill="#1476C6"/>
<path d="M17.7022 21.2352C17.7022 20.8896 17.5486 20.7744 17.203 20.7744C16.9342 20.7744 16.7806 20.928 16.7422 21.1584L16.5118 21.12C16.5502 20.7744 16.819 20.5824 17.203 20.5824C17.6638 20.5824 17.8942 20.7744 17.8942 21.2352V22.272C17.8942 22.464 17.8942 22.5792 17.9326 22.656H17.7022C17.6638 22.6176 17.6638 22.5024 17.6638 22.4256C17.5486 22.5792 17.3566 22.6944 17.1262 22.6944C16.7422 22.6944 16.4734 22.464 16.4734 22.0032C16.4734 21.5808 16.7806 21.3504 17.203 21.3504C17.395 21.3504 17.587 21.3888 17.7022 21.4272V21.2352ZM17.7022 21.6576C17.587 21.6192 17.4334 21.5424 17.203 21.5424C16.9342 21.5424 16.7038 21.696 16.7038 21.9648C16.7038 22.272 16.8958 22.4256 17.1646 22.4256C17.395 22.4256 17.587 22.272 17.7022 22.08V21.6576Z" fill="#1476C6"/>
<path d="M18.3933 22.6176H18.6237V19.6992H18.3933V22.6176Z" fill="#1476C6"/>
<path d="M19.1233 22.6176H19.3537V19.6992H19.1233V22.6176Z" fill="#1476C6"/>
<path d="M20.5055 22.464C20.7359 22.464 20.9279 22.3104 20.9663 21.9264L21.1967 21.9648C21.1199 22.464 20.8511 22.6944 20.5055 22.6944C20.0063 22.6944 19.7375 22.3488 19.7375 21.6192C19.7375 20.9664 19.9679 20.5824 20.4671 20.5824C21.0047 20.5824 21.1967 21.0048 21.1967 21.6192V21.696H19.9679C19.9679 22.1952 20.1599 22.464 20.5055 22.464ZM20.9663 21.4272C20.9663 21.0432 20.8127 20.736 20.4671 20.736C20.1599 20.736 19.9679 21.0048 19.9679 21.4272H20.9663Z" fill="#1476C6"/>
<path d="M22.2719 22.6176C22.2335 22.656 22.1183 22.656 22.0415 22.656C21.7343 22.656 21.6575 22.5024 21.6575 22.1952V20.7744H21.3887V20.5824H21.6575V19.9296L21.8879 19.8528V20.5824H22.2719V20.7744H21.8495V22.1568C21.8495 22.3488 21.8879 22.3872 22.0415 22.3872C22.1183 22.3872 22.1951 22.3872 22.2335 22.3488V22.6176" fill="#1476C6"/>
<path d="M8.44775 7.87201C7.44935 6.48962 6.06695 5.29922 4.49255 4.45442C4.26215 4.33922 3.99335 4.26242 3.72455 4.26242C3.11015 4.26242 2.57255 4.60802 2.26535 5.14562C1.84295 5.95202 2.15015 6.95042 2.95655 7.37282C5.37575 8.67841 6.95015 11.136 7.14215 14.016C7.10375 13.7088 7.18055 13.4016 7.29575 13.0944C7.33415 13.056 7.33415 13.0176 7.37255 12.9792C8.14055 11.7504 8.52455 10.2912 8.52455 8.83201C8.48615 8.48641 8.48615 8.17921 8.44775 7.87201Z" fill="#1476C6"/>
<path d="M18.0097 4.7616C17.7025 3.4944 17.2801 2.2272 16.7041 1.0368C16.3969 0.4224 15.7441 0 15.0529 0C14.7841 0 14.5153 0.0768 14.2849 0.192C13.3633 0.6144 12.9793 1.728 13.4401 2.6112C14.3617 4.5696 14.8225 6.6432 14.8225 8.7936C14.8225 10.944 14.3617 13.0176 13.4401 14.9376C13.4401 14.976 13.2481 15.3216 13.2481 15.7056C13.2481 15.8208 13.2481 15.9744 13.2865 16.128C13.4017 16.6272 13.7473 17.1264 14.2849 17.3568C14.5153 17.472 14.7841 17.5488 15.0529 17.5488C15.7057 17.5488 16.3201 17.1648 16.6657 16.5888C17.0113 15.8976 17.3953 15.0144 17.7025 13.8624C17.8177 13.5168 17.8945 13.1712 17.9713 12.8256C18.2785 11.52 18.4322 10.176 18.4322 8.7936C18.4706 7.4496 18.317 6.0672 18.0097 4.7616Z" fill="#47AE33"/>
<path d="M10.3295 2.87999C10.2911 2.84159 10.2527 2.76479 10.2143 2.72639C10.0991 2.57279 9.94554 2.41919 9.79194 2.34239C9.52314 2.11199 9.17754 2.03519 8.83194 2.03519C8.56314 2.03519 8.40954 2.07359 8.21754 2.15039C8.02554 2.22719 7.79514 2.34239 7.60314 2.53439C7.41114 2.72639 7.29594 2.95679 7.21914 3.18719C7.06554 3.60959 7.06554 4.22399 7.37274 4.68479C7.98714 5.64479 8.33274 6.75839 8.44794 7.91039C8.48634 8.21759 8.48634 8.52479 8.48634 8.83199C8.48634 10.2912 8.10234 11.712 7.33434 12.9792C7.29594 13.0176 7.29594 13.056 7.25754 13.0944C7.10394 13.4016 7.06554 13.7088 7.10394 14.016C7.14234 14.5536 7.44954 15.0528 7.94874 15.36C8.06394 15.4368 8.21754 15.4752 8.33274 15.552C8.48634 15.5904 8.67834 15.6288 8.83194 15.6288C9.44634 15.6288 9.98394 15.3216 10.3295 14.784C11.2895 13.2096 11.8271 11.4432 11.9807 9.59999C11.9807 9.36959 12.0191 9.10079 12.0191 8.87039C11.9807 6.68159 11.4047 4.64639 10.3295 2.87999Z" fill="#ED114C"/>
<path d="M13.44 14.9376C14.3616 13.0176 14.8224 10.944 14.8224 8.79362C14.8224 8.06402 14.784 7.52642 14.7456 7.18082C13.5552 5.26082 11.8272 3.57122 9.79199 2.30402L9.83039 2.34242C9.98399 2.45762 10.0992 2.53442 10.2144 2.72642C10.2528 2.76482 10.2912 2.80322 10.3296 2.88002C11.4048 4.64642 11.9808 6.72002 11.9808 8.79362C11.9808 9.06242 11.9808 9.29282 11.9424 9.52322C12.8256 11.1744 13.2864 13.056 13.2864 15.0144C13.2864 15.168 13.2864 15.4368 13.2864 15.5904C13.2864 15.3984 13.3632 15.168 13.4016 14.976C13.44 14.976 13.44 14.9376 13.44 14.9376Z" fill="#FBBF16"/>
<path d="M9.83022 2.34238C9.86862 2.38079 9.94542 2.41919 9.98382 2.45759C9.94542 2.45759 9.94542 2.41919 9.90702 2.41919C9.86862 2.38079 9.83022 2.34238 9.75342 2.34238C9.79182 2.30398 9.83022 2.34238 9.83022 2.34238Z" fill="#F98E19"/>
<path d="M13.3631 9.29281C12.7871 6.60481 11.6351 4.30081 10.2527 2.72641C10.2911 2.76481 10.3295 2.80321 10.3295 2.84161C11.4047 4.60801 11.9807 6.68161 11.9807 8.75521C11.9807 9.02401 11.9807 9.25441 11.9423 9.48481C12.8255 11.136 13.2863 13.0176 13.2863 14.976C13.2863 15.1296 13.2863 15.3984 13.2863 15.552C13.2863 15.36 13.3631 15.1296 13.4015 14.9376C13.4015 14.8992 13.4399 14.8608 13.4399 14.8608L13.7087 13.3248C13.7471 12.096 13.6703 10.7136 13.3631 9.29281Z" fill="#F98E19"/>
<path d="M8.4479 7.87201C7.7951 6.95041 6.9119 6.10561 5.9519 5.37601C6.1055 5.83681 6.2591 6.33601 6.3743 6.79681C6.9887 9.21601 7.2191 11.5584 7.0655 13.5168C7.0655 13.6704 7.1039 13.824 7.1039 13.9392C7.0655 13.632 7.1423 13.3248 7.2575 13.0176C7.2959 12.9792 7.2959 12.9408 7.3343 12.9024C8.1023 11.6736 8.4863 10.2144 8.4863 8.75521C8.4863 8.48641 8.4863 8.17921 8.4479 7.87201Z" fill="#0F51B2"/>
<path d="M13.4403 14.976C15.2067 12.7872 16.4355 8.40962 16.4355 3.37922C16.4355 2.38082 16.3971 1.42082 16.2819 0.499222C15.9363 0.192022 15.5139 0.0384216 15.0915 0.0384216C14.8227 0.0384216 14.5539 0.115222 14.3235 0.230422C13.4019 0.652822 13.0179 1.76642 13.4787 2.64962C14.4003 4.60802 14.8611 6.68162 14.8611 8.83202C14.8611 10.9824 14.4003 13.056 13.4787 14.976C13.4403 14.9376 13.4403 14.9376 13.4403 14.976Z" fill="#48C92D"/>
<path d="M7.2576 13.056C7.1808 13.2096 7.1424 13.4016 7.104 13.5936C8.5632 11.8656 9.6 8.33279 9.6 4.26239C9.6 3.53279 9.5616 2.84159 9.5232 2.15039C9.2928 2.07359 9.0624 2.03519 8.832 2.03519C8.5632 2.03519 8.4096 2.07359 8.2176 2.15039C8.0256 2.22719 7.7952 2.34239 7.6032 2.53439C7.4112 2.72639 7.296 2.95679 7.2192 3.18719C7.0656 3.60959 7.0656 4.22399 7.3728 4.68479C7.9872 5.64479 8.3328 6.75839 8.448 7.91039C8.4864 8.21759 8.4864 8.52479 8.4864 8.83199C8.4864 10.2912 8.1024 11.712 7.3344 12.9792C7.3344 12.9792 7.296 13.0176 7.2576 13.056Z" fill="#FF4382"/>
</svg>
