<svg width="32" height="9" viewBox="0 0 32 9" fill="none" xmlns="http://www.w3.org/2000/svg">
<path d="M24.7365 2.13339H23.0095C22.9079 2.13339 22.8063 2.23498 22.7555 2.33657L22.0444 6.80646C22.0444 6.90805 22.0952 6.95884 22.1968 6.95884H23.1111C23.2127 6.95884 23.2635 6.90805 23.2635 6.80646L23.4667 5.5366C23.4667 5.43501 23.5683 5.33343 23.7206 5.33343H24.2794C25.4476 5.33343 26.108 4.77469 26.2603 3.65722C26.3619 3.20007 26.2603 2.79372 26.0572 2.53975C25.7524 2.28578 25.2952 2.13339 24.7365 2.13339ZM24.9397 3.8096C24.8381 4.41913 24.381 4.41913 23.9238 4.41913H23.619L23.8222 3.25086C23.8222 3.20007 23.873 3.14928 23.9746 3.14928H24.0762C24.381 3.14928 24.6857 3.14928 24.8381 3.35245C24.9397 3.40325 24.9397 3.55563 24.9397 3.8096Z" fill="#139AD6"/>
<path d="M12.2917 2.13339H10.5647C10.4631 2.13339 10.3615 2.23498 10.3107 2.33657L9.59961 6.80646C9.59961 6.90805 9.6504 6.95884 9.75199 6.95884H10.5647C10.6663 6.95884 10.7679 6.85725 10.8187 6.75566L11.0218 5.5366C11.0218 5.43501 11.1234 5.33343 11.2758 5.33343H11.8345C13.0028 5.33343 13.6631 4.77469 13.8155 3.65722C13.9171 3.20007 13.8155 2.79372 13.6123 2.53975C13.3076 2.28578 12.9012 2.13339 12.2917 2.13339ZM12.4949 3.8096C12.3933 4.41913 11.9361 4.41913 11.479 4.41913H11.225L11.4282 3.25086C11.4282 3.20007 11.479 3.14928 11.5806 3.14928H11.6822C11.9869 3.14928 12.2917 3.14928 12.4441 3.35245C12.4949 3.40325 12.5457 3.55563 12.4949 3.8096Z" fill="#263B80"/>
<path d="M17.5238 3.75882H16.7111C16.6603 3.75882 16.5587 3.80961 16.5587 3.8604L16.5079 4.11437L16.4571 4.01279C16.2539 3.75882 15.8984 3.65723 15.492 3.65723C14.5777 3.65723 13.765 4.36835 13.6126 5.33344C13.511 5.84138 13.6634 6.29853 13.9174 6.6033C14.1714 6.90806 14.5269 7.00965 14.9841 7.00965C15.746 7.00965 16.1523 6.5525 16.1523 6.5525L16.1015 6.80647C16.1015 6.90806 16.1523 6.95886 16.2539 6.95886H17.0158C17.1174 6.95886 17.219 6.85727 17.2698 6.75568L17.727 3.9112C17.6762 3.8604 17.5746 3.75882 17.5238 3.75882ZM16.3555 5.38423C16.2539 5.84138 15.8984 6.19694 15.3904 6.19694C15.1365 6.19694 14.9333 6.09535 14.8317 5.99376C14.7301 5.84138 14.6793 5.6382 14.6793 5.38423C14.7301 4.92708 15.1365 4.57152 15.5936 4.57152C15.8476 4.57152 16 4.67311 16.1523 4.7747C16.3047 4.92708 16.3555 5.18105 16.3555 5.38423Z" fill="#263B80"/>
<path d="M29.918 3.75882H29.1053C29.0545 3.75882 28.953 3.80961 28.953 3.8604L28.9022 4.11437L28.8514 4.01279C28.6482 3.75882 28.2926 3.65723 27.8863 3.65723C26.972 3.65723 26.1593 4.36835 26.0069 5.33344C25.9053 5.84138 26.0577 6.29853 26.3117 6.6033C26.5656 6.90806 26.9212 7.00965 27.3784 7.00965C28.1403 7.00965 28.5466 6.5525 28.5466 6.5525L28.4958 6.80647C28.4958 6.90806 28.5466 6.95886 28.6482 6.95886H29.4101C29.5117 6.95886 29.6133 6.85727 29.6641 6.75568L30.1212 3.9112C30.0704 3.8604 30.0196 3.75882 29.918 3.75882ZM28.7498 5.38423C28.6482 5.84138 28.2926 6.19694 27.7847 6.19694C27.5307 6.19694 27.3276 6.09535 27.226 5.99376C27.1244 5.84138 27.0736 5.6382 27.0736 5.38423C27.1244 4.92708 27.5307 4.57152 27.9879 4.57152C28.2418 4.57152 28.3942 4.67311 28.5466 4.7747C28.7498 4.92708 28.8006 5.18105 28.7498 5.38423Z" fill="#139AD6"/>
<path d="M21.9431 3.7587H21.0796C20.978 3.7587 20.9273 3.80949 20.8765 3.86028L19.759 5.58727L19.251 3.96187C19.2003 3.86028 19.1495 3.80949 18.9971 3.80949H18.1844C18.0828 3.80949 18.032 3.91108 18.032 4.01267L18.9463 6.70474L18.0828 7.92379C18.032 8.02537 18.0828 8.17775 18.1844 8.17775H18.9971C19.0987 8.17775 19.1495 8.12696 19.2002 8.07617L21.9939 4.06346C22.1463 3.91108 22.0447 3.7587 21.9431 3.7587Z" fill="#263B80"/>
<path d="M30.8825 2.28573L30.1714 6.85719C30.1714 6.95878 30.2222 7.00957 30.3238 7.00957H31.0349C31.1365 7.00957 31.2381 6.90798 31.2889 6.80639L32 2.33652C32 2.23494 31.9492 2.18414 31.8476 2.18414H31.0349C30.9841 2.13335 30.9333 2.18414 30.8825 2.28573Z" fill="#139AD6"/>
<path d="M5.84131 0.609527C5.48575 0.203175 4.82543 0 3.91114 0H1.37144C1.21906 0 1.06667 0.152381 1.01588 0.304763L0 6.95877C0 7.11116 0.101588 7.21274 0.203176 7.21274H1.77779L2.18414 4.72384V4.82543C2.23494 4.67305 2.38732 4.52066 2.5397 4.52066H3.30161C4.77463 4.52066 5.8921 3.91114 6.24766 2.23493C6.24766 2.18414 6.24766 2.13335 6.24766 2.08255C6.19687 2.08255 6.19687 2.08255 6.24766 2.08255C6.29845 1.42223 6.19687 1.01588 5.84131 0.609527Z" fill="#263B80"/>
<path d="M6.1967 2.08249C6.1967 2.13328 6.1967 2.18408 6.1967 2.23487C5.84114 3.96187 4.72368 4.5206 3.25065 4.5206H2.48874C2.33636 4.5206 2.18398 4.67298 2.13318 4.82536L1.62524 7.9238C1.62524 8.02538 1.67604 8.12697 1.82842 8.12697H3.14906C3.30145 8.12697 3.45383 8.02538 3.45383 7.873V7.82221L3.7078 6.2476V6.14601C3.7078 5.99363 3.86018 5.89204 4.01256 5.89204H4.21574C5.48559 5.89204 6.50147 5.3841 6.75544 3.86028C6.85702 3.25075 6.80623 2.69202 6.50147 2.33646C6.45067 2.23487 6.34908 2.13328 6.1967 2.08249Z" fill="#139AD6"/>
<path d="M5.84125 1.93018C5.79045 1.93018 5.73966 1.87939 5.68887 1.87939C5.63807 1.87939 5.58728 1.87939 5.53648 1.82859C5.33331 1.7778 5.13013 1.7778 4.87616 1.7778H2.8952C2.8444 1.7778 2.79361 1.7778 2.74282 1.82859C2.64123 1.87939 2.59043 1.98098 2.59043 2.08256L2.18408 4.72385V4.82544C2.23488 4.67306 2.38726 4.52067 2.53964 4.52067H3.30155C4.77457 4.52067 5.89204 3.91115 6.2476 2.23495C6.2476 2.18415 6.2476 2.13336 6.29839 2.08256C6.19681 2.03177 6.14601 1.98098 6.04442 1.98098C5.89204 1.93018 5.89204 1.93018 5.84125 1.93018Z" fill="#232C65"/>
</svg>
