<svg width="32" height="10" viewBox="0 0 32 10" fill="none" xmlns="http://www.w3.org/2000/svg">
<path d="M13.8625 9.83332H11.3474L12.9193 0.172623H15.4347L13.8625 9.83332ZM9.23143 0.172623L6.83357 6.81732L6.54982 5.38646L6.55008 5.38698L5.70376 1.04246C5.70376 1.04246 5.60143 0.172623 4.51065 0.172623H0.546515L0.5 0.336201C0.5 0.336201 1.71224 0.588417 3.13095 1.44042L5.31614 9.83358H7.93675L11.9384 0.172623H9.23143ZM29.0146 9.83332H31.3241L29.3105 0.172365H27.2886C26.355 0.172365 26.1276 0.892317 26.1276 0.892317L22.3764 9.83332H24.9983L25.5226 8.39832H28.72L29.0146 9.83332ZM26.247 6.416L27.5685 2.80073L28.312 6.416H26.247ZM22.573 2.4958L22.932 0.421221C22.932 0.421221 21.8244 0 20.6698 0C19.4216 0 16.4576 0.54552 16.4576 3.19818C16.4576 5.69398 19.9364 5.72499 19.9364 7.03595C19.9364 8.3469 16.816 8.112 15.7862 7.28532L15.4123 9.45448C15.4123 9.45448 16.5354 10 18.2512 10C19.9677 10 22.557 9.1113 22.557 6.69251C22.557 4.18069 19.0469 3.94682 19.0469 2.85474C19.0472 1.76241 21.4967 1.90273 22.573 2.4958Z" fill="#2566AF"/>
</svg>
