<svg width="28" height="10" viewBox="0 0 28 10" fill="none" xmlns="http://www.w3.org/2000/svg">
<path d="M2.40002 2.46577H3.3778L2.88891 1.18723L2.40002 2.46577Z" fill="#2FABF7"/>
<path d="M14.5334 1.36991C14.4445 1.32425 14.3112 1.32425 14.1778 1.32425H13.2889V2.05484H14.1778C14.3112 2.05484 14.4445 2.05484 14.5334 2.00918C14.6223 1.96352 14.6667 1.82653 14.6667 1.68955C14.7112 1.5069 14.6223 1.41557 14.5334 1.36991Z" fill="#228FE0"/>
<path d="M24.0444 0V0.547947L23.7777 0H21.6888V0.547947L21.4222 0H18.5777C18.0889 0 17.6889 0.0913246 17.3333 0.273973V0H15.3333V0.273973C15.1111 0.0913246 14.8444 0 14.4889 0H7.33332L6.84443 1.14155L6.35554 0H4.08888V0.547947L3.82221 0H1.91111L1.02222 2.14612L0 4.52056H1.02222H2.26666L2.53333 3.78996H3.15555L3.42222 4.52056H5.99999V3.97261L6.22221 4.52056H7.5111L7.73332 3.97261V4.52056H13.9111V3.33334H14C14.0889 3.33334 14.0889 3.33334 14.0889 3.47033V4.4749H17.2889V4.20092C17.5555 4.33791 17.9555 4.4749 18.4889 4.4749H19.8222L20.0888 3.7443H20.7111L20.9777 4.4749H23.5555V3.78996L23.9555 4.4749H26.0444V0H24.0444ZM9.0222 3.83563H8.26665V1.3242L7.19999 3.83563H6.53332L5.46666 1.3242V3.83563H3.95555L3.64444 3.15069H2.13333L1.86666 3.88129H1.02222L2.35555 0.639271H3.46666L4.7111 3.69864V0.639271H5.9111L6.88888 2.83106L7.77776 0.639271H9.0222V3.83563ZM12.0444 1.3242H10.3111V1.91781H12V2.55708H10.3111V3.19635H12.0444V3.88129H9.55554V0.639271H12.0444V1.3242ZM15.3777 2.64841C15.4666 2.83106 15.5111 2.96804 15.5111 3.24202V3.88129H14.7555V3.47033C14.7555 3.28768 14.7555 3.01371 14.6222 2.83106C14.4889 2.69407 14.3555 2.69407 14.0889 2.69407H13.2889V3.88129H12.5333V0.639271H14.2222C14.6222 0.639271 14.8889 0.639271 15.1111 0.776258C15.3333 0.913244 15.4666 1.14156 15.4666 1.50685C15.4666 2.00914 15.1555 2.28311 14.9333 2.37443C15.1555 2.4201 15.2889 2.55708 15.3777 2.64841ZM16.7111 3.83563H15.9555V0.593609H16.7111V3.83563ZM25.4666 3.83563H24.4L22.9777 1.41553V3.83563H21.4666L21.2 3.15069H19.6444L19.3777 3.88129H18.5333C18.1777 3.88129 17.7333 3.78996 17.4666 3.51599C17.2 3.24202 17.0666 2.87672 17.0666 2.28311C17.0666 1.82649 17.1555 1.36987 17.4666 1.00457C17.6889 0.730595 18.0889 0.639271 18.5777 0.639271H19.2889V1.3242H18.5777C18.3111 1.3242 18.1777 1.36987 18 1.50685C17.8666 1.64384 17.7777 1.91781 17.7777 2.23745C17.7777 2.60275 17.8222 2.83106 18 3.01371C18.1333 3.15069 18.3111 3.19635 18.5333 3.19635H18.8444L19.8666 0.684933H20.9777L22.2222 3.7443V0.684933H23.3333L24.6222 2.92238V0.684933H25.3777V3.83563H25.4666Z" fill="#0571C1"/>
<path d="M19.9109 2.46577H20.9331L20.4442 1.18723L19.9109 2.46577Z" fill="#228FE0"/>
<path d="M12.3554 9.0411V6.43835L11.1998 7.7169L12.3554 9.0411Z" fill="#228FE0"/>
<path d="M7.59998 6.75806V7.35167H9.24442V7.99094H7.59998V8.67587H9.42219L10.2666 7.71696L9.46664 6.75806H7.59998Z" fill="#2FABF7"/>
<path d="M14.0443 6.75806H13.111V7.57998H14.0887C14.3554 7.57998 14.5332 7.44299 14.5332 7.16902C14.4887 6.89504 14.311 6.75806 14.0443 6.75806Z" fill="#228FE0"/>
<path d="M27.7778 7.53426V5.47946H27.2445H25.9111C25.5112 5.47946 25.2 5.57079 24.9778 5.75344V5.47946H22.9334C22.6223 5.47946 22.2223 5.57079 22.0445 5.75344V5.47946H18.4445V5.75344C18.1778 5.52512 17.6889 5.47946 17.4667 5.47946H15.0667V5.75344C14.8445 5.52512 14.3112 5.47946 14.0445 5.47946H11.3778L10.7556 6.16439L10.1778 5.47946H6.17786V9.95436H10.089L10.7112 9.26942L11.289 9.95436H13.689V8.90413H14.0001C14.3112 8.90413 14.7112 8.90413 15.0223 8.76714V10H17.0223V8.8128H17.1112C17.2445 8.8128 17.2445 8.8128 17.2445 8.94979V10H23.2889C23.6889 10 24.0889 9.90869 24.3112 9.72605V10H26.2223C26.6223 10 27.0223 9.95436 27.2889 9.77171C27.7334 9.49774 28 8.99545 28 8.40184C28 8.08221 27.9111 7.76257 27.7778 7.53426ZM14.0001 8.26486H13.1112V9.36075H11.689L10.8001 8.31052L9.86674 9.36075H6.93341V6.11873H9.91118L10.8001 7.16896L11.7334 6.11873H14.089C14.6667 6.11873 15.3334 6.30138 15.3334 7.16896C15.2889 8.08221 14.6667 8.26486 14.0001 8.26486ZM18.4445 8.08221C18.5334 8.21919 18.5778 8.40184 18.5778 8.67582V9.31509H17.8223V8.90413C17.8223 8.72148 17.8223 8.40184 17.6889 8.26486C17.6001 8.12787 17.4223 8.12787 17.1556 8.12787H16.3556V9.31509H15.6001V6.07307H17.2889C17.6445 6.07307 17.9556 6.07307 18.1778 6.21006C18.4001 6.34704 18.5778 6.57535 18.5778 6.94065C18.5778 7.44294 18.2667 7.71691 18.0445 7.80823C18.2667 7.89956 18.4001 7.99088 18.4445 8.08221ZM21.5112 6.758H19.7778V7.35161H21.4667V7.99088H19.7778V8.63015H21.5112V9.31509H19.0223V6.07307H21.5112V6.758ZM23.3778 9.31509H21.9556V8.63015H23.3778C23.5112 8.63015 23.6 8.63015 23.6889 8.53883C23.7334 8.49317 23.7778 8.40184 23.7778 8.31052C23.7778 8.21919 23.7334 8.12787 23.6889 8.08221C23.6445 8.03654 23.5556 7.99088 23.4223 7.99088C22.7112 7.94522 21.8667 7.99088 21.8667 6.98631C21.8667 6.52969 22.1334 6.02741 22.9334 6.02741H24.4V6.80367H23.0223C22.8889 6.80367 22.8 6.80367 22.7112 6.84933C22.6223 6.89499 22.6223 6.98631 22.6223 7.07764C22.6223 7.21463 22.7112 7.26029 22.8 7.30595C22.8889 7.35161 22.9778 7.35161 23.0667 7.35161H23.4667C23.8667 7.35161 24.1334 7.44294 24.3112 7.62559C24.4445 7.76257 24.5334 7.99088 24.5334 8.31052C24.5334 8.99545 24.1334 9.31509 23.3778 9.31509ZM27.2 8.99545C27.0223 9.1781 26.7111 9.31509 26.2667 9.31509H24.8445V8.63015H26.2667C26.4 8.63015 26.4889 8.63015 26.5778 8.53883C26.6223 8.49317 26.6667 8.40184 26.6667 8.31052C26.6667 8.21919 26.6223 8.12787 26.5778 8.08221C26.5334 8.03654 26.4445 7.99088 26.3111 7.99088C25.6 7.94522 24.7556 7.99088 24.7556 6.98631C24.7556 6.52969 25.0223 6.02741 25.8223 6.02741H27.2889V6.80367H25.9556C25.8223 6.80367 25.7334 6.80367 25.6445 6.84933C25.5556 6.89499 25.5556 6.98631 25.5556 7.07764C25.5556 7.21463 25.6 7.26029 25.7334 7.30595C25.8223 7.35161 25.9111 7.35161 26 7.35161H26.4C26.8 7.35161 27.0667 7.44294 27.2445 7.62559C27.2889 7.62559 27.2889 7.67125 27.2889 7.67125C27.4223 7.8539 27.4667 8.08221 27.4667 8.31052C27.4667 8.58449 27.3778 8.8128 27.2 8.99545Z" fill="#0571C1"/>
<path d="M17.6446 6.84937C17.5557 6.80371 17.4224 6.80371 17.289 6.80371H16.4001V7.53431H17.289C17.4224 7.53431 17.5557 7.53431 17.6446 7.48864C17.7335 7.44298 17.7779 7.306 17.7779 7.16901C17.8224 6.98636 17.7335 6.89503 17.6446 6.84937Z" fill="#228FE0"/>
<path d="M14.533 1.36982C14.4441 1.32416 14.3108 1.32416 14.1775 1.32416H13.2886V2.05475H14.1775C14.3108 2.05475 14.4441 2.05475 14.533 2.00909C14.6219 1.96343 14.6664 1.82644 14.6664 1.68945C14.7108 1.50681 14.6219 1.41548 14.533 1.36982Z" fill="#228FE0"/>
<path d="M19.9109 2.46577H20.9331L20.4442 1.18723L19.9109 2.46577Z" fill="#228FE0"/>
<path d="M12.3554 9.0411V6.43835L11.1998 7.7169L12.3554 9.0411Z" fill="#228FE0"/>
<path d="M14.0443 6.75806H13.111V7.57998H14.0887C14.3554 7.57998 14.5332 7.44299 14.5332 7.16902C14.4887 6.89504 14.311 6.75806 14.0443 6.75806Z" fill="#228FE0"/>
<path d="M17.6446 6.84937C17.5557 6.80371 17.4224 6.80371 17.289 6.80371H16.4001V7.53431H17.289C17.4224 7.53431 17.5557 7.53431 17.6446 7.48864C17.7335 7.44298 17.7779 7.306 17.7779 7.16901C17.8224 6.98636 17.7335 6.89503 17.6446 6.84937Z" fill="#228FE0"/>
<path d="M13.7334 9.22376L13.1112 8.53883V9.31509H11.6445L10.7556 8.26486L9.77785 9.31509H6.84452V6.11873H9.82229L10.7556 7.16896L11.2001 6.62102L10.089 5.47946H6.17786V9.95436H10.089L10.7556 9.26942L11.3334 9.95436H13.7334V9.22376Z" fill="#2FABF7"/>
<path d="M9.11109 4.4749L8.53332 3.83563H8.26665V3.56165L7.59999 2.87672L7.15554 3.83563H6.53332L5.46666 1.3242V3.83563H3.95555L3.64444 3.15069H2.13333L1.82222 3.83563H1.02222L2.35555 0.639271H3.46666L4.7111 3.69864V0.639271H5.37777L4.75555 0H4.08888V0.547947L3.86666 0H1.91111L1.02222 2.14612L0 4.4749H1.02222H2.31111L2.57777 3.78996H3.19999L3.5111 4.4749H5.99999V3.92695L6.22221 4.4749H7.5111L7.73332 3.92695V4.4749H9.11109Z" fill="#2FABF7"/>
<path d="M7.06681 2.37445L6.35571 1.64386L6.88904 2.83108L7.06681 2.37445Z" fill="#2FABF7"/>
<path d="M27.2889 9.72607C27.6889 9.45209 27.9556 8.99547 28 8.49319L27.3778 7.85392C27.4223 7.99091 27.4667 8.12789 27.4667 8.31054C27.4667 8.58451 27.3778 8.81282 27.2 8.99547C27.0223 9.17812 26.7112 9.31511 26.2667 9.31511H24.8445V8.63018H26.2667C26.4 8.63018 26.4889 8.63018 26.5778 8.53885C26.6223 8.49319 26.6667 8.40187 26.6667 8.31054C26.6667 8.21922 26.6223 8.12789 26.5778 8.08223C26.5334 8.03657 26.4445 7.99091 26.3112 7.99091C25.6 7.94524 24.7556 7.9909 24.7556 6.98634C24.7556 6.52971 25.0223 6.11876 25.6889 6.02743L25.2 5.52515C25.1112 5.57081 25.0667 5.61647 25.0223 5.61647V5.3425H22.9778C22.6667 5.3425 22.2667 5.43382 22.0889 5.61647V5.3425H18.4445V5.61647C18.1778 5.38816 17.6889 5.3425 17.4667 5.3425H15.0667V5.61647C14.8445 5.38816 14.3112 5.3425 14.0445 5.3425H11.3779L10.7556 6.02743L10.1779 5.3425H9.68896L11.0223 6.71236L11.689 5.98177H14.0445C14.6223 5.98177 15.289 6.16442 15.289 7.032C15.289 7.94524 14.6667 8.12789 14.0001 8.12789H13.1112V8.81282L13.7778 9.49776V8.81282H14.0001C14.3112 8.81282 14.7112 8.81282 15.0223 8.67584V9.90872H17.0223V8.7215H17.1112C17.2445 8.7215 17.2445 8.7215 17.2445 8.85849V9.90872H23.2889C23.6889 9.90872 24.0889 9.81739 24.3112 9.63475V9.90872H26.2223C26.5778 9.95438 26.9778 9.90872 27.2889 9.72607ZM18.4445 8.08223C18.5334 8.21922 18.5778 8.40186 18.5778 8.67584V9.31511H17.8223V8.90415C17.8223 8.7215 17.8223 8.40187 17.6889 8.26488C17.6001 8.12789 17.4223 8.12789 17.1556 8.12789H16.3556V9.31511H15.6001V6.07309H17.289C17.6445 6.07309 17.9556 6.07309 18.1778 6.21008C18.4001 6.34707 18.5778 6.57538 18.5778 6.94068C18.5778 7.44296 18.2667 7.71693 18.0445 7.80826C18.2667 7.89958 18.4001 7.99091 18.4445 8.08223ZM21.5112 6.75803H19.7778V7.35164H21.4667V7.99091H19.7778V8.63018H21.5112V9.31511H19.0223V6.07309H21.5112V6.75803ZM23.3778 9.31511H21.9556V8.63018H23.3778C23.5112 8.63018 23.6 8.63018 23.6889 8.53885C23.7334 8.49319 23.7778 8.40187 23.7778 8.31054C23.7778 8.21922 23.7334 8.12789 23.6889 8.08223C23.6445 8.03657 23.5556 7.99091 23.4223 7.99091C22.7112 7.94524 21.8667 7.9909 21.8667 6.98634C21.8667 6.52971 22.1334 6.02743 22.9334 6.02743H24.4V6.80369H23.0223C22.8889 6.80369 22.8 6.80369 22.7112 6.84935C22.6223 6.89501 22.6223 6.98634 22.6223 7.07766C22.6223 7.21465 22.7112 7.26031 22.8 7.30597C22.8889 7.35163 22.9778 7.35164 23.0667 7.35164H23.4667C23.8667 7.35164 24.1334 7.44296 24.3112 7.62561C24.4445 7.76259 24.5334 7.99091 24.5334 8.31054C24.5334 8.99547 24.1334 9.31511 23.3778 9.31511Z" fill="#228FE0"/>
<path d="M25.5111 7.07768C25.5111 7.21467 25.5556 7.26033 25.6889 7.30599C25.7778 7.35166 25.8667 7.35166 25.9556 7.35166H26.3556C26.6222 7.35166 26.8 7.39732 26.9778 7.48864L26.3111 6.80371H25.9111C25.7778 6.80371 25.6889 6.80371 25.6 6.84937C25.5556 6.89503 25.5111 6.98636 25.5111 7.07768Z" fill="#228FE0"/>
<path d="M23.9554 4.33792L24.0443 4.47491H24.0888L23.9554 4.33792Z" fill="#228FE0"/>
<path d="M21.5111 1.82648L22.2667 3.69863V2.60273L21.5111 1.82648Z" fill="#228FE0"/>
<path d="M13.9111 3.33333H14C14.0889 3.33333 14.0889 3.33333 14.0889 3.47032V4.47489H17.2889V4.20091C17.5556 4.3379 17.9556 4.47489 18.4889 4.47489H19.8222L20.0889 3.74429H20.7111L20.9778 4.47489H23.5555V4.01827L22.9333 3.379V3.88128H21.4222L21.2 3.15068H19.6444L19.3778 3.88128H18.5333C18.1778 3.88128 17.7333 3.78995 17.4667 3.51598C17.2 3.24201 17.0667 2.87671 17.0667 2.2831C17.0667 1.82648 17.1556 1.36986 17.4667 1.00456C17.6889 0.730587 18.0889 0.639263 18.5778 0.639263H19.2889V1.3242H18.5778C18.3111 1.3242 18.1778 1.36986 18 1.50684C17.8667 1.64383 17.7778 1.9178 17.7778 2.23744C17.7778 2.60274 17.8222 2.83105 18 3.0137C18.1333 3.15068 18.3111 3.19635 18.5333 3.19635H18.8444L19.8667 0.684925H20.3111L19.6889 0.0456543H18.5333C18.0444 0.0456543 17.6444 0.136979 17.2889 0.319628V0.0456543H15.3333V0.319628C15.1111 0.136979 14.8444 0.0456543 14.4889 0.0456543H7.33335L6.84446 1.18721L6.35558 0.0456543H4.40002L5.02225 0.684925H5.91113L6.66669 2.37443L6.93335 2.6484L7.73335 0.639263H8.97779V3.88128H8.22224V1.36986L7.46669 3.19635L8.75557 4.52055H13.8667L13.9111 3.33333ZM15.9556 0.639263H16.7111V3.88128H15.9556V0.639263ZM12.0445 1.3242H10.3111V1.9178H12V2.55708H10.3111V3.19635H12.0445V3.88128H9.55557V0.639263H12.0445V1.3242ZM13.2889 3.83562H12.5333V0.593601H14.2222C14.6222 0.593601 14.8889 0.593601 15.1111 0.730587C15.3333 0.867574 15.4667 1.09589 15.4667 1.46118C15.4667 1.96347 15.1556 2.23744 14.9333 2.32876C15.1111 2.37443 15.2444 2.51141 15.2889 2.60274C15.3778 2.78539 15.4222 2.92237 15.4222 3.19635V3.83562H14.6667V3.42466C14.6667 3.24201 14.6667 2.96803 14.5333 2.78539C14.4889 2.69406 14.3556 2.69406 14.0889 2.69406H13.2889V3.83562Z" fill="#228FE0"/>
</svg>
