<svg width="29" height="20" viewBox="0 0 29 20" fill="none" xmlns="http://www.w3.org/2000/svg">
<path d="M9.9021 5.59098C9.9021 6.98873 10.7588 8.16104 11.9762 8.61193V2.57004C10.7588 3.02093 9.9021 4.19323 9.9021 5.59098Z" fill="#006AC9"/>
<path d="M14.2754 2.57004V8.61193C15.4928 8.16104 16.3495 6.94364 16.3495 5.59098C16.3495 4.19323 15.4928 3.02093 14.2754 2.57004Z" fill="#004A97"/>
<path d="M14.2754 8.61194C15.4928 8.16106 16.3495 6.94366 16.3495 5.591L14.2754 8.61194Z" fill="#023563"/>
<path d="M15.7634 0H13.1483C10.0372 0 7.51221 2.29953 7.51221 5.63609C7.51221 8.70213 10.0372 11.182 13.1483 11.182H15.7634C18.8294 11.182 21.6249 8.70213 21.6249 5.63609C21.5799 2.29953 18.7844 0 15.7634 0ZM13.1483 10.686C10.3077 10.686 8.05327 8.3865 8.05327 5.591C8.05327 2.75041 10.3528 0.450887 13.1483 0.450887C15.9889 0.450887 18.2884 2.75041 18.2884 5.591C18.2433 8.43159 15.9438 10.686 13.1483 10.686Z" fill="#023563"/>
<path d="M1.74115 15.0144C1.74115 15.4653 2.05677 15.5104 2.37239 15.5104C3.63488 15.5104 4.08576 14.5636 4.08576 13.6618C4.08576 12.5346 3.36435 11.7681 2.23713 11.7681C2.01169 11.7681 1.87642 11.7681 1.78624 11.8132V15.0144H1.74115ZM1.155 12.2189C1.155 11.6779 0.884468 11.723 0.613936 11.723V11.5877C0.83938 11.5877 1.06482 11.5877 1.29027 11.5877C1.5608 11.5877 1.87642 11.5877 2.32731 11.5877C3.86032 11.5877 4.67192 12.6247 4.67192 13.6618C4.67192 14.2479 4.31121 15.7359 2.23713 15.7359C1.92151 15.7359 1.65098 15.7359 1.38044 15.7359C1.10991 15.7359 0.83938 15.7359 0.568848 15.7359V15.6006C0.929557 15.5555 1.10991 15.5555 1.10991 15.1497V12.2189H1.155Z" fill="#004A97"/>
<path d="M5.57362 12.0838C5.43836 12.0838 5.30309 11.9485 5.30309 11.7682C5.30309 11.6329 5.43836 11.4976 5.57362 11.4976C5.70889 11.4976 5.84416 11.6329 5.84416 11.7682C5.84416 11.9485 5.70889 12.0838 5.57362 12.0838ZM4.94238 15.5556H5.07765C5.258 15.5556 5.34818 15.5556 5.34818 15.3752V13.7521C5.34818 13.4815 5.258 13.4364 5.03256 13.3463V13.2561C5.30309 13.1659 5.61871 13.0757 5.6638 13.0306C5.70889 12.9855 5.75398 12.9855 5.75398 12.9855C5.79907 12.9855 5.79907 13.0306 5.79907 13.0757V15.3302C5.79907 15.5105 5.93433 15.5105 6.11469 15.5105H6.20487V15.6458C6.02451 15.6458 5.79907 15.6458 5.57362 15.6458C5.34818 15.6458 5.16783 15.6458 4.94238 15.6458C4.94238 15.6458 4.94238 15.5556 4.94238 15.5556Z" fill="#004A97"/>
<path d="M6.74613 13.7971C6.74613 13.5716 6.70104 13.5266 6.38542 13.3913V13.3011C6.65595 13.2109 6.8814 13.1208 7.15193 13.0306C7.15193 13.0306 7.19702 13.0306 7.19702 13.0757V13.4815C7.51264 13.256 7.82826 13.0306 8.23406 13.0306C8.73004 13.0306 8.91039 13.3913 8.91039 13.8422V15.3752C8.91039 15.5555 9.04566 15.5555 9.22601 15.5555H9.31619V15.6908C9.09075 15.6908 8.91039 15.6908 8.68495 15.6908C8.45951 15.6908 8.27915 15.6908 8.05371 15.6908V15.5555H8.14388C8.32424 15.5555 8.41442 15.5555 8.41442 15.3752V13.8422C8.41442 13.5266 8.18897 13.3462 7.87335 13.3462C7.693 13.3462 7.37737 13.4815 7.19702 13.6167V15.3752C7.19702 15.5555 7.33229 15.5555 7.51264 15.5555H7.60282V15.6908C7.37737 15.6908 7.19702 15.6908 6.97157 15.6908C6.74613 15.6908 6.56578 15.6908 6.34033 15.6908V15.5555H6.4756C6.65595 15.5555 6.74613 15.5555 6.74613 15.3752V13.7971Z" fill="#004A97"/>
<path d="M10.8036 13.8873C10.9389 13.8873 10.984 13.7971 10.984 13.752C10.984 13.4364 10.8036 13.2109 10.488 13.2109C10.1273 13.2109 9.85674 13.4815 9.81165 13.8873H10.8036ZM9.76656 14.0676C9.76656 14.1127 9.76656 14.2029 9.76656 14.4283C9.81165 14.9694 10.1724 15.4654 10.6232 15.4654C10.9389 15.4654 11.2094 15.285 11.4348 15.0596L11.525 15.1497C11.2545 15.5105 10.8938 15.8261 10.4429 15.8261C9.49603 15.8261 9.31567 14.9243 9.31567 14.5185C9.31567 13.3462 10.0822 13.0306 10.488 13.0306C10.984 13.0306 11.4799 13.3462 11.4799 13.9774C11.4799 14.0225 11.4799 14.0676 11.4799 14.0676H11.4348H9.76656Z" fill="#004A97"/>
<path d="M11.6156 15.5555H11.7959C11.9763 15.5555 12.0665 15.5555 12.0665 15.3752V13.7069C12.0665 13.5266 11.841 13.4815 11.7508 13.4364V13.3462C12.2017 13.1658 12.4272 13.0306 12.4723 13.0306C12.5173 13.0306 12.5173 13.0306 12.5173 13.1208V13.6618C12.6526 13.4364 12.9231 13.0757 13.2838 13.0757C13.4191 13.0757 13.5995 13.1658 13.5995 13.3913C13.5995 13.5716 13.5093 13.7069 13.3289 13.7069C13.1486 13.7069 13.1486 13.5716 12.9231 13.5716C12.833 13.5716 12.4723 13.7069 12.4723 14.0676V15.4654C12.4723 15.6457 12.6075 15.6457 12.7428 15.6457H13.0584V15.781C12.7428 15.781 12.4723 15.781 12.2468 15.781C12.0214 15.781 11.7508 15.781 11.5254 15.781V15.5555H11.6156Z" fill="#004A97"/>
<path d="M13.9149 14.8793C14.0051 15.2851 14.2305 15.6007 14.6814 15.6007C15.0421 15.6007 15.1774 15.3752 15.1774 15.1949C15.1774 14.5185 13.8698 14.744 13.8698 13.752C13.8698 13.4364 14.1403 12.9855 14.7716 12.9855C14.9519 12.9855 15.2224 13.0306 15.4479 13.1659L15.493 13.752H15.3577C15.3126 13.3913 15.0872 13.1659 14.7265 13.1659C14.501 13.1659 14.2756 13.3012 14.2756 13.5717C14.2756 14.248 15.6282 14.0677 15.6282 14.9694C15.6282 15.3752 15.3126 15.781 14.5912 15.781C14.3658 15.781 14.0952 15.6909 13.8698 15.6007L13.8247 14.9243L13.9149 14.8793Z" fill="#004A97"/>
<path d="M20.949 12.6248H20.8137C20.7235 11.9485 20.2276 11.678 19.5512 11.678C18.8749 11.678 17.883 12.1289 17.883 13.5717C17.883 14.744 18.7396 15.6007 19.6414 15.6007C20.2276 15.6007 20.7235 15.1949 20.8137 14.5637L20.949 14.6087L20.8137 15.4654C20.5432 15.6007 19.9119 15.781 19.5061 15.781C18.1084 15.781 17.2517 14.8793 17.2517 13.5717C17.2517 12.3543 18.3338 11.4976 19.5061 11.4976C20.0021 11.4976 20.453 11.6329 20.9039 11.8132L20.949 12.6248Z" fill="#004A97"/>
<path d="M21.1741 15.5556H21.2642C21.4446 15.5556 21.5348 15.5556 21.5348 15.3752V12.0837C21.5348 11.6779 21.4446 11.6779 21.2192 11.6328V11.5427C21.4446 11.4525 21.7151 11.3623 21.8504 11.2721C21.8955 11.2271 21.9406 11.2271 21.9857 11.2271C22.0308 11.2271 22.0308 11.2721 22.0308 11.3172V15.4203C22.0308 15.6007 22.166 15.6007 22.3464 15.6007H22.4366V15.7359C22.2562 15.7359 22.0308 15.7359 21.8053 15.7359C21.5799 15.7359 21.3995 15.7359 21.1741 15.7359V15.5556Z" fill="#004A97"/>
<path d="M24.9617 15.3752C24.9617 15.4654 25.0068 15.4654 25.1421 15.4654C25.2323 15.4654 25.3224 15.4654 25.3675 15.4654V15.6007C25.097 15.6457 24.6461 15.7359 24.5108 15.781H24.4658V15.285C24.105 15.5556 23.8345 15.781 23.4287 15.781C23.1131 15.781 22.7975 15.5556 22.7975 15.0596V13.5266C22.7975 13.3913 22.7524 13.211 22.4368 13.211V13.1208C22.6622 13.1208 23.1131 13.0757 23.2033 13.0757C23.2484 13.0757 23.2484 13.1208 23.2484 13.256V14.7891C23.2484 14.9694 23.2484 15.4654 23.7443 15.4654C23.9247 15.4654 24.1952 15.3301 24.4658 15.1047V13.5266C24.4658 13.3913 24.1952 13.3462 23.9698 13.3011V13.211C24.5108 13.1659 24.8265 13.1208 24.8716 13.1208C24.9166 13.1208 24.9166 13.1659 24.9166 13.211V15.3752H24.9617Z" fill="#004A97"/>
<path d="M26.1342 15.0146C26.1342 15.24 26.3596 15.6007 26.7654 15.6007C27.3967 15.6007 27.6672 14.9695 27.6672 14.4735C27.6672 13.8423 27.1712 13.3012 26.7203 13.3012C26.4949 13.3012 26.3145 13.4365 26.1793 13.5717V15.0146H26.1342ZM26.1342 13.4365C26.3596 13.2561 26.6752 13.0307 27.036 13.0307C27.7123 13.0307 28.1181 13.6168 28.1181 14.2932C28.1181 15.0597 27.5319 15.8262 26.7203 15.8262C26.2694 15.8262 26.044 15.6909 25.9087 15.6007L25.7284 15.736L25.5931 15.6909C25.6382 15.3302 25.6833 15.0146 25.6833 14.6539V12.1289C25.6833 11.7231 25.5931 11.7231 25.3677 11.678V11.5878C25.5931 11.4977 25.8637 11.4075 25.9989 11.3173C26.044 11.2722 26.0891 11.2722 26.1342 11.2722C26.1793 11.2722 26.1793 11.3173 26.1793 11.3624V13.4365H26.1342Z" fill="#004A97"/>
<path d="M0.614258 19.1175H0.659346C0.794612 19.1175 0.88479 19.1175 0.88479 18.9372V17.2689C0.88479 17.0885 0.749524 17.0885 0.659346 17.0885H0.614258V16.9984C0.749524 16.9984 0.929879 16.9984 1.11023 16.9984C1.29059 16.9984 1.47094 16.9984 1.60621 16.9984V17.0885H1.56112C1.42585 17.0885 1.33568 17.0885 1.33568 17.2689V18.9372C1.33568 19.1175 1.42585 19.1175 1.56112 19.1175H1.60621V19.2077C1.47094 19.2077 1.2455 19.2077 1.11023 19.2077C0.974967 19.2077 0.749524 19.2077 0.659346 19.2077V19.1175H0.614258Z" fill="#006AC9"/>
<path d="M1.60621 19.2077V19.1175H1.56112C1.42585 19.1175 1.29059 19.1175 1.29059 18.9372V17.2689C1.29059 17.0885 1.42585 17.0885 1.56112 17.0885H1.60621V16.9984C1.47094 16.9984 1.29059 16.9984 1.11023 16.9984C0.974967 16.9984 0.794612 16.9984 0.659346 16.9984V17.0885H0.704435C0.839701 17.0885 0.974967 17.0885 0.974967 17.2689V18.9372C0.974967 19.1175 0.839701 19.1175 0.704435 19.1175H0.659346V19.2077C0.794612 19.2077 0.974967 19.2077 1.11023 19.2077C1.2455 19.2077 1.42585 19.2077 1.60621 19.2077ZM1.60621 19.2528C1.47094 19.2528 1.2455 19.2528 1.11023 19.2528C0.974967 19.2528 0.749524 19.2528 0.659346 19.2528V19.1175H0.704435C0.839701 19.1175 0.929879 19.1175 0.929879 18.9372V17.2689C0.929879 17.0885 0.839701 17.0885 0.704435 17.0885H0.614258V16.9984C0.749524 16.9984 0.929879 16.9984 1.11023 16.9984C1.29059 16.9984 1.47094 16.9984 1.60621 16.9984V17.0885H1.56112C1.42585 17.0885 1.33568 17.0885 1.33568 17.2689V18.9372C1.33568 19.1175 1.42585 19.1175 1.56112 19.1175H1.60621V19.2528Z" fill="#006AC9"/>
<path d="M3.81546 18.5766V17.3592C3.81546 17.0886 3.6351 17.0435 3.54492 17.0435H3.45475V16.9534C3.59001 16.9534 3.77037 16.9534 3.90563 16.9534C4.0409 16.9534 4.17617 16.9534 4.31143 16.9534V17.0435H4.26634C4.13108 17.0435 3.99581 17.0886 3.99581 17.4493V18.8922C3.99581 18.9824 3.99581 19.1176 3.99581 19.2078H3.86054L2.19226 17.3592V18.6667C2.19226 18.9373 2.23735 19.0274 2.50789 19.0274H2.55297V19.1176C2.41771 19.1176 2.28244 19.1176 2.14718 19.1176C2.01191 19.1176 1.87664 19.1176 1.69629 19.1176H1.74138C1.96682 19.1176 2.01191 18.9824 2.01191 18.7118V17.3592C2.01191 17.1788 1.87664 17.0886 1.74138 17.0886V16.9985C1.87664 16.9985 2.01191 16.9985 2.10209 16.9985C2.19226 16.9985 2.28244 16.9985 2.37262 16.9985L3.81546 18.5766Z" fill="#006AC9"/>
<path d="M3.86054 19.2528H3.95072C3.95072 19.1626 3.95072 19.0273 3.95072 18.9372V17.4943C3.95072 17.0885 4.13108 17.0885 4.26634 17.0885H4.31143V16.9984C4.17617 16.9984 4.0409 16.9984 3.95072 16.9984C3.81546 16.9984 3.68019 16.9984 3.49984 16.9984V17.0885H3.54492C3.6351 17.0885 3.86054 17.1336 3.86054 17.4042V18.6215L2.41771 16.9984C2.32753 16.9984 2.23735 16.9984 2.14718 16.9984C2.01191 16.9984 1.92173 16.9984 1.78647 16.9984V17.0885H1.83156C1.96682 17.0885 2.14718 17.2238 2.14718 17.4042V18.7568C2.14718 19.0273 2.057 19.1626 1.83156 19.1626H1.78647V19.2528C1.92173 19.2528 2.057 19.2528 2.19226 19.2528C2.32753 19.2528 2.4628 19.2528 2.59806 19.2528V19.1626H2.50789C2.23735 19.1626 2.19226 19.0724 2.19226 18.7568V17.4042L3.86054 19.2528ZM3.99581 19.2979H3.86054L2.23735 17.4943V18.8019C2.23735 19.0724 2.28244 19.1626 2.50789 19.1626H2.59806V19.2528C2.4628 19.2528 2.32753 19.2528 2.19226 19.2528C2.057 19.2528 1.92173 19.2528 1.74138 19.2528V19.1175H1.78647C2.01191 19.1175 2.057 18.9823 2.057 18.7117V17.3591C2.057 17.1787 1.92173 17.0885 1.78647 17.0885H1.69629V16.9984C1.83156 16.9984 1.96682 16.9984 2.057 16.9984C2.14718 16.9984 2.23735 16.9984 2.37262 16.9984L3.77037 18.5765V17.4042C3.77037 17.1336 3.59001 17.1336 3.49984 17.1336H3.45475V17.0434C3.59001 17.0434 3.77037 17.0434 3.90563 17.0434C4.0409 17.0434 4.17617 17.0434 4.31143 17.0434V17.1336H4.26634C4.13108 17.1336 3.99581 17.1336 3.99581 17.5394V18.9823C3.99581 19.0724 3.99581 19.1626 3.99581 19.2979Z" fill="#006AC9"/>
<path d="M4.80741 17.1337C4.58197 17.1337 4.53688 17.1788 4.49179 17.4042H4.40161C4.40161 17.314 4.4467 17.2239 4.4467 17.1337C4.4467 17.0435 4.4467 16.9533 4.4467 16.8632H4.53688C4.58197 16.9533 4.62705 16.9533 4.71723 16.9533H6.38551C6.47569 16.9533 6.56587 16.9533 6.56587 16.8632H6.65604C6.65604 16.9533 6.61096 17.0435 6.61096 17.1337C6.61096 17.2239 6.61096 17.314 6.61096 17.4042L6.52078 17.4493C6.52078 17.314 6.52078 17.1337 6.29534 17.1337H5.75427V18.8471C5.75427 19.0725 5.84445 19.1176 6.0248 19.1176H6.06989V19.2078C5.93463 19.2078 5.70918 19.2078 5.52883 19.2078C5.34847 19.2078 5.12303 19.2078 4.98776 19.2078V19.1176H5.03285C5.21321 19.1176 5.30338 19.1176 5.30338 18.8471V17.1337H4.80741Z" fill="#006AC9"/>
<path d="M6.06989 19.2529C5.93463 19.2529 5.70918 19.2529 5.52883 19.2529C5.34847 19.2529 5.12303 19.2529 4.98776 19.2529V19.1176H5.03285C5.21321 19.1176 5.30338 19.1176 5.30338 18.8471V17.1337H4.80741H5.34847V18.8471C5.34847 19.1176 5.2583 19.1176 5.07794 19.1176H5.03285V19.2078C5.16812 19.2078 5.39356 19.2078 5.57392 19.2078C5.70918 19.2078 5.93463 19.2078 6.06989 19.2529V19.1627H6.0248C5.88954 19.1627 5.75427 19.1176 5.75427 18.8922V17.1788H6.29533C6.52078 17.1788 6.52078 17.3592 6.56587 17.4944L6.65604 17.4493C6.65604 17.3592 6.65604 17.269 6.65604 17.1788C6.65604 17.0886 6.65604 16.9985 6.70113 16.9534H6.65604C6.65604 17.0435 6.56587 17.0435 6.47569 17.0435H4.80741C4.71723 17.0435 4.62705 17.0435 4.62705 16.9534H4.49179C4.49179 17.0435 4.49179 17.1337 4.49179 17.2239C4.49179 17.3141 4.4467 17.4043 4.4467 17.4944H4.53688C4.58197 17.269 4.62705 17.1788 4.8525 17.2239C4.62705 17.2239 4.62705 17.269 4.58197 17.4944H4.40161C4.40161 17.4043 4.4467 17.3141 4.4467 17.2239C4.4467 17.1337 4.4467 17.0435 4.4467 16.9534H4.53688C4.53688 17.0435 4.62705 17.0435 4.71723 17.0435H6.38551C6.47569 17.0435 6.52078 17.0435 6.56587 16.9534H6.65604C6.65604 17.0435 6.61096 17.1337 6.61096 17.2239C6.61096 17.3141 6.61096 17.4043 6.61096 17.4944H6.47569C6.47569 17.3592 6.47569 17.1788 6.25025 17.1788H5.75427V18.8922C5.75427 19.1176 5.84445 19.1627 6.0248 19.1627H6.11498L6.06989 19.2529Z" fill="#006AC9"/>
<path d="M6.74634 19.1175H6.79143C6.92669 19.1175 7.01687 19.1175 7.01687 18.9372V17.2689C7.01687 17.0885 6.8816 17.0885 6.79143 17.0885H6.74634V16.9984C6.92669 16.9984 7.2874 16.9984 7.55794 16.9984C7.82847 16.9984 8.14409 16.9984 8.36954 16.9984C8.36954 17.1336 8.36954 17.3591 8.36954 17.4943H8.27936C8.27936 17.2689 8.23427 17.1336 7.87356 17.1336H7.42267V17.9903H7.82847C8.00883 17.9903 8.05392 17.9001 8.099 17.7198H8.18918C8.18918 17.855 8.18918 17.9903 8.18918 18.0805C8.18918 18.2157 8.18918 18.3059 8.18918 18.4412H8.099C8.099 18.2608 8.05392 18.1256 7.82847 18.1256H7.42267V18.8921C7.42267 19.1175 7.60303 19.1175 7.82847 19.1175C8.23427 19.1175 8.36954 19.0724 8.5048 18.7117H8.59498C8.54989 18.8921 8.5048 19.0724 8.5048 19.2077C8.27936 19.2077 7.91865 19.2077 7.64812 19.2077C7.37758 19.2077 6.97178 19.2077 6.79143 19.2077V19.1175H6.74634Z" fill="#006AC9"/>
<path d="M8.4597 19.2077C8.50479 19.0273 8.50479 18.8921 8.54988 18.7117H8.50479C8.41461 19.0724 8.23426 19.1175 7.82846 19.1175C7.64811 19.1175 7.42266 19.1175 7.42266 18.8921V18.1256H7.82846C8.0539 18.1256 8.0539 18.2608 8.09899 18.4412H8.18917C8.18917 18.3059 8.18917 18.2157 8.18917 18.0805C8.18917 17.9452 8.18917 17.855 8.18917 17.7198H8.09899C8.09899 17.9001 8.00881 17.9903 7.82846 17.9903H7.42266V17.1336H7.87355C8.18917 17.1336 8.27935 17.314 8.27935 17.4943H8.36952C8.36952 17.4042 8.36952 17.2689 8.36952 17.1787C8.36952 17.1336 8.36952 17.0885 8.36952 17.0434C8.14408 17.0434 7.82846 17.0434 7.55793 17.0434C7.2874 17.0434 6.97178 17.0434 6.79143 17.0434V17.1336H6.83651C6.97178 17.1336 7.10705 17.1336 7.10705 17.314V18.9823C7.10705 19.1626 6.97178 19.1626 6.83651 19.1626H6.79143V19.2528C6.97178 19.2528 7.33249 19.2528 7.64811 19.2528C7.87355 19.2077 8.23426 19.2077 8.4597 19.2077ZM8.4597 19.2528C8.23426 19.2528 7.87355 19.2528 7.60302 19.2528C7.33249 19.2528 6.92669 19.2528 6.74634 19.2528V19.1175H6.79143C6.92669 19.1175 7.01687 19.1175 7.01687 18.9372V17.2689C7.01687 17.1336 6.92669 17.0885 6.79143 17.0885H6.74634V16.9984C6.92669 16.9984 7.2874 16.9984 7.55793 16.9984C7.82846 16.9984 8.14408 16.9984 8.36952 16.9984C8.36952 17.0434 8.36952 17.0885 8.36952 17.1787C8.36952 17.2689 8.36952 17.4042 8.36952 17.4943L8.27935 17.5394C8.27935 17.314 8.23426 17.1787 7.91864 17.1787H7.46775V17.9903H7.82846C8.00881 17.9903 8.0539 17.9001 8.0539 17.7198H8.14408C8.14408 17.855 8.14408 17.9903 8.14408 18.0805C8.14408 18.2157 8.14408 18.3059 8.14408 18.4412H8.0539C8.0539 18.2608 8.00881 18.1256 7.82846 18.1256H7.46775V18.847C7.46775 19.0273 7.64811 19.0273 7.82846 19.0273C8.23426 19.0273 8.36952 19.0273 8.4597 18.6666L8.54988 18.7117C8.54988 18.8921 8.50479 19.0724 8.4597 19.2528Z" fill="#006AC9"/>
<path d="M9.40623 18.0805H9.5415C9.85712 18.0805 10.0375 17.9452 10.0375 17.5845C10.0375 17.314 9.85712 17.1336 9.58659 17.1336C9.49641 17.1336 9.45132 17.1336 9.40623 17.1336V18.0805ZM9.00044 17.314C9.00044 17.0885 8.86517 17.0885 8.77499 17.0885H8.7299V16.9984C8.82008 16.9984 9.04552 16.9984 9.22588 16.9984C9.40623 16.9984 9.58659 16.9984 9.72185 16.9984C10.1277 16.9984 10.4884 17.0885 10.4884 17.5845C10.4884 17.855 10.308 18.0354 10.0375 18.1707L10.5785 18.9823C10.6687 19.1175 10.7138 19.1626 10.8942 19.1626V19.2528C10.804 19.2528 10.6687 19.2528 10.5785 19.2528C10.4884 19.2528 10.3531 19.2528 10.2629 19.2528C10.0375 18.9372 9.81203 18.5765 9.58659 18.2157H9.36114V18.8921C9.36114 19.1175 9.49641 19.1626 9.63168 19.1626H9.67677V19.2528C9.49641 19.2528 9.31606 19.2528 9.1357 19.2528C9.00044 19.2528 8.82008 19.2528 8.68481 19.2528V19.1175H8.7299C8.86517 19.1175 8.95535 19.0724 8.95535 18.9372V17.314H9.00044Z" fill="#006AC9"/>
<path d="M9.58691 18.0805C9.90253 18.0805 10.0829 17.9903 10.0829 17.5845C10.0829 17.314 9.90253 17.1336 9.632 17.1336C9.54182 17.1336 9.49673 17.1336 9.45164 17.1336V18.0805H9.58691ZM9.40655 18.0805V17.0885C9.45164 17.0885 9.49673 17.0885 9.58691 17.0885C9.85744 17.0885 10.0829 17.2689 10.0829 17.5845C10.0829 17.9903 9.90253 18.0805 9.58691 18.0805H9.40655ZM9.40655 18.1707H9.632C9.85744 18.5314 10.0378 18.8921 10.3083 19.2077C10.3985 19.2077 10.4887 19.2077 10.6239 19.2077C10.7141 19.2077 10.8494 19.2077 10.9396 19.2077V19.1175C10.8043 19.1175 10.7141 19.0724 10.6239 18.9372L10.0829 18.0805C10.3534 17.9903 10.5338 17.8099 10.5338 17.5394C10.5338 17.0885 10.1731 16.9984 9.76726 16.9984C9.58691 16.9984 9.45164 16.9984 9.27129 16.9984C9.09093 16.9984 8.91058 16.9984 8.77531 16.9984V17.0885H8.8204C8.91058 17.0885 9.04584 17.0885 9.04584 17.3591V18.9823C9.04584 19.1175 8.91058 19.1626 8.8204 19.1626H8.73022V19.2528C8.86549 19.2528 9.04585 19.2528 9.18111 19.2528C9.36147 19.2528 9.54182 19.2528 9.72217 19.2528V19.1626H9.67709C9.54182 19.1626 9.40655 19.1626 9.40655 18.8921V18.1707ZM10.9396 19.2528C10.8494 19.2528 10.7141 19.2528 10.6239 19.2528C10.5338 19.2528 10.4436 19.2528 10.3083 19.2528C10.0829 18.9372 9.85744 18.5765 9.632 18.2157H9.45164V18.8921C9.45164 19.1175 9.54182 19.1175 9.72217 19.1175H9.81235V19.2077C9.632 19.2077 9.45164 19.2077 9.27129 19.2077C9.13602 19.2077 8.95567 19.2077 8.8204 19.2077V19.1175H8.86549C9.00076 19.1175 9.09093 19.0724 9.09093 18.9372V17.314C9.09093 17.0885 8.95567 17.0885 8.86549 17.0885H8.73022V16.9984C8.8204 16.9984 9.04585 16.9984 9.2262 16.9984C9.40655 16.9984 9.58691 16.9984 9.72217 16.9984C10.128 16.9984 10.4887 17.1336 10.4887 17.5845C10.4887 17.855 10.3083 18.0354 10.0378 18.1707L10.5789 18.9823C10.669 19.1175 10.7141 19.1626 10.8945 19.1626L10.9396 19.2528Z" fill="#006AC9"/>
<path d="M13.1038 18.5766V17.3592C13.1038 17.0886 12.9234 17.0435 12.8333 17.0435H12.7431V16.9534C12.8783 16.9534 13.0587 16.9534 13.194 16.9534C13.3292 16.9534 13.4645 16.9534 13.5998 16.9534V17.0435H13.5547C13.4194 17.0435 13.2841 17.0886 13.2841 17.4493V18.8922C13.2841 18.9824 13.2841 19.1176 13.2841 19.2078H13.1489L11.4806 17.3592V18.6667C11.4806 18.9373 11.5257 19.0274 11.7962 19.0274H11.8864V19.1176C11.7511 19.1176 11.6159 19.1176 11.4806 19.1176C11.3453 19.1176 11.2101 19.1176 11.0297 19.1176H11.0748C11.3002 19.1176 11.3453 18.9824 11.3453 18.7118V17.3592C11.3453 17.1788 11.2101 17.0886 11.0297 17.0886H10.9846V16.9985C11.1199 16.9985 11.2101 16.9985 11.3453 16.9985C11.4355 16.9985 11.5257 16.9985 11.6159 16.9985L13.1038 18.5766Z" fill="#006AC9"/>
<path d="M13.1489 19.2528H13.2391C13.2391 19.1626 13.2391 19.0273 13.2391 18.9372V17.4943C13.2391 17.0885 13.4194 17.0885 13.5547 17.0885H13.5998V16.9984C13.4645 16.9984 13.3292 16.9984 13.2391 16.9984C13.1038 16.9984 12.9685 16.9984 12.7882 16.9984V17.0885H12.8333C12.9234 17.0885 13.1489 17.1336 13.1489 17.4042V18.6215L11.706 16.9984C11.6159 16.9984 11.5257 16.9984 11.4355 16.9984C11.3002 16.9984 11.2101 16.9984 11.0748 16.9984V17.0885H11.1199C11.2552 17.0885 11.4355 17.2238 11.4355 17.4042V18.7568C11.4355 19.0273 11.3453 19.1626 11.1199 19.1626H11.0748V19.2528C11.2101 19.2528 11.3453 19.2528 11.4806 19.2528C11.6159 19.2528 11.7511 19.2528 11.8864 19.2528V19.1626H11.8413C11.5708 19.1626 11.5257 19.0724 11.5257 18.7568V17.4042L13.1489 19.2528ZM13.2841 19.2979H13.1489L11.5257 17.4943V18.8019C11.5257 19.0724 11.5708 19.1626 11.7962 19.1626H11.8864V19.2528C11.7511 19.2528 11.6159 19.2528 11.4806 19.2528C11.3453 19.2528 11.2101 19.2528 11.0297 19.2528V19.1175H11.0748C11.3002 19.1175 11.3453 18.9823 11.3453 18.7117V17.3591C11.3453 17.1787 11.2101 17.0885 11.0748 17.0885H10.9846V16.9984C11.1199 16.9984 11.2552 16.9984 11.3453 16.9984C11.4355 16.9984 11.5257 16.9984 11.6609 16.9984L13.0587 18.5765V17.4042C13.0587 17.1336 12.8783 17.1336 12.7882 17.1336H12.698V17.0434C12.8333 17.0434 13.0136 17.0434 13.1489 17.0434C13.2841 17.0434 13.4194 17.0434 13.5547 17.0434V17.1336H13.5096C13.3743 17.1336 13.2391 17.1336 13.2391 17.5394V18.9823C13.2841 19.0724 13.2841 19.1626 13.2841 19.2979Z" fill="#006AC9"/>
<path d="M14.5912 17.3591L14.2756 18.2609H14.8618L14.5912 17.3591ZM14.1404 18.7569C14.0953 18.8471 14.0502 18.9372 14.0502 19.0274C14.0502 19.1176 14.1854 19.1176 14.2756 19.1176H14.3207V19.2078C14.1854 19.2078 14.0502 19.2078 13.9149 19.2078C13.7796 19.2078 13.6895 19.2078 13.5542 19.2078V19.1176C13.6895 19.1176 13.7796 19.0274 13.8247 18.8921L14.3207 17.4042C14.3658 17.269 14.4109 17.1337 14.456 16.9984C14.5461 16.9533 14.6814 16.9082 14.7716 16.8632C14.7716 16.8632 14.7716 16.8632 14.8167 16.8632C14.8167 16.9082 14.8167 16.9082 14.8618 16.9533L15.493 18.6667C15.5381 18.7569 15.5832 18.8921 15.6283 18.9823C15.6734 19.0725 15.7185 19.1176 15.8537 19.1176V19.2078C15.7185 19.2078 15.5832 19.2078 15.4028 19.2078C15.2225 19.2078 15.0872 19.2078 14.9069 19.2078V19.1176H14.9519C15.0421 19.1176 15.1323 19.1176 15.1323 19.0274C15.1323 18.9823 15.0872 18.8921 15.0872 18.802L14.9519 18.4413H14.2305L14.1404 18.7569Z" fill="#006AC9"/>
<path d="M14.3207 18.2609H14.9069L14.5912 17.3591L14.3207 18.2609ZM14.2756 18.2609L14.5912 17.314L14.9069 18.2609H14.2756ZM14.9069 19.2077C15.0872 19.2077 15.2225 19.2077 15.3577 19.2077C15.493 19.2077 15.6283 19.2077 15.8086 19.2077V19.1175C15.7185 19.1175 15.6283 19.0725 15.5832 18.9823C15.5381 18.9372 15.493 18.8019 15.493 18.6667L14.9069 16.9984C14.9069 16.9533 14.9069 16.9533 14.8618 16.9082C14.8167 16.9533 14.6814 16.9984 14.5912 17.0435C14.5912 17.1787 14.5011 17.314 14.456 17.4493L13.96 18.9372C13.9149 19.0725 13.7796 19.1626 13.6444 19.1626V19.2528C13.7346 19.2528 13.8698 19.2528 13.96 19.2528C14.0953 19.2528 14.2305 19.2528 14.3207 19.2528V19.1626C14.2305 19.1626 14.0502 19.1626 14.0502 19.0274C14.0502 18.9823 14.0953 18.8921 14.1404 18.7568L14.2305 18.3961H14.997L15.1323 18.7568C15.1774 18.847 15.1774 18.9372 15.1774 18.9823C15.1774 19.0725 15.0421 19.0725 14.9519 19.0725V19.2077H14.9069ZM15.8537 19.2528C15.7185 19.2528 15.5832 19.2528 15.4028 19.2528C15.2225 19.2528 15.0872 19.2528 14.9069 19.2528V19.1175H14.9519C15.0421 19.1175 15.1323 19.1175 15.1323 19.0274C15.1323 18.9823 15.0872 18.8921 15.0872 18.8019L14.9519 18.4412H14.2305L14.1404 18.7568C14.0953 18.847 14.0502 18.9372 14.0502 18.9823C14.0502 19.0725 14.1854 19.0725 14.2756 19.0725H14.3207V19.1626C14.1854 19.1626 14.0502 19.1626 13.9149 19.1626C13.7796 19.1626 13.6895 19.1626 13.5542 19.1626V19.1175C13.6895 19.1175 13.7796 19.0274 13.8247 18.9372L14.3207 17.4493C14.3658 17.314 14.4109 17.1787 14.456 17.0435C14.5461 16.9984 14.6814 16.9533 14.7265 16.9082C14.7265 16.9082 14.7265 16.9082 14.7716 16.9082H14.8167C14.8167 16.9533 14.8167 16.9533 14.8618 16.9984L15.493 18.6667C15.5381 18.8019 15.5832 18.8921 15.6283 18.9823C15.6734 19.0725 15.7185 19.1175 15.8086 19.1175H15.8537V19.2528Z" fill="#006AC9"/>
<path d="M15.9893 17.1337C15.7639 17.1337 15.7188 17.1788 15.6737 17.4042H15.5835C15.5835 17.314 15.6286 17.2239 15.6286 17.1337C15.6286 17.0435 15.6286 16.9533 15.6286 16.8632H15.7188C15.7639 16.9533 15.8089 16.9533 15.8991 16.9533H17.5674C17.6576 16.9533 17.7478 16.9533 17.7478 16.8632H17.8379C17.8379 16.9533 17.7928 17.0435 17.7928 17.1337C17.7928 17.2239 17.7928 17.314 17.7928 17.4042L17.7027 17.4493C17.7027 17.314 17.6576 17.1337 17.4772 17.1337H16.9362V18.8471C16.9362 19.0725 17.0263 19.1176 17.2067 19.1176H17.2518V19.2078C17.1165 19.2078 16.8911 19.2078 16.7107 19.2078C16.5304 19.2078 16.3049 19.2078 16.1696 19.2078V19.1176H16.2147C16.3951 19.1176 16.4853 19.1176 16.4853 18.8471V17.1337H15.9893Z" fill="#006AC9"/>
<path d="M17.2518 19.2529C17.1165 19.2529 16.8911 19.2529 16.7107 19.2529C16.5303 19.2529 16.3049 19.2529 16.1696 19.2529V19.1176H16.2147C16.3951 19.1176 16.4402 19.1176 16.4853 18.8471V17.1337H15.9893H16.5303V18.8471C16.5303 19.1176 16.4402 19.1176 16.2598 19.1176H16.2147V19.2078C16.35 19.2078 16.5754 19.2078 16.7558 19.2078C16.8911 19.2078 17.1165 19.2078 17.2518 19.2529V19.1627H17.2067C17.0714 19.1627 16.9361 19.1176 16.9361 18.8922V17.1788H17.4772C17.7027 17.1788 17.7027 17.3592 17.7477 17.4944L17.8379 17.4493C17.8379 17.3592 17.8379 17.269 17.8379 17.1788C17.8379 17.0886 17.8379 16.9985 17.883 16.9534H17.8379C17.8379 17.0435 17.7477 17.0435 17.6576 17.0435H15.9893C15.8991 17.0435 15.854 17.0435 15.8089 16.9534H15.7638C15.7638 17.0435 15.7638 17.1337 15.7638 17.2239C15.7638 17.3141 15.7188 17.4043 15.7188 17.4944H15.8089C15.854 17.269 15.8991 17.1788 16.1245 17.2239C15.8991 17.2239 15.8991 17.269 15.854 17.4944H15.7188C15.7188 17.4043 15.7638 17.3141 15.7638 17.2239C15.7638 17.1337 15.7638 17.0435 15.7638 16.9534H15.854C15.854 17.0435 15.9442 17.0435 16.0344 17.0435H17.7027C17.7928 17.0435 17.8379 17.0435 17.883 16.9534H17.9732C17.9732 17.0435 17.9281 17.1337 17.9281 17.2239C17.9281 17.3141 17.9281 17.4043 17.9281 17.4944L17.7928 17.5395C17.7928 17.4043 17.7928 17.2239 17.5674 17.2239H17.0714V18.9373C17.0714 19.1627 17.1616 19.2078 17.3419 19.2078H17.4321L17.2518 19.2529Z" fill="#006AC9"/>
<path d="M17.928 19.1175C18.1083 19.1175 18.1985 19.1175 18.1985 18.9372V17.2689C18.1985 17.0885 18.0632 17.0885 17.9731 17.0885H17.928V16.9984C18.0632 16.9984 18.2436 16.9984 18.424 16.9984C18.6043 16.9984 18.7847 16.9984 18.9199 16.9984V17.0885H18.8748C18.7396 17.0885 18.6494 17.0885 18.6494 17.2689V18.9372C18.6494 19.1175 18.7847 19.1175 18.8748 19.1175H18.9199V19.2077C18.7847 19.2077 18.5592 19.2077 18.424 19.2077C18.2887 19.2077 18.0632 19.2077 17.9731 19.2077V19.1175H17.928Z" fill="#006AC9"/>
<path d="M18.92 19.2077V19.1175H18.8749C18.7397 19.1175 18.6044 19.1175 18.6044 18.9372V17.2689C18.6044 17.0885 18.7397 17.0885 18.8749 17.0885H18.92V16.9984C18.7847 16.9984 18.6044 16.9984 18.424 16.9984C18.2888 16.9984 18.1084 16.9984 17.9731 16.9984V17.0885H18.0182C18.1535 17.0885 18.2888 17.0885 18.2888 17.2689V18.9372C18.2888 19.1175 18.1535 19.1175 18.0182 19.1175H17.9731V19.2077C18.1084 19.2077 18.2888 19.2077 18.424 19.2077C18.5593 19.2077 18.7397 19.2077 18.92 19.2077ZM18.92 19.2528C18.7847 19.2528 18.5593 19.2528 18.424 19.2528C18.2888 19.2528 18.0633 19.2528 17.9731 19.2528V19.1175H18.0182C18.1535 19.1175 18.2437 19.1175 18.2437 18.9372V17.2689C18.2437 17.1336 18.1535 17.0885 18.0182 17.0885H17.9731V16.9984C18.1084 16.9984 18.2888 16.9984 18.4691 16.9984C18.6495 16.9984 18.8298 16.9984 18.9651 16.9984V17.0885H18.92C18.7847 17.0885 18.6946 17.0885 18.6946 17.2689V18.9372C18.6946 19.0724 18.7847 19.1175 18.92 19.1175H18.9651L18.92 19.2528Z" fill="#006AC9"/>
<path d="M20.273 19.1176C20.9042 19.1176 20.9944 18.5766 20.9944 18.0806C20.9944 17.6297 20.7239 17.0435 20.2279 17.0435C19.6417 17.0435 19.5065 17.5395 19.5065 17.9904C19.4614 18.5766 19.7319 19.1176 20.273 19.1176ZM20.2279 16.9534C20.9042 16.9534 21.4453 17.3592 21.4453 18.0806C21.4453 18.802 20.9042 19.298 20.2279 19.298C19.5516 19.298 19.0105 18.8471 19.0105 18.1257C19.0105 17.4493 19.5516 16.9534 20.2279 16.9534Z" fill="#006AC9"/>
<path d="M19.4614 17.9903C19.4614 17.5394 19.6417 17.0435 20.2279 17.0435C20.769 17.0435 21.0395 17.6296 21.0395 18.0805C21.0395 18.5314 20.9493 19.1175 20.273 19.1175C20.9042 19.1175 20.9944 18.5765 20.9944 18.1256C20.9944 17.6747 20.7239 17.0886 20.2279 17.0886C19.6417 17.0886 19.5065 17.5845 19.4614 17.9903C19.5065 18.5765 19.7319 19.1175 20.273 19.1175C19.7319 19.1626 19.4614 18.5765 19.4614 17.9903ZM19.0105 18.1256C19.0105 17.4493 19.5516 16.9082 20.2279 16.9082C19.5516 16.9533 19.0556 17.4493 19.0105 18.1256C19.0556 18.8019 19.5516 19.2528 20.2279 19.2528C20.9042 19.2528 21.4453 18.7568 21.4453 18.0354C21.4453 17.3591 20.9042 16.9533 20.2279 16.9533C20.9042 16.9533 21.4904 17.4042 21.4904 18.0805C21.4904 18.847 20.9493 19.343 20.273 19.343C19.5516 19.2979 19.0105 18.847 19.0105 18.1256Z" fill="#006AC9"/>
<path d="M23.6094 18.5766V17.3592C23.6094 17.0886 23.429 17.0435 23.3389 17.0435H23.2487V16.9534C23.384 16.9534 23.5643 16.9534 23.6996 16.9534C23.8348 16.9534 23.9701 16.9534 24.1054 16.9534V17.0435H24.0603C23.925 17.0435 23.7898 17.0886 23.7898 17.4493V18.8922C23.7898 18.9824 23.7898 19.1176 23.7898 19.2078H23.6545L21.9862 17.3592V18.6667C21.9862 18.9373 22.0313 19.0274 22.3018 19.0274H22.3469V19.1176C22.2117 19.1176 22.0764 19.1176 21.9411 19.1176C21.8059 19.1176 21.6706 19.1176 21.4902 19.1176H21.5353C21.7608 19.1176 21.8059 18.9824 21.8059 18.7118V17.3592C21.8059 17.1788 21.6706 17.0886 21.5353 17.0886H21.4902V16.9985C21.6255 16.9985 21.7157 16.9985 21.8509 16.9985C21.9411 16.9985 22.0313 16.9985 22.1215 16.9985L23.6094 18.5766Z" fill="#006AC9"/>
<path d="M23.6541 19.2528H23.7443C23.7443 19.1626 23.7443 19.0273 23.7443 18.9372V17.4943C23.7443 17.0885 23.9246 17.0885 24.0599 17.0885H24.105V16.9984C23.9697 16.9984 23.8344 16.9984 23.7443 16.9984C23.609 16.9984 23.4737 16.9984 23.2934 16.9984V17.0885H23.3385C23.4286 17.0885 23.6541 17.1336 23.6541 17.4042V18.6215L22.2112 16.9984C22.1211 16.9984 22.0309 16.9984 21.9407 16.9984C21.8054 16.9984 21.7153 16.9984 21.58 16.9984V17.0885H21.6251C21.7604 17.0885 21.9407 17.2238 21.9407 17.4042V18.7568C21.9407 19.0273 21.8505 19.1626 21.6251 19.1626H21.58V19.2528C21.7153 19.2528 21.8505 19.2528 21.9858 19.2528C22.1211 19.2528 22.2563 19.2528 22.3916 19.2528V19.1626H22.3465C22.076 19.1626 22.0309 19.0724 22.0309 18.7568V17.4042L23.6541 19.2528ZM23.7893 19.2979H23.6541L22.0309 17.4943V18.8019C22.0309 19.0724 22.076 19.1626 22.3014 19.1626H22.3916V19.2528C22.2563 19.2528 22.1211 19.2528 21.9858 19.2528C21.8505 19.2528 21.7153 19.2528 21.5349 19.2528V19.1175H21.58C21.8054 19.1175 21.8505 18.9823 21.8505 18.7117V17.3591C21.8505 17.1787 21.7153 17.0885 21.58 17.0885H21.5349V16.9984C21.6702 16.9984 21.8054 16.9984 21.8956 16.9984C21.9858 16.9984 22.076 16.9984 22.2112 16.9984L23.609 18.5765V17.4042C23.609 17.1336 23.4286 17.1336 23.3385 17.1336H23.2483V17.0434C23.3835 17.0434 23.5639 17.0434 23.6992 17.0434C23.8344 17.0434 23.9697 17.0434 24.105 17.0434V17.1336H24.0599C23.9246 17.1336 23.7893 17.1336 23.7893 17.5394V18.9823C23.7893 19.0724 23.7893 19.1626 23.7893 19.2979Z" fill="#006AC9"/>
<path d="M25.0973 17.3591L24.7817 18.2609H25.413L25.0973 17.3591ZM24.6465 18.7569C24.6014 18.8471 24.5563 18.9372 24.5563 19.0274C24.5563 19.1176 24.6915 19.1176 24.7817 19.1176H24.8268V19.2078C24.6915 19.2078 24.5563 19.2078 24.421 19.2078C24.2857 19.2078 24.1956 19.2078 24.0603 19.2078V19.1176C24.1956 19.1176 24.2857 19.0274 24.3308 18.8921L24.8268 17.4042C24.8719 17.269 24.917 17.1337 24.9621 16.9984C25.0523 16.9533 25.1875 16.9082 25.2777 16.8632C25.2777 16.8632 25.2777 16.8632 25.3228 16.8632C25.3228 16.9082 25.3228 16.9082 25.3679 16.9533L25.954 18.6216C25.9991 18.7118 26.0442 18.8471 26.0893 18.9372C26.1344 19.1176 26.2246 19.1176 26.3147 19.1176V19.2078C26.1795 19.2078 26.0442 19.2078 25.8638 19.2078C25.7286 19.2078 25.5482 19.2078 25.3679 19.2078V19.1176H25.413C25.5031 19.1176 25.5933 19.1176 25.5933 19.0274C25.5933 18.9823 25.5482 18.8921 25.5482 18.802L25.413 18.4413H24.6915L24.6465 18.7569Z" fill="#006AC9"/>
<path d="M24.8268 18.2609H25.3679L25.0973 17.4042L24.8268 18.2609ZM24.7817 18.2609L25.0973 17.314L25.413 18.2609H24.7817ZM25.413 19.2077C25.5933 19.2077 25.7286 19.2077 25.8638 19.2077C25.9991 19.2077 26.1344 19.2077 26.3147 19.2077V19.1175C26.2246 19.1175 26.1344 19.0725 26.0893 18.9823C26.0442 18.8921 25.9991 18.7568 25.954 18.6667L25.3679 16.9984C25.3679 16.9533 25.3679 16.9533 25.3228 16.9082C25.2777 16.9533 25.1424 16.9984 25.0523 17.0435C25.0523 17.1787 24.9621 17.314 24.917 17.4493L24.421 18.9372C24.3759 19.0725 24.2407 19.1626 24.1505 19.1626V19.2528C24.2407 19.2528 24.3759 19.2528 24.4661 19.2528C24.6014 19.2528 24.7366 19.2528 24.8268 19.2528V19.1626C24.7366 19.1626 24.5563 19.1626 24.5563 19.0274C24.5563 18.9823 24.6014 18.8921 24.6465 18.7568L24.7366 18.3961H25.5031L25.6384 18.7568C25.6835 18.847 25.6835 18.9372 25.6835 18.9823C25.6835 19.0725 25.5482 19.0725 25.4581 19.0725V19.2077H25.413ZM26.3598 19.2528C26.2246 19.2528 26.0893 19.2528 25.9089 19.2528C25.7737 19.2528 25.5933 19.2528 25.413 19.2528V19.1175H25.4581C25.5482 19.1175 25.6384 19.1175 25.6384 19.0274C25.6384 18.9823 25.5933 18.8921 25.5933 18.8019L25.4581 18.4412H24.7366L24.6465 18.7568C24.6014 18.847 24.5563 18.9372 24.5563 18.9823C24.5563 19.0725 24.6915 19.0725 24.7817 19.0725H24.8268V19.1626C24.6915 19.1626 24.5563 19.1626 24.421 19.1626C24.2857 19.1626 24.1956 19.1626 24.0603 19.1626V19.1175C24.1956 19.1175 24.2857 19.0274 24.3308 18.9372L24.8268 17.4493C24.8719 17.314 24.917 17.1787 24.9621 17.0435C25.0523 16.9984 25.1875 16.9533 25.2777 16.9082C25.2777 16.9082 25.2777 16.9082 25.3228 16.9082H25.3679C25.3679 16.9533 25.3679 16.9533 25.413 16.9984L25.9991 18.6667C26.0442 18.8019 26.0893 18.8921 26.1344 18.9823C26.1795 19.0725 26.2246 19.1175 26.3147 19.1175H26.3598V19.2528Z" fill="#006AC9"/>
<path d="M27.1713 18.9373C27.1713 19.0725 27.2615 19.1176 27.3516 19.1176C27.4869 19.1176 27.6222 19.1176 27.7574 19.1176C27.8927 19.1176 28.028 19.0274 28.0731 18.9373C28.1182 18.8471 28.1632 18.7569 28.1632 18.7118H28.2534C28.2083 18.8922 28.1632 19.0725 28.1182 19.2529C27.8476 19.2529 27.532 19.2529 27.2615 19.2529C26.9909 19.2529 26.6753 19.2529 26.4048 19.2529V19.1176H26.4499C26.5851 19.1176 26.6753 19.1176 26.6753 18.8922V17.2239C26.6753 17.0435 26.5401 17.0435 26.4499 17.0435H26.4048V16.9534C26.5851 16.9534 26.7204 16.9534 26.9008 16.9534C27.0811 16.9534 27.2164 16.9534 27.3967 16.9534V17.0435H27.3066C27.1713 17.0435 27.0811 17.0435 27.0811 17.2239V18.9373H27.1713Z" fill="#006AC9"/>
<path d="M28.1182 19.2077C28.1633 19.0273 28.2084 18.847 28.2535 18.7117H28.2084C28.2084 18.8019 28.1633 18.847 28.1182 18.9372C28.0731 19.0273 27.9379 19.1175 27.8026 19.1175C27.7124 19.1175 27.6223 19.1175 27.5772 19.1175C27.5321 19.1175 27.4419 19.1175 27.3968 19.1175C27.3066 19.1175 27.1714 19.0724 27.1714 18.9372V17.2689C27.1714 17.0885 27.2615 17.0885 27.3968 17.0885H27.4419V16.9984C27.2615 16.9984 27.1263 16.9984 26.9459 16.9984C26.7656 16.9984 26.6303 16.9984 26.45 16.9984V17.0885H26.495C26.6303 17.0885 26.7656 17.0885 26.7656 17.2689V18.9372C26.7656 19.1626 26.6303 19.1626 26.495 19.1626H26.45V19.2528C26.7205 19.2528 26.991 19.2528 27.3066 19.2528C27.5772 19.2077 27.8477 19.2077 28.1182 19.2077ZM28.1633 19.2528C27.8928 19.2528 27.5772 19.2528 27.3066 19.2528C27.0361 19.2528 26.7205 19.2528 26.45 19.2528V19.1175H26.495C26.6303 19.1175 26.7205 19.1175 26.7205 18.9372V17.2689C26.7205 17.1336 26.6303 17.0885 26.495 17.0885H26.45V16.9984C26.6303 16.9984 26.8107 16.9984 26.9459 16.9984C27.1263 16.9984 27.2615 16.9984 27.4419 16.9984V17.0885H27.3517C27.2165 17.0885 27.1263 17.0885 27.1263 17.2689V18.9372C27.1263 19.0724 27.2165 19.0724 27.3066 19.1175C27.3517 19.1175 27.4419 19.1175 27.487 19.1175C27.5772 19.1175 27.6673 19.1175 27.7124 19.1175C27.8477 19.1175 27.9379 19.0273 28.0281 18.9372C28.0731 18.847 28.1182 18.8019 28.1182 18.7117H28.2084C28.2535 18.8921 28.2084 19.0724 28.1633 19.2528Z" fill="#006AC9"/>
<path d="M28.163 17.2238C28.2532 17.2238 28.2532 17.1787 28.2532 17.1336C28.2532 17.0886 28.2081 17.0435 28.2081 17.0435H28.163V17.2238ZM28.0729 17.4042C28.1179 17.4042 28.1179 17.4042 28.1179 17.3591V17.0886C28.1179 17.0435 28.1179 17.0435 28.0729 17.0435H28.2532C28.2983 17.0435 28.3885 17.0886 28.3885 17.1336C28.3885 17.1787 28.3434 17.2238 28.2983 17.2238L28.3434 17.314C28.3885 17.3591 28.3885 17.4042 28.4336 17.4042H28.3885C28.3434 17.4042 28.3434 17.3591 28.2532 17.2689H28.2081V17.3591C28.2081 17.4042 28.2081 17.3591 28.2532 17.4042H28.0729ZM28.2081 17.4944C28.3434 17.4944 28.4787 17.3591 28.4787 17.2238C28.4787 17.0886 28.3434 16.9533 28.2081 16.9533C28.0729 16.9533 27.9376 17.0886 27.9376 17.2238C27.9827 17.3591 28.0729 17.4944 28.2081 17.4944ZM28.2081 16.9082C28.3885 16.9082 28.5688 17.0435 28.5688 17.2689C28.5688 17.4944 28.4336 17.5845 28.2081 17.5845C27.9827 17.5845 27.8474 17.4493 27.8474 17.2689C27.8474 17.0886 28.0278 16.9082 28.2081 16.9082Z" fill="#006AC9"/>
<path d="M20.5879 4.73431C20.5879 3.29147 20.0018 1.9839 19.0098 0.946862C18.0629 0.360709 16.9357 0 15.7634 0H13.1483C10.0372 0 7.51221 2.29952 7.51221 5.63608C7.51221 7.03383 8.05327 8.29631 8.90995 9.28827C9.81173 9.91951 10.8939 10.3704 12.0662 10.5507C9.76664 10.0548 8.05327 8.02578 8.05327 5.54591C8.05327 2.70532 10.3528 0.405798 13.1483 0.405798C15.9889 0.405798 18.2884 2.70532 18.2884 5.54591C18.2884 8.3414 16.079 10.5958 13.2835 10.6409C13.3737 10.6409 13.4188 10.6409 13.509 10.6409C17.3866 10.686 20.5879 8.02578 20.5879 4.73431Z" fill="#004A97"/>
<path d="M13.1036 0C9.99249 0 7.46753 2.29952 7.46753 5.63607C7.46753 6.98873 7.9635 8.25121 8.82019 9.19807C8.86528 9.24316 8.91036 9.28825 8.95545 9.33334C9.85723 9.96458 10.8943 10.3704 12.0666 10.5958C9.76705 10.0998 8.05368 8.07086 8.05368 5.59098C8.05368 2.7504 10.3532 0.450886 13.1487 0.450886C15.9893 0.450886 18.2888 2.7504 18.2888 5.59098C18.2888 8.38648 16.0795 10.6409 13.284 10.686C13.3741 10.686 13.4192 10.686 13.5094 10.686C13.7348 10.686 13.9603 10.686 14.1857 10.6409C17.1616 9.91949 19.0553 6.89855 18.5142 3.69726C18.2437 2.20934 17.5223 0.94686 16.4852 0.0450883C16.2598 -2.58671e-07 16.0344 0 15.8089 0H13.1036Z" fill="#006AC9"/>
</svg>
