<svg width="33" height="13" viewBox="0 0 33 13" fill="none" xmlns="http://www.w3.org/2000/svg">
<path d="M4.52574 2.63687C0.722456 2.63687 0.570325 5.62879 0.621035 6.38944C0.621035 6.38944 0.418193 9.83776 4.42432 9.83776C7.87263 9.83776 8.02476 7.65721 8.02476 7.65721H6.45274C6.45274 7.65721 6.14848 8.82355 4.42432 8.77284C2.24377 8.77284 2.14235 6.59229 2.14235 6.59229H8.22761C8.27832 6.59229 8.73471 2.63687 4.52574 2.63687ZM2.19306 5.57808C2.19306 5.57808 2.29448 3.65108 4.47503 3.65108C6.65558 3.65108 6.65558 5.57808 6.65558 5.57808H2.19306Z" fill="#FF6C6C"/>
<path d="M0.621344 5.93305C0.621344 5.93305 0.418502 9.83776 4.42463 9.83776C7.87294 9.83776 8.02507 7.65721 8.02507 7.65721H6.45305C6.45305 7.65721 6.14878 8.82355 4.42463 8.77284C2.24408 8.77284 2.14266 6.59229 2.14266 6.59229H8.22791C8.22791 6.59229 8.68431 2.63687 4.47534 2.63687L0.621344 5.93305ZM2.19337 5.57808C2.19337 5.57808 2.29479 3.65108 4.47534 3.65108C6.65589 3.65108 6.65589 5.57808 6.65589 5.57808H2.19337Z" fill="#EE3B3F"/>
<path d="M12.6397 2.68765C10.7127 2.68765 10.0027 3.80329 10.0027 3.80329V0H8.27856L8.32928 8.06297C8.32928 8.06297 8.32927 9.12788 8.27856 9.63499H9.74917L9.79988 8.7222C9.79988 8.7222 10.5098 9.83783 12.5382 9.83783C14.5667 9.83783 16.1894 8.57007 16.2401 6.2881C16.2401 4.00613 14.516 2.68765 12.6397 2.68765ZM12.1833 8.82362C9.79988 8.87433 9.79988 6.2881 9.79988 6.2881C9.79988 6.2881 9.69846 3.80329 12.1833 3.75257C14.6174 3.70186 14.5667 6.33881 14.5667 6.33881C14.5667 6.33881 14.5667 8.77291 12.1833 8.82362Z" fill="#1992DD"/>
<path d="M12.6396 2.68765C10.7126 2.68765 10.0026 3.80329 10.0026 3.80329V0L8.27849 1.57202V8.06297C8.27849 8.06297 8.27849 9.12788 8.22778 9.63499H9.69839L9.7491 8.7222C9.7491 8.7222 10.459 9.83783 12.4875 9.83783C14.5159 9.83783 16.1386 8.57007 16.1893 6.2881C16.24 4.00613 14.5159 2.68765 12.6396 2.68765ZM12.1832 8.82362C9.79981 8.87433 9.79981 6.2881 9.79981 6.2881C9.79981 6.2881 9.69839 3.80329 12.1832 3.75257C14.6173 3.70186 14.5666 6.33881 14.5666 6.33881C14.5666 6.33881 14.5666 8.77291 12.1832 8.82362Z" fill="#0468B2"/>
<path d="M23.1877 8.01226C23.1877 6.94734 23.2384 6.03455 23.1877 5.37531C23.137 4.61465 23.2384 2.68765 19.9423 2.53552C19.9423 2.53552 16.7982 2.4848 16.4433 4.51323H18.066C18.066 4.51323 18.1674 3.49902 19.8409 3.54973C21.4129 3.60044 21.6664 4.3611 21.6664 5.3246C21.6664 5.3246 20.348 5.37531 19.8916 5.37531C19.0802 5.37531 16.2911 5.47673 16.0376 7.20089C15.7333 9.22932 17.5082 9.83784 18.9281 9.83784C20.348 9.83784 21.1593 9.43216 21.7678 8.6715L21.8186 9.635H23.2384C23.2384 9.58429 23.1877 9.07718 23.1877 8.01226ZM19.1816 8.87434C19.1816 8.87434 17.6603 8.87434 17.5589 7.65729C17.4575 6.33881 19.8916 6.44023 19.8916 6.44023H21.6157C21.6664 6.44023 21.9707 8.92505 19.1816 8.87434Z" fill="#FFCE00"/>
<path d="M16.5954 4.56387H18.066C18.066 4.56387 18.1674 3.54966 19.8409 3.60037C21.4129 3.65108 21.6664 4.41174 21.6664 5.37524C21.6664 5.37524 20.348 5.42595 19.8916 5.42595C19.0802 5.42595 16.2911 5.52737 16.0376 7.25152C15.7333 9.27994 17.5082 9.88847 18.9281 9.88847C20.348 9.88847 21.1593 9.48278 21.7678 8.72213L21.8186 9.68562H23.2384C23.2384 9.68562 23.1877 9.17852 23.1877 8.1136C23.1877 7.04868 23.2384 6.13589 23.1877 5.47666C23.137 4.716 23.2892 2.789 19.993 2.63687L16.5954 4.56387ZM19.1816 8.87426C19.1816 8.87426 17.6603 8.87426 17.5589 7.65721C17.4575 6.33873 19.8916 6.44016 19.8916 6.44016H21.6157C21.6664 6.44016 21.9707 8.92497 19.1816 8.87426Z" fill="#F7AB1B"/>
<path d="M22.3762 3.0426H24.1511L26.7373 8.21507L29.3236 3.0426H30.9463L26.2302 12.1705H24.5061L25.8752 9.63496L22.3762 3.0426Z" fill="#85DD52"/>
<path d="M23.0857 4.36117L24.1506 3.04269L26.7368 8.16445L29.3231 3.04269H30.9458L26.2297 12.1706H24.5056L25.8748 9.58435L23.0857 4.36117Z" fill="#6BB745"/>
<path d="M31.5036 3.29623V3.09339H31.4529V3.04267H31.5036V2.94125H31.605V3.04267H31.7064V3.09339H31.605V3.29623C31.605 3.34694 31.605 3.34694 31.6557 3.34694H31.7064V3.39765C31.6557 3.39765 31.6557 3.39765 31.605 3.39765C31.5543 3.44836 31.5036 3.39765 31.5036 3.29623Z" fill="#6BB745"/>
<path d="M31.8589 3.04269H31.9603V3.0934C32.011 3.04269 32.011 3.04269 32.1124 3.04269C32.1631 3.04269 32.2139 3.04269 32.2646 3.0934C32.3153 3.04269 32.366 3.04269 32.4167 3.04269C32.5181 3.04269 32.5688 3.0934 32.5688 3.19483V3.44838H32.4674V3.24554C32.4674 3.19483 32.4167 3.14412 32.366 3.14412C32.3153 3.14412 32.2646 3.19483 32.2646 3.24554V3.44838H32.1631V3.24554C32.1631 3.19483 32.1124 3.14412 32.0617 3.14412C32.011 3.14412 31.9603 3.19483 31.9603 3.24554V3.44838H31.8589V3.04269Z" fill="#6BB745"/>
<path d="M6.50369 4.76681C6.70653 5.1725 6.70653 5.57818 6.70653 5.57818H2.1933C2.1933 5.57818 2.1933 4.46255 3.20751 3.95544C2.1933 4.10758 1.33122 4.61468 0.671984 5.37534C0.570563 5.78102 0.570563 6.1867 0.570563 6.38955C0.570563 6.38955 0.367721 9.83786 4.37385 9.83786C7.31505 9.83786 7.87287 8.26584 7.97429 7.80944C7.97429 7.75873 7.97429 7.70802 7.97429 7.65731H6.40227C6.40227 7.65731 6.098 8.82365 4.37385 8.77294C2.24401 8.77294 2.14259 6.59239 2.14259 6.59239H7.77145C7.5179 6.08528 7.0615 5.22321 6.50369 4.76681Z" fill="#C60C1E"/>
<path d="M15.8345 7.91079C15.7838 6.64303 15.0739 5.47669 14.1104 4.76674C14.5668 5.47669 14.5161 6.38947 14.5161 6.38947C14.5161 6.38947 14.5668 8.87429 12.1327 8.87429C9.74927 8.925 9.74927 6.33876 9.74927 6.33876C9.74927 6.33876 9.69856 4.66532 11.017 4.05679C9.85069 4.20892 8.88719 4.86816 8.22796 5.78095V8.16434C8.22796 8.16434 8.22796 9.22926 8.17725 9.73637H9.64785L9.69856 8.82358C9.69856 8.82358 10.4085 9.93921 12.4369 9.93921C13.9582 9.83779 15.2767 9.17855 15.8345 7.91079Z" fill="#064C91"/>
<path d="M23.1872 8.01221C23.1872 7.15013 23.1872 6.38948 23.1872 5.78095C22.7308 5.12172 22.1223 4.56391 21.3616 4.25964C21.6152 4.56391 21.6152 4.91888 21.6152 5.37527C21.6152 5.37527 20.2967 5.42598 19.8403 5.42598C19.0289 5.42598 16.2399 5.5274 15.9863 7.25155C15.6821 9.27996 17.4569 9.88849 18.8768 9.88849C20.2967 9.88849 21.1081 9.4828 21.7166 8.72215L21.7673 9.68564H23.1872C23.2379 9.58422 23.1872 9.07712 23.1872 8.01221ZM19.1811 8.87428C19.1811 8.87428 17.6598 8.87428 17.5583 7.65723C17.4569 6.33877 19.891 6.44019 19.891 6.44019H21.6152C21.6659 6.44019 21.9702 8.92499 19.1811 8.87428Z" fill="#F48D1C"/>
<path d="M17.3052 4.56392H18.1165C18.1165 4.56392 18.218 4.25966 18.4715 4.0061C18.0151 4.10752 17.6094 4.56392 17.3052 4.56392Z" fill="#F48D1C"/>
<path d="M26.2301 12.1705L29.5262 5.78101C29.222 5.37533 28.867 5.02035 28.512 4.71609L26.7372 8.11369L24.7087 4.20898C24.2524 4.41183 23.8467 4.71609 23.4917 5.07106L25.8751 9.635L24.5059 12.1705H26.2301Z" fill="#4A9E19"/>
</svg>
