<svg width="25" height="24" viewBox="0 0 25 24" fill="none" xmlns="http://www.w3.org/2000/svg">
<path d="M14.1324 23.332L23.9299 13.5345C24.7818 12.6825 24.7818 11.2884 23.9299 10.4365L14.1324 0.638967C13.2804 -0.212989 11.8863 -0.212989 11.0344 0.638967L1.23687 10.4365C0.384911 11.2884 0.384911 12.6825 1.23687 13.5345L11.0344 23.332C11.8863 24.2227 13.2804 24.2227 14.1324 23.332Z" fill="#FF9100"/>
<path d="M14.1324 23.332L23.9299 13.5345C24.7818 12.6825 24.7818 11.2884 23.9299 10.4365L14.1324 0.638967C13.2804 -0.212989 11.8863 -0.212989 11.0344 0.638967L1.23687 10.4365C0.384911 11.2884 0.384911 12.6825 1.23687 13.5345L11.0344 23.332C11.8863 24.2227 13.2804 24.2227 14.1324 23.332Z" fill="#FF9100"/>
<path d="M14.29 23.1883L21.0535 16.4248L15.4675 10.8388L8.70403 17.6023L14.29 23.1883Z" fill="#F16823"/>
<path d="M23.9299 13.5345C24.7818 12.6825 24.7818 11.2884 23.9299 10.4365L14.1324 0.638967C13.2804 -0.212989 11.8863 -0.212989 11.0344 0.638967L1.23687 10.4365C0.384911 11.2884 0.384911 12.6825 1.23687 13.5345" fill="#F16823"/>
<path d="M17.8112 6.7576L7.62646 16.9423C8.9044 18.0654 10.5309 18.7237 12.351 18.7237C16.3397 18.7237 19.5539 15.4708 19.5539 11.4821C19.5539 9.70072 18.8955 8.03553 17.8112 6.7576Z" fill="#E84E0A"/>
<path d="M19.0505 5.51835L14.1324 0.638967C13.2804 -0.212989 11.8863 -0.212989 11.0344 0.638967L1.23687 10.4365C0.384911 11.2884 0.384911 12.6825 1.23687 13.5345L6.15498 18.4526L19.0505 5.51835Z" fill="#07A8EF"/>
<path d="M1.23682 13.5345L6.15493 18.4526L19.0892 5.51835L14.1323 0.638967C13.2804 -0.212989 11.8863 -0.212989 11.0343 0.638967" fill="#0086D1"/>
<path d="M6.11621 18.4526L19.0505 5.51835L14.1323 0.638967C13.2804 -0.212989 11.8863 -0.212989 11.0343 0.638967" fill="#0063A6"/>
<path d="M17.5402 12.9923C17.153 14.9286 15.4491 16.5938 13.3579 16.8261C12.5059 16.9036 11.7314 16.7874 10.9957 16.4776C10.8795 16.5938 9.44665 18.0266 9.29175 18.1815C10.531 18.9173 12.0412 19.3045 13.5903 19.1496C16.2236 18.8786 18.3922 17.1359 19.399 14.8511L17.5402 12.9923Z" fill="white"/>
<path d="M17.5402 12.9923C17.153 14.9286 15.4491 16.5938 13.3579 16.8261C12.5059 16.9036 11.7314 16.7874 10.9957 16.4776C10.8795 16.5938 9.44665 18.0266 9.29175 18.1815C10.531 18.9173 12.0412 19.3045 13.5903 19.1496C16.2236 18.8786 18.3922 17.1359 19.399 14.8511L17.5402 12.9923Z" fill="white"/>
<path d="M19.36 14.8125L17.7335 13.1473C17.6561 13.2635 17.5399 13.3796 17.4237 13.4571C16.8816 15.1997 15.2938 16.6325 13.3576 16.8262C12.6605 16.9036 12.0022 16.8262 11.3826 16.5938C12.4282 17.0198 13.6286 17.2521 14.8291 17.0972C16.6492 16.9423 18.2369 16.0517 19.36 14.8125Z" fill="#CBE4EF"/>
<path d="M7.85889 17.0972C8.12996 17.3683 8.40104 17.6007 8.71084 17.833L18.6245 7.91934C18.3922 7.60954 18.1598 7.33846 17.8887 7.06738L7.85889 17.0972Z" fill="white"/>
<path d="M17.4628 6.68011C17.1142 6.40903 16.8432 6.17668 16.5334 5.98305C15.2554 5.20855 13.7451 4.82129 12.1574 4.97619C8.24616 5.36345 5.41922 8.84872 5.80647 12.76C5.92264 13.9605 6.3099 14.9673 6.89078 15.8967C7.04568 16.1678 7.47165 16.6712 7.47165 16.6712L17.4628 6.68011ZM12.5834 7.26098C13.3966 7.18353 14.2098 7.29971 14.9069 7.60951L8.63341 13.883C8.43979 13.457 8.32361 12.9923 8.28488 12.5276C8.05253 9.8943 9.95007 7.53206 12.5834 7.26098Z" fill="white"/>
<path d="M5.8064 12.76C5.92257 13.9605 6.30983 14.9673 6.8907 15.8967C7.04561 16.1678 7.47158 16.6712 7.47158 16.6712L17.4627 6.68011C17.1142 6.40903 16.8431 6.17668 16.5333 5.98305C15.2554 5.20855 13.7451 4.82129 12.1573 4.97619L5.8064 12.76ZM12.5833 7.26098C13.3966 7.18353 14.2098 7.29971 14.9068 7.60951L8.63334 13.883C8.43972 13.457 8.32354 12.9923 8.28482 12.5276C8.05246 9.8943 9.95 7.53206 12.5833 7.26098Z" fill="#CBE4EF"/>
<path d="M9.56274 15.432C9.83382 15.7031 10.1436 15.9354 10.4922 16.1291L18.6632 7.95801C18.4308 7.6482 18.1985 7.37713 17.9274 7.10605L9.56274 15.432Z" fill="#CBE4EF"/>
</svg>
