<svg width="32" height="6" viewBox="0 0 32 6" fill="none" xmlns="http://www.w3.org/2000/svg">
<path d="M4.02584 2.63228V0.825819C4.02584 0.567752 3.92261 0.309686 3.30325 0.309686V0.154846H5.57423V0.309686C4.95487 0.309686 4.85165 0.567752 4.85165 0.825819V4.90327C4.85165 5.16134 4.95487 5.4194 5.57423 5.4194V5.57424H3.30325V5.4194C3.92261 5.4194 4.02584 5.16134 4.02584 4.90327V2.94196H1.5484V4.90327C1.5484 5.16134 1.65162 5.4194 2.27098 5.4194V5.57424H0V5.4194C0.619359 5.4194 0.722586 5.16134 0.722586 4.90327V0.825819C0.722586 0.567752 0.619359 0.309686 0 0.309686V0.154846H2.27098V0.309686C1.65162 0.309686 1.5484 0.567752 1.5484 0.825819V2.63228H4.02584Z" fill="#231F20"/>
<path d="M5.729 3.92267H5.93546C6.19352 4.69687 6.76127 5.36784 7.6387 5.36784C8.30967 5.36784 8.72257 4.8001 8.56773 4.18073C8.25805 3.04524 5.98707 2.99363 5.98707 1.44522C5.98707 0.619406 6.60643 0.103271 7.43224 0.103271C8.30967 0.103271 8.67096 0.722633 8.87741 0.103271H9.03225L9.18709 1.85813H8.98064C8.77419 1.08393 8.25805 0.464565 7.48386 0.464565C7.01934 0.464565 6.60643 0.722632 6.60643 1.23877C6.60643 1.70329 7.12256 2.06458 7.48386 2.27104C8.56773 2.94201 9.34193 3.30331 9.34193 4.28396C9.34193 5.00655 8.72257 5.78075 7.6387 5.78075C6.81288 5.78075 6.19352 5.16139 6.14191 5.78075H5.98707L5.729 3.92267Z" fill="#231F20"/>
<path d="M12.0776 2.58067C12.9034 2.58067 13.3679 2.21938 13.3679 1.5484C13.3679 0.929045 12.955 0.619365 12.3873 0.516139C11.6131 0.464525 11.355 0.464525 11.355 0.722592V2.58067H12.0776ZM11.4066 4.80004C11.4066 5.10972 11.4582 5.21295 12.0776 5.21295C12.9034 5.21295 13.5744 4.95488 13.5744 4.02584C13.5744 3.04519 12.5937 2.89035 11.8195 2.89035H11.4066V4.80004ZM10.5808 0.825819C10.5808 0.567752 10.4776 0.309686 9.80662 0.309686V0.154846H11.9744C13.2131 0.154846 14.1937 0.464525 14.1937 1.5484C14.1937 2.21938 13.7292 2.58067 13.1099 2.73551C13.8325 2.89035 14.4518 3.30326 14.4518 4.07746C14.4518 5.05811 13.626 5.57424 12.3357 5.57424H9.755V5.4194C10.426 5.4194 10.5292 5.16134 10.5292 4.90327V0.825819H10.5808Z" fill="#231F20"/>
<path d="M19.4067 1.85807H19.2003C18.9422 0.980649 18.3745 0.361292 17.4454 0.361292C16.1035 0.361292 15.5357 1.44517 15.5357 2.89033C15.5357 4.02582 16.1551 5.26453 17.4454 5.26453C18.2196 5.26453 18.7874 5.00647 19.3551 4.43873L19.5099 4.59356C18.9938 5.21292 18.168 5.62583 17.3938 5.62583C15.7938 5.62583 14.6067 4.59356 14.6067 2.83872C14.6067 1.23871 15.7422 0 17.3938 0C18.5293 0 18.8906 0.67097 19.2003 0H19.3551L19.4067 1.85807Z" fill="#231F20"/>
<path d="M29.2646 0H23.7936V5.47099H29.2646V0Z" fill="white"/>
<path d="M29.2646 2.78705H23.7936V5.52255H29.2646V2.78705Z" fill="#DAEAE7"/>
<path d="M23.7936 0H29.2646L26.5291 2.7355L23.7936 0Z" fill="#EE3725"/>
<path d="M23.7936 5.47104H29.2646L26.5291 2.73553L23.7936 5.47104Z" fill="#EE3725"/>
<path d="M23.7937 0V5.47099L21.0582 2.73549L23.7937 0Z" fill="#FF6700"/>
<path d="M23.7937 1.03229V5.47101L21.0582 2.73552L23.7937 1.03229Z" fill="#EE3725"/>
<path d="M29.2645 0V5.47099L32 2.73549L29.2645 0Z" fill="#FF6700"/>
<path d="M29.2645 1.03229V5.47101L32 2.73552L29.2645 1.03229Z" fill="#EE3725"/>
<path d="M24.7742 0.980651H28.2839L29.2646 0H23.7936L24.7742 0.980651Z" fill="#FF6700"/>
<path d="M29.2645 4.23218V5.4709L30.5032 4.23218H29.2645Z" fill="#D60F05"/>
<path d="M23.7936 5.4709H29.2646L28.0259 4.23218H25.0323L23.7936 5.4709Z" fill="#D60F05"/>
<path d="M22.5548 4.23218L23.7935 5.4709V4.23218H22.5548Z" fill="#D60F05"/>
<path d="M19.1484 0C18.8903 0.670972 18.4774 0 17.3419 0C15.7419 0 14.6064 1.18711 14.5548 2.7355H15.4838C15.5355 1.34195 16.1032 0.30968 17.3935 0.30968C18.3226 0.30968 18.9419 0.929039 19.1484 1.80646H19.3548L19.3032 0H19.1484Z" fill="#4D5655"/>
<path d="M11.9743 0.154846H9.80652V0.309686C10.4775 0.309686 10.5807 0.567752 10.5807 0.825818V2.73551H13.213C13.1614 2.73551 13.1614 2.73551 13.1098 2.73551C13.7291 2.58067 14.1937 2.27099 14.1937 1.5484C14.2453 0.516138 13.2646 0.154846 11.9743 0.154846ZM12.0775 2.58067H11.4065V0.722591C11.4065 0.412912 11.6646 0.464525 12.4388 0.516138C13.0065 0.619365 13.4195 0.980658 13.4195 1.5484C13.4195 2.21938 12.9033 2.58067 12.0775 2.58067Z" fill="#4D5655"/>
<path d="M8.8774 0.0516135C8.67095 0.670973 8.30966 0.0516135 7.43223 0.0516135C6.65803 0.0516135 5.98706 0.61936 5.98706 1.39356C5.98706 2.01292 6.34835 2.42582 6.86449 2.7355H8.51611C8.25804 2.58066 7.94836 2.37421 7.58707 2.16776C7.22578 1.9613 6.70965 1.60001 6.70965 1.13549C6.70965 0.61936 7.07094 0.361293 7.58707 0.361293C8.36127 0.361293 8.8774 0.980652 9.08386 1.75485H9.29031L9.13547 0H8.8774V0.0516135Z" fill="#4D5655"/>
<path d="M3.30325 0.309686C3.92261 0.309686 4.02584 0.567752 4.02584 0.825818V2.63228H1.5484V0.825818C1.5484 0.567752 1.65162 0.309686 2.27098 0.309686V0.154846H0V0.309686C0.619359 0.309686 0.722586 0.567752 0.722586 0.825818V2.73551H4.85165V0.825818C4.85165 0.567752 4.95487 0.309686 5.57423 0.309686V0.154846H3.30325V0.309686Z" fill="#4D5655"/>
</svg>
