<svg width="24" height="21" viewBox="0 0 24 21" fill="none" xmlns="http://www.w3.org/2000/svg">
<path d="M6.57006 11.5942H2.70532V18.1643H6.57006V11.5942Z" fill="#494949"/>
<path d="M6.57006 11.5942V18.1643H2.70532" fill="black"/>
<path d="M4.63776 10.744C5.83304 10.744 6.80201 9.77507 6.80201 8.57979C6.80201 7.3845 5.83304 6.41553 4.63776 6.41553C3.44248 6.41553 2.47351 7.3845 2.47351 8.57979C2.47351 9.77507 3.44248 10.744 4.63776 10.744Z" fill="#494949"/>
<path d="M6.14501 7.03387C6.99525 7.88412 6.99525 9.27542 6.14501 10.1257C5.29477 10.9759 3.90346 10.9759 3.05322 10.1257" fill="black"/>
<path d="M13.913 0H0V20.8696H13.913C16.6184 20.8309 19.2464 20.0966 20.9469 18.628C22.9952 16.8889 24 14.1063 24 10.3961C24 8.61836 23.6908 7.03382 23.1498 5.68116C22.6473 4.36715 21.913 3.28502 20.9469 2.39614C19.2077 0.888889 16.6184 0.0386473 13.913 0ZM13.5266 1.54589C16.1932 1.54589 18.4348 2.2029 19.9807 3.55556C21.7198 5.10145 22.6087 7.30435 22.6087 10.3961C22.57 16.5024 19.5942 19.3237 13.5266 19.3237C13.0628 19.3237 2.70531 19.3237 1.54589 19.3237C1.54589 18.1643 1.54589 2.70531 1.54589 1.54589C2.70531 1.54589 13.0242 1.54589 13.5266 1.54589Z" fill="black"/>
<path d="M15.9614 8.88904C16.5411 8.88904 16.0774 8.88904 16.6571 8.88904C16.5798 8.88904 16.4252 8.23203 16.3093 7.92285C16.1933 8.23203 16.0001 8.88904 15.9614 8.88904Z" fill="#CC1B69"/>
<path d="M9.12087 9.93244C9.23681 9.89379 9.31411 9.8165 9.3914 9.77785C9.4687 9.70056 9.50734 9.58461 9.54599 9.46867C9.58464 9.31408 9.62329 9.0822 9.62329 8.81167C9.62329 8.54114 9.58464 8.3479 9.54599 8.19331C9.50734 8.07737 9.43005 7.96143 9.35276 7.88413C9.27546 7.80684 9.15952 7.80684 9.04358 7.76819C8.96628 7.76819 8.81169 7.76819 8.46387 7.76819C8.46387 7.76819 8.46387 7.76819 8.07739 7.76819V10.087C8.46387 10.087 8.6571 10.087 8.6571 10.087C8.88899 10.0484 9.04358 9.93244 9.12087 9.93244Z" fill="#CC1B69"/>
<path d="M18.5507 10.8213V6.95653H19.7102C19.7102 6.95653 19.7102 9.27537 19.7102 9.66185C19.7102 9.66185 20.9469 9.66185 21.2947 9.66185C20.9469 4.25122 16.8116 3.0918 12.9469 3.0918H8.11597V6.95653H8.77297C9.08215 6.95653 9.31403 6.91788 9.50727 6.99518C9.73916 7.07247 9.93239 7.14977 10.087 7.343C10.2416 7.49759 10.3575 7.69083 10.4735 7.96136C10.5507 8.19325 10.5894 8.50242 10.5894 8.85025C10.5894 9.15943 10.5507 9.42996 10.4735 9.66185C10.3962 9.93238 10.2416 10.1643 10.0483 10.3575C9.89374 10.4734 9.73916 10.6667 9.50727 10.744C9.35268 10.7826 9.1208 10.8986 8.81162 10.8986H8.11597V18.2416H12.9469C17.0049 18.2416 21.2947 17.0821 21.3334 10.8986H18.5507V10.8213ZM14.2995 10.8213H11.2078V6.95653H13.9131V7.72948C13.9131 7.72948 12.3672 7.72948 11.9807 7.72948V8.11595C12.3672 8.11595 13.9131 8.11595 13.9131 8.11595V9.27537C13.9131 9.27537 12.3672 9.27537 11.9807 9.27537C11.9807 9.27537 11.9807 9.66185 11.9807 10.0483C12.3672 10.0483 14.2995 10.0483 14.2995 10.0483V10.8213ZM17.2754 10.8213C17.2754 10.8213 17.0049 10.0483 16.9662 10.0483C16.8503 10.0483 15.7681 10.0483 15.6522 10.0483C15.6136 10.0483 15.343 10.8213 15.343 10.8213H14.3382L15.8454 6.95653H16.773L18.3189 10.8213H17.2754Z" fill="#F42588"/>
<path d="M8.11597 6.95649H8.77297C9.08215 6.95649 9.31403 6.91785 9.50727 6.99514C9.73916 7.07244 9.93239 7.14973 10.087 7.34297C10.2416 7.49756 10.3575 7.69079 10.4735 7.96133C10.5507 8.19321 10.5894 8.50239 10.5894 8.85021C10.5894 9.15939 10.5507 9.42992 10.4735 9.66181C10.3962 9.93234 10.2416 10.1642 10.0483 10.3575C9.89374 10.4734 9.73916 10.6666 9.50727 10.7439C9.35268 10.7826 9.1208 10.8985 8.81162 10.8985H8.11597V18.2415H12.9469C17.0049 18.2415 21.2947 17.0821 21.3334 10.8985H18.5507V6.95649H19.7102C19.7102 6.95649 19.7102 9.27534 19.7102 9.66181C19.7102 9.66181 20.9469 9.66181 21.2947 9.66181C20.9469 4.25118 16.7343 3.2077 12.8696 3.2077L8.11597 6.95649ZM13.9131 10.8212H11.2078V6.95649H13.9131V7.72944C13.9131 7.72944 12.3672 7.72944 11.9807 7.72944V8.50239C12.2512 8.50239 11.9034 8.50239 13.9131 8.50239V9.27534C13.9131 9.27534 12.3672 9.27534 11.9807 9.27534C11.9807 9.27534 11.9807 9.66181 11.9807 10.0483C12.3672 10.0483 13.9131 10.0483 13.9131 10.0483V10.8212ZM17.2754 10.8212C17.2754 10.8212 17.0049 10.0483 16.9662 10.0483C16.8503 10.0483 15.7681 10.0483 15.6522 10.0483C15.6136 10.0483 15.343 10.8212 15.343 10.8212H14.3382L15.8454 6.95649H16.773L18.3189 10.8212H17.2754Z" fill="#CC1B69"/>
<path d="M19.7102 6.95654C19.7102 6.95654 19.7102 9.27538 19.7102 9.66185C21.0628 9.66185 20.6377 9.66185 21.2947 9.66185C21.1788 8.11596 20.9082 7.11113 20.2899 6.18359L19.4783 6.95654H19.7102Z" fill="#B50662"/>
<path d="M18.5507 7.6908L17.4686 8.88886L18.2802 10.8212H17.2754C17.2754 10.8212 17.0049 10.0483 16.9662 10.0483C16.9276 10.0483 16.7343 10.0483 16.5024 10.0483L8.11597 18.0869V18.1642H12.9469C17.0049 18.1642 21.2947 17.0048 21.3334 10.8212H18.5507V7.6908Z" fill="#B50662"/>
<path d="M0 0V20.8696L1.54589 19.3237C1.54589 17.9324 1.54589 2.70531 1.54589 1.54589C2.70531 1.54589 13.0242 1.54589 13.5266 1.54589C15.4203 1.54589 17.0435 1.89372 18.4348 2.51208L19.5556 1.42995C17.971 0.502415 15.8454 0.0386473 13.913 0H0Z" fill="#494949"/>
</svg>
