<svg width="24" height="18" viewBox="0 0 24 18" fill="none" xmlns="http://www.w3.org/2000/svg">
<path d="M3.29032 0C1.43226 0 0 1.2 0 3.29032V9.25161C0.154839 9.9871 0.929032 10.529 1.78065 10.529C2.74839 10.529 3.44516 9.83226 3.44516 8.98065V5.96129H6.07742V8.94194C6.07742 10.6065 3.94839 11.4581 2.4 11.4581C1.50968 11.4581 0.658064 11.1871 0.0387097 10.7226V17.3032H4.21935C5.69032 17.3032 7.39355 15.9097 7.39355 14.129V0H3.29032Z" fill="#1174CE"/>
<path d="M0 3.29032V9.25161C0.154839 9.9871 0.929032 10.529 1.78065 10.529C2.74839 10.529 3.44516 9.83226 3.44516 8.98065V5.96129H6.07742V8.94194C6.07742 10.6065 3.94839 11.4581 2.4 11.4581C1.50968 11.4581 0.658064 11.1871 0.0387097 10.7226V17.3032H4.21935C5.69032 17.3032 7.39355 15.9097 7.39355 14.129V0" fill="#0F549D"/>
<path d="M6.03871 5.96118V8.94183C6.03871 10.6063 3.90968 11.458 2.36129 11.458C1.47097 11.458 0.619355 11.187 0 10.7225V17.3031H4.18065C5.65161 17.3031 7.35484 15.9096 7.35484 14.1289" fill="#02375E"/>
<path d="M17.9226 10.4515H19.742C20.2065 10.4515 20.6323 10.0257 20.6323 9.56122C20.6323 9.0967 20.2065 8.6709 19.742 8.6709H17.9226V10.4515Z" fill="#146643"/>
<path d="M19.9742 0C18.0774 0 16.6839 1.2 16.6839 3.25161V5.96129H21.5613C22.258 5.96129 22.8387 6.54194 22.8387 7.23871C22.8387 7.93548 22.258 8.51613 21.5613 8.51613C22.3355 8.51613 22.9548 9.05806 22.9548 9.75484C22.9548 10.4516 22.3742 10.9935 21.5613 10.9935H16.6451V17.3032H20.8258C22.2968 17.3032 24 15.9097 24 14.129V0H19.9742Z" fill="#1BCC38"/>
<path d="M16.6451 3.29032V5.96129H21.5226C22.2193 5.96129 22.8 6.54194 22.8 7.23871C22.8 7.93548 22.2193 8.51613 21.5226 8.51613C22.2968 8.51613 22.9161 9.05806 22.9161 9.75484C22.9161 10.4516 22.3355 10.9935 21.5226 10.9935H16.6451V17.3032H20.8258C22.2968 17.3032 24 15.9097 24 14.129V0" fill="#329947"/>
<path d="M22.8 7.23871C22.8 7.93548 22.2193 8.51613 21.5226 8.51613C22.2968 8.51613 22.9161 9.05806 22.9161 9.75483C22.9161 10.4516 22.3355 10.9935 21.5226 10.9935H16.6451V17.3032H20.8258C22.2968 17.3032 24 15.9097 24 14.129" fill="#146643"/>
<path d="M20.5936 7.3935C20.5936 6.92898 20.1678 6.50317 19.7033 6.50317H17.9226V8.24511H19.742C20.2065 8.24511 20.5936 7.85801 20.5936 7.3935Z" fill="#146643"/>
<path d="M11.5743 0C9.67749 0 8.28394 1.2 8.28394 3.25161V6.58065C8.74845 6.19355 9.3291 5.92258 9.94846 5.92258H14.3614V6.85161C13.3162 6.61935 12.3098 6.50323 11.8065 6.50323C10.7227 6.50323 9.83233 7.39355 9.83233 8.47742C9.83233 9.56129 10.7227 10.4516 11.8065 10.4516C12.3098 10.4516 13.3162 10.3742 14.3614 10.1419V10.9935H9.94846C9.3291 10.9935 8.70974 10.7613 8.28394 10.3355V17.3032H12.4646C13.9356 17.3032 15.6388 15.9097 15.6388 14.129V0H11.5743Z" fill="#E20E37"/>
<path d="M8.28394 3.29032V6.61935C8.74845 6.23226 9.3291 5.96129 9.94846 5.96129H14.3614V6.89032C13.3162 6.65806 12.3098 6.54193 11.8065 6.54193C10.7227 6.54193 9.83233 7.43226 9.83233 8.51613C9.83233 9.6 10.7227 10.4903 11.8065 10.4903C12.3098 10.4903 13.3162 10.4129 14.3614 10.1806V10.9935H9.94846C9.3291 10.9935 8.70974 10.7613 8.28394 10.3355V17.3032H12.4646C13.9356 17.3032 15.6388 15.9097 15.6388 14.129V0" fill="#B41F36"/>
<path d="M14.3614 5.96118V6.89021C13.3162 6.65796 12.3098 6.54183 11.8065 6.54183C10.7227 6.54183 9.83233 7.43215 9.83233 8.51602C9.83233 9.59989 10.7227 10.4902 11.8065 10.4902C12.3098 10.4902 13.3162 10.4128 14.3614 10.1805V10.9934H9.94846C9.3291 10.9934 8.70974 10.7612 8.28394 10.3354V17.3031H12.4646C13.9356 17.3031 15.6388 15.9096 15.6388 14.1289" fill="#720A1E"/>
</svg>
