<svg width="24" height="15" viewBox="0 0 24 15" fill="none" xmlns="http://www.w3.org/2000/svg">
<path d="M12 12.5333C13.4476 11.2381 14.3619 9.33333 14.3619 7.2C14.3619 5.06667 13.4476 3.2 12 1.86667C10.7429 0.723809 9.02857 0 7.2 0C3.2381 0 0 3.2381 0 7.2C0 11.1619 3.2381 14.3619 7.2 14.3619C9.02857 14.4 10.7429 13.6762 12 12.5333Z" fill="#07A9E2"/>
<path d="M0 7.2C0 11.1619 3.2381 14.3619 7.2 14.3619C9.06667 14.3619 10.7429 13.6762 12 12.4952C13.4476 11.2 14.3619 9.29524 14.3619 7.1619C14.3619 5.02857 13.4476 3.2 12 1.86667C10.7429 0.723809 9.02857 0 7.2 0" fill="#009DDD"/>
<path d="M12.0001 1.86667C10.7429 0.723809 9.02865 0 7.20008 0C7.0858 0 6.97151 0 6.85723 0C4.60961 1.6381 3.16199 4.26667 3.16199 7.2C3.16199 10.1333 4.60961 12.7619 6.81913 14.3619C6.93342 14.3619 7.0477 14.3619 7.16199 14.3619C9.02865 14.3619 10.7048 13.6762 11.962 12.4952C13.4096 11.2 14.3239 9.29524 14.3239 7.1619C14.3239 5.02857 13.4477 3.2 12.0001 1.86667Z" fill="#0284CC"/>
<path d="M16.838 0C14.9713 0 13.2952 0.685714 11.9999 1.86667C11.7333 2.09524 11.5047 2.3619 11.2761 2.62857H12.7237C12.9142 2.85714 13.1047 3.12381 13.2571 3.39048H10.7047C10.5523 3.65714 10.3999 3.88571 10.2856 4.15238H13.6761C13.7904 4.41905 13.9047 4.64762 13.9809 4.91429H10.019C9.94279 5.18095 9.8666 5.40952 9.79041 5.67619H14.2094C14.3237 6.17143 14.3618 6.66667 14.3618 7.2C14.3618 8 14.2475 8.7619 13.9809 9.48571H10.019C10.0952 9.75238 10.2095 9.98095 10.3237 10.2476H13.7142C13.5999 10.5143 13.4475 10.781 13.2952 11.0095H10.7428C10.8952 11.2762 11.0856 11.5429 11.2761 11.7714H12.7237C12.4952 12.0381 12.2666 12.3048 11.9999 12.5333C13.2952 13.6762 14.9713 14.4 16.838 14.4C20.7999 14.4 23.9999 11.2 23.9999 7.23809C23.9999 3.2381 20.7999 0 16.838 0Z" fill="#FF2957"/>
<path d="M16.838 0C14.9713 0 13.2952 0.685714 11.9999 1.86667C11.7333 2.09524 11.5047 2.3619 11.2761 2.62857H12.7237C12.9142 2.85714 13.1047 3.12381 13.2571 3.39048H10.7047C10.5523 3.65714 10.3999 3.88571 10.2856 4.15238H13.6761C13.7904 4.41905 13.9047 4.64762 13.9809 4.91429H10.019C9.94279 5.18095 9.8666 5.40952 9.79041 5.67619H14.2094C14.3237 6.17143 14.3618 6.66667 14.3618 7.2C14.3618 8 14.2475 8.7619 13.9809 9.48571H10.019C10.0952 9.75238 10.2095 9.98095 10.3237 10.2476H13.7142C13.5999 10.5143 13.4475 10.781 13.2952 11.0095H10.7428C10.8952 11.2762 11.0856 11.5429 11.2761 11.7714H12.7237C12.4952 12.0381 12.2666 12.3048 11.9999 12.5333C13.2952 13.6762 14.9713 14.4 16.838 14.4C20.7999 14.4 23.9999 11.2 23.9999 7.23809" fill="#ED1C2E"/>
<path d="M12 12.5334C13.4476 11.2381 14.3619 9.33336 14.3619 7.20003C14.3619 5.0667 13.4476 3.20003 12 1.8667V12.5334Z" fill="#0466B5"/>
<path d="M21.5238 8.7619C21.5238 8.64761 21.6381 8.53333 21.7524 8.53333C21.8667 8.53333 21.9809 8.64761 21.9809 8.7619C21.9809 8.87618 21.8667 8.99047 21.7524 8.99047C21.6381 8.99047 21.5238 8.87618 21.5238 8.7619ZM21.7524 8.95237C21.8667 8.95237 21.9048 8.87618 21.9048 8.7619C21.9048 8.64761 21.8286 8.60952 21.7524 8.60952C21.6381 8.60952 21.5619 8.68571 21.5619 8.7619C21.5619 8.83809 21.6762 8.95237 21.7524 8.95237ZM21.7524 8.83809H21.7143V8.64761H21.7905C21.8286 8.64761 21.8286 8.64761 21.8286 8.64761L21.8667 8.68571C21.8667 8.7238 21.8667 8.7238 21.8286 8.7238L21.8667 8.79999H21.8286L21.7905 8.7238H21.7524V8.83809ZM21.7524 8.7238C21.7905 8.7238 21.7905 8.7238 21.7905 8.7238C21.7905 8.7238 21.7905 8.7238 21.7905 8.68571H21.7524V8.7238Z" fill="white"/>
<path d="M11.9999 1.86676C11.7333 2.09533 11.5047 2.362 11.2761 2.62867H12.7237C12.9142 2.85724 13.1047 3.1239 13.2571 3.39057H10.7047C10.5523 3.65724 10.3999 3.88581 10.2856 4.15247H13.6761C13.7904 4.41914 13.9047 4.64771 13.9809 4.91438H10.019C9.94279 5.18105 9.8666 5.40962 9.79041 5.67628H14.2095C14.3237 6.17152 14.3618 6.66676 14.3618 7.20009C14.3618 8.00009 14.2475 8.762 13.9809 9.48581H10.019C10.0952 9.75247 10.2095 9.98105 10.3237 10.2477H13.7142C13.5999 10.5144 13.4475 10.781 13.2952 11.0096H10.7428C10.8952 11.2763 11.0856 11.543 11.2761 11.7715H12.7237C12.4952 12.0382 12.2666 12.3049 11.9999 12.5334C13.2952 13.6763 14.9714 14.4001 16.838 14.4001C16.9523 14.4001 17.0666 14.4001 17.1809 14.4001C19.3904 12.8001 20.838 10.1715 20.838 7.23819C20.838 4.30486 19.3904 1.67628 17.1809 0.0762848C17.0666 0.0762848 16.9523 0.0762848 16.838 0.0762848C14.9714 9.43393e-05 13.2952 0.723904 11.9999 1.86676Z" fill="#D1094B"/>
<path d="M6.28585 8.9905H5.37157L5.9049 6.20954L4.68586 8.9905H3.88586L3.73348 6.20954L3.20014 8.9905H2.40015L3.08586 5.33334H4.49538L4.57157 7.61907L5.56205 5.33334H7.00966L6.28585 8.9905Z" fill="white"/>
<path d="M5.40943 7.39054L5.94277 6.20959L5.52372 8.41911C5.56181 8.60959 5.59991 8.83816 5.6761 9.02863H6.28562L6.97134 5.37149H5.638C5.48562 5.94292 5.37134 6.59054 5.37134 7.23816C5.40943 7.27625 5.40943 7.31435 5.40943 7.39054Z" fill="#DCE5E5"/>
<path d="M16.2666 8.95244C15.9999 9.02863 15.8475 9.06673 15.6189 9.06673C15.1618 9.06673 14.9332 8.83816 14.9332 8.41911C14.9332 8.34292 14.9332 8.26673 14.9713 8.15244L15.0094 7.84768L15.0475 7.61911L15.4666 5.37149H16.3428L16.2285 6.0572H16.6856L16.5713 6.74292H16.1142L15.8856 7.96197C15.8856 8.00006 15.8475 8.07625 15.8475 8.07625C15.8475 8.22863 15.9618 8.30482 16.1523 8.30482C16.2666 8.30482 16.3428 8.30482 16.3808 8.26673L16.2666 8.95244Z" fill="#DCE5E5"/>
<path d="M18.8952 6.05727C18.819 6.01917 18.819 6.01917 18.7809 6.01917C18.7428 6.01917 18.7047 6.01917 18.7047 5.98108C18.6666 5.98108 18.6666 5.98108 18.5905 5.98108C18.2857 5.98108 18.0952 6.09537 17.8286 6.47632L17.9047 6.01917H17.1047L16.5714 8.9906H17.4857C17.7905 7.16203 17.9428 6.85727 18.3619 6.85727C18.4 6.85727 18.4381 6.85727 18.4762 6.85727L18.5905 6.89537L18.8952 6.05727Z" fill="#DCE5E5"/>
<path d="M12.7238 6.97156C12.7238 7.35251 12.9524 7.61918 13.4096 7.77156C13.7905 7.92394 13.8286 7.96203 13.8286 8.11441C13.8286 8.30489 13.6762 8.38108 13.2953 8.38108C13.0286 8.38108 12.7619 8.34298 12.4953 8.26679L12.381 8.95251H12.4191L12.5715 8.9906C12.6096 8.9906 12.7238 8.9906 12.8 8.9906C13.0286 9.0287 13.181 9.0287 13.2953 9.0287C14.2476 9.0287 14.7048 8.72394 14.7048 8.03822C14.7048 7.61918 14.5143 7.3906 14.0572 7.20013C13.6762 7.04775 13.6381 7.00965 13.6381 6.89537C13.6381 6.74298 13.7905 6.66679 14.0953 6.66679C14.2476 6.66679 14.5143 6.66679 14.7429 6.70489L14.8572 6.01917C14.6286 5.98108 14.2857 5.98108 14.0572 5.98108C13.0667 5.98108 12.7238 6.43822 12.7238 6.97156Z" fill="#DCE5E5"/>
<path d="M9.1809 8.99055H8.45709V8.68579C8.22852 8.91436 7.92376 9.02865 7.50471 9.02865C7.00947 9.02865 6.70471 8.68579 6.70471 8.22865C6.70471 7.50484 7.27614 7.08579 8.26662 7.08579C8.3809 7.08579 8.49519 7.08579 8.64757 7.08579C8.68566 6.9715 8.68566 6.93341 8.68566 6.89531C8.68566 6.70484 8.53328 6.62865 8.11424 6.62865C7.84757 6.62865 7.5809 6.66674 7.39043 6.70484L7.27614 6.74293H7.19995L7.31424 6.09531C7.77138 5.98103 8.03804 5.94293 8.3809 5.94293C9.14281 5.94293 9.56185 6.24769 9.56185 6.81912C9.56185 6.9715 9.56185 7.08579 9.48566 7.42865L9.29519 8.49531L9.25709 8.68579L9.219 8.83817V8.95245L9.1809 8.99055ZM8.53328 7.65722C8.419 7.65722 8.3809 7.65722 8.34281 7.65722C7.84757 7.65722 7.5809 7.8096 7.5809 8.11436C7.5809 8.30484 7.69519 8.41912 7.88566 8.41912C8.26662 8.41912 8.53328 8.11436 8.53328 7.65722Z" fill="#DCE5E5"/>
<path d="M12.1144 8.91436C11.8096 8.99055 11.5048 9.02865 11.2001 9.02865C10.2096 9.02865 9.67627 8.5715 9.67627 7.69531C9.67627 6.66674 10.3239 5.94293 11.2382 5.94293C11.962 5.94293 12.4191 6.36198 12.4191 7.0096C12.4191 7.23817 12.381 7.42865 12.3048 7.73341H10.5144C10.5144 7.7715 10.5144 7.8096 10.5144 7.84769C10.5144 8.19055 10.781 8.38103 11.2763 8.38103C11.6191 8.38103 11.8858 8.34293 12.1905 8.19055L12.1144 8.91436ZM11.6572 7.16198C11.6572 7.12388 11.6572 7.04769 11.6572 7.0096C11.6572 6.78103 11.5048 6.62865 11.2382 6.62865C10.9715 6.62865 10.7429 6.81912 10.6667 7.16198H11.6572Z" fill="#DCE5E5"/>
<path d="M21.6761 7.65722C21.5237 8.64769 20.838 9.06674 19.9237 9.06674C18.9332 9.06674 18.5142 8.45722 18.5142 7.69531C18.5142 6.66674 19.1999 5.94293 20.2665 5.94293C21.1808 5.94293 21.6761 6.55246 21.6761 7.27627C21.6761 7.46674 21.6761 7.46674 21.6761 7.65722ZM20.7237 7.27627C20.7237 6.9715 20.6094 6.70484 20.2284 6.70484C19.7713 6.70484 19.5046 7.23817 19.5046 7.73341C19.5046 8.11436 19.6951 8.38103 19.9999 8.38103C20.1904 8.38103 20.6094 8.11436 20.6856 7.65722C20.7237 7.50484 20.7237 7.39055 20.7237 7.27627Z" fill="white"/>
<path d="M18.5524 8.03822C18.5905 7.77155 18.6286 7.46679 18.6286 7.20012C18.6286 7.16203 18.6286 7.12393 18.6286 7.12393C18.5905 7.31441 18.5524 7.50489 18.5524 7.73346C18.5143 7.80965 18.5143 7.92393 18.5524 8.03822Z" fill="white"/>
</svg>
