<svg width="24" height="15" viewBox="0 0 24 15" fill="none" xmlns="http://www.w3.org/2000/svg">
<path d="M23.9996 7.19995C23.9996 11.1618 20.7996 14.3999 16.7997 14.3999C12.8378 14.3999 9.59973 11.1618 9.59973 7.19995C9.59973 3.23807 12.7997 0 16.7616 0C20.7996 0 23.9996 3.23807 23.9996 7.19995Z" fill="#FFB600"/>
<path d="M16.7997 0C20.7615 0 23.9996 3.23807 23.9996 7.19995C23.9996 11.1618 20.7996 14.3999 16.7997 14.3999C12.8378 14.3999 9.59973 11.1618 9.59973 7.19995" fill="#F7981D"/>
<path d="M16.8 0C20.7619 0 24 3.23807 24 7.19995C24 11.1618 20.8 14.3999 16.8 14.3999" fill="#FF8500"/>
<path d="M7.12376 0C3.19998 0.038095 0 3.23807 0 7.19995C0 11.1618 3.19998 14.3999 7.19995 14.3999C9.0666 14.3999 10.7428 13.6761 12.038 12.5332C12.3047 12.3047 12.5332 12.038 12.7618 11.7713H11.2761C11.0856 11.5428 10.8952 11.2761 10.7428 11.0475H13.2951C13.4475 10.819 13.5999 10.5523 13.7142 10.2856H10.3237C10.2095 10.0571 10.0952 9.79041 10.019 9.52374H13.9809C14.2094 8.79994 14.3618 8.03804 14.3618 7.23804C14.3618 6.70471 14.2856 6.20948 14.2094 5.71424H9.79041C9.8285 5.44758 9.90469 5.21901 9.98088 4.95235H13.9428C13.8666 4.68568 13.7523 4.41902 13.638 4.19045H10.2856C10.3999 3.92378 10.5523 3.69521 10.7047 3.42855H13.257C13.1047 3.16188 12.9142 2.89522 12.6856 2.66665H11.2761C11.5047 2.39998 11.7332 2.17141 11.9999 1.94284C10.7428 0.761899 9.02851 0.0761899 7.16185 0.0761899C7.16185 -7.37957e-08 7.16185 0 7.12376 0Z" fill="#FF5050"/>
<path d="M0 7.19996C0 11.1618 3.19998 14.3999 7.19995 14.3999C9.0666 14.3999 10.7428 13.6761 12.038 12.5333C12.3047 12.3047 12.5332 12.038 12.7618 11.7714H11.2761C11.0856 11.5428 10.8952 11.2761 10.7428 11.0476H13.2951C13.4475 10.819 13.5999 10.5523 13.7142 10.2857H10.3237C10.2095 10.0571 10.0952 9.79042 10.019 9.52375H13.9809C14.2094 8.79995 14.3618 8.03805 14.3618 7.23805C14.3618 6.70473 14.2856 6.20949 14.2094 5.71426H9.79041C9.8285 5.44759 9.90469 5.21902 9.98088 4.95236H13.9428C13.8666 4.68569 13.7523 4.41903 13.638 4.19046H10.2856C10.3999 3.92379 10.5523 3.69522 10.7047 3.42856H13.257C13.1047 3.16189 12.9142 2.89523 12.6856 2.66666H11.2761C11.5047 2.4 11.7332 2.17143 11.9999 1.94286C10.7428 0.761912 9.02851 0.0762024 7.16185 0.0762024H7.12376" fill="#E52836"/>
<path d="M7.19997 14.3999C9.06662 14.3999 10.7428 13.6761 12.038 12.5333C12.3047 12.3047 12.5333 12.038 12.7618 11.7714H11.2761C11.0857 11.5428 10.8952 11.2761 10.7428 11.0476H13.2952C13.4475 10.819 13.5999 10.5523 13.7142 10.2857H10.3238C10.2095 10.0571 10.0952 9.79042 10.019 9.52375H13.9809C14.2094 8.79995 14.3618 8.03805 14.3618 7.23805C14.3618 6.70473 14.2856 6.20949 14.2094 5.71426H9.79043C9.82852 5.44759 9.90471 5.21902 9.9809 4.95236H13.9428C13.8666 4.68569 13.7523 4.41903 13.638 4.19046H10.2857C10.3999 3.92379 10.5523 3.69522 10.7047 3.42856H13.2571C13.1047 3.16189 12.9142 2.89523 12.6856 2.66666H11.2761C11.5047 2.4 11.7333 2.17143 11.9999 1.94286C10.7428 0.761912 9.02853 0.0762024 7.16187 0.0762024H7.12378" fill="#CB2026"/>
<path d="M9.75221 9.02853L9.8665 8.38092C9.8284 8.38092 9.75221 8.41902 9.67602 8.41902C9.40936 8.41902 9.37127 8.26663 9.40936 8.19044L9.63793 6.85712H10.057L10.1713 6.13332H9.79031L9.8665 5.67618H9.1046C9.1046 5.67618 8.64746 8.19045 8.64746 8.49521C8.64746 8.95235 8.91413 9.14282 9.25698 9.14282C9.48555 9.14282 9.67602 9.06663 9.75221 9.02853Z" fill="white"/>
<path d="M10.0192 7.80952C10.0192 8.87618 10.743 9.14285 11.3525 9.14285C11.9239 9.14285 12.1525 9.02856 12.1525 9.02856L12.3049 8.30476C12.3049 8.30476 11.8858 8.49523 11.5049 8.49523C10.6668 8.49523 10.8192 7.88571 10.8192 7.88571H12.3811C12.3811 7.88571 12.4953 7.39048 12.4953 7.2C12.4953 6.70477 12.2287 6.09524 11.3906 6.09524C10.5906 6.01905 10.0192 6.85715 10.0192 7.80952ZM11.3525 6.70477C11.7715 6.70477 11.6953 7.2 11.6953 7.2381H10.8573C10.8573 7.2 10.9334 6.70477 11.3525 6.70477Z" fill="white"/>
<path d="M16.1903 9.02851L16.3427 8.19042C16.3427 8.19042 15.9617 8.3809 15.6951 8.3809C15.1618 8.3809 14.9332 7.96186 14.9332 7.50472C14.9332 6.59044 15.3903 6.09521 15.9237 6.09521C16.3046 6.09521 16.6094 6.32378 16.6094 6.32378L16.7236 5.52379C16.7236 5.52379 16.2665 5.33331 15.8475 5.33331C14.9713 5.33331 14.0951 6.09521 14.0951 7.54281C14.0951 8.49518 14.5522 9.14279 15.4665 9.14279C15.7713 9.14279 16.1903 9.02851 16.1903 9.02851Z" fill="white"/>
<path d="M5.56198 6.01895C5.02866 6.01895 4.64771 6.17133 4.64771 6.17133L4.53342 6.81894C4.53342 6.81894 4.87628 6.66656 5.37151 6.66656C5.63817 6.66656 5.86674 6.70466 5.86674 6.93323C5.86674 7.0856 5.82865 7.1237 5.82865 7.1237C5.82865 7.1237 5.60008 7.1237 5.48579 7.1237C4.83818 7.1237 4.11438 7.39036 4.11438 8.26654C4.11438 8.95225 4.57152 9.10463 4.83818 9.10463C5.37151 9.10463 5.60008 8.76177 5.63817 8.76177L5.60008 9.06653H6.28579L6.59054 6.97132C6.59054 6.05705 5.82865 6.01895 5.56198 6.01895ZM5.71436 7.73322C5.71436 7.8475 5.63817 8.45702 5.18104 8.45702C4.95247 8.45702 4.87628 8.26654 4.87628 8.15226C4.87628 7.96179 4.99056 7.69512 5.56198 7.69512C5.67627 7.73322 5.71436 7.73322 5.71436 7.73322Z" fill="white"/>
<path d="M7.31454 9.10468C7.50501 9.10468 8.45739 9.14277 8.45739 8.11421C8.45739 7.16184 7.54311 7.35231 7.54311 6.97136C7.54311 6.78089 7.69549 6.7047 7.96215 6.7047C8.07644 6.7047 8.49548 6.74279 8.49548 6.74279L8.60977 6.05709C8.60977 6.05709 8.3431 5.9809 7.88596 5.9809C7.31454 5.9809 6.74311 6.20947 6.74311 6.97136C6.74311 7.84754 7.69549 7.77136 7.69549 8.11421C7.69549 8.34278 7.42882 8.38087 7.23835 8.38087C6.89549 8.38087 6.55264 8.26659 6.55264 8.26659L6.43835 8.9523C6.47645 9.02849 6.66692 9.10468 7.31454 9.10468Z" fill="white"/>
<path d="M22.5144 5.40952L22.3621 6.43808C22.3621 6.43808 22.0573 6.05713 21.6382 6.05713C20.9525 6.05713 20.343 6.89522 20.343 7.88569C20.343 8.49521 20.6478 9.14282 21.2954 9.14282C21.7525 9.14282 22.0192 8.83806 22.0192 8.83806L21.9811 9.10473H22.743L23.3144 5.44761L22.5144 5.40952ZM22.1716 7.42855C22.1716 7.84759 21.9811 8.38092 21.5621 8.38092C21.2954 8.38092 21.143 8.15235 21.143 7.7714C21.143 7.16188 21.4097 6.78093 21.7525 6.78093C22.0192 6.78093 22.1716 6.97141 22.1716 7.42855Z" fill="white"/>
<path d="M1.4096 9.06663L1.86673 6.3238L1.94292 9.06663H2.47625L3.46672 6.3238L3.04768 9.06663H3.84767L4.45719 5.40952H3.20006L2.43816 7.65712L2.40006 5.40952H1.29531L0.685791 9.06663H1.4096Z" fill="white"/>
<path d="M13.2189 9.06658C13.4475 7.80945 13.4856 6.78089 14.0189 6.97136C14.0951 6.47613 14.2094 6.28566 14.2856 6.09518C14.2856 6.09518 14.2475 6.09518 14.1332 6.09518C13.7904 6.09518 13.5237 6.55232 13.5237 6.55232L13.5999 6.13328H12.8761L12.3809 9.10467H13.2189V9.06658Z" fill="white"/>
<path d="M17.9429 6.01895C17.4095 6.01895 17.0286 6.17133 17.0286 6.17133L16.9143 6.81894C16.9143 6.81894 17.2571 6.66656 17.7524 6.66656C18.019 6.66656 18.2476 6.70466 18.2476 6.93323C18.2476 7.0856 18.2095 7.1237 18.2095 7.1237C18.2095 7.1237 17.9809 7.1237 17.8667 7.1237C17.219 7.1237 16.4952 7.39036 16.4952 8.26654C16.4952 8.95225 16.9524 9.10463 17.219 9.10463C17.7524 9.10463 17.9809 8.76177 18.019 8.76177L17.9809 9.06653H18.6667L18.9714 6.97132C19.0095 6.05705 18.2095 6.01895 17.9429 6.01895ZM18.1333 7.73322C18.1333 7.8475 18.0571 8.45702 17.6 8.45702C17.3714 8.45702 17.2952 8.26654 17.2952 8.15226C17.2952 7.96179 17.4095 7.69512 17.9809 7.69512C18.0952 7.73322 18.0952 7.73322 18.1333 7.73322Z" fill="white"/>
<path d="M19.619 9.06658C19.8475 7.80945 19.8856 6.78089 20.419 6.97136C20.4952 6.47613 20.6094 6.28566 20.6856 6.09518C20.6856 6.09518 20.6475 6.09518 20.5333 6.09518C20.1904 6.09518 19.9237 6.55232 19.9237 6.55232L19.9999 6.13328H19.2761L18.7809 9.10467H19.619V9.06658Z" fill="white"/>
<path d="M8.57129 8.49521C8.57129 8.95235 8.83795 9.14282 9.18081 9.14282C9.44747 9.14282 9.67604 9.06663 9.75223 9.02853L9.86652 8.38092C9.82842 8.38092 9.75223 8.41902 9.67604 8.41902C9.40938 8.41902 9.37128 8.26663 9.40938 8.19044L9.63795 6.85712H10.057L10.1713 6.13332H9.79033L9.86652 5.67618" fill="#DCE5E5"/>
<path d="M10.4 7.80952C10.4 8.87618 10.7429 9.14285 11.3524 9.14285C11.9238 9.14285 12.1524 9.02856 12.1524 9.02856L12.3048 8.30476C12.3048 8.30476 11.8857 8.49523 11.5048 8.49523C10.6667 8.49523 10.8191 7.88571 10.8191 7.88571H12.381C12.381 7.88571 12.4952 7.39048 12.4952 7.2C12.4952 6.70477 12.2286 6.09524 11.3905 6.09524C10.5905 6.01905 10.4 6.85715 10.4 7.80952ZM11.3524 6.70477C11.7714 6.70477 11.8476 7.2 11.8476 7.2381H10.8572C10.8572 7.2 10.9334 6.70477 11.3524 6.70477Z" fill="#DCE5E5"/>
<path d="M16.1903 9.02851L16.3427 8.19042C16.3427 8.19042 15.9618 8.3809 15.6951 8.3809C15.1618 8.3809 14.9332 7.96186 14.9332 7.50472C14.9332 6.59044 15.3904 6.09521 15.9237 6.09521C16.3046 6.09521 16.6094 6.32378 16.6094 6.32378L16.7237 5.52379C16.7237 5.52379 16.2665 5.33331 15.8475 5.33331C14.9713 5.33331 14.4761 6.09521 14.4761 7.54281C14.4761 8.49518 14.5523 9.14279 15.4665 9.14279C15.7713 9.14279 16.1903 9.02851 16.1903 9.02851Z" fill="#DCE5E5"/>
<path d="M4.53342 6.85708C4.53342 6.85708 4.87628 6.7047 5.37151 6.7047C5.63817 6.7047 5.86674 6.7428 5.86674 6.97136C5.86674 7.12374 5.82865 7.16184 5.82865 7.16184C5.82865 7.16184 5.60008 7.16184 5.48579 7.16184C4.83818 7.16184 4.11438 7.4285 4.11438 8.30468C4.11438 8.99039 4.57152 9.14277 4.83818 9.14277C5.37151 9.14277 5.60008 8.79991 5.63817 8.79991L5.60008 9.10467H6.28579L6.59054 7.00946C6.59054 6.13328 5.82865 6.09518 5.52389 6.09518L4.53342 6.85708ZM6.09531 7.73326C6.09531 7.84754 5.63817 8.45706 5.18104 8.45706C4.95247 8.45706 4.87628 8.26659 4.87628 8.1523C4.87628 7.96183 4.99056 7.69516 5.56198 7.69516C5.67627 7.73326 6.09531 7.73326 6.09531 7.73326Z" fill="#DCE5E5"/>
<path d="M6.4762 9.02849C6.4762 9.02849 6.70477 9.10468 7.35238 9.10468C7.54285 9.10468 8.49523 9.14277 8.49523 8.11421C8.49523 7.16184 7.58095 7.35231 7.58095 6.97136C7.58095 6.78089 7.73333 6.7047 7.99999 6.7047C8.11428 6.7047 8.53332 6.74279 8.53332 6.74279L8.64761 6.05709C8.64761 6.05709 8.38094 5.9809 7.9238 5.9809C7.35238 5.9809 7.16191 6.20947 7.16191 6.97136C7.16191 7.84754 7.73333 7.77136 7.73333 8.11421C7.73333 8.34278 7.46667 8.38087 7.27619 8.38087" fill="#DCE5E5"/>
<path d="M22.3617 6.43804C22.3617 6.43804 22.0569 6.05709 21.6379 6.05709C20.9522 6.05709 20.7236 6.89517 20.7236 7.88564C20.7236 8.49516 20.6474 9.14277 21.295 9.14277C21.7522 9.14277 22.0188 8.83801 22.0188 8.83801L21.9807 9.10467H22.7426L23.314 5.44757L22.3617 6.43804ZM22.3236 7.4285C22.3236 7.84754 21.9807 8.38087 21.5617 8.38087C21.295 8.38087 21.1426 8.1523 21.1426 7.77135C21.1426 7.16184 21.4093 6.78089 21.7522 6.78089C22.0188 6.78089 22.3236 6.97136 22.3236 7.4285Z" fill="#DCE5E5"/>
<path d="M1.4096 9.06663L1.86673 6.3238L1.94292 9.06663H2.47625L3.46672 6.3238L3.04768 9.06663H3.84767L4.45719 5.40952H3.50482L2.43816 7.65712L2.40006 5.40952H1.98102L0.685791 9.06663H1.4096Z" fill="#DCE5E5"/>
<path d="M12.4191 9.06658H13.2191C13.4476 7.80945 13.4857 6.78089 14.0191 6.97136C14.0952 6.47613 14.2095 6.28566 14.2857 6.09518C14.2857 6.09518 14.2476 6.09518 14.1333 6.09518C13.7905 6.09518 13.5238 6.55232 13.5238 6.55232L13.6 6.13328" fill="#DCE5E5"/>
<path d="M16.9143 6.85708C16.9143 6.85708 17.2571 6.7047 17.7524 6.7047C18.019 6.7047 18.2476 6.7428 18.2476 6.97136C18.2476 7.12374 18.2095 7.16184 18.2095 7.16184C18.2095 7.16184 17.9809 7.16184 17.8667 7.16184C17.219 7.16184 16.4952 7.4285 16.4952 8.30468C16.4952 8.99039 16.9524 9.14277 17.219 9.14277C17.7524 9.14277 17.9809 8.79991 18.019 8.79991L17.9809 9.10467H18.6667L18.9714 7.00946C18.9714 6.13328 18.2095 6.09518 17.9048 6.09518L16.9143 6.85708ZM18.4762 7.73326C18.4762 7.84754 18.019 8.45706 17.5619 8.45706C17.3333 8.45706 17.2571 8.26659 17.2571 8.1523C17.2571 7.96183 17.3714 7.69516 17.9428 7.69516C18.0952 7.73326 18.4762 7.73326 18.4762 7.73326Z" fill="#DCE5E5"/>
<path d="M18.8192 9.06658H19.6192C19.8478 7.80945 19.8859 6.78089 20.4192 6.97136C20.4954 6.47613 20.6097 6.28566 20.6859 6.09518C20.6859 6.09518 20.6478 6.09518 20.5335 6.09518C20.1906 6.09518 19.924 6.55232 19.924 6.55232L20.0002 6.13328" fill="#DCE5E5"/>
</svg>
