<svg width="22" height="24" viewBox="0 0 22 24" fill="none" xmlns="http://www.w3.org/2000/svg">
<path d="M14.0257 20.7134L13.8729 21.2867L13.5671 21.2484V21.0574C13.4143 20.9809 13.2614 20.9427 13.0703 20.9427C12.4206 20.9427 12.1149 21.7453 12.1149 22.2803C12.1149 22.7007 12.3442 22.8917 12.7646 22.8917H12.8792L12.9557 22.5096V22.3567L12.8028 22.3185L12.841 21.9746H13.9493L13.8729 22.3185L13.72 22.3567L13.6436 22.5096L13.5289 23.121C13.185 23.2357 12.8792 23.2739 12.5353 23.2739C11.9238 23.2739 11.4652 23.0064 11.427 22.3567L11.5417 22.2038C11.6181 22.1274 11.6945 22.0128 11.7327 21.8981C11.8092 21.7835 11.8474 21.6306 11.8474 21.4777C11.8474 21.4013 11.8474 21.3249 11.8092 21.2484C11.8474 21.172 11.962 21.0956 11.962 21.0956C12.306 20.7516 12.6881 20.5988 13.185 20.5988C13.4525 20.5988 13.7582 20.637 14.0257 20.7134Z" fill="#B2001E"/>
<path d="M1.3758 22.8917H1.71975L2.59873 21.5541V21.5923L2.36943 22.7388L2.33121 22.8917H2.21656L2.10191 23.2356H3.09554L3.13376 22.8917H2.98089L3.01911 22.7388L3.32484 21.1719L3.36306 21.0573L3.51592 21.0191L3.63057 20.6751H2.82803L1.79618 22.1656L1.41401 20.6751H0.535032L0.496815 21.0191L0.649681 21.0573L0.611465 21.1719L0.305732 22.7388L0.267516 22.8917H0.11465L0 23.2356H0.802548L0.840764 22.8917H0.764331V22.7388L1.03185 21.5159L1.3758 22.8917Z" fill="#111516"/>
<path d="M4.0512 23.312C4.43336 23.312 4.77731 23.1592 5.04483 22.8534C5.27413 22.6241 5.46521 22.242 5.46521 21.898C5.46521 21.7069 5.35056 21.5159 5.19769 21.4012C5.04483 21.3248 4.85374 21.2866 4.66266 21.2866C4.2805 21.2866 3.93655 21.4394 3.70725 21.7452C3.47795 21.9745 3.28687 22.3566 3.28687 22.7006C3.28687 22.8917 3.40151 23.0827 3.55438 23.1974C3.63081 23.2738 3.86011 23.312 4.0512 23.312ZM4.43336 21.6305C4.66266 21.6305 4.70088 21.898 4.70088 22.0509C4.70088 22.3184 4.54801 22.9681 4.20406 22.9681C3.97476 22.9681 3.93655 22.7006 3.93655 22.5477C3.93655 22.242 4.08941 21.6305 4.43336 21.6305Z" fill="#111516"/>
<path d="M6.42005 21.2866L5.54107 21.3248L5.50285 21.6687L5.65572 21.7069L5.6175 21.8598L5.42642 22.777L5.31177 23.2738H6.03788L6.19075 22.6241C6.26718 22.4713 6.64935 21.898 6.80221 21.898C6.84043 21.898 6.87864 21.9362 6.84043 22.0891L6.68756 22.777L6.57291 23.2738H7.49011L7.52832 22.9299L7.37546 22.8917V22.7388L7.52832 21.898C7.60476 21.4394 7.49011 21.2866 7.22259 21.2866C6.80221 21.2866 6.42005 21.7834 6.26718 22.1655H6.22896L6.42005 21.2866Z" fill="#111516"/>
<path d="M9.43939 22.6241C9.17188 22.7388 8.86614 22.8917 8.56041 22.8917C8.36933 22.8917 8.21646 22.8152 8.21646 22.5859C8.71328 22.5859 9.43939 22.2802 9.43939 21.7069C9.43939 21.5541 9.36296 21.4776 9.28653 21.4012C9.17188 21.3248 9.05723 21.2866 8.90436 21.2866C8.56041 21.2866 8.21646 21.4394 7.94895 21.7069C7.71965 21.9362 7.52856 22.3184 7.52856 22.6624C7.52856 23.121 7.94895 23.312 8.33111 23.312C8.67506 23.312 9.01901 23.2356 9.36296 23.0827L9.43939 22.6241ZM8.25468 22.242C8.2929 22.0509 8.44576 21.6687 8.63684 21.6687C8.75149 21.6687 8.78971 21.7452 8.78971 21.8598C8.78971 21.9745 8.71328 22.0891 8.59863 22.1655C8.52219 22.242 8.36933 22.242 8.25468 22.242Z" fill="#111516"/>
<path d="M14.9429 21.2866L14.0639 21.3248L14.0257 21.6687L14.1786 21.7069V21.7834L13.9493 22.7006L13.7964 23.2738H14.5225L14.6754 22.5859C14.8282 22.3566 15.0957 21.898 15.4015 21.898C15.4779 21.898 15.5161 21.9362 15.5926 21.9745L15.8219 21.363C15.7836 21.3248 15.7072 21.3248 15.669 21.3248C15.2868 21.3248 14.9047 21.8598 14.7518 22.1655H14.7136L14.9429 21.2866Z" fill="#B2001E"/>
<path d="M16.548 23.2738L17.427 23.2356L17.4652 22.8917L17.3123 22.8534V22.7006L17.5034 21.8216L17.6563 21.2484L17.1595 21.2866H17.083L16.7391 21.2484C16.3187 21.2484 16.013 21.4777 15.7837 21.7834C15.5544 22.0509 15.3633 22.4331 15.3633 22.777C15.3633 23.0063 15.5161 23.2738 15.7454 23.2738C16.1658 23.2738 16.548 22.777 16.7009 22.4331H16.7391L16.548 23.2738ZM16.8155 22.0127C16.7009 22.1656 16.3569 22.777 16.1658 22.777C16.0894 22.777 16.0894 22.7006 16.0894 22.6624C16.0894 22.4713 16.204 22.2038 16.2805 22.0127C16.3569 21.8598 16.4716 21.6305 16.7009 21.6305C16.7773 21.6305 16.8537 21.6687 16.9302 21.707L16.8155 22.0127Z" fill="#B2001E"/>
<path d="M18.6498 21.2866L17.809 21.3248L17.7708 21.6687L17.9237 21.707V21.8598L17.7326 22.777L17.6179 23.2738H18.2676L18.4205 22.5477L18.4587 22.5095C18.5351 22.3566 18.8791 21.8598 19.0319 21.8598C19.0702 21.8598 19.1084 21.8598 19.0701 22.0891L18.9173 22.7388L18.8026 23.2356H19.4523L19.6052 22.5095L19.6434 22.4713C19.7198 22.3184 20.0638 21.8216 20.2166 21.8216C20.2931 21.8216 20.2931 21.8598 20.2549 22.0509L20.0638 22.7388L19.9491 23.2356H20.7899L20.8281 22.8917L20.6752 22.8534V22.7006L20.8663 21.8598C20.8663 21.7834 20.9045 21.707 20.9045 21.6305C20.9045 21.4394 20.7899 21.2484 20.5988 21.2484C20.3695 21.2484 20.1402 21.4012 19.9873 21.5923C19.8345 21.7452 19.758 21.9363 19.6434 22.1273H19.6052L19.6816 21.8598C19.6816 21.7834 19.7198 21.707 19.7198 21.6305C19.7198 21.4394 19.6052 21.2866 19.4141 21.2866C19.1848 21.2866 18.9555 21.4777 18.8026 21.6305C18.6498 21.7834 18.5733 21.9745 18.4969 22.1656H18.4587L18.6498 21.2866Z" fill="#B2001E"/>
<path d="M10.7392 21.3248C10.8538 21.4395 10.9302 21.5924 10.9302 21.7452C10.9302 22.051 10.6245 22.3185 10.4334 22.5478C10.3952 22.1274 10.3188 21.707 10.1659 21.2866L9.43979 21.3248L9.40157 21.6688L9.55444 21.707C9.74552 22.2038 9.86017 22.7388 9.86017 23.2357L9.78374 23.3121C9.55444 23.5414 9.32513 23.8089 9.05762 24L9.78374 23.9618C10.013 23.5414 10.3188 23.1974 10.6245 22.8535L10.8156 22.6242L11.2742 22.0892C11.3888 21.9363 11.5417 21.7452 11.5417 21.5159C11.5417 21.4395 11.5035 21.3631 11.5035 21.3248H10.7392Z" fill="#111516"/>
<path d="M21.5925 23.2356L21.5161 23.121C21.5161 23.0828 21.4779 23.0828 21.4779 23.0828C21.5543 23.0828 21.5925 23.0446 21.5925 22.9681C21.5925 22.9299 21.5543 22.8917 21.4779 22.8917H21.3632V23.2356H21.4014V23.0828L21.5161 23.2356H21.5925ZM21.5161 23.0063C21.5161 23.0446 21.4779 23.0828 21.4396 23.0828H21.4014V22.9681H21.4396C21.5161 22.9299 21.5161 22.9681 21.5161 23.0063ZM21.4779 22.8153C21.6307 22.8153 21.7454 22.9299 21.7454 23.0828C21.7454 23.2356 21.6307 23.3503 21.4779 23.3503C21.325 23.3503 21.2103 23.2356 21.2103 23.0828C21.2103 22.9299 21.325 22.8153 21.4779 22.8153ZM21.4779 22.7388C21.2868 22.7388 21.1721 22.8917 21.1721 23.0446C21.1721 23.2356 21.325 23.3503 21.4779 23.3503C21.6689 23.3503 21.7836 23.1974 21.7836 23.0446C21.7836 22.8917 21.6307 22.7388 21.4779 22.7388Z" fill="#B2001E"/>
<path d="M18.9554 17.9618L18.6879 17.5797C18.6497 17.5032 18.6115 17.465 18.5732 17.4268C18.7643 17.4268 18.879 17.2739 18.879 17.0829C18.879 16.93 18.7643 16.8153 18.4968 16.8153H18.1529V17.9618H18.3439V17.465L18.6879 17.9618H18.9554ZM18.7261 17.1211C18.7261 17.1975 18.6497 17.3122 18.4586 17.3122H18.3822V16.93H18.535C18.6879 16.9682 18.7261 17.0064 18.7261 17.1211ZM18.535 16.586C18.9936 16.586 19.3376 16.9682 19.3376 17.4268C19.3376 17.8854 18.9936 18.2294 18.535 18.2294C18.0764 18.2294 17.7325 17.8472 17.7325 17.3886C17.7325 16.93 18.0764 16.586 18.535 16.586ZM18.535 16.395C17.9618 16.395 17.5032 16.8536 17.5032 17.4268C17.5032 18.0001 17.9236 18.4587 18.535 18.4587C19.0701 18.4587 19.5669 18.0001 19.5669 17.4268C19.5669 16.8153 19.1083 16.395 18.535 16.395Z" fill="#EB1C2E"/>
<path d="M11.3123 0C6.19124 0 2.02563 4.16561 2.02563 9.28662C2.02563 14.4076 6.19124 18.535 11.274 18.535C16.3951 18.535 20.5224 14.3694 20.5224 9.28662C20.5607 4.16561 16.3951 0 11.3123 0ZM18.4588 7.68153C18.5352 8.33121 18.2677 8.98089 17.7326 9.55414C18.2295 8.98089 18.4588 8.33121 18.3059 7.71975C18.0766 6.57325 16.8154 5.80892 15.1339 5.69427C15.2868 6.07643 15.4014 6.49682 15.4396 6.9172C15.5925 7.87261 15.5161 8.56051 15.4396 9.36306C15.4396 9.36306 15.2103 9.59236 15.0575 9.66879C15.1721 8.98089 15.2486 8.14013 15.1339 7.18471C15.0957 6.6879 14.9428 6.15287 14.7517 5.65605C14.3314 5.65605 13.911 5.69427 13.4524 5.7707C11.4651 6.15287 9.82181 7.29936 9.43965 8.48408C9.59251 7.10828 11.8473 5.69427 14.1021 5.35032C14.2931 5.3121 14.446 5.3121 14.5989 5.3121C14.1785 4.43312 13.4524 3.74522 12.4588 3.66879C12.0766 3.63057 11.7709 3.74522 11.618 3.82166L11.4651 3.78344C11.6562 3.66879 12.0384 3.47771 12.5352 3.47771C13.6817 3.47771 14.5225 4.31847 15.0193 5.3121C16.9683 5.3121 18.2677 6.30573 18.4588 7.68153ZM8.29315 6.76433C8.52245 4.92994 9.21035 3.97452 9.40143 3.78344C11.083 4.28025 12.8027 5.12102 12.8027 5.12102C11.1594 5.04459 9.43965 5.92357 8.29315 6.76433ZM7.2613 4.50955L6.53519 3.40127C6.45876 3.21019 6.45876 3.17197 6.72627 3.17197C7.41417 3.21019 8.29315 3.40127 8.29315 3.40127C9.01927 2.44586 9.89825 1.79618 10.8919 1.64331C12.0384 1.45223 13.2613 1.98726 14.2549 2.90446C13.2231 2.10191 12.0766 1.71975 11.0065 1.98726C8.06385 2.71338 6.91735 7.18471 8.06385 11.3121C8.06385 11.3121 7.68169 11.3503 7.14665 11.1975C6.61162 8.82803 6.76449 7.07006 7.18487 5.65605C4.93009 6.03822 4.39506 7.29936 4.08933 7.79618C4.85366 5.15924 7.2613 4.50955 7.2613 4.50955ZM7.60525 12.8025C5.31226 12.535 3.40143 11.0828 3.0957 9.28662C2.90462 8.29299 3.40143 7.18471 4.20398 6.30573C3.47786 7.22293 3.17213 8.21656 3.40143 9.21019C3.93646 11.5414 7.45239 12.7261 11.274 11.8471C14.3314 11.1592 16.6244 9.32484 17.1594 7.45223C16.9683 8.44586 16.3186 9.43949 15.3632 10.3185L15.325 10.3567C15.1339 11.0828 14.8282 11.465 14.8282 11.465L14.446 11.6943C14.446 11.6943 14.6371 11.3503 14.79 10.7771C13.5288 11.7325 11.8855 12.4968 10.1275 12.8025C9.5543 12.9172 9.01927 12.9554 8.52245 12.9554C9.36321 15.0573 10.8537 16.8153 12.9174 17.5414C10.2422 16.7389 8.52245 14.8662 7.60525 12.8025ZM15.1339 14.4076L15.0575 15.0955C15.0193 15.3631 14.9428 15.3631 14.6753 15.3631C12.7263 15.2484 10.5097 13.758 10.5097 13.758C13.9874 13.2229 16.3186 10.9299 16.3186 10.9299C17.1594 10.0892 16.7772 10.8535 16.739 11.0446C16.6244 11.3503 15.7072 12.9936 15.7072 12.9936C18.5734 12.4968 19.2995 10.4331 19.2995 10.4331C18.3441 13.3758 15.1339 14.4076 15.1339 14.4076Z" fill="#B2001E"/>
<path d="M9.74538 15.7834C8.78997 14.9427 8.06385 13.9108 7.60525 12.8025C5.31226 12.535 3.40143 11.0828 3.0957 9.28662C2.90462 8.29299 3.40143 7.18471 4.20398 6.30573C3.47786 7.22293 3.17213 8.21656 3.40143 9.21019C3.93646 11.5414 7.45239 12.7261 11.274 11.8471C14.3314 11.1592 16.6244 9.32484 17.1594 7.45223C16.9683 8.44586 16.3186 9.43949 15.3632 10.3185L15.325 10.3567C15.1339 11.0828 14.8282 11.465 14.8282 11.465L14.446 11.6943C14.446 11.6943 14.6371 11.3503 14.79 10.7771C13.5288 11.7325 11.8855 12.4968 10.1275 12.8025C9.5543 12.9172 9.01927 12.9554 8.52245 12.9554C8.94283 14.0255 9.5543 14.9809 10.2804 15.7834C11.1212 15.6306 11.9237 15.3631 12.6881 15.0191C11.4651 14.5605 10.4333 13.8726 10.4333 13.8726C13.911 13.3376 16.2422 11.0446 16.2422 11.0446C17.083 10.2038 16.7008 10.9682 16.6626 11.1592C16.5861 11.3885 16.0511 12.3057 15.7836 12.8025C17.6944 10.8917 18.8409 8.25478 18.8409 5.35032C18.8409 4.89172 18.8027 4.43312 18.7645 3.97452C17.1212 1.52866 14.4078 0 11.3123 0C6.19124 0 2.02563 4.16561 2.02563 9.28662C2.02563 11.4268 2.75175 13.3758 3.93646 14.9427C5.27404 15.5541 6.72627 15.8981 8.29315 15.8981C8.78997 15.8599 9.28678 15.8217 9.74538 15.7834ZM8.29315 6.76433C8.52245 4.92994 9.21035 3.97452 9.40143 3.78344C11.083 4.28025 12.8027 5.12102 12.8027 5.12102C11.1594 5.04459 9.43965 5.92357 8.29315 6.76433ZM14.981 5.3121C16.9683 5.3121 18.2677 6.30573 18.4588 7.64331C18.5352 8.29299 18.2677 8.94268 17.7326 9.51592C18.2295 8.94268 18.4588 8.29299 18.3059 7.68153C18.0766 6.53503 16.8154 5.7707 15.1339 5.65605C15.2868 6.03822 15.4014 6.4586 15.4396 6.87898C15.5925 7.83439 15.5161 8.52229 15.4396 9.32484C15.4396 9.32484 15.2103 9.55414 15.0575 9.63057C15.1721 8.94268 15.2486 8.10191 15.1339 7.1465C15.0957 6.64968 14.9428 6.11465 14.7517 5.61783C14.3314 5.61783 13.911 5.65605 13.4524 5.73248C11.4651 6.11465 9.82181 7.26115 9.43965 8.44586C9.59251 7.07006 11.8473 5.65605 14.1021 5.3121C14.2931 5.27389 14.446 5.27389 14.5989 5.27389C14.1785 4.3949 13.4524 3.70701 12.4588 3.63057C12.0766 3.59236 11.7709 3.70701 11.618 3.78344L11.4651 3.74522C11.6562 3.63057 12.0384 3.43949 12.5352 3.43949C13.6053 3.47771 14.4842 4.31847 14.981 5.3121ZM7.2613 4.50955L6.53519 3.40127C6.45876 3.21019 6.45876 3.17197 6.72627 3.17197C7.41417 3.21019 8.29315 3.40127 8.29315 3.40127C9.01927 2.44586 9.89825 1.79618 10.8919 1.64331C12.0384 1.45223 13.2613 1.98726 14.2549 2.90446C13.2231 2.10191 12.0766 1.71975 11.0065 1.98726C8.06385 2.71338 6.91735 7.18471 8.06385 11.3121C8.06385 11.3121 7.68169 11.3503 7.14665 11.1975C6.61162 8.82803 6.76449 7.07006 7.18487 5.65605C4.93009 6.03822 4.39506 7.29936 4.08933 7.79618C4.85366 5.15924 7.2613 4.50955 7.2613 4.50955Z" fill="#CC0224"/>
<path d="M11.3124 0C6.42065 0 2.44613 3.78344 2.06396 8.56052C2.40791 9.05734 2.8283 9.51593 3.28689 9.8981C3.21046 9.6688 3.13403 9.4395 3.09581 9.2102C2.90473 8.21657 3.40154 7.10829 4.20409 6.22931C3.47798 7.1465 3.17225 8.14014 3.40154 9.13377C3.59263 9.8981 4.05123 10.5096 4.77734 11.0064C5.23594 11.2739 5.69454 11.5032 6.22957 11.6943C7.64358 12.1529 9.43976 12.2293 11.3124 11.7707C14.3697 11.0828 16.6627 9.24842 17.1977 7.3758C17.1595 7.64332 17.0449 7.91084 16.9302 8.17835C17.2359 7.68154 17.5417 7.1465 17.771 6.61147C17.1977 6.03822 16.2805 5.69427 15.1722 5.65606C15.3251 6.03822 15.4398 6.45861 15.478 6.87899C15.6308 7.8344 15.5544 8.5223 15.478 9.32485C15.478 9.32485 15.2487 9.55415 15.0958 9.63058C15.2105 8.94269 15.2869 8.10192 15.1722 7.14651C15.134 6.64969 14.9812 6.11466 14.7901 5.61784C14.3697 5.61784 13.9493 5.65606 13.4907 5.73249C11.5035 6.11466 9.86014 7.26116 9.47798 8.44587C9.63084 7.07007 11.8856 5.65606 14.1404 5.31211C14.3315 5.27389 14.4843 5.27389 14.6372 5.27389C14.2168 4.39491 13.4907 3.70701 12.4971 3.63058C12.1149 3.59236 11.8092 3.70701 11.6563 3.78344L11.5035 3.74523C11.6945 3.63058 12.0767 3.43949 12.5735 3.43949C13.72 3.43949 14.5608 4.28026 15.0576 5.27389C16.3187 5.27389 17.3124 5.65606 17.9238 6.30574C18.2678 5.35032 18.4589 4.31848 18.4971 3.24841C16.6627 1.29936 14.1404 0 11.3124 0ZM12.8028 5.08281C11.1595 5.00638 9.43976 5.92357 8.29326 6.76434C8.52256 4.92994 9.21046 3.97453 9.40155 3.78344C11.0831 4.24204 12.8028 5.08281 12.8028 5.08281ZM11.0066 2.02548C8.06397 2.7516 6.91747 7.22294 8.06396 11.3503C8.06396 11.3503 7.6818 11.3885 7.14677 11.2357C6.61174 8.86625 6.7646 7.10829 7.18498 5.69427C4.93021 6.07644 4.39518 7.33759 4.08944 7.8344C4.89199 5.15924 7.29963 4.50956 7.29963 4.50956L6.57352 3.40128C6.49709 3.21019 6.49709 3.17198 6.7646 3.17198C7.4525 3.2102 8.33148 3.40128 8.33148 3.40128C9.0576 2.44586 9.93658 1.79618 10.9302 1.64331C12.0767 1.45223 13.2996 1.98726 14.2933 2.90446C13.2232 2.10191 12.0767 1.75796 11.0066 2.02548Z" fill="#EB1C2E"/>
</svg>
