<svg width="29" height="12" viewBox="0 0 29 12" fill="none" xmlns="http://www.w3.org/2000/svg">
<path d="M28.7385 3.43451C28.7385 2.26221 27.8367 0.00779304 24.8158 0.00779304C23.5083 0.00779304 22.5614 0.593943 22.1105 0.95465V0.0979702H20.1266V0.95465C19.6306 0.548854 19.0445 0.143058 18.4584 0.0528816C17.8271 -0.0372952 17.1959 0.00779304 16.3843 0.233235C15.708 0.413589 15.3022 0.729208 14.8964 1.18009C14.0397 0.233235 12.7321 0.0528815 11.6951 0.00779304C10.5228 -0.0372954 9.3054 0.0979704 8.35854 0.819385C7.45678 0.368501 6.32957 0.00779304 5.022 0.00779304C3.89479 0.00779304 2.85776 0.278324 2.09126 0.909561C1.82072 1.135 1.68546 1.31536 1.55019 1.63098C1.27966 2.3073 1.41493 3.07381 1.68546 3.4796C2.22652 4.2461 2.85776 4.51663 3.98497 4.6519C4.97691 4.74208 5.65324 4.74208 6.37465 4.87734C6.73536 4.92243 7.05098 5.19296 7.05098 5.55367C7.05098 6.00455 6.41974 6.72597 4.93183 6.63579C3.71444 6.54561 3.26355 6.36526 2.09126 5.64384L0.783691 6.68088C0.783691 6.68088 1.00913 6.86123 1.1444 6.95141C1.27966 7.04159 1.46002 7.13176 1.59528 7.22194C2.90285 7.94335 4.61621 8.25897 6.10412 7.98844C6.87063 7.85318 7.54695 7.62774 8.17819 7.22194C8.67416 7.53756 9.3054 8.12371 10.8835 8.07862C11.8754 8.03353 12.5969 8.07862 13.3183 7.26703V8.07862H15.2571V7.26703C15.2571 7.26703 15.5727 7.49247 15.753 7.62774C16.9704 8.34915 18.9092 8.07862 20.0815 7.22194V8.25897C20.0364 8.89021 19.4503 9.34109 18.8641 9.56654C17.8271 9.97233 16.8352 9.61163 15.9785 9.02548L14.5357 10.0174C14.9415 10.4232 15.3022 10.6487 15.8432 10.9192C17.4213 11.6406 19.2699 11.4152 20.5324 10.6487C21.3891 10.1527 21.7047 9.52145 21.8851 8.61968C21.9752 8.12371 22.0203 7.763 22.0203 7.31212V7.26703L22.0654 7.31212C22.4712 7.58265 22.8319 7.80809 23.373 7.98844C24.2748 8.25897 25.2667 8.25897 26.3939 7.98844C26.935 7.85318 27.3859 7.62773 27.7917 7.3572C28.0171 7.17685 28.2425 6.9965 28.4229 6.81614L27.1604 5.91438C26.7546 6.27508 26.0783 6.63579 25.3569 6.72597C24.5002 6.81614 23.5533 6.68088 23.0574 6.13982C22.7868 5.8242 22.6967 5.73402 22.6967 4.96752H28.6483V3.43451H28.7385ZM16.1138 3.97557C16.1138 3.52469 16.1588 3.07381 16.2039 2.62292C16.249 2.39748 16.5195 2.12695 16.8803 1.90151C17.241 1.72115 17.6468 1.58589 18.0976 1.58589C18.4133 1.58589 18.774 1.63098 19.0445 1.76624C19.5405 1.94659 19.9463 2.3073 19.9914 2.75819C20.0364 3.16398 20.0815 3.56978 20.0815 3.97557C20.1266 4.47155 20.0815 4.92243 19.9914 5.32823C19.9463 5.59876 19.7659 5.8242 19.4954 6.04964C19.1798 6.32017 18.6838 6.54561 18.0976 6.50052C17.2861 6.45544 16.5195 6.13982 16.2941 5.68893C16.1138 5.28314 16.0687 4.6519 16.1138 3.97557ZM12.5969 6.54561C12.1911 6.68088 11.5147 6.72597 10.8384 6.63579C10.2523 6.54561 9.7112 6.54561 9.48575 6.00455C9.35049 5.73402 9.39558 5.46349 9.57593 5.19296C9.89155 4.83225 10.5679 4.74208 11.0188 4.74208H13.3183C13.3183 5.32823 13.4986 6.22999 12.5969 6.54561ZM5.78851 3.25416C4.88674 3.20907 4.03006 3.20907 3.57917 2.80328C3.30864 2.57783 3.35373 1.99168 3.75953 1.76624C4.30059 1.45062 4.93183 1.45062 5.29253 1.49571C6.05904 1.5408 6.91572 1.76624 7.59204 2.21713L8.40363 1.49571C8.40363 1.49571 9.26031 2.26221 9.26031 2.21713C10.2523 1.5408 10.613 1.5408 11.5147 1.5408C12.7772 1.5408 13.1379 1.76624 13.3183 2.08186C13.4535 2.26221 13.3183 3.29925 13.3183 3.29925C13.3183 3.29925 12.1911 3.34434 11.4246 3.29925C10.7933 3.25416 10.4326 3.25416 9.80137 3.38942C9.21523 3.4796 8.85452 3.65995 8.44872 3.97557C8.44872 3.97557 8.08801 3.75013 7.72731 3.56978C6.9608 3.25416 6.50992 3.29925 5.78851 3.25416ZM22.877 3.38942C22.877 2.89345 23.0123 2.53274 23.1926 2.21713C23.5984 1.63098 24.3198 1.36045 25.0413 1.36045C25.7176 1.36045 26.439 1.63098 26.8899 2.17204C27.1153 2.48766 27.2957 2.89345 27.2957 3.38942H22.877Z" fill="#0BAD82"/>
<path d="M1.55019 1.63101C1.27966 2.30734 1.41493 3.07384 1.68546 3.47963C2.22652 4.24614 2.85776 4.51667 3.98497 4.65193C4.97691 4.74211 6.10412 4.74211 6.82554 4.87738C7.18625 4.92246 7.50187 5.19299 7.50187 5.5537C7.50187 6.00459 6.46483 6.726 4.97691 6.63582C3.71444 6.54565 3.26355 6.36529 2.09126 5.64388L0.783691 6.68091C0.783691 6.68091 1.00913 6.86127 1.1444 6.95144C1.27966 7.04162 1.46002 7.1318 1.59528 7.22197C2.90285 7.94339 4.61621 8.25901 6.10412 7.98848C6.87063 7.85321 7.54695 7.62777 8.17819 7.22197C8.67416 7.53759 9.3054 8.12374 10.8835 8.07865C11.8754 8.03356 12.5969 8.07865 13.3183 7.26706V8.07865H15.2571V7.26706C15.2571 7.26706 15.5727 7.4925 15.753 7.62777C16.9704 8.34918 19.3601 8.07865 20.5324 7.22197V8.25901C20.4873 8.89024 19.9012 9.34113 19.315 9.56657C18.278 9.97237 16.8803 9.61166 16.0236 9.02551L14.5807 10.0175C14.9865 10.4233 15.3472 10.6487 15.8883 10.9192C17.4664 11.6406 19.315 11.4152 20.5775 10.6487C21.4342 10.1527 21.7498 9.52148 21.9302 8.61971C22.0203 8.12374 22.0654 7.76303 22.0654 7.31215V7.26706L22.1105 7.31215C22.5163 7.58268 22.877 7.80812 23.4181 7.98848C24.3198 8.25901 25.3118 8.25901 26.439 7.98848C26.9801 7.85321 27.4309 7.62777 27.8367 7.35724C28.0622 7.17688 28.2876 6.99653 28.468 6.81618L27.2055 5.91441C26.7997 6.27512 26.1234 6.63582 25.402 6.726C24.5453 6.81618 23.5984 6.68091 23.1025 6.13985C22.8319 5.82423 22.7418 5.73405 22.7418 4.96755H28.6934V3.52472C28.6934 2.35242 27.7917 0.098003 24.7707 0.098003C23.4632 0.098003 22.5163 0.684153 22.0654 1.04486V0.188179H20.0815V1.04486C19.5856 0.639064 18.9994 0.233268 18.4133 0.143092C17.782 0.0529148 17.1508 0.098003 16.3392 0.323445C15.6629 0.503799 15.2571 0.819418 14.8513 1.2703C13.9946 0.323445 12.687 0.143091 11.65 0.098003C10.4777 0.0529146 9.26031 0.18818 8.31346 0.909594C7.41169 0.45871 6.28448 0.098003 4.97691 0.098003L1.55019 1.63101ZM16.1138 3.97561C16.1138 3.52472 16.1588 3.07384 16.2039 2.62295C16.249 2.39751 16.5195 2.12698 16.8803 1.90154C17.241 1.72119 17.6468 1.58592 18.0976 1.58592C18.4133 1.58592 19.1798 1.63101 19.4954 1.76627C19.9914 1.94663 20.3972 2.30734 20.4422 2.75822C20.4873 3.16401 20.5324 3.56981 20.5324 3.97561C20.5775 4.47158 20.5324 4.92246 20.4422 5.32826C20.3972 5.59879 20.2168 5.82423 19.9463 6.04967C19.6306 6.3202 18.6838 6.54565 18.0976 6.50056C17.2861 6.45547 16.5195 6.13985 16.2941 5.68897C16.1138 5.28317 16.0687 4.65193 16.1138 3.97561ZM13.0477 6.54565C12.6419 6.68091 11.5598 6.726 10.8384 6.63582C10.2523 6.54565 9.7112 6.54565 9.48575 6.00459C9.35049 5.73406 9.39558 5.46352 9.57593 5.19299C9.89155 4.83229 10.5679 4.74211 11.0188 4.74211H13.7692C13.7692 5.32826 13.9495 6.23003 13.0477 6.54565ZM5.78851 3.25419C4.88674 3.2091 4.03006 3.2091 3.57917 2.80331C3.30864 2.57787 3.35373 1.99172 3.75953 1.76627C4.30059 1.45065 4.93183 1.45066 5.29253 1.49574C6.05904 1.54083 6.91572 1.76627 7.59204 2.21716L8.40363 1.49574C8.40363 1.49574 9.26031 2.26225 9.26031 2.21716C10.2523 1.54083 10.613 1.54083 11.5147 1.54083C12.7772 1.54083 13.5437 1.76627 13.7692 2.08189C13.9044 2.26225 13.7692 3.29928 13.7692 3.29928C13.7692 3.29928 12.2361 3.34437 11.4246 3.29928C10.7933 3.25419 10.4326 3.25419 9.80137 3.38946C9.21523 3.47963 8.85452 3.65999 8.44872 3.97561C8.44872 3.97561 8.08801 3.75016 7.72731 3.56981C6.9608 3.25419 6.50992 3.29928 5.78851 3.25419ZM22.877 3.38946C22.877 2.89348 23.0123 2.53278 23.1926 2.21716C23.5984 1.63101 24.3198 1.36048 25.0413 1.36048C25.7176 1.36048 26.8899 1.63101 27.2957 2.17207C27.5211 2.48769 27.7015 2.89348 27.7015 3.38946H22.877Z" fill="#008061"/>
<path d="M12.6421 7.85324C11.5149 7.80815 11.9207 6.72603 11.9658 6.63585C11.6051 6.68094 11.2444 6.68094 10.8386 6.63585C10.2524 6.54567 9.71138 6.54568 9.48594 6.00462C9.35068 5.73409 9.39576 5.46356 9.57612 5.19303C9.75647 4.9225 10.1623 4.83232 10.4779 4.78723C9.57612 4.87741 9.03506 5.23811 9.03506 5.23811C9.17032 6.72603 8.26855 7.26709 8.26855 7.26709C8.76453 7.58271 9.39577 8.16885 10.9739 8.12376C11.6051 8.07868 12.1462 8.07868 12.6421 7.85324Z" fill="#086D5E"/>
<path d="M19.2251 7.76297H19.18C18.3684 7.94332 18.0528 7.17682 18.9997 6.50049C19.0898 6.4554 19.1349 6.36523 19.18 6.27505C18.8644 6.41032 18.5037 6.54558 18.0979 6.50049C17.2863 6.4554 16.5198 6.13978 16.2944 5.6889C16.114 5.2831 16.0689 4.69695 16.114 3.97554C16.114 3.52466 16.1591 3.07377 16.2042 2.62289C16.2493 2.39745 16.5198 2.12692 16.8805 1.90147C17.2412 1.72112 17.647 1.58585 18.0979 1.58585C16.61 1.45059 15.2573 2.89342 15.2573 2.89342V7.31208C15.2573 7.31208 15.5729 7.53752 15.7533 7.67279C16.7452 8.21385 18.0979 8.21385 19.2251 7.76297Z" fill="#086D5E"/>
<path d="M22.8771 3.38946C22.8771 2.89349 23.0124 2.53279 23.1927 2.21717C23.5083 1.76628 24.0043 1.54084 24.5003 1.40558C22.4713 1.67611 22.1106 3.75017 22.1106 3.75017V7.17688L22.2008 7.22197C22.6066 7.4925 22.9673 7.71794 23.4632 7.85321C23.824 7.98847 24.2298 8.03356 24.6806 8.03356C26.7998 7.44741 27.2056 6.3202 27.2507 5.77914C26.8449 6.13985 26.2136 6.45547 25.4922 6.54564C24.6355 6.63582 23.6887 6.50056 23.1927 5.9595C22.9222 5.64388 22.832 5.5537 22.832 4.7872H28.7837L27.2507 3.38946H22.8771Z" fill="#086D5E"/>
</svg>
