<svg width="33" height="13" viewBox="0 0 33 13" fill="none" xmlns="http://www.w3.org/2000/svg">
<path d="M7.08055 5.26454H6.77088C6.56442 5.26454 6.4612 5.1097 6.4612 4.90325V3.45809H7.13217V3.04519H6.4612V2.271H5.94507V4.95487C5.94507 5.52261 6.20313 5.78067 6.71926 5.78067H7.02894V5.26454" fill="#0073AA"/>
<path d="M2.53833 4.49028C2.53833 5.47092 3.31253 5.7806 4.03511 5.7806C4.75769 5.7806 5.48027 5.41931 5.48027 4.69673C5.48027 3.97415 4.86091 3.76769 4.29317 3.61286L4.08672 3.56124C3.57059 3.45802 3.15769 3.35479 3.15769 2.9935C3.15769 2.47737 3.72543 2.37415 3.93188 2.37415C4.44801 2.37415 4.75769 2.63221 4.8093 3.09673H5.32543C5.27382 2.37415 4.8093 1.96124 3.98349 1.96124C3.31252 1.96124 2.64156 2.27092 2.64156 3.04511C2.64156 3.71608 3.2093 3.87092 3.82865 4.02576H3.98349C4.49962 4.12899 5.01575 4.23221 5.01575 4.69673C5.01575 5.26447 4.44801 5.31608 4.13833 5.31608C3.88027 5.31608 3.6222 5.26447 3.41575 5.10963C3.2093 4.95479 3.10607 4.74834 3.10607 4.43866H2.53833" fill="#0073AA"/>
<path d="M9.8673 5.31613C9.76408 5.36775 9.76408 5.36775 9.71246 5.36775C9.60924 5.36775 9.60924 5.31613 9.60924 5.10968V3.76775C9.60924 3.25162 9.29956 3.04517 8.6286 3.04517C8.2157 3.04517 7.54473 3.14839 7.49312 3.92259H7.95763C7.95763 3.61291 8.16408 3.45807 8.57698 3.45807C8.93827 3.45807 9.14472 3.61291 9.14472 3.87097C9.14472 4.12904 8.88666 4.12904 8.57698 4.18065C8.47376 4.18065 8.37053 4.23226 8.26731 4.23226C7.80279 4.33549 7.38989 4.43871 7.38989 5.05807C7.38989 5.52259 7.69957 5.83226 8.26731 5.83226C8.6286 5.83226 8.93827 5.67742 9.19634 5.47097C9.19634 5.78065 9.40279 5.83226 9.55763 5.83226C9.71246 5.83226 9.81569 5.78065 9.8673 5.78065V5.31613ZM8.37053 5.31613C8.2157 5.31613 7.90602 5.26452 7.90602 4.95484C7.90602 4.64517 8.16408 4.54194 8.42215 4.49033C8.47376 4.49033 8.57698 4.49033 8.68021 4.43871C8.88666 4.43871 9.09311 4.3871 9.19634 4.33549V4.74839C9.14472 5.00646 8.93827 5.31613 8.37053 5.31613Z" fill="#0073AA"/>
<path d="M10.28 3.04508V5.67734H10.7445V4.18057C10.7445 3.66444 11.0026 3.40637 11.5187 3.40637C11.8284 3.40637 12.0349 3.61282 12.0349 3.9225V5.72895H12.4994V3.97411C12.4994 3.30315 12.1897 2.99347 11.5704 2.99347C11.2091 2.99347 10.8994 3.14831 10.7445 3.45799V3.09669H10.28" fill="#0073AA"/>
<path d="M14.977 2.06445V3.40639C14.7706 3.14832 14.4093 3.0451 14.1512 3.0451C13.4286 3.0451 12.9641 3.56123 12.9641 4.43865C12.9641 4.79994 13.0673 5.16123 13.2738 5.41929C13.4802 5.67736 13.7899 5.8322 14.2028 5.8322C14.5641 5.8322 14.8738 5.67736 15.0286 5.4709V5.78058H15.4931V2.11607H14.977V2.06445ZM14.2028 5.36768C13.6351 5.36768 13.4286 4.90316 13.4286 4.43865C13.4286 4.12897 13.4802 3.458 14.2028 3.458C14.9254 3.458 15.0286 4.18058 15.0286 4.43865C14.977 4.85155 14.7706 5.36768 14.2028 5.36768Z" fill="#0073AA"/>
<path d="M18.3832 5.31613C18.28 5.36775 18.28 5.36775 18.2283 5.36775C18.1251 5.36775 18.1251 5.31613 18.1251 5.10968V3.76775C18.1251 3.25162 17.8154 3.04517 17.1445 3.04517C16.7316 3.04517 16.0606 3.14839 16.009 3.92259H16.4735C16.4735 3.61291 16.68 3.45807 17.0929 3.45807C17.4541 3.45807 17.6606 3.61291 17.6606 3.87097C17.6606 4.12904 17.4025 4.12904 17.0929 4.18065C16.9896 4.18065 16.8864 4.23226 16.7832 4.23226C16.3187 4.33549 15.9058 4.43871 15.9058 5.05807C15.9058 5.52259 16.2154 5.83226 16.7832 5.83226C17.1445 5.83226 17.4541 5.67742 17.6606 5.47097C17.6606 5.78065 17.8671 5.83226 18.0219 5.83226C18.1767 5.83226 18.28 5.78065 18.3316 5.78065L18.3832 5.31613ZM16.8864 5.36775C16.7316 5.36775 16.4219 5.31613 16.4219 5.00646C16.4219 4.69678 16.68 4.59355 16.938 4.54194C16.9896 4.54194 17.0929 4.54194 17.1961 4.49033C17.4025 4.43871 17.609 4.43871 17.7122 4.3871V4.80001C17.6606 5.00646 17.4541 5.36775 16.8864 5.36775Z" fill="#0073AA"/>
<path d="M20.1898 2.99347C19.7253 2.99347 19.4156 3.14831 19.2091 3.56121V3.04508H18.7446V5.67734H19.2091V4.54186C19.2091 3.81928 19.5188 3.5096 20.1382 3.5096V2.99347" fill="#0073AA"/>
<path d="M22.3056 2.06445V3.40639C22.0992 3.14832 21.7379 3.0451 21.4798 3.0451C20.7572 3.0451 20.2927 3.56123 20.2927 4.43865C20.2927 4.79994 20.396 5.16123 20.6024 5.41929C20.8089 5.67736 21.1185 5.8322 21.5314 5.8322C21.8927 5.8322 22.2024 5.67736 22.3572 5.4709V5.78058H22.8218V2.11607H22.3056V2.06445ZM21.5314 5.36768C20.9637 5.36768 20.7572 4.90316 20.7572 4.43865C20.7572 4.12897 20.8089 3.458 21.5314 3.458C22.254 3.458 22.3056 4.18058 22.3056 4.43865C22.3572 4.85155 22.1508 5.36768 21.5314 5.36768Z" fill="#0073AA"/>
<path d="M3.51918 9.39352C3.46756 10.0129 3.05466 10.4258 2.48692 10.4258C2.07401 10.4258 1.76434 10.2709 1.55788 10.0129C1.40305 9.7032 1.29982 9.34191 1.29982 8.92901C1.29982 8.51611 1.40305 8.20643 1.6095 7.94836C1.81595 7.63869 2.12563 7.53546 2.53853 7.53546C3.05466 7.53546 3.41595 7.79353 3.51918 8.30965H4.0353C3.98369 7.94836 3.82885 7.63869 3.51918 7.43224C3.26111 7.22578 2.89982 7.12256 2.53853 7.12256C2.0224 7.12256 1.55788 7.32901 1.24821 7.6903C0.93853 7.94836 0.783691 8.41288 0.783691 8.98062C0.783691 10.1677 1.45466 10.8903 2.48692 10.8903C2.95143 10.8903 3.31272 10.7355 3.57079 10.4774C3.82885 10.2193 3.98369 9.85804 4.0353 9.39352H3.51918Z" fill="#0B9632"/>
<path d="M4.49976 7.12256V10.7871H4.96427V9.2903C4.96427 8.77417 5.22234 8.51611 5.73847 8.51611C6.04814 8.51611 6.25459 8.72256 6.25459 9.03224V10.8387H6.71911V9.08385C6.71911 8.41288 6.40943 8.1032 5.79008 8.1032C5.53201 8.1032 5.11911 8.20643 4.96427 8.51611V7.12256H4.49976Z" fill="#0B9632"/>
<path d="M7.70007 8.98063C7.70007 8.61934 7.90652 8.4645 8.31943 8.4645C8.68072 8.4645 8.88717 8.61934 8.88717 8.8774C8.88717 9.13547 8.6291 9.13547 8.31943 9.18708C8.2162 9.18708 8.11297 9.23869 8.00975 9.23869C7.54523 9.34192 7.13232 9.44515 7.13232 10.0645C7.13232 10.529 7.442 10.8387 8.00975 10.8387C8.37104 10.8387 8.68072 10.7355 8.93878 10.4774C8.93878 10.7871 9.14524 10.8387 9.30008 10.8387C9.45491 10.8387 9.55814 10.8387 9.60975 10.7871V10.4258H9.55814C9.50653 10.4258 9.45491 10.4258 9.45491 10.4258C9.35169 10.4258 9.35169 10.3742 9.35169 10.1677V8.82579C9.35169 8.30966 9.04201 8.10321 8.37104 8.10321C7.95813 8.10321 7.28716 8.20644 7.23555 8.98063H7.70007ZM8.06136 10.4258C7.90652 10.4258 7.59684 10.3742 7.59684 10.0645C7.59684 9.75482 7.85491 9.6516 8.11297 9.59998C8.16459 9.59998 8.26781 9.59999 8.37104 9.54837C8.57749 9.49676 8.78394 9.49676 8.88717 9.44515V9.85805C8.88717 10.0645 8.6291 10.4258 8.06136 10.4258Z" fill="#0B9632"/>
<path d="M22.7709 10.7871V7.12256H22.3064V8.41288C22.0999 8.15482 21.7386 8.05159 21.4806 8.05159C20.758 8.05159 20.2935 8.56772 20.2935 9.44514C20.2935 9.80643 20.3967 10.1677 20.6031 10.4258C20.8096 10.6838 21.1193 10.8387 21.5322 10.8387C21.8935 10.8387 22.2031 10.6838 22.358 10.4774V10.7871H22.7709ZM21.5322 10.4258C20.9644 10.4258 20.758 9.96127 20.758 9.49675C20.758 9.18707 20.8096 8.51611 21.5322 8.51611C22.2547 8.51611 22.3064 9.23869 22.3064 9.49675C22.358 9.90965 22.1515 10.4258 21.5322 10.4258Z" fill="#0B9632"/>
<path d="M15.0803 9.96125C14.9771 10.2709 14.7707 10.4258 14.4094 10.4258C14.1513 10.4258 13.9448 10.3742 13.8416 10.2193C13.6868 10.0645 13.6352 9.85802 13.6352 9.59996H15.5965C15.5965 9.13543 15.4932 8.67091 15.1836 8.41285C14.9771 8.20639 14.719 8.10317 14.3578 8.10317C13.6868 8.05155 13.1707 8.67091 13.1707 9.44512C13.2223 10.3225 13.6868 10.8387 14.461 10.8387C15.0803 10.8387 15.4932 10.529 15.5965 9.96125H15.0803ZM14.3578 8.46446C14.7707 8.46446 15.0803 8.77414 15.0803 9.18705H13.6352C13.6868 8.82576 13.9448 8.46446 14.3578 8.46446Z" fill="#0B9632"/>
<path d="M19.4674 9.96127C19.3642 10.271 19.1577 10.4258 18.7964 10.4258C18.5384 10.4258 18.3319 10.3742 18.2287 10.2193C18.0738 10.0645 18.0222 9.85805 18.0222 9.59998H19.9835C19.9835 9.13547 19.8803 8.67095 19.5706 8.41289C19.3642 8.20644 19.1061 8.10321 18.7448 8.10321C18.0222 8.10321 17.5061 8.67095 17.5061 9.49676C17.5577 10.3742 18.0222 10.8903 18.7964 10.8903C19.4158 10.8903 19.7771 10.5806 19.9319 10.0129H19.4674V9.96127ZM18.7448 8.4645C19.1577 8.4645 19.4674 8.77418 19.4674 9.18708H18.0222C18.0738 8.82579 18.2803 8.4645 18.7448 8.4645Z" fill="#0B9632"/>
<path d="M10.4865 10.7871V9.59998C10.4865 8.8774 10.7962 8.56773 11.4155 8.56773V8.10321C10.951 8.10321 10.6929 8.25805 10.4865 8.67095V8.15482H10.022V10.7871H10.4865Z" fill="#0B9632"/>
<path d="M16.5258 10.7871V9.59998C16.5258 8.8774 16.8355 8.56773 17.4548 8.56773V8.10321C16.9903 8.10321 16.7323 8.25805 16.5258 8.67095V8.15482H16.0613V10.7871H16.5258Z" fill="#0B9632"/>
<path d="M12.9125 10.3742H12.6028C12.3964 10.3742 12.2931 10.2193 12.2931 10.0129V8.56771H12.9641V8.15481H12.2931V7.38062H11.8286V10.0645C11.8286 10.6322 12.0867 10.8903 12.6028 10.8903H12.9125V10.3742Z" fill="#0B9632"/>
<path d="M27.2613 11.7677C26.9516 11.9742 26.6419 12.0774 26.3322 12.0774C25.558 12.0774 24.8871 11.458 24.8354 10.6322L26.3838 9.70319L28.758 10.7871L27.2613 11.7677Z" fill="#A0D1EA"/>
<path d="M28.1901 7.84507L27.0546 7.32894C26.5385 7.12249 26.074 6.91604 26.074 6.3483C26.074 6.03862 26.1772 5.88378 26.2804 5.72894L28.7062 6.81281L28.0869 7.1741C27.932 7.27733 27.8288 7.38056 27.8288 7.48378C27.8288 7.63862 27.9837 7.74184 28.1901 7.84507Z" fill="#A2CE9F"/>
<path d="M26.2805 5.78052L28.7063 6.8644L28.087 7.2257C27.9321 7.32892 27.8289 7.43215 27.8289 7.53538" fill="#8AB586"/>
<path d="M29.274 2.58064L28.1385 3.30323C28.0353 3.35484 27.8804 3.45806 27.8804 3.6129C27.8804 3.76774 28.1385 3.92258 28.3966 4.02581L26.9514 3.40645C26.4869 3.2 26.074 2.99355 26.074 2.47742C26.074 2.27097 26.1256 2.06452 26.2288 1.90968L29.3772 0C29.7385 0.206452 30.0998 0.670967 30.0998 1.23871C30.1514 1.85806 29.8417 2.27097 29.274 2.58064Z" fill="#A0D1EA"/>
<path d="M28.1385 3.30323C28.0353 3.35484 27.8804 3.45806 27.8804 3.6129C27.8804 3.76774 28.1385 3.92258 28.3966 4.02581L26.9514 3.40645C26.4869 3.2 26.074 2.99355 26.074 2.47742C26.074 2.27097 26.1256 2.06452 26.2288 1.90968L29.3772 0" fill="#63A4D6"/>
<path d="M31.8031 4.85146L31.4934 5.05791L29.0676 3.97404L31.8547 2.27081C32.216 2.47726 32.6289 2.94178 32.6289 3.50952C32.6289 4.12888 32.3192 4.54178 31.8031 4.85146Z" fill="#A2CE9F"/>
<path d="M31.8028 4.85152C32.3705 4.54184 32.6802 4.12894 32.6802 3.50958L29.1189 3.9741L31.5447 5.05797L31.8028 4.85152Z" fill="#8AB586"/>
<path d="M29.7384 6.91602L31.1836 7.53537C31.6997 7.79344 31.9061 8.0515 31.9061 8.41279C31.9061 8.61924 31.8029 8.82569 31.6481 8.98053L29.1707 7.89666L29.5836 7.69021C29.9448 7.48376 30.0481 7.38053 30.0481 7.27731C30.0481 7.12247 29.9965 7.01924 29.7384 6.91602Z" fill="#A0D1EA"/>
<path d="M32.2677 12.1806C31.6483 11.7161 31.029 11.4064 30.2032 11.0451L26.5903 9.44512C25.6612 9.03221 25.0935 8.51608 25.0935 7.58705C25.0935 6.70963 25.5064 6.24512 26.0742 5.93544L26.2806 5.83221C26.1258 5.98705 26.0742 6.14189 26.0742 6.45157C26.0742 7.01931 26.5387 7.22576 27.0548 7.43221L31.2871 9.29028C32.0096 9.59996 32.6806 10.1677 32.6806 11.0967C32.6806 11.5096 32.4742 11.9741 32.2677 12.1806Z" fill="#1EAA4B"/>
<path d="M31.8547 8.77402L31.5966 8.92886C31.7514 8.77402 31.8547 8.56757 31.8547 8.36112C31.8547 7.99982 31.6998 7.74176 31.1321 7.4837L26.6418 5.57401C25.7128 5.16111 25.145 4.64498 25.145 3.71594C25.145 2.89013 25.5579 2.32239 26.2289 1.90948C26.1257 2.06432 26.074 2.27078 26.074 2.47723C26.074 2.99336 26.4869 3.19981 26.9515 3.40626L31.3385 5.36756C32.1643 5.72885 32.7837 6.24498 32.7837 7.22563C32.7837 7.94821 32.4224 8.46434 31.8547 8.77402Z" fill="#0068A8"/>
<path d="M32.0095 6.76113L27.1579 4.59339C25.5579 3.66435 25.5579 3.61274 25.5579 2.6321C25.5579 2.58048 25.5579 2.58048 25.5579 2.52887C25.2999 2.83855 25.145 3.25145 25.145 3.71597C25.145 4.645 25.7128 5.16113 26.6418 5.57403L31.1837 7.58693C31.6998 7.845 31.9063 8.10306 31.9063 8.46435C31.9063 8.67081 31.8031 8.87726 31.6482 9.0321L31.9063 8.87726C32.3708 8.56758 32.7321 8.15468 32.7837 7.58693C32.7321 7.22564 32.5256 6.96758 32.0095 6.76113Z" fill="#004F96"/>
<path d="M31.5451 8.92892C31.7515 8.8257 31.8548 8.61924 31.8548 8.41279C31.8548 8.0515 31.6999 7.79344 31.1322 7.53537L29.687 6.91602C29.7902 6.96763 29.8419 6.96763 29.8935 7.01924C30.7709 7.38053 31.3902 8.10311 31.5451 8.92892Z" fill="#63A4D6"/>
<path d="M26.8999 11.1998C26.1257 11.1998 25.4031 10.9934 24.887 10.7353C24.9386 11.4579 25.6095 12.0772 26.3837 12.0772C26.6934 12.0772 27.0031 11.974 27.3128 11.7675L28.8095 10.7869C28.2418 11.045 27.6224 11.1998 26.8999 11.1998Z" fill="#63A4D6"/>
<path d="M32.6806 10.9935C32.2677 10.7871 31.8548 10.5806 31.3903 10.3226L27.3645 8.56774C26.8483 8.25806 26.4871 8.05161 26.229 7.89677C25.7129 7.63871 25.4032 7.2258 25.4032 6.8129C25.4032 6.65806 25.4548 6.50323 25.558 6.34839C25.2483 6.65807 25.0935 7.01935 25.0935 7.63871C25.0935 8.56774 25.7129 9.08386 26.5903 9.49676L30.2548 11.0968C31.029 11.458 31.7 11.7677 32.3193 12.2322C32.4742 11.9742 32.6806 11.5097 32.6806 10.9935Z" fill="#0B9632"/>
</svg>
