<svg width="20" height="24" viewBox="0 0 20 24" fill="none" xmlns="http://www.w3.org/2000/svg">
<path d="M6.92048 11.1668C7.30937 11.9446 7.77603 12.6057 8.39825 13.2279L10.2649 11.3613C9.87601 10.9724 9.52601 10.5057 9.29268 10.0002C9.05935 9.49461 8.86491 8.95017 8.82602 8.40574C8.74824 7.8613 8.78713 7.27797 8.90379 6.73353C9.02046 6.1891 9.2149 5.64466 9.52601 5.178C9.79823 4.71133 10.1871 4.24467 10.6538 3.89468C11.1204 3.50579 11.6649 3.19469 12.2871 3.00024C12.8704 2.8058 13.5315 2.68914 14.1537 2.72802C14.7371 2.68914 15.3593 2.84469 15.9426 3.07802C16.5259 3.31135 17.0704 3.70023 17.537 4.12801L19.4037 2.26136C18.7037 1.56137 17.887 1.01693 16.9926 0.628048C16.0982 0.239164 15.1259 0.00583327 14.1537 0.00583327C13.1815 -0.0330552 12.2093 0.122499 11.276 0.472495C10.3427 0.822491 9.52601 1.32804 8.82602 1.91137C8.12603 2.4558 7.58159 3.1558 7.15381 3.85579C6.72604 4.59467 6.41493 5.41133 6.25938 6.22798C6.10383 7.04464 6.06494 7.90019 6.1816 8.75573C6.29827 9.61128 6.5316 10.4279 6.92048 11.1668Z" fill="#231F20"/>
<path d="M7.07604 17.5056C8.04825 17.5445 9.02046 17.389 9.95378 17.039C10.6927 16.7667 11.3927 16.4168 12.0149 15.9501C12.6371 15.4834 13.1815 14.939 13.6482 14.3168C14.1148 13.6946 14.4648 12.9946 14.7371 12.2557C15.0482 11.3613 15.2037 10.389 15.1648 9.41683C15.1259 8.44462 14.8926 7.5113 14.5037 6.65576C14.1148 5.80021 13.5704 4.98355 12.9093 4.32245L10.9649 6.18909C11.3538 6.57798 11.6649 7.04464 11.8982 7.55019C12.1315 8.05574 12.2871 8.56129 12.3649 9.10573C12.4426 9.65017 12.4426 10.1946 12.326 10.739C12.2093 11.2835 12.0149 11.789 11.7815 12.2557C11.5482 12.6835 11.276 13.0723 10.9649 13.3835C10.6538 13.6946 10.2649 13.9668 9.87601 14.2001C9.48712 14.4334 9.05935 14.589 8.63158 14.7057C8.04825 14.8612 7.46493 14.9001 6.8816 14.8223C6.29827 14.7834 5.71495 14.6279 5.17051 14.3557C4.62607 14.1223 4.12052 13.7723 3.73164 13.3446L1.86499 15.2112C2.56498 15.9112 3.38164 16.4556 4.27607 16.8445C5.13162 17.2723 6.10383 17.4667 7.07604 17.5056Z" fill="#007A4E"/>
<path d="M3.03172 22.0166H2.56506C2.60394 21.8611 2.60394 21.7055 2.44839 21.55C2.25395 21.3944 2.05951 21.3944 1.86506 21.4333C1.7484 21.4333 1.63173 21.4722 1.55396 21.5111C1.51507 21.5111 1.47618 21.55 1.47618 21.55C1.43729 21.55 1.43729 21.5889 1.3984 21.5889C1.24285 21.7444 1.24285 21.8611 1.35952 21.9777C1.3984 22.0166 1.43729 22.0555 1.47618 22.0555L2.37061 22.2888C2.48728 22.3277 2.64283 22.4055 2.7595 22.5222C2.79839 22.5611 2.83727 22.6388 2.87616 22.6777C2.91505 22.8333 2.91505 23.0277 2.83727 23.1444C2.79839 23.2611 2.68172 23.4555 2.52617 23.5722C2.48728 23.611 2.44839 23.6499 2.37061 23.6888C2.29284 23.7277 2.21506 23.7666 2.13728 23.8055C1.86506 23.9221 1.59285 23.961 1.35952 23.961C1.20396 23.961 1.00952 23.961 0.892855 23.9221C0.815078 23.9221 0.77619 23.8833 0.737301 23.8833C0.698413 23.8444 0.620636 23.8444 0.581748 23.8055C0.542859 23.7666 0.503971 23.7277 0.465082 23.6888C0.270641 23.4555 0.231752 23.1444 0.309529 22.9111H0.737301C0.737301 22.9499 0.737301 22.9888 0.737301 23.0277C0.737301 23.1833 0.737301 23.3388 0.853966 23.4555C0.931743 23.5333 0.970631 23.5333 1.04841 23.5722C1.0873 23.5722 1.12618 23.611 1.16507 23.611C1.28174 23.6499 1.43729 23.6499 1.55396 23.611C1.7484 23.5722 1.90395 23.5333 2.09839 23.3388C2.21506 23.1833 2.25395 23.0277 2.17617 22.9111C2.13728 22.8333 2.05951 22.8333 2.02062 22.7944L1.28174 22.6C1.12618 22.5611 0.970631 22.5222 0.815078 22.4055C0.776189 22.3666 0.737301 22.3277 0.737301 22.2888C0.698413 22.2111 0.659524 22.1333 0.659524 22.0555C0.620636 21.9 0.659524 21.7444 0.776189 21.5889C0.815078 21.5111 0.892855 21.4333 0.970631 21.3944C1.04841 21.3166 1.12619 21.2778 1.20396 21.2389C1.28174 21.2 1.35952 21.1611 1.47618 21.1222C1.59285 21.0833 1.70951 21.0833 1.82618 21.0444C2.05951 21.0055 2.33172 21.0444 2.56506 21.1222C2.64283 21.1611 2.72061 21.2 2.79839 21.2389C2.87616 21.2778 2.91505 21.3555 2.95394 21.4333C2.99283 21.5111 3.03172 21.5889 3.03172 21.6666C3.03172 21.7444 3.03172 21.9 3.03172 22.0166Z" fill="#00A051"/>
<path d="M5.98726 23.9611L5.79281 21.8611L4.4706 23.9611H4.00394L3.84839 21.1223H4.35394L4.4706 23.1445L5.75392 21.1223H6.22059L6.41503 23.1833L7.65946 21.1223H8.2039L6.45392 23.9611H5.98726Z" fill="#00A051"/>
<path d="M8.70923 23.9611H8.16479L8.94256 21.1223H9.44811L8.70923 23.9611Z" fill="#00A051"/>
<path d="M12.5204 21.5889H11.626L10.9649 23.9611H10.4204L11.0815 21.5889H10.1482L10.2649 21.1223H12.6371L12.5204 21.5889Z" fill="#00A051"/>
<path d="M15.8646 22.0167L15.3591 22.0945C15.3591 21.9389 15.3202 21.7445 15.1258 21.6278C15.0869 21.5889 15.048 21.5889 15.0091 21.5501C14.9702 21.5501 14.9313 21.5112 14.8924 21.5112C14.8535 21.5112 14.8147 21.4723 14.7369 21.4723C14.4258 21.4334 14.1535 21.4723 13.8813 21.6667C13.8035 21.7056 13.7258 21.7834 13.6869 21.8223C13.6091 21.9001 13.5702 21.9389 13.5313 22.0167C13.4147 22.1723 13.3369 22.3278 13.298 22.5223C13.2591 22.6778 13.2202 22.8334 13.2202 22.95C13.2202 23.0667 13.2591 23.1834 13.298 23.3C13.3369 23.3778 13.3758 23.4556 13.4924 23.5334C13.5313 23.5723 13.5702 23.5723 13.6091 23.6111C13.648 23.65 13.7258 23.65 13.7647 23.65C13.998 23.6889 14.2702 23.65 14.4647 23.5723C14.5813 23.5334 14.7369 23.4167 14.8535 23.3C14.9313 23.2223 14.9702 23.1834 15.048 23.1056C15.1258 23.0278 15.1646 22.95 15.2035 22.8723L15.7091 22.9111C15.6313 23.0278 15.5535 23.1445 15.4758 23.2611C15.398 23.3778 15.2813 23.4945 15.1646 23.5723C15.048 23.65 14.9313 23.7278 14.7758 23.8056C14.6202 23.8834 14.4647 23.9222 14.3091 23.9611C14.1535 24 13.9591 24 13.8035 24C13.648 24 13.4535 23.9611 13.3369 23.9222C13.2202 23.8834 13.1424 23.8445 13.1036 23.8056C13.0647 23.7667 12.9869 23.7278 12.948 23.6889C12.9091 23.65 12.8702 23.5723 12.8313 23.5334C12.7924 23.4556 12.7536 23.3778 12.7147 23.3C12.6758 23.1445 12.6369 22.95 12.6758 22.7945C12.7147 22.4056 12.8702 22.0167 13.1813 21.6278C13.2591 21.5501 13.298 21.5112 13.3758 21.4334C13.4535 21.3556 13.5313 21.3167 13.6091 21.2778C13.8813 21.1223 14.1535 21.0445 14.4258 21.0056C14.6202 21.0056 14.8147 21.0056 14.9702 21.0056C15.048 21.0056 15.1258 21.0445 15.1646 21.0445C15.2424 21.0834 15.2813 21.0834 15.3591 21.1223C15.4758 21.2001 15.5924 21.2778 15.7091 21.4334C15.748 21.5112 15.7869 21.5889 15.8258 21.6667C15.8646 21.8612 15.8646 21.9389 15.8646 22.0167Z" fill="#00A051"/>
<path d="M18.8202 24H18.3146L18.6646 22.7167H17.0702L16.7202 24H16.1758L16.9536 21.1223H17.498L17.1869 22.2889H18.7813L19.0924 21.1223H19.598L18.8202 24Z" fill="#00A051"/>
<path d="M13.4535 11.4001C13.1035 9.37795 12.2091 7.58908 11.0035 6.15021L10.9646 6.1891C11.3535 6.57798 11.6646 7.04464 11.898 7.55019C12.1313 8.05574 12.2868 8.56129 12.3646 9.10573C12.4424 9.65017 12.4424 10.1946 12.3257 10.739C12.2091 11.2835 12.0146 11.789 11.7813 12.2557C11.548 12.6835 11.2757 13.0723 10.9646 13.3835C10.6535 13.6946 10.2646 13.9668 9.87576 14.2001C9.48688 14.4334 9.05911 14.589 8.63134 14.7057C8.04801 14.8612 7.46468 14.9001 6.88136 14.8223C6.29803 14.7834 5.7147 14.6279 5.17026 14.3557C4.62583 14.1223 4.12028 13.7723 3.73139 13.3446L1.86475 15.2112C2.56474 15.9112 3.3814 16.4556 4.27583 16.8445C5.17026 17.2334 6.14247 17.4278 7.11469 17.4667C8.0869 17.5056 9.05911 17.3501 9.99243 17.0001C10.7313 16.7279 11.4313 16.3779 12.0535 15.9112C12.6757 15.4445 13.2202 14.9001 13.6479 14.2779C13.6479 13.3835 13.6091 12.4112 13.4535 11.4001Z" fill="#00A051"/>
<path d="M10.9649 6.18909C11.3538 6.57797 11.6649 7.04463 11.8982 7.55018C12.1315 8.05573 12.2871 8.56128 12.3649 9.10572C12.4426 9.65016 12.4426 10.1946 12.326 10.739C12.2093 11.2835 12.0149 11.789 11.7815 12.2557C11.5482 12.6835 11.276 13.0723 10.9649 13.3834C10.6538 13.6946 10.2649 13.9668 9.87601 14.2001C9.48712 14.4334 9.05935 14.589 8.63158 14.7056C8.04825 14.8612 7.46493 14.9001 6.8816 14.8223C6.29827 14.7834 5.71495 14.6279 5.17051 14.3557C4.62607 14.1223 4.12052 13.7723 3.73164 13.3446L1.86499 15.2112C2.56498 15.9112 3.38164 16.4556 4.27607 16.8445C5.01495 17.1556 5.83161 17.3501 6.64827 17.4278C10.1093 16.4556 12.5982 13.6557 12.5982 10.3113C12.5982 9.14461 12.2871 8.05573 11.7815 7.08352C11.5093 6.8113 11.2371 6.46131 10.9649 6.18909Z" fill="#06BA5B"/>
<path d="M7.77603 6.34469C8.5538 3.38917 10.4982 1.13364 12.7927 0.0836487C12.2871 0.161426 11.7816 0.278091 11.276 0.472533C10.3427 0.822529 9.52602 1.32808 8.82602 1.91141C8.12603 2.45584 7.58159 3.15584 7.15382 3.85583C6.72604 4.59471 6.41494 5.41136 6.25938 6.22802C6.10383 7.04468 6.06494 7.90022 6.1816 8.75577C6.29827 9.61132 6.5316 10.428 6.92049 11.1669C7.27048 11.9057 7.73715 12.5668 8.32047 13.1502C7.38715 11.2057 7.11493 8.79466 7.77603 6.34469Z" fill="#605E5F"/>
</svg>
