<svg width="33" height="14" viewBox="0 0 33 14" fill="none" xmlns="http://www.w3.org/2000/svg">
<path d="M13.3258 8.51616H13.4806C13.6354 8.51616 13.7387 8.46454 13.7903 8.36132L14.2548 7.69035H15.4419L15.1838 8.10325H16.629L16.4226 8.77422H14.7193C14.5129 9.0839 14.3064 9.18713 13.9967 9.18713H13.1193L13.3258 8.51616ZM13.1193 9.44519H16.2161L16.0097 10.1678H14.7709L14.5645 10.8904H15.8032L15.5967 11.6129H14.358L14.0484 12.6452C13.9967 12.8001 14.0484 12.9033 14.3064 12.8517H15.2871L15.0806 13.5226H13.1709C12.8096 13.5226 12.7064 13.3162 12.8096 12.9033L13.1709 11.5613H12.3967L12.6032 10.8388H13.3774L13.5838 10.1162H12.8612L13.1193 9.44519ZM18.1258 7.69035L18.0742 8.10325C18.0742 8.10325 18.6419 7.63873 19.2097 7.63873H21.171L20.3968 10.4258C20.3452 10.7355 20.0871 10.8904 19.571 10.8904H17.3516L16.8355 12.8001C16.7838 12.9033 16.8355 12.9549 16.9387 12.9549H17.4032L17.2484 13.5226H16.1129C15.7 13.5226 15.4935 13.4194 15.5967 13.1097L17.0935 7.63873H18.1258V7.69035ZM19.7774 8.46455H18.0226L17.8161 9.18713C17.8161 9.18713 18.1258 8.98068 18.5903 8.98068C19.0548 8.98068 19.6226 8.98068 19.6226 8.98068L19.7774 8.46455ZM19.1581 10.1678C19.3129 10.1678 19.3645 10.1162 19.3645 10.0129L19.4677 9.60003H17.7129L17.558 10.1678H19.1581ZM17.971 11.0452H19.0032V11.5097H19.2613C19.4161 11.5097 19.4677 11.4581 19.4677 11.3549L19.571 11.0452H20.3968L20.2935 11.4581C20.1903 11.8194 19.9323 11.9742 19.5193 12.0259H18.9516V12.8001C18.9516 12.9033 19.0548 13.0065 19.2613 13.0065H19.7774L19.6226 13.6259H18.3839C18.0226 13.6259 17.8677 13.471 17.8677 13.1097L17.971 11.0452Z" fill="#009DA5"/>
<path d="M14.5126 9.03233C14.5643 8.98072 14.6675 8.87749 14.7191 8.82588H16.4223L16.6288 8.15491H15.1836L15.4417 7.742H14.2546L13.7901 8.36136C13.7384 8.46459 13.6352 8.5162 13.4804 8.5162H13.3255L13.2739 8.67104C13.6868 8.77427 14.0997 8.92911 14.5126 9.03233Z" fill="#02CCCC"/>
<path d="M18.0741 8.1034L18.1257 7.69049H17.0934L16.6289 9.34211C16.887 9.34211 17.1967 9.39372 17.4547 9.39372C18.6418 9.39372 19.7257 9.23888 20.8096 8.9292L21.1709 7.69049H19.2096C18.6418 7.69049 18.0741 8.1034 18.0741 8.1034ZM19.6225 8.98082C19.6225 8.98082 19.0547 8.98082 18.5902 8.98082C18.0741 8.98082 17.816 9.18727 17.816 9.18727L18.0225 8.46469H19.7773L19.6225 8.98082Z" fill="#02CCCC"/>
<path d="M22.2545 8.51616L22.5126 7.69035H23.6997L23.6481 8.00003C23.6481 8.00003 24.2675 7.69035 24.6804 7.69035C25.0933 7.69035 26.1771 7.69035 26.1771 7.69035L25.9191 8.51616H25.7126L24.5771 12.4388H24.7836L24.5771 13.213H24.3191L24.2158 13.5742H23.0804L23.1836 13.213H20.9126L21.1191 12.4388H21.3255L22.461 8.51616H22.2545ZM23.5449 8.51616L23.2352 9.60003C23.2352 9.60003 23.7513 9.39358 24.2158 9.34197C24.3191 8.98067 24.4223 8.51616 24.4223 8.51616H23.5449ZM23.132 10.1162L22.8223 11.2517C22.8223 11.2517 23.39 10.9936 23.8029 10.942C23.9062 10.5291 24.0094 10.1162 24.0094 10.1162H23.132ZM23.3384 12.4388L23.5449 11.6129H22.6674L22.461 12.4388H23.3384ZM26.2288 7.63873H27.3642L27.4159 8.05164C27.4159 8.15486 27.4675 8.20648 27.6223 8.20648H27.8288L27.6223 8.92906H26.7965C26.4868 8.92906 26.332 8.82584 26.2804 8.56777L26.2288 7.63873ZM25.9191 9.18713H29.532L29.3255 9.90971H28.1901L27.9836 10.6323H29.1191L28.9126 11.4065H27.6223L27.3126 11.871H27.932L28.0868 12.7484C28.0868 12.8517 28.1901 12.9033 28.2933 12.9033H28.4997L28.2933 13.6259H27.6223C27.261 13.6259 27.0546 13.5226 27.0546 13.2646L26.8997 12.4388L26.332 13.3162C26.1771 13.5742 25.9707 13.6775 25.7126 13.6775H24.6287L24.8352 12.9549H25.1449C25.2997 12.9549 25.4029 12.9033 25.5062 12.7484L26.3836 11.4581H25.2481L25.4546 10.6839H26.6933L26.8997 9.96133H25.661L25.9191 9.18713Z" fill="#009DA5"/>
<path d="M23.6997 7.742H22.5126L22.3062 8.41298C22.7707 8.20652 23.2352 8.00007 23.6997 7.742Z" fill="#02CCCC"/>
<path d="M5.58372 4.02583C5.42888 4.6968 5.1192 5.21293 4.65468 5.57422C4.13855 5.93551 3.51919 6.14197 2.74499 6.14197C2.02241 6.14197 1.45466 5.93551 1.14498 5.57422C0.886918 5.31616 0.783691 4.95486 0.783691 4.54196C0.783691 4.38712 0.783691 4.18067 0.835305 3.97421L1.66112 0H2.89983L2.07402 3.9226C2.07402 4.02583 2.02241 4.12905 2.02241 4.23228C2.02241 4.43873 2.07402 4.59357 2.17725 4.74841C2.33209 4.95486 2.59015 5.05809 2.89983 5.05809C3.26112 5.05809 3.62242 4.95486 3.82887 4.80002C4.08693 4.59357 4.24177 4.33551 4.29339 3.97421L5.1192 0.0516134H6.46114L5.58372 4.02583Z" fill="#FF7F29"/>
<path d="M5.58372 4.02583C5.42888 4.6968 5.1192 5.21293 4.65468 5.57422C4.13855 5.93551 3.51919 6.14197 2.74499 6.14197C2.02241 6.14197 1.45466 5.93551 1.14498 5.57422C0.886918 5.31616 0.783691 4.95486 0.783691 4.54196C0.783691 4.38712 0.783691 4.18067 0.835305 3.97421L2.64177 0H2.89983L2.07402 3.9226C2.07402 4.02583 2.02241 4.12905 2.02241 4.23228C2.02241 4.43873 2.07402 4.59357 2.17725 4.74841C2.33209 4.95486 2.59015 5.05809 2.89983 5.05809C3.26112 5.05809 3.62242 4.95486 3.82887 4.80002C4.08693 4.59357 4.24177 4.33551 4.29339 3.97421L6.09985 0.0516134H6.46114L5.58372 4.02583Z" fill="#EA2227"/>
<path d="M6.77102 2.47737H7.64845L7.54522 2.9935L7.64845 2.83866C7.95812 2.52898 8.2678 2.37415 8.68071 2.37415C9.042 2.37415 9.30006 2.47737 9.50652 2.68382C9.66136 2.89028 9.71297 3.19996 9.66136 3.56125L9.19684 5.98707H8.2678L8.68071 3.7677C8.73232 3.56125 8.73232 3.35479 8.62909 3.25157C8.57748 3.14834 8.42264 3.09673 8.21619 3.09673C7.95812 3.09673 7.80328 3.14834 7.64845 3.30318C7.49361 3.45802 7.39038 3.66447 7.33877 3.92254L6.92586 5.98707H5.99683L6.77102 2.47737Z" fill="#EA2227"/>
<path d="M16.8871 2.47737H17.7645L17.6613 2.9935L17.7645 2.83866C18.0742 2.52898 18.3839 2.37415 18.7968 2.37415C19.1581 2.37415 19.4162 2.47737 19.6226 2.68382C19.7774 2.89028 19.8291 3.19996 19.7774 3.56125L19.3129 5.98707H18.3839L18.8484 3.7677C18.9 3.56125 18.9 3.35479 18.7968 3.25157C18.7452 3.14834 18.5904 3.09673 18.3839 3.09673C18.1258 3.09673 17.971 3.14834 17.8162 3.30318C17.6613 3.45802 17.5581 3.66447 17.5065 3.92254L17.0936 5.98707H16.1646L16.8871 2.47737Z" fill="#A5002F"/>
<path d="M10.8484 2.47734H11.8291L11.0549 6.03865H10.0742L10.8484 2.47734ZM11.1581 1.18701H12.1387L11.9323 2.06444H10.9516L11.1581 1.18701Z" fill="#EA2227"/>
<path d="M12.7063 5.78061C12.4482 5.52255 12.345 5.21287 12.345 4.79996C12.345 4.74835 12.345 4.64512 12.345 4.5419C12.345 4.43867 12.345 4.38706 12.3966 4.28383C12.4998 3.71609 12.7579 3.25157 13.1192 2.89028C13.4805 2.52899 13.945 2.37415 14.5127 2.37415C14.9772 2.37415 15.2869 2.47737 15.545 2.73544C15.8031 2.9935 15.9063 3.30318 15.9063 3.7677C15.9063 3.81931 15.9063 3.92254 15.9063 4.02577C15.9063 4.12899 15.9063 4.18061 15.8547 4.28383C15.7514 4.85158 15.4934 5.3161 15.1321 5.62577C14.7708 5.93545 14.3063 6.14191 13.7385 6.14191C13.3256 6.14191 12.9643 5.98707 12.7063 5.78061ZM14.5643 5.05803C14.7192 4.85158 14.874 4.59351 14.9256 4.23222C14.9256 4.18061 14.9256 4.12899 14.9772 4.02577C14.9772 3.97415 14.9772 3.92254 14.9772 3.87093C14.9772 3.66447 14.9256 3.45802 14.8224 3.3548C14.7192 3.25157 14.5643 3.14834 14.3579 3.14834C14.0998 3.14834 13.8418 3.25157 13.6869 3.45802C13.5321 3.66447 13.3772 3.92254 13.3256 4.33545C13.3256 4.38706 13.3256 4.43867 13.274 4.49029C13.274 4.5419 13.274 4.59351 13.274 4.64512C13.274 4.85158 13.3256 5.05803 13.4288 5.16126C13.5321 5.26448 13.6869 5.3161 13.8934 5.3161C14.203 5.3161 14.4095 5.26448 14.5643 5.05803Z" fill="#EA2227"/>
<path d="M21.2742 0.258057H23.8548C24.371 0.258057 24.7322 0.361283 24.9903 0.567736C25.2484 0.774189 25.4032 1.08387 25.4032 1.54839C25.4032 1.65161 25.4032 1.70323 25.4032 1.80645C25.4032 1.90968 25.3516 2.0129 25.3516 2.11613C25.2484 2.68388 24.9903 3.09678 24.5774 3.45807C24.1645 3.76775 23.7 3.97421 23.1322 3.97421H21.7387L21.3258 6.03873H20.1387L21.2742 0.258057ZM21.8935 2.94194H23.029C23.3387 2.94194 23.5451 2.89033 23.7516 2.73549C23.9064 2.58065 24.0097 2.3742 24.1129 2.11613C24.1129 2.06452 24.1129 2.0129 24.1129 1.96129C24.1129 1.90968 24.1129 1.85807 24.1129 1.85807C24.1129 1.65161 24.0613 1.49677 23.9064 1.39355C23.7516 1.29032 23.5451 1.23871 23.2355 1.23871H22.2548L21.8935 2.94194Z" fill="#1398E2"/>
<path d="M22.2547 0.258057H23.8031C24.3192 0.258057 24.6805 0.361283 24.9386 0.567736C25.1966 0.774189 25.3515 1.08387 25.3515 1.54839C25.3515 1.65161 25.3515 1.70323 25.3515 1.80645C25.3515 1.90968 25.2998 2.0129 25.2998 2.11613C25.1966 2.68388 24.9386 3.09678 24.5256 3.45807C24.1127 3.76775 23.6482 3.97421 23.0805 3.97421H21.6869L21.274 6.03873H20.0869L22.2547 0.258057ZM21.8934 2.94194H23.0289C23.3385 2.94194 23.545 2.89033 23.7515 2.73549C23.9063 2.58065 24.0095 2.3742 24.1127 2.11613C24.1127 2.06452 24.1127 2.0129 24.1127 1.96129C24.1127 1.90968 24.1127 1.85807 24.1127 1.85807C24.1127 1.65161 24.0611 1.49677 23.9063 1.39355C23.7514 1.29032 23.545 1.23871 23.2353 1.23871H22.2547L21.8934 2.94194Z" fill="#0872B9"/>
<path d="M30.6676 6.70968C30.3063 7.53549 29.945 8.00001 29.7385 8.20646C29.5321 8.41291 29.1192 8.92904 28.0869 8.87743L28.1901 8.25807C29.0159 8.00001 29.4805 6.81291 29.7385 6.29678L29.4289 2.47742H30.0998H30.6676L30.7192 4.90323L31.7514 2.47742H32.7837L30.6676 6.70968Z" fill="#055093"/>
<path d="M27.7774 2.73546L27.3645 3.04514C26.9516 2.68385 26.5387 2.4774 25.7645 2.83869C24.7322 3.30321 23.8548 7.01937 26.6935 5.78065L26.8484 5.9871L27.9839 6.03872L28.7064 2.68385L27.7774 2.73546ZM27.1064 4.59354C26.9 5.10968 26.5387 5.47097 26.229 5.36774C25.9193 5.26452 25.8161 4.74838 25.971 4.23225C26.1774 3.71612 26.5387 3.35482 26.8484 3.45805C27.2097 3.56128 27.3129 4.07741 27.1064 4.59354Z" fill="#0872B9"/>
<path d="M25.9192 6.03872C26.1256 5.9871 26.3837 5.93549 26.6934 5.83226L26.8482 6.03872L27.9837 6.09033L28.7063 2.73547H28.4482C27.9321 4.0258 27.0031 5.16129 25.9192 6.03872Z" fill="#055093"/>
<path d="M15.5451 2.73544C15.2871 2.47737 14.9258 2.37415 14.5129 2.37415C14.4096 2.37415 14.358 2.37415 14.2548 2.37415C14.1516 2.68382 13.9967 2.9935 13.8419 3.30318C13.9967 3.19996 14.1516 3.14834 14.358 3.14834C14.5645 3.14834 14.7193 3.19996 14.8225 3.3548C14.9258 3.45802 14.9774 3.66447 14.9774 3.87093C14.9774 3.92254 14.9774 3.97415 14.9774 4.02577C14.9774 4.07738 14.9774 4.12899 14.9258 4.23222C14.8742 4.59351 14.7193 4.90319 14.5645 5.05803C14.4096 5.26448 14.1516 5.3161 13.8935 5.3161C13.6871 5.3161 13.5322 5.26448 13.429 5.16126C13.3258 5.05803 13.2742 4.85158 13.2742 4.64512C13.2742 4.59351 13.2742 4.5419 13.2742 4.49029C13.2742 4.43867 13.2742 4.38706 13.3258 4.33545C13.3258 4.23222 13.3774 4.18061 13.3774 4.12899C13.1193 4.5419 12.758 4.9548 12.3967 5.3161C12.4483 5.52255 12.5516 5.67739 12.7064 5.83223C12.9645 6.09029 13.3258 6.19352 13.7387 6.19352C14.2548 6.19352 14.7193 6.03868 15.1322 5.67739C15.4935 5.36771 15.7516 4.90319 15.8548 4.33545C15.8548 4.23222 15.9064 4.18061 15.9064 4.07738C15.9064 3.97415 15.9064 3.92254 15.9064 3.81931C15.9064 3.30318 15.8032 2.9935 15.5451 2.73544Z" fill="#A5002F"/>
</svg>
