<svg width="29" height="11" viewBox="0 0 29 11" fill="none" xmlns="http://www.w3.org/2000/svg">
<path d="M10.6921 10.4774H6.0857L3.8728 0H7.53085L8.47923 6.45802L9.47278 0H13.6728L14.6663 6.63867L15.6598 0H19.2727L17.0598 10.4774H12.5437L11.5953 3.7032" fill="#FFDD12"/>
<path d="M10.6921 10.4774H6.0857L3.8728 0H7.53085L8.47923 6.45802L9.47278 0H13.6728L14.6663 6.63867L15.6598 0H19.2727L17.0598 10.4774H12.5437L11.5953 3.7032" fill="#FFDD12"/>
<path d="M8.75004 9.66436C9.15649 10.0256 9.69842 10.2966 10.3307 10.4773H10.692L11.6403 3.70309L12.5887 10.4773H17.1048L19.3177 0.0450439H15.7048L14.7113 6.63856L13.7629 0.0450439H11.2339H9.56294L8.61456 6.50308L7.66618 0.0450439V6.41276C7.53069 7.85791 7.93714 8.94178 8.75004 9.66436Z" fill="#FFC715"/>
<path d="M3.33087 10.4322H2.69862L0.530884 0H1.16314" fill="#FFF315"/>
<path d="M5.00165 10.4322H4.41455L2.20166 0H2.83392" fill="#FFDD12"/>
<path d="M22.2533 0V6.54837C22.2533 6.95482 22.1629 7.31611 21.9823 7.54191C21.8017 7.76772 21.5759 7.9032 21.3049 7.9032C20.9888 7.9032 20.763 7.76772 20.5823 7.54191C20.4017 7.31611 20.3565 6.95482 20.3565 6.50321V0H19.5888L17.5565 9.66449C17.9178 9.98062 18.3694 10.2516 18.9114 10.3871C19.5436 10.6129 20.3565 10.7032 21.35 10.7032C23.021 10.7032 24.2855 10.3419 25.0984 9.66449C25.9113 8.94191 26.3178 7.85804 26.3178 6.36772V0" fill="black"/>
<path d="M16.3823 0V6.3677C16.3823 7.1806 16.4726 7.81285 16.6081 8.26446C16.7436 8.67091 16.9694 9.07736 17.2855 9.39349L19.2726 0" fill="#FFA515"/>
<path d="M27.0857 0.857977H27.2663L27.3115 0.9483L27.4018 0.993461L27.4921 0.9483L27.5373 0.903139L27.4921 0.857977L27.4018 0.812817C27.3115 0.812817 27.2663 0.767656 27.2212 0.722494L27.176 0.587012L27.2212 0.496689L27.3115 0.406366C27.3567 0.406366 27.4018 0.361206 27.4921 0.361206C27.5825 0.361206 27.6276 0.361205 27.6728 0.406366C27.7179 0.451528 27.7631 0.496689 27.7631 0.587012H27.5825L27.5373 0.496689H27.447H27.4018V0.54185V0.587012L27.4921 0.632172C27.5825 0.632172 27.6276 0.677333 27.6728 0.677333L27.7631 0.767656L27.8083 0.857977L27.6276 0.9483L27.5373 1.03862L27.3567 1.08378C27.2212 1.08378 27.176 1.03862 27.1309 0.993461C27.0857 0.9483 27.0857 0.903138 27.0857 0.857977Z" fill="black"/>
<path d="M27.7632 0.361206H28.0342L28.1696 0.812817L28.26 0.361206H28.5309V1.08378H28.3503V0.54185L28.2148 1.08378H28.0793L27.9438 0.54185V1.08378H27.7632" fill="black"/>
<path d="M17.5565 9.66449C17.9178 9.98062 18.3694 10.2516 18.9114 10.3871C19.5436 10.6129 20.3565 10.7032 21.35 10.7032C21.4404 10.7032 21.4855 10.7032 21.5307 10.7032L23.7436 0H22.2533V6.54837C22.2533 6.95482 22.1629 7.31611 21.9823 7.54191C21.8017 7.76772 21.5759 7.9032 21.3049 7.9032C20.9888 7.9032 20.763 7.76772 20.5823 7.54191C20.4017 7.31611 20.3565 6.95482 20.3565 6.50321V0H20.1307H19.5888L17.5565 9.66449Z" fill="#44423E"/>
</svg>
