
<svg width="42" height="42" viewBox="0 0 42 42" fill="none" xmlns="http://www.w3.org/2000/svg">
<circle cx="21" cy="21" r="21" fill="#FDEFEF"/>
<path d="M32.9091 20.1818C30.6591 20.1818 30.2053 23.4545 29.2273 23.4545C28.2493 23.4545 28.8182 20.1818 27.7955 20.1818C26.5682 20.1818 25.1364 25.0909 21.8636 25.0909C20.6364 25.0909 20.6364 22.7067 20.6364 20.3864C20.6364 18.0661 21.4545 16.9091 22.4773 16.9091C23.5 16.9091 23.9091 17.7401 23.9091 18.5455C23.9091 21.8182 18.1818 25.0909 14.0909 25.0909C12.1413 25.0909 10.8182 21.0447 10.8182 18.5455C10.8182 14.4545 12.4545 12 14.9091 12C16.75 12 17.3636 13.9624 17.3636 15.4773C17.3636 23.0455 10.4091 26.9318 10.4091 26.9318M10 30H32.9091" stroke="#FF5151" stroke-width="1.4" stroke-linejoin="round"/>
</svg>