<svg width="42" height="42" viewBox="0 0 42 42" fill="none" xmlns="http://www.w3.org/2000/svg">
<circle cx="21" cy="21" r="21" fill="#E0F4FF"/>
<path d="M21 20V26M18 23H24M31 28C31 28.5304 30.7893 29.0391 30.4142 29.4142C30.0391 29.7893 29.5304 30 29 30H13C12.4696 30 11.9609 29.7893 11.5858 29.4142C11.2107 29.0391 11 28.5304 11 28V14C11 13.4696 11.2107 12.9609 11.5858 12.5858C11.9609 12.2107 12.4696 12 13 12H18L20 15H29C29.5304 15 30.0391 15.2107 30.4142 15.5858C30.7893 15.9609 31 16.4696 31 17V28Z" stroke="#00A3FA" stroke-width="1.2" stroke-linecap="round" stroke-linejoin="round"/>
</svg>
