<svg width="40" height="29" viewBox="0 0 40 29" fill="none" xmlns="http://www.w3.org/2000/svg">
<path d="M31.0112 17.3435C33.2151 17.3435 35.0017 15.5569 35.0017 13.353C35.0017 11.1492 33.2151 9.36255 31.0112 9.36255C28.8074 9.36255 27.0208 11.1492 27.0208 13.353C27.0208 15.5569 28.8074 17.3435 31.0112 17.3435Z" fill="white" stroke="#00A3FA" stroke-linecap="round" stroke-linejoin="round"/>
<path d="M23.0303 27.9849C23.0303 25.8682 23.8711 23.8382 25.3678 22.3415C26.8646 20.8448 28.8946 20.0039 31.0113 20.0039C33.1279 20.0039 35.1579 20.8448 36.6547 22.3415C38.1514 23.8382 38.9922 25.8682 38.9922 27.9849H23.0303Z" fill="white" stroke="#00A3FA" stroke-linecap="round" stroke-linejoin="round"/>
<path d="M8.98099 17.1373C11.228 17.1373 13.0496 15.3157 13.0496 13.0686C13.0496 10.8216 11.228 9 8.98099 9C6.73394 9 4.91235 10.8216 4.91235 13.0686C4.91235 15.3157 6.73394 17.1373 8.98099 17.1373Z" fill="white" stroke="#00A3FA" stroke-linecap="round" stroke-linejoin="round"/>
<path d="M0.84375 27.9869C0.84375 25.8287 1.70107 23.759 3.2271 22.233C4.75314 20.7069 6.82289 19.8496 8.98103 19.8496C11.1392 19.8496 13.2089 20.7069 14.7349 22.233C16.261 23.759 17.1183 25.8287 17.1183 27.9869H0.84375Z" fill="white" stroke="#00A3FA" stroke-linecap="round" stroke-linejoin="round"/>
<path d="M19.8674 12.5214C23.0489 12.5214 25.6281 9.94226 25.6281 6.76071C25.6281 3.57916 23.0489 1 19.8674 1C16.6858 1 14.1067 3.57916 14.1067 6.76071C14.1067 9.94226 16.6858 12.5214 19.8674 12.5214Z" fill="white" stroke="#CFDFE7" stroke-width="1.2" stroke-linecap="round" stroke-linejoin="round"/>
<path d="M8.34595 27.8832C8.34595 24.8276 9.55981 21.897 11.7205 19.7364C13.8812 17.5757 16.8117 16.3618 19.8674 16.3618C22.923 16.3618 25.8535 17.5757 28.0142 19.7364C30.1749 21.897 31.3888 24.8276 31.3888 27.8832H8.34595Z" fill="white" stroke="#CFDFE7" stroke-width="1.2" stroke-linecap="round" stroke-linejoin="round"/>
</svg>
