<svg width="135" height="22" viewBox="0 0 135 22" fill="none" xmlns="http://www.w3.org/2000/svg">
<path d="M85.3836 13.4269C85.3836 16.9268 83.7437 16.9268 82.9552 16.9268C82.1667 16.9268 80.5269 16.9268 80.5269 13.4269V3.5766H76.4217V14.0527C76.4217 18.0952 79.1125 20.924 82.9552 20.924C86.7979 20.924 89.4888 18.0952 89.4888 14.0527V3.5766H85.3836V13.4269Z" fill="#2D3C4A"/>
<path d="M125.635 3.1012C123.224 3.09928 120.911 4.05347 119.203 5.75452C117.495 7.45557 116.531 9.76462 116.523 12.1753C116.573 14.5579 117.555 16.8259 119.258 18.493C120.961 20.1602 123.25 21.0938 125.633 21.0938C128.016 21.0938 130.304 20.1602 132.007 18.493C133.71 16.8259 134.692 14.5579 134.743 12.1753C134.733 9.76601 133.769 7.45884 132.062 5.75837C130.355 4.05791 128.044 3.10254 125.635 3.1012ZM125.635 17.1318C124.328 17.1188 123.079 16.5882 122.162 15.6563C121.245 14.7244 120.735 13.4672 120.743 12.1599C120.73 11.5088 120.847 10.8615 121.087 10.2561C121.327 9.65069 121.685 9.09923 122.141 8.63404C122.596 8.16884 123.14 7.79927 123.741 7.54697C124.341 7.29467 124.986 7.16472 125.637 7.16472C126.288 7.16472 126.933 7.29467 127.533 7.54697C128.134 7.79927 128.678 8.16884 129.133 8.63404C129.589 9.09923 129.948 9.65069 130.187 10.2561C130.427 10.8615 130.544 11.5088 130.531 12.1599C130.539 13.4679 130.028 14.7257 129.111 15.6578C128.193 16.5898 126.943 17.1199 125.635 17.1318Z" fill="#2D3C4A"/>
<path d="M10.0865 0.760376L0.924881 20.7739H5.58083L7.3308 16.9188H12.8659L14.6158 20.7739H19.2718L10.0865 0.760376ZM8.37152 13.5146L10.0865 9.29611L11.8138 13.5166L8.37152 13.5146Z" fill="#2D3C4A"/>
<path d="M29.9198 3.66418H23.2288V20.5112H27.4596V15.6546H29.6995C33.8418 15.6546 36.4205 13.3395 36.4205 9.60894V9.5585C36.4205 5.91753 33.9345 3.66418 29.9198 3.66418ZM32.1845 9.82202C32.1863 10.148 32.1187 10.4706 31.9861 10.7684C31.8535 11.0661 31.659 11.3322 31.4155 11.5489C31.172 11.7656 30.8851 11.928 30.574 12.0251C30.2628 12.1223 29.9345 12.1521 29.611 12.1124H27.4596V7.47294H29.5873C31.2344 7.47294 32.1907 8.3119 32.1907 9.7757L32.1845 9.82202Z" fill="#2D3C4A"/>
<path d="M47.2167 3.66418H40.5256V20.5112H44.7565V15.6546H46.9964C51.1397 15.6546 53.7173 13.3395 53.7173 9.60894V9.5585C53.7173 5.91753 51.2313 3.66418 47.2167 3.66418ZM49.4814 9.82202C49.4832 10.148 49.4156 10.4706 49.283 10.7684C49.1504 11.0661 48.9558 11.3322 48.7123 11.5489C48.4689 11.7656 48.182 11.928 47.8708 12.0251C47.5597 12.1223 47.2314 12.1521 46.9079 12.1124H44.7565V7.47294H46.8842C48.5312 7.47294 49.4875 8.3119 49.4875 9.7757L49.4814 9.82202Z" fill="#2D3C4A"/>
<path d="M66.171 9.02128C62.8295 8.15762 62.1563 7.76953 62.1563 6.64338V6.59294C62.1563 5.66648 63.0704 5.06634 64.4714 5.06634C66.2549 5.17388 67.9626 5.8248 69.3652 6.93161L69.4908 7.01911L71.8439 3.60255L71.7318 3.51505C69.6888 1.8812 67.1417 1.0079 64.526 1.0445C60.4836 1.0445 57.6671 3.4852 57.6671 6.9769V7.02734C57.6671 11.0574 60.4712 12.0961 64.1379 13.0349C67.3671 13.8584 67.8931 14.3865 67.8931 15.3253V15.3757C67.8931 16.4144 66.9173 17.0228 65.2774 17.0228C63.185 16.9652 61.1843 16.1515 59.6456 14.7324L59.5334 14.6294L56.857 17.8339L56.9692 17.9369C59.239 19.9492 62.171 21.0542 65.2044 21.0405C69.6308 21.0405 72.3885 18.6996 72.3885 14.9454V14.9043C72.3669 11.3621 69.8881 9.99714 66.171 9.02128Z" fill="#2D3C4A"/>
<path d="M103.343 21.4614L98.2623 12.8629L96.7604 20.8232H93.0927L96.7985 3.07544L103.432 14.265L109.703 3.07544L113.457 20.8232H109.553L108.101 12.9762L103.343 21.4614Z" fill="#2D3C4A"/>
</svg>