<svg width="26" height="26" viewBox="0 0 26 26" fill="none" xmlns="http://www.w3.org/2000/svg">
<path d="M21.6901 26H4.30991C1.92959 26 0 24.0704 0 21.6901V4.30991C0 1.92959 1.92959 0 4.30991 0H21.6901C24.0704 0 26 1.92959 26 4.30991V21.6901C26 24.0704 24.0704 26 21.6901 26Z" fill="#00AEEF"/>
<path d="M13.3067 10.947C11.9539 10.947 10.7768 11.7079 10.184 12.825C9.59099 11.7079 8.41449 10.947 7.06086 10.947C6.29567 10.9462 5.55098 11.1943 4.93922 11.654V8.67587C4.93581 8.49074 4.85979 8.31435 4.72754 8.18475C4.5953 8.05514 4.41742 7.98269 4.23225 7.98301C3.84611 7.98301 3.53533 8.29105 3.52649 8.67587V14.5403H3.5272C3.55838 16.4658 5.12752 18.017 7.06086 18.017C8.41449 18.017 9.59099 17.2554 10.184 16.1394C10.7768 17.2554 11.9539 18.017 13.3067 18.017C15.2583 18.017 16.8414 16.4344 16.8414 14.4813C16.8414 12.5292 15.2583 10.947 13.3067 10.947ZM7.06086 16.6017C5.88975 16.6017 4.93922 15.653 4.93922 14.4818C4.93922 13.311 5.88975 12.3622 7.06086 12.3622C8.23188 12.3622 9.18037 13.311 9.18037 14.4813C9.18037 15.6527 8.23188 16.6017 7.06086 16.6017ZM13.3067 16.6017C12.1352 16.6017 11.1854 15.6527 11.1854 14.4813C11.1854 13.311 12.1352 12.3622 13.3067 12.3622C14.4776 12.3622 15.4269 13.311 15.4269 14.4813C15.4269 15.6527 14.4776 16.6017 13.3067 16.6017Z" fill="white"/>
<path d="M22.3265 16.8335L20.4052 14.4767L22.3289 12.1154C22.5721 11.8039 22.5023 11.3689 22.1666 11.1379C21.8304 10.9048 21.3587 10.9645 21.0986 11.2667V11.2663L19.4436 13.2947L17.79 11.2663V11.2667C17.5326 10.9645 17.058 10.9048 16.7228 11.1379C16.3877 11.3691 16.3176 11.8039 16.562 12.1154H16.5613L18.4817 14.4767L16.5613 16.8335H16.562C16.3176 17.146 16.3877 17.5796 16.7228 17.8116C17.058 18.0437 17.5326 17.9846 17.79 17.6819L19.4436 15.6564L21.0963 17.6819C21.3567 17.9846 21.8282 18.0437 22.1643 17.8116C22.5002 17.5796 22.5703 17.146 22.3265 16.8335Z" fill="white"/>
</svg>
