<svg width="24" height="24" viewBox="0 0 24 24" fill="none" xmlns="http://www.w3.org/2000/svg">
<path d="M18.08 20H5.28C4.575 20 4 19.425 4 18.72V7.20001C4 6.49501 4.575 5.92001 5.28 5.92001H18.08C18.785 5.92001 19.36 6.49501 19.36 7.20001V18.72C19.36 19.425 18.785 20 18.08 20Z" stroke="#627790" stroke-width="1.2"/>
<path d="M6.55981 4V7.84" stroke="#627790"/>
<path d="M16.7998 4V7.84" stroke="#627790"/>
<path d="M4 9.76001H19.36" stroke="#627790" stroke-width="1.2"/>
<path d="M8.48006 11.68H9.76006V12.96H8.48006V11.68Z" fill="#627790"/>
<path d="M11.04 11.68H12.32V12.96H11.04V11.68Z" fill="#627790"/>
<path d="M13.5999 11.68H14.8799V12.96H13.5999V11.68Z" fill="#627790"/>
<path d="M16.1602 11.68H17.4402V12.96H16.1602V11.68Z" fill="#627790"/>
<path d="M8.48006 14.24H9.76006V15.52H8.48006V14.24Z" fill="#627790"/>
<path d="M5.92017 14.24H7.20017V15.52H5.92017V14.24Z" fill="#627790"/>
<path d="M11.04 14.24H12.32V15.52H11.04V14.24Z" fill="#627790"/>
<path d="M13.5999 14.24H14.8799V15.52H13.5999V14.24Z" fill="#627790"/>
<path d="M8.48006 16.8H9.76006V18.08H8.48006V16.8Z" fill="#627790"/>
<path d="M5.92017 16.8H7.20017V18.08H5.92017V16.8Z" fill="#627790"/>
<path d="M11.04 16.8H12.32V18.08H11.04V16.8Z" fill="#627790"/>
<path d="M16.1602 14.24H17.4402V15.52H16.1602V14.24Z" fill="#627790"/>
</svg>
