
<svg xmlns="http://www.w3.org/2000/svg" width="107" height="106" viewBox="0 0 107 106" fill="none">
  <circle cx="53.404" cy="52.929" r="52.929" fill="#E8F7FF"/>
  <path stroke="#00A3FA" stroke-linecap="round" stroke-linejoin="round" stroke-miterlimit="10" stroke-width="2.8" d="M81 53.235c-7.67 0-10.226 12.55-14.122 12.55-1.339 0 .974-12.55-1.095-12.55-2.435 0-7.305 15.687-13.392 15.687-3.408 0-5.6-5.177-5.6-11.294 0-9.57 4.261-16.942 8.522-16.942 7.913 0-4.748 34.51-18.26 34.51C29.625 75.196 25 62.961 25 54.02 25 33.94 34.617 25 38.635 25c5.356 0 5.843 5.96 5.843 8.157C44.478 54.02 25 81 25 81"/>
</svg>
