
<svg xmlns="http://www.w3.org/2000/svg" width="107" height="106" viewBox="0 0 107 106" fill="none">
  <circle cx="53.404" cy="52.929" r="52.929" fill="#E8F7FF"/>
  <path stroke="#00A3FA" stroke-linecap="round" stroke-linejoin="round" stroke-width="2.8" d="M67.067 82C75.314 82 82 75.314 82 67.067c0-8.248-6.686-14.934-14.933-14.934-8.248 0-14.934 6.686-14.934 14.934C52.133 75.314 58.82 82 67.067 82Z"/>
  <path stroke="#00A3FA" stroke-linecap="round" stroke-linejoin="round" stroke-width="2.8" d="m73.722 62.726-7.23 9.64a1.87 1.87 0 0 1-2.815.201l-3.733-3.733M33.467 40.933H59.6m-26.133 11.2H48.4m-14.933 11.2H42.8m0 11.2H29.733A3.733 3.733 0 0 1 26 70.8V29.733A3.733 3.733 0 0 1 29.733 26h26.455c.99 0 1.938.393 2.638 1.093l7.148 7.148a3.73 3.73 0 0 1 1.093 2.638V42.8"/>
</svg>
