<svg width="15" height="16" viewBox="0 0 15 16" fill="none" xmlns="http://www.w3.org/2000/svg">
<path d="M13.0201 11.7894H6.90797L3.41536 14.4088V11.7894H1.66905C1.43748 11.7894 1.21539 11.6974 1.05164 11.5336C0.887891 11.3699 0.795898 11.1478 0.795898 10.9162V2.18469C0.795898 1.95312 0.887891 1.73103 1.05164 1.56728C1.21539 1.40353 1.43748 1.31154 1.66905 1.31154H13.0201C13.2516 1.31154 13.4737 1.40353 13.6375 1.56728C13.8012 1.73103 13.8932 1.95312 13.8932 2.18469V10.9162C13.8932 11.1478 13.8012 11.3699 13.6375 11.5336C13.4737 11.6974 13.2516 11.7894 13.0201 11.7894Z" stroke="#627790" stroke-width="1.3" stroke-linecap="round" stroke-linejoin="round"/>
<path d="M3.41528 5.24074H11.2737" stroke="#627790" stroke-width="1.3" stroke-linecap="round" stroke-linejoin="round"/>
<path d="M3.41528 7.8602H9.52736" stroke="#627790" stroke-width="1.3" stroke-linecap="round" stroke-linejoin="round"/>
</svg>
