
<svg width="16" height="18" viewBox="0 0 33 36" fill="none" xmlns="http://www.w3.org/2000/svg">
<path d="M1.83838 34.8234V32.7243C1.83838 30.7947 2.21845 28.8839 2.95688 27.1012C3.69532 25.3185 4.77766 23.6986 6.14212 22.3342C7.50657 20.9697 9.12641 19.8874 10.9092 19.1489C12.6919 18.4105 14.6026 18.0304 16.5323 18.0304M16.5323 18.0304C18.4619 18.0304 20.3726 18.4105 22.1554 19.1489C23.9381 19.8874 25.5579 20.9697 26.9224 22.3342C28.2869 23.6986 29.3692 25.3185 30.1076 27.1012C30.8461 28.8839 31.2261 30.7947 31.2261 32.7243V34.8234M16.5323 18.0304C18.7592 18.0304 20.8946 17.1458 22.4693 15.5711C24.0439 13.9965 24.9286 11.8608 24.9286 9.63391C24.9286 7.40702 24.0439 5.27133 22.4693 3.69668C20.8946 2.12203 18.759 1.2374 16.5321 1.2374C14.3052 1.2374 12.1695 2.12203 10.5948 3.69668C9.02019 5.27133 8.13556 7.40702 8.13556 9.63391C8.13556 11.8608 9.02019 13.9965 10.5948 15.5711C12.1695 17.1458 14.3054 18.0304 16.5323 18.0304Z" stroke="white" stroke-width="2" stroke-linecap="round" stroke-linejoin="round"/>
</svg>
