<svg width="36" height="36" viewBox="0 0 36 36" fill="none" xmlns="http://www.w3.org/2000/svg">
<g clip-path="url(#clip0_484_782)">
<path d="M33.2018 14.1831C33.8536 13.5476 34.0838 12.6151 33.8025 11.7493C33.5212 10.8836 32.7869 10.2645 31.886 10.1336L24.0089 8.989C23.8543 8.96657 23.7206 8.86946 23.6514 8.72926L20.1287 1.59149C19.7259 0.77516 18.9101 0.268066 17.9998 0.268066C17.0895 0.268066 16.2737 0.77516 15.8709 1.59149L12.3481 8.72933C12.2789 8.86946 12.1453 8.96657 11.9906 8.98907L4.11363 10.1336C3.21279 10.2645 2.47851 10.8836 2.19712 11.7493C1.91573 12.6151 2.14593 13.5476 2.79787 14.1831L8.49775 19.7391C8.60962 19.8482 8.66074 20.0053 8.6343 20.1594L7.28873 28.0046C7.13489 28.9018 7.49671 29.7915 8.23317 30.3266C8.96962 30.8618 9.92784 30.9309 10.7335 30.5074L17.7789 26.8034C17.9172 26.7307 18.0824 26.7307 18.2208 26.8034L25.2663 30.5074C25.6167 30.6917 25.9959 30.7827 26.3733 30.7826C26.8634 30.7826 27.3504 30.6291 27.7664 30.3265C28.5029 29.7914 28.8648 28.9016 28.7108 28.0045L27.3653 20.1593C27.3389 20.0053 27.3899 19.8481 27.5018 19.739L33.2018 14.1831ZM25.4935 20.4805L26.8391 28.3258C26.8841 28.5884 26.722 28.7381 26.6502 28.7902C26.5783 28.8422 26.3858 28.9503 26.1501 28.8263L19.1047 25.1223C18.7588 24.9405 18.3794 24.8495 17.9999 24.8495C17.6204 24.8495 17.241 24.9405 16.8952 25.1222L9.84979 28.8261C9.61397 28.9501 9.42152 28.8422 9.34973 28.7901C9.27794 28.7379 9.1158 28.5883 9.16087 28.3257L10.5064 20.4805C10.6386 19.7102 10.3834 18.9247 9.82364 18.3792L4.12375 12.8231C3.933 12.6371 3.97617 12.4207 4.00366 12.3364C4.03101 12.2519 4.12333 12.0515 4.38693 12.0132L12.2638 10.8686C13.0372 10.7562 13.7055 10.2708 14.0515 9.56985L17.5742 2.432C17.6921 2.19315 17.9112 2.16735 18 2.16735C18.0887 2.16735 18.3078 2.19308 18.4257 2.432V2.43207L21.9485 9.56992C22.2943 10.2709 22.9626 10.7563 23.736 10.8687L31.613 12.0133C31.8766 12.0515 31.9688 12.252 31.9963 12.3364C32.0237 12.4209 32.0669 12.6373 31.8761 12.8232L26.1762 18.3792C25.6165 18.9247 25.3614 19.7102 25.4935 20.4805Z" fill="#00A2FA"/>
<path d="M29.0941 1.59059C28.6697 1.28234 28.0759 1.37642 27.7676 1.80068L26.7596 3.18809C26.4513 3.61235 26.5453 4.20628 26.9696 4.51453C27.1383 4.63695 27.3336 4.69594 27.5271 4.69594C27.8208 4.69594 28.1103 4.56017 28.2961 4.30451L29.3042 2.9171C29.6124 2.49277 29.5184 1.89884 29.0941 1.59059Z" fill="#00A2FA"/>
<path d="M9.23578 3.18262L8.22771 1.79521C7.91953 1.37108 7.32567 1.27701 6.90127 1.58512C6.477 1.89337 6.38292 2.4873 6.69117 2.91156L7.69924 4.29897C7.88508 4.55483 8.17463 4.69054 8.46839 4.69054C8.66196 4.69054 8.85729 4.63155 9.02576 4.50906C9.45003 4.20088 9.5441 3.60695 9.23578 3.18262Z" fill="#00A2FA"/>
<path d="M3.48411 21.5739C3.32204 21.0752 2.78633 20.8021 2.28746 20.9642L0.656423 21.4942C0.157556 21.6563 -0.115327 22.1921 0.0467436 22.6909C0.177103 23.0923 0.549408 23.3474 0.949697 23.3474C1.04694 23.3474 1.14587 23.3323 1.24339 23.3006L2.87443 22.7705C3.37323 22.6085 3.64618 22.0728 3.48411 21.5739Z" fill="#00A2FA"/>
<path d="M18.0004 32.1177C17.476 32.1177 17.0508 32.5429 17.0508 33.0673V34.7824C17.0508 35.3068 17.476 35.732 18.0004 35.732C18.5249 35.732 18.9501 35.3068 18.9501 34.7824V33.0673C18.9501 32.5428 18.525 32.1177 18.0004 32.1177Z" fill="#00A2FA"/>
<path d="M35.3432 21.4956L33.7121 20.9656C33.2135 20.8037 32.6776 21.0765 32.5155 21.5754C32.3534 22.0742 32.6263 22.61 33.1252 22.772L34.7562 23.302C34.8537 23.3337 34.9526 23.3487 35.0498 23.3487C35.4502 23.3487 35.8225 23.0936 35.9529 22.6922C36.1149 22.1934 35.842 21.6577 35.3432 21.4956Z" fill="#00A2FA"/>
</g>
<defs>
<clipPath id="clip0_484_782">
<rect width="36" height="36" fill="white"/>
</clipPath>
</defs>
</svg>
