<svg width="51" height="42" viewBox="0 0 51 42" fill="none" xmlns="http://www.w3.org/2000/svg">
<path d="M25.75 22.905C23.5977 18.959 19.4785 16.25 14.6667 16.25C7.66537 16.25 2 21.9154 2 28.9167" stroke="#00A3FA" stroke-width="3"/>
<path d="M21 8.33333C21 11.834 18.1673 14.6667 14.6667 14.6667C11.166 14.6667 8.33333 11.834 8.33333 8.33333C8.33333 4.83268 11.166 2 14.6667 2C18.1673 2 21 4.83268 21 8.33333Z" stroke="#00A3FA" stroke-width="3 "/>
<path d="M43.1667 8.33333C43.1667 11.834 40.334 14.6667 36.8333 14.6667C33.3327 14.6667 30.5 11.834 30.5 8.33333C30.5 4.83268 33.3327 2 36.8333 2C40.334 2 43.1667 4.83268 43.1667 8.33333Z" stroke="#00A3FA" stroke-width="3"/>
<path d="M49.5 27.3333C49.5 34.3346 43.8346 40 36.8333 40C29.832 40 24.1667 34.3346 24.1667 27.3333C24.1667 20.332 29.832 14.6666 36.8333 14.6666C43.8346 14.6666 49.5 20.332 49.5 27.3333Z" stroke="#00A3FA" stroke-width="3"/>
<path d="M36.8333 19.4166V35.25" stroke="#00A3FA" stroke-width="3"/>
<path d="M28.9167 27.3334H44.75" stroke="#00A3FA" stroke-width="3"/>
</svg>
