<svg width="14" height="16" viewBox="0 0 14 16" fill="none" xmlns="http://www.w3.org/2000/svg">
<path d="M3 3.54541V2.94541C2.66863 2.94541 2.4 3.21404 2.4 3.54541H3ZM11 3.54541H11.6C11.6 3.21404 11.3314 2.94541 11 2.94541V3.54541ZM11 4.5V5.1C11.3314 5.1 11.6 4.83137 11.6 4.5H11ZM3 4.5H2.4C2.4 4.83137 2.66863 5.1 3 5.1V4.5ZM3 7.36365V6.76365C2.66863 6.76365 2.4 7.03228 2.4 7.36365H3ZM6 7.36365H6.6C6.6 7.03228 6.33137 6.76365 6 6.76365V7.36365ZM6 12.4546V13.0546C6.33137 13.0546 6.6 12.7859 6.6 12.4546H6ZM3 12.4546H2.4C2.4 12.7859 2.66863 13.0546 3 13.0546V12.4546ZM8 7.36365V6.76365C7.66863 6.76365 7.4 7.03228 7.4 7.36365H8ZM11 7.36365H11.6C11.6 7.03228 11.3314 6.76365 11 6.76365V7.36365ZM11 12.4546V13.0546C11.3314 13.0546 11.6 12.7859 11.6 12.4546H11ZM8 12.4546H7.4C7.4 12.7859 7.66863 13.0546 8 13.0546V12.4546ZM1.6 13.7273V2.27273H0.4V13.7273H1.6ZM1.6 2.27273C1.6 2.04181 1.67217 1.85358 1.76132 1.73599C1.85051 1.61835 1.92868 1.6 1.96484 1.6V0.4C1.46976 0.4 1.0655 0.667516 0.805088 1.01099C0.54463 1.35452 0.4 1.80265 0.4 2.27273H1.6ZM1.96484 1.6H12.0352V0.4H1.96484V1.6ZM12.0352 1.6C12.0713 1.6 12.1495 1.61835 12.2387 1.73599C12.3278 1.85358 12.4 2.04181 12.4 2.27273H13.6C13.6 1.80265 13.4554 1.35452 13.1949 1.01099C12.9345 0.667516 12.5302 0.4 12.0352 0.4V1.6ZM12.4 2.27273V13.7273H13.6V2.27273H12.4ZM12.4 13.7273C12.4 13.9595 12.3281 14.1477 12.2397 14.2647C12.1518 14.3809 12.0741 14.4 12.0352 14.4V15.6C12.5314 15.6 12.9361 15.3332 13.1969 14.9884C13.4571 14.6442 13.6 14.1961 13.6 13.7273H12.4ZM12.0352 14.4H1.96484V15.6H12.0352V14.4ZM1.96484 14.4C1.92868 14.4 1.85051 14.3817 1.76132 14.264C1.67217 14.1464 1.6 13.9582 1.6 13.7273H0.4C0.4 14.1974 0.54463 14.6455 0.805088 14.989C1.06551 15.3325 1.46976 15.6 1.96484 15.6V14.4ZM3 4.14541H11V2.94541H3V4.14541ZM10.4 3.54541V4.5H11.6V3.54541H10.4ZM3.6 4.5V3.54541H2.4V4.5H3.6ZM3 7.96365H6V6.76365H3V7.96365ZM5.4 7.36365V12.4546H6.6V7.36365H5.4ZM6 11.8546H3V13.0546H6V11.8546ZM3.6 12.4546V7.36365H2.4V12.4546H3.6ZM8 7.96365H11V6.76365H8V7.96365ZM10.4 7.36365V12.4546H11.6V7.36365H10.4ZM11 11.8546H8V13.0546H11V11.8546ZM8.6 12.4546V7.36365H7.4V12.4546H8.6ZM11 3.9H7V5.1H11V3.9ZM7 3.9H3V5.1H7V3.9Z" fill="#627790"/>
</svg>
