
<svg width="30" height="36" viewBox="0 0 30 36" fill="none" xmlns="http://www.w3.org/2000/svg">
<path d="M23.1973 15.6992H9.91902V9.62409C9.91902 8.73035 10.2716 7.89209 10.912 7.26391C11.552 6.63602 12.3965 6.3033 13.2917 6.31645C15.0805 6.35034 16.5356 7.86586 16.5356 9.69469V10.1955C16.5356 11.9368 17.9523 13.3534 19.6935 13.3534C21.4348 13.3534 22.8514 11.9367 22.8514 10.1955V9.62409C22.8514 7.03948 21.8374 4.6118 19.9963 2.78845C18.1783 0.987961 15.7782 0 13.2284 0C13.1966 0 13.1644 0.000210938 13.1325 0.000421875C7.87813 0.0513281 3.6032 4.41844 3.6032 9.73526V15.6992H3.25734C1.54101 15.6992 0.144531 17.0956 0.144531 18.812V32.8872C0.144602 34.6036 1.54101 36 3.25741 36H23.1973C24.9136 36 26.3101 34.6036 26.3101 32.8872V18.812C26.31 17.0956 24.9136 15.6992 23.1973 15.6992ZM5.4077 9.73526C5.4077 5.4038 8.88086 1.8462 13.15 1.80478C13.176 1.80457 13.2018 1.80443 13.2278 1.80443C15.2989 1.80443 17.249 2.60747 18.7264 4.07053C20.2228 5.55237 21.0467 7.52463 21.0467 9.62402V10.1955C21.0467 10.9418 20.4396 11.5489 19.6934 11.5489C18.9471 11.5489 18.34 10.9418 18.34 10.1955V9.69469C18.34 6.8895 16.0906 4.56476 13.3258 4.5123C11.9403 4.48566 10.6366 5.00583 9.64811 5.97586C8.65916 6.94631 8.11445 8.24189 8.11445 9.62424V15.6993H5.4077V9.73526ZM24.5055 32.8872C24.5055 33.6085 23.9186 34.1955 23.1972 34.1955H3.25741C2.53607 34.1955 1.9491 33.6086 1.9491 32.8872V18.812C1.9491 18.0907 2.536 17.5037 3.25741 17.5037H23.1973C23.9186 17.5037 24.5056 18.0906 24.5056 18.812V32.8872H24.5055Z" fill="#00A2FA"/>
<path d="M13.2274 19.2783C11.0052 19.2783 9.19727 21.0862 9.19727 23.3084C9.19727 24.4495 9.6846 25.5336 10.5206 26.2928V31.5189C10.5206 32.0171 10.9246 32.4211 11.4229 32.4211H15.0319C15.5302 32.4211 15.9341 32.0171 15.9341 31.5189V26.2928C16.7701 25.5336 17.2575 24.4495 17.2575 23.3084C17.2574 21.0862 15.4495 19.2783 13.2274 19.2783ZM14.5106 25.126C14.2716 25.2952 14.1296 25.5697 14.1296 25.8625V30.6166H12.3251V25.8625C12.3251 25.5697 12.1831 25.2952 11.9442 25.126C11.3541 24.7083 11.0018 24.0288 11.0018 23.3083C11.0018 22.0811 12.0002 21.0828 13.2274 21.0828C14.4547 21.0828 15.453 22.0811 15.453 23.3083C15.4529 24.0288 15.1006 24.7083 14.5106 25.126Z" fill="#00A2FA"/>
<path d="M29.4045 15.2111L26.253 13.3915C25.8215 13.1424 25.2697 13.2902 25.0205 13.7218C24.7713 14.1534 24.9191 14.705 25.3507 14.9543L28.5023 16.7738C28.6444 16.8558 28.7995 16.8949 28.9526 16.8949C29.2644 16.8949 29.5676 16.7331 29.7347 16.4436C29.984 16.012 29.836 15.4603 29.4045 15.2111Z" fill="#00A2FA"/>
<path d="M25.8027 11.4662C25.9557 11.4662 26.1109 11.4271 26.253 11.3451L29.4045 9.52565C29.8361 9.27653 29.984 8.72472 29.7348 8.29314C29.4857 7.86156 28.9338 7.71362 28.5023 7.96288L25.3507 9.78236C24.9191 10.0315 24.7713 10.5833 25.0205 11.0149C25.1876 11.3043 25.4909 11.4662 25.8027 11.4662Z" fill="#00A2FA"/>
</svg>
