<svg width="19" height="18" viewBox="0 0 19 18" fill="none" xmlns="http://www.w3.org/2000/svg">
<path d="M5.33333 13.6667V13.0667H4.73333V13.6667H5.33333ZM8 13.6667H8.6V13.0667H8V13.6667ZM8 17V17.6H8.6V17H8ZM5.33333 17H4.73333V17.6H5.33333V17ZM12.6667 6.93333H17.6667V5.73333H12.6667V6.93333ZM17.6667 6.93333C17.5176 6.93333 17.4 6.81574 17.4 6.66666H18.6C18.6 6.153 18.1803 5.73333 17.6667 5.73333V6.93333ZM17.4 6.66666V17H18.6V6.66666H17.4ZM5.33333 14.2667H8V13.0667H5.33333V14.2667ZM7.4 13.6667V17H8.6V13.6667H7.4ZM8 16.4H5.33333V17.6H8V16.4ZM5.93333 17V13.6667H4.73333V17H5.93333ZM1.26667 17V2.33333H0.066666V17H1.26667ZM1.26667 2.33333C1.26667 1.93033 1.597 1.6 2 1.6V0.4C0.934254 0.4 0.066666 1.26759 0.066666 2.33333H1.26667ZM2 1.6H11.3333V0.4H2V1.6ZM11.3333 1.6C11.7363 1.6 12.0667 1.93033 12.0667 2.33333H13.2667C13.2667 1.26759 12.3991 0.4 11.3333 0.4V1.6ZM12.0667 2.33333V17H13.2667V2.33333H12.0667ZM0 17.6H18.5818V16.4H0V17.6ZM14.6667 9.6H16V8.4H14.6667V9.6ZM14.6667 12.2667H16V11.0667H14.6667V12.2667ZM14.6667 14.9333H16V13.7333H14.6667V14.9333ZM9.33333 4.26667H10.6667V3.06667H9.33333V4.26667ZM9.33333 6.93333H10.6667V5.73333H9.33333V6.93333ZM9.33333 9.6H10.6667V8.4H9.33333V9.6ZM9.33333 12.2667H10.6667V11.0667H9.33333V12.2667ZM9.33333 14.9333H10.6667V13.7333H9.33333V14.9333ZM2.66667 4.26667H4V3.06667H2.66667V4.26667ZM2.66667 6.93333H4V5.73333H2.66667V6.93333ZM2.66667 9.6H4V8.4H2.66667V9.6ZM2.66667 12.2667H4V11.0667H2.66667V12.2667ZM5.33333 4.26667H8V3.06667H5.33333V4.26667ZM5.33333 6.93333H8V5.73333H5.33333V6.93333ZM5.33333 9.6H8V8.4H5.33333V9.6ZM5.33333 12.2667H8V11.0667H5.33333V12.2667ZM2.66667 14.9333H4V13.7333H2.66667V14.9333Z" fill="#7D8D98"/>
</svg>
