<svg width="16" height="10" viewBox="0 0 16 10" fill="none" xmlns="http://www.w3.org/2000/svg">
<path d="M5.14049 1.77761C4.89182 1.77761 4.57904 1.75235 4.20215 1.70184L3.2638 1.57945C3.17444 2.71012 3.12975 3.79029 3.12975 4.81994C3.12975 5.09192 3.13753 5.42802 3.15307 5.82822C3.16861 6.22843 3.17638 6.56452 3.17638 6.8365C3.17638 7.20174 3.16278 7.53395 3.13558 7.83313L4.97147 7.80982C5.13466 7.80982 5.27065 7.8681 5.37945 7.98466C5.49213 8.09734 5.54847 8.23722 5.54847 8.40429C5.54847 8.57526 5.49213 8.71902 5.37945 8.83558C5.27065 8.94826 5.13466 9.0046 4.97147 9.0046C4.75389 9.0046 4.42751 9.01043 3.99233 9.02209C3.55716 9.02986 3.23078 9.03374 3.01319 9.03374C2.75675 9.03374 2.37209 9.06871 1.8592 9.13865C1.3502 9.21247 0.965542 9.24939 0.705215 9.24939C0.542025 9.24939 0.40409 9.1911 0.291411 9.07454C0.182618 8.96186 0.128221 8.82198 0.128221 8.65491C0.128221 8.48783 0.182618 8.34601 0.291411 8.22945C0.40409 8.11288 0.542025 8.0546 0.705215 8.0546C0.957771 8.0546 1.37546 8.0138 1.95828 7.93221C1.99714 7.61748 2.01656 7.25808 2.01656 6.85399C2.01656 6.58589 2.00297 6.25951 1.97577 5.87485C1.95245 5.4863 1.9408 5.15992 1.9408 4.89571C1.9408 3.99816 1.99519 2.8772 2.10399 1.53282L1.34632 1.55613L0.58865 1.57362C0.421575 1.57362 0.281697 1.51728 0.169018 1.4046C0.0563395 1.29192 0 1.14816 0 0.973313C0 0.611963 0.182618 0.413804 0.547853 0.378834C0.862577 0.347751 1.45123 0.332209 2.3138 0.332209C3.08701 0.332209 4.05644 0.415746 5.22209 0.582822C5.56789 0.633333 5.7408 0.841207 5.7408 1.20644C5.7408 1.38906 5.67474 1.53476 5.54264 1.64356C5.42607 1.73292 5.29202 1.77761 5.14049 1.77761Z" fill="#8698A5"/>
<path d="M15.0718 7.74571C15.0718 7.93221 15.0407 8.24305 14.9785 8.67822C14.9164 9.07065 14.7085 9.26687 14.3549 9.26687C14.1412 9.26687 13.8867 9.12699 13.5914 8.84724C12.01 7.35133 10.1955 5.19295 8.14785 2.37209L8.11871 3.69509L8.10123 5.02393C8.10123 5.34642 8.10706 5.83016 8.11871 6.47515C8.13425 7.12014 8.14202 7.60583 8.14202 7.93221C8.14202 8.9774 7.93998 9.5 7.53589 9.5C7.32219 9.5 7.15317 9.432 7.02883 9.29601C6.91616 9.17556 6.85982 9.0318 6.85982 8.86472C6.85982 8.70153 6.87147 8.45481 6.89479 8.12454C6.92198 7.79427 6.93558 7.54755 6.93558 7.38436C6.93558 7.14346 6.94335 6.78405 6.9589 6.30614C6.97444 5.82434 6.98221 5.46299 6.98221 5.22209C6.98221 4.96564 6.97638 4.57904 6.96472 4.06227C6.95307 3.54162 6.94724 3.15307 6.94724 2.89663C6.94724 2.65184 6.92393 2.28855 6.8773 1.80675C6.83068 1.32106 6.80736 0.955828 6.80736 0.711043C6.80736 0.532311 6.88313 0.369121 7.03466 0.221472C7.19008 0.0738241 7.36493 0 7.5592 0C7.76513 0 8.01963 0.225358 8.3227 0.676074C9.29018 2.12536 10.1605 3.32986 10.9337 4.28957C11.8546 5.42802 12.8648 6.51595 13.9644 7.55337C13.9761 7.3863 13.9761 7.13957 13.9644 6.81319L13.9469 6.07883C13.9469 4.37311 13.8809 3.01513 13.7488 2.00491C13.7332 1.90389 13.6808 1.6999 13.5914 1.39294C13.5137 1.12873 13.4748 0.922802 13.4748 0.775153C13.4748 0.324438 13.6808 0.0990798 14.0926 0.0990798C14.7687 0.0990798 15.1067 1.35992 15.1067 3.8816C15.1067 4.31288 15.1009 4.95787 15.0893 5.81656C15.0776 6.67137 15.0718 7.31442 15.0718 7.74571Z" fill="#8698A5"/>
</svg>
