<svg width="11" height="12" viewBox="0 0 11 12" fill="none" xmlns="http://www.w3.org/2000/svg">
<path d="M7.8999 5.16667V5.76667H9.0999V5.16667H7.8999ZM2.06656 5.16667V5.76667H3.26656V5.16667H2.06656ZM9.33333 4.56669H1.83333V5.76669H9.33333V4.56669ZM1.83333 4.56669C1.04298 4.56669 0.4 5.20967 0.4 6.00002H1.6C1.6 5.87241 1.70572 5.76669 1.83333 5.76669V4.56669ZM0.4 6.00002V10.1667H1.6V6.00002H0.4ZM0.4 10.1667C0.4 10.957 1.04298 11.6 1.83333 11.6V10.4C1.70572 10.4 1.6 10.2943 1.6 10.1667H0.4ZM1.83333 11.6H9.33333V10.4H1.83333V11.6ZM9.33333 11.6C10.1237 11.6 10.7667 10.957 10.7667 10.1667H9.56667C9.56667 10.2943 9.46095 10.4 9.33333 10.4V11.6ZM10.7667 10.1667V6.00002H9.56667V10.1667H10.7667ZM10.7667 6.00002C10.7667 5.20967 10.1237 4.56669 9.33333 4.56669V5.76669C9.46095 5.76669 9.56667 5.87241 9.56667 6.00002H10.7667ZM9.0999 5.16667V3.91667H7.8999V5.16667H9.0999ZM9.0999 3.91667C9.0999 1.97397 7.52593 0.4 5.58323 0.4V1.6C6.86319 1.6 7.8999 2.63671 7.8999 3.91667H9.0999ZM5.58323 0.4C3.64053 0.4 2.06656 1.97397 2.06656 3.91667H3.26656C3.26656 2.63671 4.30327 1.6 5.58323 1.6V0.4ZM2.06656 3.91667V5.16667H3.26656V3.91667H2.06656Z" fill="white"/>
</svg>
