<svg width="13" height="15" viewBox="0 0 13 15" fill="none" xmlns="http://www.w3.org/2000/svg">
<path d="M2.29433 14.7067C1.81365 14.7063 1.35279 14.5152 1.0129 14.1753C0.673009 13.8354 0.481872 13.3745 0.481445 12.8939V2.01656C0.481872 1.53588 0.673009 1.07502 1.0129 0.735127C1.35279 0.395238 1.81365 0.204101 2.29433 0.203674H3.50292C3.9836 0.204101 4.44446 0.395238 4.78435 0.735127C5.12424 1.07502 5.31538 1.53588 5.3158 2.01656V12.8939C5.31538 13.3745 5.12424 13.8354 4.78435 14.1753C4.44446 14.5152 3.9836 14.7063 3.50292 14.7067H2.29433ZM2.29433 1.41226C2.13406 1.41226 1.98036 1.47593 1.86703 1.58926C1.7537 1.70258 1.69003 1.85629 1.69003 2.01656V12.8939C1.69003 13.2274 1.96076 13.4982 2.29433 13.4982H3.50292C3.66319 13.4982 3.81689 13.4345 3.93022 13.3212C4.04355 13.2078 4.10721 13.0541 4.10721 12.8939V2.01656C4.10721 1.85629 4.04355 1.70258 3.93022 1.58926C3.81689 1.47593 3.66319 1.41226 3.50292 1.41226H2.29433Z" fill="#00A3FA"/>
<path d="M9.54579 14.7067C9.06512 14.7063 8.60425 14.5152 8.26436 14.1753C7.92447 13.8354 7.73334 13.3745 7.73291 12.8939V2.01656C7.73334 1.53588 7.92447 1.07502 8.26436 0.735127C8.60425 0.395238 9.06512 0.204101 9.54579 0.203674H10.7544C11.2351 0.204101 11.6959 0.395238 12.0358 0.735127C12.3757 1.07502 12.5668 1.53588 12.5673 2.01656V12.8939C12.5668 13.3745 12.3757 13.8354 12.0358 14.1753C11.6959 14.5152 11.2351 14.7063 10.7544 14.7067H9.54579ZM9.54579 1.41226C9.38553 1.41226 9.23182 1.47593 9.11849 1.58926C9.00517 1.70258 8.9415 1.85629 8.9415 2.01656V12.8939C8.9415 13.2274 9.21222 13.4982 9.54579 13.4982H10.7544C10.9147 13.4982 11.0684 13.4345 11.1817 13.3212C11.295 13.2078 11.3587 13.0541 11.3587 12.8939V2.01656C11.3587 1.85629 11.295 1.70258 11.1817 1.58926C11.0684 1.47593 10.9147 1.41226 10.7544 1.41226H9.54579Z" fill="#00A3FA"/>
</svg>
