<svg width="14" height="16" viewBox="0 0 14 16" fill="none" xmlns="http://www.w3.org/2000/svg">
<path d="M4.08337 1V0.4C3.752 0.4 3.48337 0.668629 3.48337 1L4.08337 1ZM6.41671 1H7.01671C7.01671 0.668629 6.74808 0.4 6.41671 0.4V1ZM6.41671 3.33333V3.93333C6.74808 3.93333 7.01671 3.6647 7.01671 3.33333H6.41671ZM4.08337 3.33333H3.48337C3.48337 3.6647 3.752 3.93333 4.08337 3.93333V3.33333ZM8.75 6.83333V6.23333C8.41863 6.23333 8.15 6.50196 8.15 6.83333H8.75ZM11.0833 6.83333H11.6833C11.6833 6.50196 11.4147 6.23333 11.0833 6.23333V6.83333ZM11.0833 9.16666V9.76666C11.4147 9.76666 11.6833 9.49803 11.6833 9.16666H11.0833ZM8.75 9.16666H8.15C8.15 9.49803 8.41863 9.76666 8.75 9.76666V9.16666ZM1.75 12.6667V12.0667C1.41863 12.0667 1.15 12.3353 1.15 12.6667H1.75ZM4.08333 12.6667H4.68333C4.68333 12.3353 4.4147 12.0667 4.08333 12.0667V12.6667ZM4.08333 15V15.6C4.4147 15.6 4.68333 15.3314 4.68333 15H4.08333ZM1.75 15H1.15C1.15 15.3314 1.41863 15.6 1.75 15.6V15ZM0 2.76667H4.66667V1.56667H0V2.76667ZM5.83337 2.76667H14V1.56667H5.83337V2.76667ZM0 8.6H8.75V7.4H0V8.6ZM11.2291 8.6H14V7.4H11.2291V8.6ZM0 14.4333H1.75V13.2333H0V14.4333ZM4.22913 14.4333H14V13.2333H4.22913V14.4333ZM4.08337 1.6H6.41671V0.4H4.08337V1.6ZM5.81671 1V3.33333H7.01671V1H5.81671ZM6.41671 2.73333H4.08337V3.93333H6.41671V2.73333ZM4.68337 3.33333V1H3.48337V3.33333H4.68337ZM8.75 7.43333H11.0833V6.23333H8.75V7.43333ZM10.4833 6.83333V9.16666H11.6833V6.83333H10.4833ZM11.0833 8.56666H8.75V9.76666H11.0833V8.56666ZM9.35 9.16666V6.83333H8.15V9.16666H9.35ZM1.75 13.2667H4.08333V12.0667H1.75V13.2667ZM3.48333 12.6667V15H4.68333V12.6667H3.48333ZM4.08333 14.4H1.75V15.6H4.08333V14.4ZM2.35 15V12.6667H1.15V15H2.35Z" fill="#627790"/>
</svg>
