<svg width="65" height="65" viewBox="0 0 65 65" fill="none" xmlns="http://www.w3.org/2000/svg">
<rect x="0.268555" y="0.401299" width="64" height="64" rx="19.1837" fill="#E8F7FF"/>
<path d="M18.9079 32.8953C21.3239 32.8953 23.2825 30.9367 23.2825 28.5206C23.2825 26.1046 21.3239 24.146 18.9079 24.146C16.4918 24.146 14.5332 26.1046 14.5332 28.5206C14.5332 30.9367 16.4918 32.8953 18.9079 32.8953Z" stroke="#00A3FA" stroke-width="1.79847" stroke-linecap="round" stroke-linejoin="round"/>
<path d="M18.9075 35.8118C16.587 35.8118 14.3616 36.7336 12.7208 38.3744C11.08 40.0153 10.1582 42.2407 10.1582 44.5611H15.1838" stroke="#00A3FA" stroke-width="1.79847" stroke-linecap="round" stroke-linejoin="round"/>
<path d="M45.5863 32.8953C43.1702 32.8953 41.2116 30.9367 41.2116 28.5206C41.2116 26.1046 43.1702 24.146 45.5863 24.146C48.0023 24.146 49.9609 26.1046 49.9609 28.5206C49.9609 30.9367 48.0023 32.8953 45.5863 32.8953Z" stroke="#00A3FA" stroke-width="1.79847" stroke-linecap="round" stroke-linejoin="round"/>
<path d="M45.5866 35.8118C47.9071 35.8118 50.1325 36.7336 51.7733 38.3744C53.4141 40.0153 54.3359 42.2407 54.3359 44.5611H49.3103" stroke="#00A3FA" stroke-width="1.79847" stroke-linecap="round" stroke-linejoin="round"/>
<path d="M32.2963 28.9935C35.5325 28.9935 38.156 26.37 38.156 23.1338C38.156 19.8975 35.5325 17.274 32.2963 17.274C29.06 17.274 26.4365 19.8975 26.4365 23.1338C26.4365 26.37 29.06 28.9935 32.2963 28.9935Z" stroke="#00A3FA" stroke-width="1.79847" stroke-linecap="round" stroke-linejoin="round"/>
<path d="M20.5762 44.6194C20.5762 41.5112 21.8109 38.5303 24.0087 36.3325C26.2066 34.1347 29.1875 32.8999 32.2957 32.8999C35.4039 32.8999 38.3848 34.1347 40.5826 36.3325C42.7805 38.5303 44.0152 41.5112 44.0152 44.6194H20.5762Z" stroke="#00A3FA" stroke-width="1.79847" stroke-linecap="round" stroke-linejoin="round"/>
</svg>
